<svg width="40" height="40" viewBox="0 0 40 40" fill="none" xmlns="http://www.w3.org/2000/svg">
<rect width="40" height="40" rx="20" fill="#FFF3E9"/>
<path d="M26.3534 16.7667C26.252 16.7082 26.1371 16.6774 26.02 16.6774C25.903 16.6774 25.7881 16.7082 25.6867 16.7667L23.3334 17.9267C23.3144 17.409 23.0953 16.919 22.7223 16.5596C22.3492 16.2003 21.8513 15.9997 21.3334 16H15.3334C14.8029 16 14.2942 16.2107 13.9192 16.5858C13.5441 16.9609 13.3334 17.4696 13.3334 18V22C13.3334 22.5304 13.5441 23.0391 13.9192 23.4142C14.2942 23.7893 14.8029 24 15.3334 24H21.3334C21.8513 24.0003 22.3492 23.7997 22.7223 23.4404C23.0953 23.081 23.3144 22.591 23.3334 22.0733L25.7067 23.26C25.7976 23.3066 25.8979 23.3317 26 23.3333C26.1249 23.3337 26.2473 23.2991 26.3534 23.2333C26.4495 23.1733 26.5286 23.0897 26.5835 22.9906C26.6383 22.8914 26.6669 22.78 26.6667 22.6667V17.3333C26.6669 17.22 26.6383 17.1086 26.5835 17.0094C26.5286 16.9103 26.4495 16.8267 26.3534 16.7667ZM22 22C22 22.1768 21.9298 22.3464 21.8048 22.4714C21.6798 22.5964 21.5102 22.6667 21.3334 22.6667H15.3334C15.1566 22.6667 14.987 22.5964 14.862 22.4714C14.7369 22.3464 14.6667 22.1768 14.6667 22V18C14.6667 17.8232 14.7369 17.6536 14.862 17.5286C14.987 17.4036 15.1566 17.3333 15.3334 17.3333H21.3334C21.5102 17.3333 21.6798 17.4036 21.8048 17.5286C21.9298 17.6536 22 17.8232 22 18V22ZM25.3334 21.5867L23.3334 20.5867V19.4133L25.3334 18.4133V21.5867Z" fill="#754D2C"/>
</svg>
