<svg width="40" height="40" viewBox="0 0 40 40" fill="none" xmlns="http://www.w3.org/2000/svg">
<rect width="40" height="40" rx="20" fill="#D8FFFA"/>
<path d="M25.2162 20.9029H24.786V20.2918C24.786 20.0973 24.6283 19.9396 24.4338 19.9396H21.5661C21.3715 19.9396 21.2139 20.0973 21.2139 20.2918V20.9029H20.7836C20.5891 20.9029 20.4314 21.0606 20.4314 21.2551V26.7761C20.4314 27.4509 20.9804 27.9999 21.6553 27.9999H24.3446C25.0195 27.9999 25.5685 27.4509 25.5685 26.7761V21.2551C25.5685 21.0606 25.4107 20.9029 25.2162 20.9029ZM21.9183 20.6441H24.0816V20.903H21.9183V20.6441ZM24.864 26.7761C24.864 27.0625 24.631 27.2955 24.3446 27.2955H21.6553C21.3688 27.2955 21.1358 27.0625 21.1358 26.7761V21.6074H24.864V26.7761H24.864Z" fill="#2CBAC3"/>
<path d="M19.2167 21.7352H18.7865V16.5488C18.7865 16.3543 18.6288 16.1966 18.4343 16.1966H18.3884V13.6389C18.3884 13.624 18.3873 13.2687 18.2951 12.9082C18.0928 12.118 17.6334 12 17.3776 12C17.0558 12 16.7092 12.2895 16.2183 12.9682C15.9146 13.3881 15.6713 13.8011 15.6611 13.8185C15.6293 13.8726 15.6125 13.9341 15.6125 13.9969V16.1965H15.5667C15.3721 16.1965 15.2144 16.3542 15.2144 16.5487V21.7351H14.7841C14.5896 21.7351 14.4319 21.8928 14.4319 22.0873V26.776C14.4319 27.4509 14.9809 27.9999 15.6558 27.9999H18.3451C19.0199 27.9999 19.569 27.4509 19.569 26.776V22.0873C19.5689 21.8929 19.4112 21.7352 19.2167 21.7352ZM16.317 14.0937C16.7186 13.4256 17.2042 12.8018 17.3976 12.7067C17.5689 12.7458 17.6828 13.281 17.684 13.6389V16.1966H16.317V14.0937ZM15.9188 16.901H18.0821V21.7352H15.9188V16.901ZM18.8645 26.7761C18.8645 27.0626 18.6315 27.2955 18.345 27.2955H15.6558C15.3693 27.2955 15.1363 27.0626 15.1363 26.7761V22.4397H18.8644V26.7761H18.8645Z" fill="#2CBAC3"/>
</svg>
