<svg width="40" height="40" viewBox="0 0 40 40" fill="none" xmlns="http://www.w3.org/2000/svg">
<rect width="40" height="40" rx="20" fill="#E8EDFF"/>
<path d="M26 22.6666H16.6667C16.4899 22.6666 16.3203 22.5964 16.1953 22.4714C16.0703 22.3464 16 22.1768 16 22C16 21.8232 16.0703 21.6536 16.1953 21.5286C16.3203 21.4036 16.4899 21.3333 16.6667 21.3333H23.6267C24.0725 21.3333 24.5055 21.1844 24.857 20.9103C25.2084 20.6361 25.4582 20.2523 25.5667 19.82L26.6667 15.4933C26.6917 15.3949 26.6938 15.2921 26.673 15.1928C26.6523 15.0934 26.609 15.0001 26.5467 14.92C26.4819 14.8378 26.3986 14.772 26.3036 14.728C26.2087 14.684 26.1047 14.663 26 14.6666H16.5067C16.3692 14.2776 16.1147 13.9406 15.7781 13.7019C15.4415 13.4632 15.0393 13.3345 14.6267 13.3333H14C13.8232 13.3333 13.6537 13.4036 13.5286 13.5286C13.4036 13.6536 13.3334 13.8232 13.3334 14C13.3334 14.1768 13.4036 14.3464 13.5286 14.4714C13.6537 14.5964 13.8232 14.6666 14 14.6666H14.6267C14.779 14.6622 14.9282 14.7101 15.0495 14.8023C15.1708 14.8944 15.2569 15.0254 15.2934 15.1733L15.3334 15.4933L16.4867 20C15.9563 20.0238 15.457 20.2575 15.0989 20.6494C14.7407 21.0414 14.5528 21.5595 14.5767 22.09C14.6006 22.6204 14.8342 23.1196 15.2261 23.4778C15.6181 23.836 16.1363 24.0238 16.6667 24H16.7867C16.6771 24.3021 16.6418 24.6261 16.684 24.9447C16.7262 25.2633 16.8445 25.5671 17.0289 25.8302C17.2134 26.0934 17.4585 26.3082 17.7436 26.4566C18.0287 26.6049 18.3453 26.6823 18.6667 26.6823C18.9881 26.6823 19.3047 26.6049 19.5898 26.4566C19.8749 26.3082 20.12 26.0934 20.3045 25.8302C20.4889 25.5671 20.6073 25.2633 20.6494 24.9447C20.6916 24.6261 20.6564 24.3021 20.5467 24H22.12C22.0104 24.3021 21.9752 24.6261 22.0173 24.9447C22.0595 25.2633 22.1778 25.5671 22.3623 25.8302C22.5467 26.0934 22.7919 26.3082 23.0769 26.4566C23.362 26.6049 23.6787 26.6823 24 26.6823C24.3214 26.6823 24.638 26.6049 24.9231 26.4566C25.2082 26.3082 25.4534 26.0934 25.6378 25.8302C25.8223 25.5671 25.9406 25.2633 25.9828 24.9447C26.0249 24.6261 25.9897 24.3021 25.88 24H26C26.1769 24 26.3464 23.9297 26.4714 23.8047C26.5965 23.6797 26.6667 23.5101 26.6667 23.3333C26.6667 23.1565 26.5965 22.9869 26.4714 22.8619C26.3464 22.7369 26.1769 22.6666 26 22.6666ZM25.1467 16L24.2734 19.4933C24.2369 19.6412 24.1508 19.7722 24.0295 19.8644C23.9082 19.9566 23.759 20.0044 23.6067 20H17.8534L16.8534 16H25.1467ZM18.6667 25.3333C18.5349 25.3333 18.406 25.2942 18.2963 25.221C18.1867 25.1477 18.1012 25.0436 18.0508 24.9218C18.0003 24.8 17.9871 24.6659 18.0129 24.5366C18.0386 24.4073 18.1021 24.2885 18.1953 24.1952C18.2885 24.102 18.4073 24.0385 18.5366 24.0128C18.666 23.9871 18.8 24.0003 18.9218 24.0507C19.0436 24.1012 19.1478 24.1866 19.221 24.2963C19.2943 24.4059 19.3334 24.5348 19.3334 24.6666C19.3334 24.8435 19.2631 25.013 19.1381 25.1381C19.0131 25.2631 18.8435 25.3333 18.6667 25.3333ZM24 25.3333C23.8682 25.3333 23.7393 25.2942 23.6297 25.221C23.52 25.1477 23.4346 25.0436 23.3841 24.9218C23.3337 24.8 23.3205 24.6659 23.3462 24.5366C23.3719 24.4073 23.4354 24.2885 23.5286 24.1952C23.6219 24.102 23.7407 24.0385 23.87 24.0128C23.9993 23.9871 24.1333 24.0003 24.2552 24.0507C24.377 24.1012 24.4811 24.1866 24.5544 24.2963C24.6276 24.4059 24.6667 24.5348 24.6667 24.6666C24.6667 24.8435 24.5965 25.013 24.4714 25.1381C24.3464 25.2631 24.1769 25.3333 24 25.3333Z" fill="#567BFF"/>
</svg>
