<svg width="40" height="40" viewBox="0 0 40 40" fill="none" xmlns="http://www.w3.org/2000/svg">
<rect width="40" height="40" rx="20" fill="#FFF3F1"/>
<path d="M23.2267 19.7533C23.4937 19.7566 23.7587 19.7064 24.006 19.6057C24.2533 19.5049 24.478 19.3556 24.6667 19.1667L26.5533 17.28C26.6775 17.1551 26.7472 16.9861 26.7472 16.81C26.7472 16.6339 26.6775 16.4649 26.5533 16.34C26.4913 16.2775 26.4176 16.2279 26.3364 16.1941C26.2551 16.1602 26.168 16.1428 26.08 16.1428C25.992 16.1428 25.9048 16.1602 25.8236 16.1941C25.7424 16.2279 25.6686 16.2775 25.6067 16.34L23.7 18.22C23.638 18.2825 23.5643 18.3321 23.483 18.3659C23.4018 18.3998 23.3147 18.4172 23.2267 18.4172C23.1386 18.4172 23.0515 18.3998 22.9703 18.3659C22.889 18.3321 22.8153 18.2825 22.7533 18.22L25.1133 15.8667C25.1755 15.8045 25.2248 15.7307 25.2584 15.6495C25.2921 15.5683 25.3094 15.4812 25.3094 15.3933C25.3094 15.3054 25.2921 15.2184 25.2584 15.1372C25.2248 15.056 25.1755 14.9822 25.1133 14.92C25.0512 14.8578 24.9774 14.8085 24.8962 14.7749C24.8149 14.7413 24.7279 14.7239 24.64 14.7239C24.5521 14.7239 24.465 14.7413 24.3838 14.7749C24.3026 14.8085 24.2288 14.8578 24.1667 14.92L21.8133 17.28C21.6892 17.1551 21.6195 16.9861 21.6195 16.81C21.6195 16.6339 21.6892 16.4649 21.8133 16.34L23.7 14.4533C23.7621 14.3912 23.8115 14.3174 23.8451 14.2362C23.8787 14.155 23.8961 14.0679 23.8961 13.98C23.8961 13.8921 23.8787 13.8051 23.8451 13.7238C23.8115 13.6426 23.7621 13.5688 23.7 13.5067C23.6378 13.4445 23.564 13.3952 23.4828 13.3616C23.4016 13.3279 23.3146 13.3106 23.2267 13.3106C23.1388 13.3106 23.0517 13.3279 22.9705 13.3616C22.8893 13.3952 22.8155 13.4445 22.7533 13.5067L20.8667 15.3933C20.4921 15.7683 20.2818 16.2767 20.2818 16.8067C20.2818 17.3367 20.4921 17.845 20.8667 18.22L20 19.08L14.4867 13.5467L14.42 13.5067C14.3859 13.4769 14.3477 13.4522 14.3067 13.4333L14.1867 13.3867L14.1067 13.3333H13.9267C13.8869 13.327 13.8464 13.327 13.8067 13.3333C13.7663 13.348 13.7282 13.3682 13.6933 13.3933L13.5867 13.46H13.54L13.5 13.5267C13.4718 13.5619 13.4472 13.5998 13.4267 13.64C13.4071 13.6807 13.3915 13.7231 13.38 13.7667V13.84C13.2182 14.9676 13.3214 16.1174 13.6812 17.1982C14.0411 18.279 14.6479 19.2611 15.4533 20.0667L17.2133 21.82L13.6067 25.42C13.5442 25.482 13.4946 25.5557 13.4607 25.637C13.4269 25.7182 13.4095 25.8053 13.4095 25.8933C13.4095 25.9813 13.4269 26.0685 13.4607 26.1497C13.4946 26.231 13.5442 26.3047 13.6067 26.3667C13.669 26.4285 13.7428 26.4773 13.8241 26.5105C13.9053 26.5437 13.9923 26.5605 14.08 26.56C14.1677 26.5605 14.2547 26.5437 14.3359 26.5105C14.4172 26.4773 14.491 26.4285 14.5533 26.3667L18.6 22.38L20.4867 20.4933L21.82 19.16C22.192 19.536 22.6978 19.7493 23.2267 19.7533ZM18.1267 20.9667L16.3733 19.2067C15.4123 18.2325 14.8106 16.9608 14.6667 15.6L19.0733 20L18.1267 20.9667ZM22.2867 21.3467C22.1611 21.2202 21.9905 21.1489 21.8123 21.1483C21.6342 21.1476 21.4631 21.2178 21.3367 21.3433C21.2102 21.4689 21.1389 21.6395 21.1382 21.8176C21.1376 21.9958 21.2078 22.1669 21.3333 22.2933L25.5333 26.4933C25.6607 26.6092 25.8279 26.6713 26 26.6667C26.0877 26.6672 26.1747 26.6504 26.2559 26.6172C26.3372 26.584 26.411 26.5351 26.4733 26.4733C26.5358 26.4114 26.5854 26.3376 26.6193 26.2564C26.6531 26.1751 26.6705 26.088 26.6705 26C26.6705 25.912 26.6531 25.8249 26.6193 25.7436C26.5854 25.6624 26.5358 25.5886 26.4733 25.5267L22.2867 21.3467Z" fill="#ED573F"/>
</svg>
