<svg width="40" height="40" viewBox="0 0 40 40" fill="none" xmlns="http://www.w3.org/2000/svg">
<rect width="40" height="40" rx="20" fill="#F0FAFF"/>
<path d="M20.5473 18.2252L21.4552 21.9832L24.4134 20.2753L24.3465 16.0317L28 13.9223L27.7561 13.4999C27.2628 12.6454 26.3427 12.1146 25.3551 12.1146C24.8714 12.1146 24.3932 12.243 23.9722 12.486L15.3567 17.4602L14.2289 16.4644L12 17.7513L14.342 21.8078L20.5473 18.2252ZM14.1092 17.66L15.237 18.6558L24.46 13.3309C24.7328 13.1734 25.0424 13.0901 25.3551 13.0901C25.8281 13.0901 26.2772 13.2779 26.6085 13.5993L23.3621 15.4736L23.429 19.7172L22.0971 20.4861L21.1892 16.7281L14.6991 20.4752L13.3326 18.1084L14.1092 17.66Z" fill="#00B0FF"/>
<path d="M27.8854 26.9099H12.1145V27.8854H27.8854V26.9099Z" fill="#00B0FF"/>
</svg>
