<svg width="40" height="40" viewBox="0 0 40 40" fill="none" xmlns="http://www.w3.org/2000/svg">
<rect width="40" height="40" rx="20" fill="#FFF2F9"/>
<g clip-path="url(#clip0)">
<path d="M25.6083 14.4614C24.0868 13.6471 22.1072 13.9141 20 15.2083C17.8928 13.9141 15.9132 13.6468 14.3917 14.4614C12.8716 15.275 12 17.0603 12 19.3604C12 23.7593 19.3717 27.7533 19.6856 27.9211C19.7825 27.9724 19.8904 27.9992 20 27.9992C20.1096 27.9992 20.2175 27.9724 20.3144 27.9211C20.6283 27.7533 28 23.7593 28 19.3604C28 17.0603 27.1284 15.275 25.6083 14.4614ZM20 26.572C17.8798 25.3713 13.3333 22.2053 13.3333 19.3604C13.3333 17.5679 13.9482 16.2108 15.0205 15.637C15.4202 15.4288 15.8654 15.3236 16.316 15.3307C17.2803 15.3307 18.4153 15.7448 19.6303 16.5546C19.7398 16.6277 19.8684 16.6666 20 16.6666C20.1317 16.6666 20.2603 16.6277 20.3698 16.5546C22.1859 15.3439 23.8229 15.0181 24.9795 15.637C26.0518 16.2108 26.6667 17.5679 26.6667 19.3604C26.6667 22.2007 22.1197 25.37 20 26.572Z" fill="#F744A7"/>
<path d="M20.6667 18.6666H19.3333V20H18V21.3333H19.3333V22.6666H20.6667V21.3333H22V20H20.6667V18.6666Z" fill="#F744A7"/>
</g>
<defs>
<clipPath id="clip0">
<rect x="12" y="12" width="16" height="16" fill="white"/>
</clipPath>
</defs>
</svg>
