<svg width="40" height="40" viewBox="0 0 40 40" fill="none" xmlns="http://www.w3.org/2000/svg">
<rect width="40" height="40" rx="20" fill="#FFF8EB"/>
<g clip-path="url(#clip0)">
<path d="M25.8052 16.4921L26.9839 13.0172L23.5087 14.1956L20.5679 12.0009L20.6148 15.6701L17.6189 17.7885L19.4562 18.3597L12.4523 25.3638C12.1606 25.6554 12 26.0432 12 26.4556C12 26.868 12.1606 27.2558 12.4523 27.5474C12.7533 27.8485 13.1486 27.999 13.5441 27.9989C13.9394 27.9989 14.3349 27.8484 14.6359 27.5474L21.6406 20.5428L22.2123 22.3817L24.3309 19.3861L28 19.4329L25.8052 16.4921ZM13.908 26.8195C13.7073 27.0202 13.3808 27.0202 13.1802 26.8195C13.0829 26.7223 13.0294 26.593 13.0294 26.4555C13.0294 26.3181 13.0829 26.1888 13.1802 26.0916L20.5667 18.705L21.1229 18.8779L21.2952 19.4322L13.908 26.8195ZM23.8029 18.3499L22.576 20.0846L21.9452 18.0557L19.9162 17.4248L21.6511 16.1981L21.6239 14.0734L23.3267 15.3443L25.339 14.6619L24.6565 16.6741L25.9274 18.377L23.8029 18.3499Z" fill="#FFBC37"/>
<path d="M21.1532 23.0063L20.4253 23.7342L21.1532 24.4621L21.881 23.7342L21.1532 23.0063Z" fill="#FFBC37"/>
<path d="M16.0062 18.2022L15.2783 18.9301L16.0062 19.6579L16.7341 18.9301L16.0062 18.2022Z" fill="#FFBC37"/>
<path d="M17.9819 13.6588L17.254 14.3867L17.9819 15.1146L18.7098 14.3867L17.9819 13.6588Z" fill="#FFBC37"/>
</g>
<defs>
<clipPath id="clip0">
<rect x="12" y="12" width="16" height="16" fill="white"/>
</clipPath>
</defs>
</svg>
