<svg width="40" height="40" viewBox="0 0 40 40" fill="none" xmlns="http://www.w3.org/2000/svg">
<rect width="40" height="40" rx="20" fill="#F6F1FF"/>
<path d="M19 18.3333H18.3333V17.6667C18.3333 17.4899 18.2631 17.3203 18.138 17.1953C18.013 17.0702 17.8434 17 17.6666 17C17.4898 17 17.3202 17.0702 17.1952 17.1953C17.0702 17.3203 17 17.4899 17 17.6667V18.3333H16.3333C16.1565 18.3333 15.9869 18.4036 15.8619 18.5286C15.7369 18.6536 15.6666 18.8232 15.6666 19C15.6666 19.1768 15.7369 19.3464 15.8619 19.4714C15.9869 19.5964 16.1565 19.6667 16.3333 19.6667H17V20.3333C17 20.5101 17.0702 20.6797 17.1952 20.8047C17.3202 20.9298 17.4898 21 17.6666 21C17.8434 21 18.013 20.9298 18.138 20.8047C18.2631 20.6797 18.3333 20.5101 18.3333 20.3333V19.6667H19C19.1768 19.6667 19.3463 19.5964 19.4714 19.4714C19.5964 19.3464 19.6666 19.1768 19.6666 19C19.6666 18.8232 19.5964 18.6536 19.4714 18.5286C19.3463 18.4036 19.1768 18.3333 19 18.3333ZM27.2866 19.7667L27.2466 19.6933C27.2351 19.6603 27.2195 19.629 27.2 19.6L25.6 17.4667C25.4137 17.2183 25.1721 17.0167 24.8944 16.8778C24.6167 16.739 24.3104 16.6667 24 16.6667H22.6666V16C22.6666 15.4696 22.4559 14.9609 22.0808 14.5858C21.7058 14.2107 21.1971 14 20.6666 14H14.6666C14.1362 14 13.6275 14.2107 13.2524 14.5858C12.8773 14.9609 12.6666 15.4696 12.6666 16V23.3333C12.6666 23.5101 12.7369 23.6797 12.8619 23.8047C12.9869 23.9298 13.1565 24 13.3333 24H14C14 24.5304 14.2107 25.0391 14.5857 25.4142C14.9608 25.7893 15.4695 26 16 26C16.5304 26 17.0391 25.7893 17.4142 25.4142C17.7892 25.0391 18 24.5304 18 24H22C22 24.5304 22.2107 25.0391 22.5857 25.4142C22.9608 25.7893 23.4695 26 24 26C24.5304 26 25.0391 25.7893 25.4142 25.4142C25.7892 25.0391 26 24.5304 26 24H26.6666C26.8434 24 27.013 23.9298 27.138 23.8047C27.2631 23.6797 27.3333 23.5101 27.3333 23.3333V20C27.3319 19.9201 27.316 19.841 27.2866 19.7667ZM16 24.6667C15.8681 24.6667 15.7392 24.6276 15.6296 24.5543C15.5199 24.4811 15.4345 24.3769 15.384 24.2551C15.3336 24.1333 15.3204 23.9993 15.3461 23.8699C15.3718 23.7406 15.4353 23.6218 15.5286 23.5286C15.6218 23.4354 15.7406 23.3719 15.8699 23.3461C15.9992 23.3204 16.1333 23.3336 16.2551 23.3841C16.3769 23.4345 16.481 23.52 16.5543 23.6296C16.6275 23.7393 16.6666 23.8681 16.6666 24C16.6666 24.1768 16.5964 24.3464 16.4714 24.4714C16.3463 24.5964 16.1768 24.6667 16 24.6667ZM21.3333 22.6667H17.48C17.2925 22.4604 17.064 22.2956 16.8091 22.1829C16.5543 22.0701 16.2787 22.0119 16 22.0119C15.7213 22.0119 15.4456 22.0701 15.1908 22.1829C14.9359 22.2956 14.7074 22.4604 14.52 22.6667H14V16C14 15.8232 14.0702 15.6536 14.1952 15.5286C14.3202 15.4036 14.4898 15.3333 14.6666 15.3333H20.6666C20.8434 15.3333 21.013 15.4036 21.138 15.5286C21.2631 15.6536 21.3333 15.8232 21.3333 16V22.6667ZM22.6666 18H24C24.1035 18 24.2055 18.0241 24.2981 18.0704C24.3907 18.1167 24.4712 18.1839 24.5333 18.2667L25.3333 19.3333H22.6666V18ZM24 24.6667C23.8681 24.6667 23.7392 24.6276 23.6296 24.5543C23.5199 24.4811 23.4345 24.3769 23.384 24.2551C23.3336 24.1333 23.3204 23.9993 23.3461 23.8699C23.3718 23.7406 23.4353 23.6218 23.5286 23.5286C23.6218 23.4354 23.7406 23.3719 23.8699 23.3461C23.9992 23.3204 24.1333 23.3336 24.2551 23.3841C24.3769 23.4345 24.481 23.52 24.5543 23.6296C24.6275 23.7393 24.6666 23.8681 24.6666 24C24.6666 24.1768 24.5964 24.3464 24.4714 24.4714C24.3463 24.5964 24.1768 24.6667 24 24.6667ZM26 22.6667H25.48C25.1252 22.276 24.6305 22.0414 24.1035 22.0139C23.5765 21.9865 23.0601 22.1684 22.6666 22.52V20.6667H26V22.6667Z" fill="#5824B7"/>
</svg>
