<svg width="40" height="40" viewBox="0 0 40 40" fill="none" xmlns="http://www.w3.org/2000/svg">
<rect width="40" height="40" rx="20" fill="#F9FFF1"/>
<path d="M25.3799 16.0733C24.6544 15.0716 23.6607 14.2951 22.5133 13.8333C21.5017 13.4216 20.4044 13.2647 19.3179 13.3764C18.2315 13.4881 17.1891 13.8651 16.2825 14.4741C15.3758 15.0831 14.6327 15.9056 14.1185 16.8691C13.6042 17.8327 13.3346 18.9078 13.3333 20V20.3733C13.3914 21.4161 13.6952 22.4303 14.2199 23.3333C15.0768 24.8372 16.4849 25.9489 18.1466 26.4333C18.7505 26.5968 19.3743 26.6753 19.9999 26.6667C20.4207 26.6686 20.8405 26.6284 21.2533 26.5467C22.615 26.2831 23.8606 25.6013 24.8166 24.5963C25.7726 23.5914 26.3913 22.3132 26.5866 20.94C26.6367 20.6291 26.6634 20.3149 26.6666 20C26.6724 18.5866 26.221 17.2092 25.3799 16.0733ZM24.0466 16.5867L23.3333 18.4933L22.2533 18.7867L20.6666 17.66V16.4267L22.3266 15.22C23.0002 15.5448 23.5959 16.011 24.0733 16.5867H24.0466ZM21.3333 19.78L20.8133 21.3333H19.1799L18.6666 19.78L19.9999 18.8267L21.3333 19.78ZM19.9999 14.6667C20.2477 14.6695 20.4949 14.6895 20.7399 14.7267L19.9999 15.26L19.2599 14.7267C19.5049 14.6895 19.7522 14.6695 19.9999 14.6667ZM15.2533 17.58L15.5199 18.46L14.7666 18.9867C14.8612 18.4971 15.0251 18.0234 15.2533 17.58ZM16.1666 23.6933L17.0866 23.7267L17.3333 24.6133C16.9049 24.3604 16.5125 24.0509 16.1666 23.6933ZM17.3333 22.4L15.2333 22.3267C14.9683 21.8063 14.7925 21.2452 14.7133 20.6667L16.3733 19.5067L17.3333 19.92L17.9266 21.76L17.3333 22.4ZM17.9066 18.7133L16.8666 18.2467L16.2599 16.2467C16.6688 15.8291 17.1442 15.4821 17.6666 15.22L19.3333 16.4267V17.66L17.9066 18.7133ZM20.6666 25.2867C20.0817 25.356 19.4894 25.329 18.9133 25.2067L18.3599 23.26L18.9133 22.6667H20.9599L21.4066 23.3333L20.6666 25.2867ZM22.2733 24.82L22.5799 24L23.4866 24.0467C23.1136 24.3608 22.6985 24.6211 22.2533 24.82H22.2733ZM24.5799 22.74L22.5066 22.6667L22.0333 21.9333L22.6266 20.0933L23.6333 19.82L25.2066 21.1533C25.0798 21.7142 24.8613 22.2503 24.5599 22.74H24.5799ZM24.6133 18.8533L24.9333 18C25.121 18.4531 25.2401 18.9317 25.2866 19.42L24.6133 18.8533Z" fill="#6EBC13"/>
</svg>
