<svg width="40" height="40" viewBox="0 0 40 40" fill="none" xmlns="http://www.w3.org/2000/svg">
<rect width="40" height="40" rx="20" fill="#EBF4FF"/>
<path d="M23.5866 21.72C23.4645 21.6686 23.3299 21.6546 23.1999 21.68C23.1582 21.6873 23.1177 21.7008 23.0799 21.72C23.0374 21.7346 22.9971 21.7548 22.9599 21.78L22.8599 21.86C22.7381 21.9878 22.669 22.1568 22.6666 22.3333C22.6661 22.4211 22.6829 22.508 22.7161 22.5893C22.7492 22.6705 22.7981 22.7444 22.8599 22.8067C22.9245 22.8675 22.9989 22.9171 23.0799 22.9533C23.202 23.0036 23.3362 23.0164 23.4655 22.9903C23.5949 22.9642 23.7136 22.9003 23.8066 22.8067C23.8655 22.7419 23.9128 22.6675 23.9466 22.5867C23.9839 22.5076 24.0022 22.4208 23.9999 22.3333C23.9975 22.1568 23.9284 21.9878 23.8066 21.86C23.744 21.7983 23.669 21.7505 23.5866 21.72ZM25.3333 19.12V17C25.3333 16.4696 25.1225 15.9609 24.7475 15.5858C24.3724 15.2107 23.8637 15 23.3333 15H22.8133L22.2999 13.4533C22.2552 13.3209 22.17 13.2059 22.0563 13.1246C21.9427 13.0432 21.8063 12.9996 21.6666 13H18.3333C18.1935 12.9996 18.0571 13.0432 17.9435 13.1246C17.8299 13.2059 17.7446 13.3209 17.6999 13.4533L17.1866 15H16.6666C16.1362 15 15.6274 15.2107 15.2524 15.5858C14.8773 15.9609 14.6666 16.4696 14.6666 17V19.12C14.2776 19.2575 13.9406 19.512 13.7019 19.8486C13.4632 20.1852 13.3344 20.5874 13.3333 21V25C13.3333 25.1768 13.4035 25.3464 13.5285 25.4714C13.6535 25.5964 13.8231 25.6667 13.9999 25.6667H14.6666V26.3333C14.6666 26.5101 14.7368 26.6797 14.8618 26.8047C14.9869 26.9298 15.1564 27 15.3333 27C15.5101 27 15.6796 26.9298 15.8047 26.8047C15.9297 26.6797 15.9999 26.5101 15.9999 26.3333V25.6667H23.9999V26.3333C23.9999 26.5101 24.0702 26.6797 24.1952 26.8047C24.3202 26.9298 24.4898 27 24.6666 27C24.8434 27 25.013 26.9298 25.138 26.8047C25.263 26.6797 25.3333 26.5101 25.3333 26.3333V25.6667H25.9999C26.1767 25.6667 26.3463 25.5964 26.4713 25.4714C26.5963 25.3464 26.6666 25.1768 26.6666 25V21C26.6654 20.5874 26.5367 20.1852 26.298 19.8486C26.0593 19.512 25.7223 19.2575 25.3333 19.12ZM18.8133 14.3333H21.1866L21.4066 15H18.5933L18.8133 14.3333ZM15.9999 17C15.9999 16.8232 16.0702 16.6536 16.1952 16.5286C16.3202 16.4036 16.4898 16.3333 16.6666 16.3333H23.3333C23.5101 16.3333 23.6796 16.4036 23.8047 16.5286C23.9297 16.6536 23.9999 16.8232 23.9999 17V19H15.9999V17ZM25.3333 24.3333H14.6666V21C14.6666 20.8232 14.7368 20.6536 14.8618 20.5286C14.9869 20.4036 15.1564 20.3333 15.3333 20.3333H24.6666C24.8434 20.3333 25.013 20.4036 25.138 20.5286C25.263 20.6536 25.3333 20.8232 25.3333 21V24.3333ZM16.4133 21.72C16.3314 21.7517 16.2567 21.7993 16.1933 21.86C16.0714 21.9878 16.0024 22.1568 15.9999 22.3333C15.9994 22.4431 16.0259 22.5513 16.0772 22.6483C16.1285 22.7453 16.203 22.8282 16.294 22.8895C16.385 22.9509 16.4898 22.9888 16.599 22.9999C16.7082 23.011 16.8184 22.995 16.9199 22.9533C17.0009 22.9171 17.0753 22.8675 17.1399 22.8067C17.2017 22.7444 17.2506 22.6705 17.2838 22.5893C17.3169 22.508 17.3338 22.4211 17.3333 22.3333C17.3308 22.1568 17.2617 21.9878 17.1399 21.86C17.0462 21.7675 16.9271 21.7048 16.7978 21.6799C16.6685 21.655 16.5347 21.669 16.4133 21.72ZM20.6666 21.6667H19.3333C19.1564 21.6667 18.9869 21.7369 18.8618 21.8619C18.7368 21.987 18.6666 22.1565 18.6666 22.3333C18.6666 22.5101 18.7368 22.6797 18.8618 22.8047C18.9869 22.9298 19.1564 23 19.3333 23H20.6666C20.8434 23 21.013 22.9298 21.138 22.8047C21.263 22.6797 21.3333 22.5101 21.3333 22.3333C21.3333 22.1565 21.263 21.987 21.138 21.8619C21.013 21.7369 20.8434 21.6667 20.6666 21.6667Z" fill="#2082FF"/>
</svg>
