<svg width="40" height="40" viewBox="0 0 40 40" fill="none" xmlns="http://www.w3.org/2000/svg">
<rect width="40" height="40" rx="20" fill="#E6FFF3"/>
<path d="M23.75 12C23.6315 12 16.4579 12 16.25 12C13.924 12 12 13.9429 12 16.2812V27.0625H14.8438V28H25.1562V27.0625H28V16.2812C28 13.9458 26.0795 12 23.75 12ZM23.2489 12.9375C23.0244 14.5601 21.6532 15.8125 20 15.8125C18.3468 15.8125 16.9756 14.5601 16.7511 12.9375H23.2489ZM12.9375 26.125V25.1875H14.8438V26.125H12.9375ZM17.1875 20.7983C17.511 21.1813 17.8878 21.3743 17.9154 21.3879L18.125 21.4928L18.3346 21.3879C18.3622 21.3743 18.739 21.1813 19.0625 20.7983C19.386 21.1813 19.7628 21.3743 19.7904 21.3879L20 21.4928L20.2096 21.3879C20.2372 21.3743 20.614 21.1813 20.9375 20.7983C21.261 21.1813 21.6378 21.3743 21.6654 21.3879L21.875 21.4928L22.0846 21.3879C22.1122 21.3743 22.489 21.1813 22.8125 20.7983C23.136 21.1813 23.5128 21.3743 23.5404 21.3879L23.75 21.4928L23.9596 21.3879C23.9736 21.381 24.0776 21.3278 24.2188 21.2272V22.6495L23.75 22.1808L23.087 22.8438L23.75 23.5067L24.2188 23.038V25.1875H15.7812V23.038L16.25 23.5067L16.913 22.8438L16.25 22.1808L15.7812 22.6495V21.2272C15.9224 21.3278 16.0264 21.381 16.0404 21.3881L16.25 21.4928L16.4596 21.3881C16.4872 21.3743 16.864 21.1813 17.1875 20.7983ZM15.7812 27.0625V26.125H24.2188V27.0625H15.7812ZM25.1562 26.125V25.1875H27.0625V26.125H25.1562ZM27.0625 24.25H25.1562V16.2812H24.2188V19.5625C24.2188 19.9602 23.9495 20.2485 23.7501 20.4075C23.5502 20.2482 23.2812 19.9598 23.2812 19.5625H22.3438C22.3438 19.9602 22.0745 20.2485 21.8751 20.4075C21.6752 20.2482 21.4062 19.9598 21.4062 19.5625H20.4688C20.4688 19.9602 20.1993 20.2485 20.0001 20.4075C19.8002 20.2482 19.5312 19.9598 19.5312 19.5625H18.5938C18.5938 19.9602 18.3243 20.2485 18.1251 20.4075C17.9252 20.2482 17.6562 19.9598 17.6562 19.5625H16.7188C16.7188 19.9602 16.4493 20.2485 16.2501 20.4075C16.0502 20.2482 15.7812 19.9598 15.7812 19.5625V16.2812H14.8438V24.25H12.9375V16.2812C12.9375 14.619 14.2135 13.1932 15.8101 12.9684C16.0499 15.0337 17.8025 16.75 20 16.75C22.1978 16.75 23.9501 15.0336 24.1899 12.9684C25.7865 13.1932 27.0625 14.619 27.0625 16.2812V24.25Z" fill="#1BD37A"/>
</svg>
