<svg width="90" height="83" viewBox="0 0 90 83" fill="none" xmlns="http://www.w3.org/2000/svg">
<path d="M40 83C62.0914 83 80 65.0914 80 43C80 20.9086 62.0914 3 40 3C17.9086 3 0 20.9086 0 43C0 65.0914 17.9086 83 40 83Z" fill="#141414"/>
<path d="M45.6733 31.7805C45.0003 31.4381 44.1771 31.7063 43.8348 32.3796L33.6654 52.3812C33.3231 53.0544 33.5914 53.8775 34.2646 54.2198C34.4631 54.3207 34.6747 54.3685 34.8832 54.3685C35.3814 54.3685 35.8617 54.0953 36.1031 53.6206L46.2725 33.619C46.6147 32.9458 46.3465 32.1227 45.6733 31.7805Z" fill="white"/>
<path d="M38.3715 38.367C38.3715 35.5075 36.0452 33.1812 33.1857 33.1812C30.3264 33.1812 28 35.5075 28 38.367C28 41.2264 30.3264 43.5528 33.1858 43.5528C36.0452 43.5528 38.3715 41.2264 38.3715 38.367ZM33.1858 40.8181C31.8343 40.8181 30.7347 39.7185 30.7347 38.367C30.7347 37.0154 31.8343 35.9158 33.1858 35.9158C34.5373 35.9158 35.637 37.0154 35.637 38.367C35.6369 39.7185 34.5373 40.8181 33.1858 40.8181Z" fill="white"/>
<path d="M46.814 42.4475C43.9546 42.4475 41.6282 44.7739 41.6282 47.6333C41.6282 50.4927 43.9545 52.819 46.814 52.819C49.6734 52.819 51.9998 50.4927 51.9998 47.6333C51.9998 44.7738 49.6735 42.4475 46.814 42.4475ZM46.814 50.0843C45.4625 50.0843 44.3629 48.9847 44.3629 47.6332C44.3629 46.2817 45.4625 45.1821 46.814 45.1821C48.1655 45.1821 49.2651 46.2817 49.2651 47.6332C49.2651 48.9847 48.1656 50.0843 46.814 50.0843Z" fill="white"/>
<path d="M72 36C81.9411 36 90 27.9411 90 18C90 8.05887 81.9411 0 72 0C62.0589 0 54 8.05887 54 18C54 27.9411 62.0589 36 72 36Z" fill="#FFCF87"/>
<path d="M72 17.5C77.5234 17.5 82 15.6328 82 13.332C82 11.0312 77.5234 9.16406 72 9.16406C66.4766 9.16406 62 11.0312 62 13.332C62 15.6328 66.4766 17.5 72 17.5ZM72 24.1641C68.1836 24.1641 64.8086 23.2461 62.6797 21.8281C62.2461 22.2969 62 22.8008 62 23.332C62 25.6328 66.4766 27.5 72 27.5C77.5234 27.5 82 25.6328 82 23.332C82 22.8008 81.7539 22.2969 81.3203 21.832C79.1914 23.2461 75.8164 24.1641 72 24.1641ZM72 19.1641C68.1836 19.1641 64.8086 18.2461 62.6797 16.8281C62.2461 17.2969 62 17.8008 62 18.332C62 20.6328 66.4766 22.5 72 22.5C77.5234 22.5 82 20.6328 82 18.332C82 17.8008 81.7539 17.2969 81.3203 16.832C79.1914 18.2461 75.8164 19.1641 72 19.1641Z" fill="white"/>
</svg>
