<svg width="90" height="83" viewBox="0 0 90 83" fill="none" xmlns="http://www.w3.org/2000/svg">
<path d="M40 83C62.0914 83 80 65.0914 80 43C80 20.9086 62.0914 3 40 3C17.9086 3 0 20.9086 0 43C0 65.0914 17.9086 83 40 83Z" fill="#141414"/>
<path d="M49.75 41H41C40.2044 41 39.4413 40.6839 38.8787 40.1213C38.3161 39.5587 38 38.7956 38 38V29.25C38 29.1837 37.9737 29.1201 37.9268 29.0732C37.8799 29.0263 37.8163 29 37.75 29H32C30.9391 29 29.9217 29.4214 29.1716 30.1716C28.4214 30.9217 28 31.9391 28 33V53C28 54.0609 28.4214 55.0783 29.1716 55.8284C29.9217 56.5786 30.9391 57 32 57H46C47.0609 57 48.0783 56.5786 48.8284 55.8284C49.5786 55.0783 50 54.0609 50 53V41.25C50 41.1837 49.9737 41.1201 49.9268 41.0732C49.8799 41.0263 49.8163 41 49.75 41Z" fill="white"/>
<path d="M49.2013 38.7869L40.2131 29.7988C40.1956 29.7814 40.1734 29.7696 40.1492 29.7648C40.1251 29.76 40.1 29.7625 40.0772 29.7719C40.0545 29.7814 40.035 29.7973 40.0212 29.8178C40.0075 29.8382 40.0001 29.8623 40 29.8869V38.0001C40 38.2653 40.1054 38.5196 40.2929 38.7072C40.4804 38.8947 40.7348 39.0001 41 39.0001H49.1131C49.1378 38.9999 49.1618 38.9926 49.1823 38.9788C49.2028 38.9651 49.2187 38.9456 49.2281 38.9228C49.2375 38.9 49.24 38.875 49.2352 38.8508C49.2304 38.8266 49.2186 38.8044 49.2013 38.7869Z" fill="white"/>
<path d="M72 36C81.9411 36 90 27.9411 90 18C90 8.05887 81.9411 0 72 0C62.0589 0 54 8.05887 54 18C54 27.9411 62.0589 36 72 36Z" fill="#FFCF87"/>
<path d="M71.406 21.7321L68.367 18.6931C68.91 17.7371 69.702 16.7901 70.742 15.8551C72.083 14.6471 74.45 12.6051 77.842 9.72912C78.1856 9.43761 78.6264 9.28603 79.0766 9.30449C79.5269 9.32294 79.9537 9.51007 80.2724 9.82872C80.591 10.1474 80.7782 10.5742 80.7966 11.0245C80.8151 11.4747 80.6635 11.9155 80.372 12.2591C77.492 15.6571 75.451 18.0241 74.247 19.3591C73.312 20.3961 72.365 21.1871 71.406 21.7321ZM66.99 20.1461L69.955 23.1101L68.589 25.0161L63.313 26.8111L65.084 21.5111L66.99 20.1461Z" fill="white"/>
</svg>
