<svg width="162" height="48" viewBox="0 0 162 48" fill="none" xmlns="http://www.w3.org/2000/svg">
<path d="M160.925 42.3333C160.925 42.9374 160.806 43.5356 160.575 44.0937C160.343 44.6517 160.004 45.1587 159.577 45.5857C159.149 46.0127 158.642 46.3512 158.083 46.5819C157.525 46.8127 156.926 46.9311 156.322 46.9305H5.67789C4.45691 46.9318 3.28542 46.4482 2.42105 45.5861C1.55667 44.7239 1.07019 43.5539 1.0686 42.3333V5.67156C1.07019 4.45036 1.55648 3.2797 2.42068 2.41662C3.28488 1.55355 4.45636 1.06862 5.67789 1.0683H156.321C156.925 1.0683 157.524 1.18737 158.083 1.41872C158.641 1.65008 159.149 1.98917 159.576 2.41664C160.004 2.84411 160.343 3.35157 160.574 3.91006C160.805 4.46855 160.924 5.06711 160.924 5.67156L160.925 42.3333Z" fill="white"/>
<path d="M156.322 48H5.67787C4.17376 47.9997 2.73121 47.4029 1.66675 46.3405C0.602289 45.2781 0.0028619 43.8369 0 42.3332V5.67276C0.0022251 4.16831 0.601256 2.72617 1.66568 1.6627C2.73011 0.599227 4.17302 0.00126981 5.67787 0H156.321C157.825 0.00190342 159.268 0.600064 160.332 1.6634C161.397 2.72673 161.996 4.1685 161.999 5.67276V42.3332C162.001 45.4589 159.45 48 156.322 48Z" fill="#A6A6A6"/>
<path d="M160.925 42.3333C160.925 42.9374 160.806 43.5356 160.575 44.0937C160.343 44.6517 160.004 45.1587 159.577 45.5857C159.149 46.0127 158.642 46.3512 158.083 46.5819C157.525 46.8127 156.926 46.9311 156.322 46.9305H5.67789C4.45691 46.9318 3.28542 46.4482 2.42105 45.5861C1.55667 44.7239 1.07019 43.5539 1.0686 42.3333V5.67156C1.07019 4.45036 1.55648 3.2797 2.42068 2.41662C3.28488 1.55355 4.45636 1.06862 5.67789 1.0683H156.321C156.925 1.0683 157.524 1.18737 158.083 1.41872C158.641 1.65008 159.149 1.98917 159.576 2.41664C160.004 2.84411 160.343 3.35157 160.574 3.91006C160.805 4.46855 160.924 5.06711 160.924 5.67156L160.925 42.3333Z" fill="black"/>
<path d="M36.1732 23.7473C36.1384 19.8787 39.3417 17.9966 39.4882 17.9089C37.674 15.2646 34.8621 14.9033 33.8739 14.8745C31.5123 14.626 29.2214 16.2873 28.0184 16.2873C26.7913 16.2873 24.9387 14.8985 22.9421 14.9393C20.3727 14.9789 17.969 16.4661 16.6507 18.7756C13.93 23.4845 15.9591 30.4044 18.5657 34.2106C19.8696 36.0759 21.3932 38.1561 23.3875 38.0829C25.3385 38.0037 26.0673 36.8405 28.4218 36.8405C30.7547 36.8405 31.439 38.0829 33.4729 38.0361C35.5669 38.0037 36.8852 36.1636 38.1435 34.2826C39.6503 32.1473 40.2554 30.0419 40.2794 29.9338C40.2314 29.917 36.214 28.383 36.1732 23.7473ZM32.3311 12.3706C33.3805 11.0587 34.0985 9.27376 33.8992 7.46246C32.3803 7.52968 30.4809 8.51275 29.3871 9.79591C28.4194 10.9266 27.5549 12.7799 27.7783 14.5228C29.4844 14.65 31.2361 13.6622 32.3311 12.3706Z" fill="white"/>
<path d="M156.322 0H75.6323L107.237 48H156.322C157.826 47.9987 159.269 47.4011 160.333 46.3381C161.398 45.2752 161.997 43.8337 162 42.3296V5.67276C161.997 4.16841 161.398 2.72645 160.334 1.66305C159.269 0.599646 157.827 0.00158674 156.322 0Z" fill="url(#paint0_linear)"/>
<path d="M64.4329 37.8152H61.7062L60.2126 33.1231H55.021L53.5982 37.8152H50.9436L56.0884 21.8412H59.2653L64.4329 37.8152ZM59.7624 31.1546L58.4116 26.9834C58.2688 26.5573 57.9998 25.5538 57.606 23.9742H57.558C57.3995 24.6536 57.1462 25.657 56.7992 26.9834L55.4712 31.1546H59.7624ZM77.6376 31.9144C77.6376 33.8733 77.1057 35.4217 76.0408 36.5584C75.0874 37.5703 73.9024 38.0757 72.4892 38.0757C70.9632 38.0757 69.8658 37.5319 69.1995 36.442V42.4857H66.6397V30.0827C66.6397 28.8523 66.6073 27.5908 66.5448 26.2968H68.796L68.9389 28.1225H68.9869C69.8406 26.747 71.1361 26.0592 72.8746 26.0592C74.2338 26.0592 75.3684 26.5957 76.2761 27.67C77.1826 28.7467 77.6376 30.1607 77.6376 31.9144ZM75.0298 32.008C75.0298 30.8869 74.7777 29.9626 74.271 29.234C73.7175 28.4766 72.9743 28.0973 72.0426 28.0973C71.4111 28.0973 70.8371 28.3086 70.3245 28.7251C69.8106 29.1452 69.4744 29.6938 69.3171 30.3731C69.2469 30.6272 69.207 30.8887 69.1983 31.1522V33.0739C69.1983 33.9105 69.4552 34.6175 69.9691 35.1961C70.483 35.7722 71.1505 36.0615 71.9718 36.0615C72.9359 36.0615 73.6863 35.6882 74.223 34.9476C74.7609 34.2046 75.0298 33.2251 75.0298 32.008ZM90.8892 31.9144C90.8892 33.8733 90.3573 35.4217 89.2923 36.5584C88.3378 37.5703 87.154 38.0757 85.7396 38.0757C84.2136 38.0757 83.1162 37.5319 82.4498 36.442V42.4857H79.89V30.0827C79.89 28.8523 79.8576 27.5908 79.7952 26.2968H82.0464L82.1893 28.1225H82.2373C83.0898 26.747 84.3853 26.0592 86.125 26.0592C87.4829 26.0592 88.6175 26.5957 89.5276 27.67C90.4329 28.7467 90.8892 30.1607 90.8892 31.9144ZM88.2802 32.008C88.2802 30.8869 88.0268 29.9626 87.5201 29.234C86.9666 28.4766 86.2259 28.0973 85.2941 28.0973C84.6626 28.0973 84.0887 28.3086 83.5736 28.7251C83.0597 29.1452 82.7248 29.6938 82.5675 30.3731C82.4894 30.69 82.4474 30.9481 82.4474 31.1522V33.0739C82.4474 33.9105 82.7055 34.6175 83.217 35.1961C83.7309 35.771 84.3985 36.0615 85.2221 36.0615C86.1874 36.0615 86.9378 35.6882 87.4733 34.9476C88.0112 34.2046 88.2802 33.2251 88.2802 32.008ZM105.705 33.3344C105.705 34.6943 105.23 35.7998 104.285 36.6533C103.245 37.5847 101.793 38.0517 99.9325 38.0517C98.2131 38.0517 96.8348 37.7204 95.795 37.0566L96.3869 34.9236C97.5095 35.5886 98.7426 35.9199 100.085 35.9199C101.05 35.9199 101.801 35.7014 102.336 35.2681C102.873 34.8336 103.144 34.2526 103.144 33.5276C103.144 32.8782 102.92 32.3345 102.479 31.8916C102.036 31.4498 101.304 31.0381 100.275 30.66C97.4771 29.6169 96.0772 28.0913 96.0772 26.0844C96.0772 24.7736 96.5718 23.7005 97.5588 22.8615C98.5457 22.0237 99.8544 21.6047 101.482 21.6047C102.936 21.6047 104.148 21.858 105.11 22.3633L104.467 24.4495C103.562 23.9598 102.54 23.7149 101.397 23.7149C100.494 23.7149 99.786 23.937 99.2793 24.3787C98.8531 24.7736 98.637 25.2549 98.637 25.8263C98.637 26.4565 98.8831 26.9798 99.3729 27.3903C99.798 27.7684 100.574 28.1801 101.695 28.6219C103.071 29.1764 104.082 29.8222 104.729 30.564C105.381 31.3058 105.705 32.2313 105.705 33.3344ZM114.19 28.2174H111.369V33.8097C111.369 35.2321 111.866 35.9415 112.862 35.9415C113.32 35.9415 113.699 35.9031 113.999 35.8226L114.07 37.766C113.566 37.9544 112.902 38.0493 112.079 38.0493C111.068 38.0493 110.278 37.7408 109.708 37.1238C109.14 36.5068 108.854 35.4733 108.854 34.0185V28.2126H107.174V26.292H108.854V24.183L111.369 23.4244V26.292H114.19V28.2174ZM126.895 31.9612C126.895 33.7317 126.389 35.1853 125.378 36.322C124.32 37.4923 122.913 38.0757 121.159 38.0757C119.466 38.0757 118.12 37.5151 117.116 36.3952C116.112 35.2729 115.611 33.8589 115.611 32.1532C115.611 30.3683 116.129 28.9063 117.163 27.7696C118.199 26.6317 119.594 26.0628 121.348 26.0628C123.039 26.0628 124.397 26.6245 125.425 27.7456C126.407 28.8331 126.895 30.2375 126.895 31.9612ZM124.242 32.02C124.242 30.9649 124.014 30.0599 123.556 29.3025C123.02 28.3878 122.251 27.9305 121.256 27.9305C120.231 27.9305 119.444 28.3878 118.909 29.3025C118.45 30.0599 118.222 30.9805 118.222 32.068C118.222 33.1243 118.45 34.0318 118.909 34.7868C119.462 35.7014 120.234 36.1587 121.234 36.1587C122.213 36.1587 122.98 35.6918 123.535 34.764C124.005 33.9885 124.242 33.0775 124.242 32.02ZM135.22 28.5474C134.953 28.4994 134.683 28.4757 134.413 28.4766C133.512 28.4766 132.816 28.8151 132.326 29.4969C131.901 30.0971 131.687 30.8557 131.687 31.7715V37.8152H129.127V29.9242C129.13 28.7151 129.105 27.5061 129.053 26.298H131.283L131.376 28.5018H131.447C131.718 27.7444 132.143 27.1335 132.727 26.6761C133.261 26.2765 133.91 26.0601 134.577 26.0592C134.814 26.0592 135.027 26.076 135.217 26.106L135.22 28.5474ZM146.668 31.5111C146.674 31.9001 146.643 32.2888 146.574 32.6718H138.895C138.923 33.8097 139.296 34.6811 140.009 35.2813C140.656 35.8166 141.493 36.0855 142.521 36.0855C143.658 36.0855 144.695 35.9055 145.628 35.5418L146.029 37.3171C144.939 37.7924 143.652 38.0289 142.166 38.0289C140.38 38.0289 138.978 37.5031 137.957 36.454C136.939 35.4037 136.429 33.9921 136.429 32.2241C136.429 30.4884 136.903 29.042 137.853 27.8885C138.847 26.6569 140.19 26.0412 141.881 26.0412C143.541 26.0412 144.798 26.6569 145.652 27.8885C146.328 28.8643 146.668 30.0743 146.668 31.5111ZM144.227 30.8473C144.245 30.0875 144.077 29.4333 143.73 28.8799C143.287 28.1669 142.605 27.8116 141.691 27.8116C140.854 27.8116 140.172 28.1585 139.654 28.8547C139.227 29.4081 138.974 30.0731 138.896 30.8449L144.227 30.8473Z" fill="white"/>
<path d="M54.2825 16.1937C53.5705 16.1937 52.9546 16.1589 52.4419 16.1V8.37712C53.1589 8.26639 53.8835 8.21181 54.6091 8.21388C57.5446 8.21388 58.8966 9.65788 58.8966 12.0117C58.8966 14.7269 57.2997 16.1937 54.2825 16.1937ZM54.7123 9.20415C54.3161 9.20415 53.9787 9.22816 53.699 9.28577V15.1566C53.8503 15.1806 54.1408 15.1914 54.549 15.1914C56.4725 15.1914 57.5675 14.0967 57.5675 12.0465C57.5675 10.2184 56.5769 9.20415 54.7123 9.20415ZM63.1097 16.2525C61.4552 16.2525 60.383 15.0174 60.383 13.3405C60.383 11.5928 61.478 10.3469 63.2033 10.3469C64.8338 10.3469 65.93 11.5232 65.93 13.2481C65.93 15.0173 64.8002 16.2525 63.1097 16.2525ZM63.1577 11.2663C62.2488 11.2663 61.6665 12.1162 61.6665 13.3045C61.6665 14.47 62.2608 15.3198 63.1457 15.3198C64.0305 15.3198 64.6249 14.4112 64.6249 13.2805C64.6249 12.1282 64.0426 11.2663 63.1577 11.2663ZM75.3647 10.4633L73.5937 16.1241H72.4399L71.7063 13.6658C71.5239 13.0645 71.372 12.4543 71.2512 11.8377H71.2272C71.1348 12.4546 70.9595 13.0728 70.7734 13.6658L69.993 16.1241H68.8271L67.1606 10.4633H68.4537L69.0949 13.1544C69.2462 13.7954 69.3734 14.4004 69.4791 14.9717H69.5031C69.5956 14.4952 69.7468 13.8998 69.969 13.1664L70.7734 10.4645H71.7987L72.5684 13.1088C72.7545 13.7498 72.9057 14.3788 73.0234 14.9729H73.057C73.1387 14.3908 73.2671 13.7726 73.4412 13.1088L74.1292 10.4645L75.3647 10.4633ZM81.8842 16.1241H80.6259V12.8736C80.6259 11.8725 80.2417 11.3707 79.4841 11.3707C78.7385 11.3707 78.2258 12.0117 78.2258 12.7571V16.1241H76.9675V12.0813C76.9675 11.5808 76.9555 11.0443 76.9207 10.4621H78.0277L78.0865 11.3359H78.1214C78.4599 10.731 79.1467 10.3469 79.9163 10.3469C81.105 10.3469 81.8854 11.2555 81.8854 12.7343L81.8842 16.1241ZM85.3541 16.1241H84.0946V7.86578H85.3541V16.1241ZM89.9417 16.2525C88.2884 16.2525 87.2151 15.0174 87.2151 13.3405C87.2151 11.5928 88.3101 10.3469 90.0342 10.3469C91.6659 10.3469 92.7609 11.5232 92.7609 13.2481C92.7621 15.0173 91.631 16.2525 89.9417 16.2525ZM89.9886 11.2663C89.0797 11.2663 88.4974 12.1162 88.4974 13.3045C88.4974 14.47 89.0929 15.3198 89.9754 15.3198C90.8614 15.3198 91.4545 14.4112 91.4545 13.2805C91.4557 12.1282 90.8746 11.2663 89.9886 11.2663ZM97.7219 16.1241L97.6307 15.4723H97.5971C97.2129 15.9968 96.6522 16.2525 95.9414 16.2525C94.9268 16.2525 94.2064 15.5419 94.2064 14.5864C94.2064 13.1892 95.4179 12.4666 97.5154 12.4666V12.3622C97.5154 11.6168 97.1204 11.2435 96.34 11.2435C95.7817 11.2435 95.2918 11.384 94.8608 11.6636L94.605 10.8366C95.1285 10.5101 95.7817 10.3469 96.5489 10.3469C98.0281 10.3469 98.7749 11.1271 98.7749 12.6887V14.7737C98.7749 15.345 98.8001 15.788 98.8565 16.1253L97.7219 16.1241ZM97.549 13.3045C96.1515 13.3045 95.4503 13.643 95.4503 14.446C95.4503 15.0402 95.8117 15.3306 96.3136 15.3306C96.9535 15.3306 97.549 14.8421 97.549 14.1783V13.3045ZM104.885 16.1241L104.826 15.2154H104.791C104.43 15.902 103.822 16.2525 102.974 16.2525C101.608 16.2525 100.597 15.0522 100.597 13.3633C100.597 11.5928 101.646 10.3457 103.077 10.3457C103.834 10.3457 104.371 10.6013 104.674 11.1151H104.699V7.86578H105.958V14.5984C105.958 15.1458 105.972 15.6583 106.005 16.1241H104.885ZM104.699 12.7931C104.699 12.0009 104.174 11.3251 103.373 11.3251C102.44 11.3251 101.87 12.1522 101.87 13.3165C101.87 14.458 102.462 15.2394 103.348 15.2394C104.139 15.2394 104.699 14.5516 104.699 13.7366V12.7931ZM113.944 16.2525C112.291 16.2525 111.218 15.0174 111.218 13.3405C111.218 11.5928 112.313 10.3469 114.038 10.3469C115.669 10.3469 116.764 11.5232 116.764 13.2481C116.765 15.0173 115.636 16.2525 113.944 16.2525ZM113.991 11.2663C113.083 11.2663 112.501 12.1162 112.501 13.3045C112.501 14.47 113.095 15.3198 113.979 15.3198C114.865 15.3198 115.458 14.4112 115.458 13.2805C115.46 12.1282 114.878 11.2663 113.991 11.2663ZM123.531 16.1241H122.272V12.8736C122.272 11.8725 121.887 11.3707 121.13 11.3707C120.384 11.3707 119.873 12.0117 119.873 12.7571V16.1241H118.613V12.0813C118.613 11.5808 118.601 11.0443 118.566 10.4621H119.673L119.732 11.3359H119.767C120.104 10.731 120.792 10.3457 121.561 10.3457C122.749 10.3457 123.531 11.2543 123.531 12.7331V16.1241ZM131.997 11.4068H130.612V14.1555C130.612 14.8553 130.855 15.2046 131.345 15.2046C131.567 15.2046 131.753 15.1806 131.903 15.1458L131.938 16.1012C131.694 16.1949 131.368 16.2417 130.962 16.2417C129.97 16.2417 129.377 15.6943 129.377 14.2611V11.4068H128.551V10.4633H129.377V9.42621L130.612 9.05291V10.4621H131.997V11.4068ZM138.658 16.1241H137.401V12.8976C137.401 11.8845 137.018 11.3719 136.259 11.3719C135.607 11.3719 135 11.8149 135 12.7115V16.1241H133.743V7.86578H135V11.2663H135.025C135.421 10.6493 135.995 10.3457 136.727 10.3457C137.926 10.3457 138.658 11.2771 138.658 12.7571V16.1241ZM145.483 13.5962H141.706C141.73 14.6681 142.44 15.273 143.491 15.273C144.049 15.273 144.563 15.1794 145.017 15.0053L145.212 15.8792C144.677 16.1121 144.047 16.2285 143.313 16.2285C141.542 16.2285 140.494 15.1098 140.494 13.3753C140.494 11.6396 141.567 10.3349 143.171 10.3349C144.618 10.3349 145.526 11.4068 145.526 13.026C145.534 13.2171 145.519 13.4085 145.483 13.5962ZM144.329 12.6995C144.329 11.8257 143.888 11.2087 143.084 11.2087C142.361 11.2087 141.789 11.8377 141.708 12.6995H144.329Z" fill="white"/>
<defs>
<linearGradient id="paint0_linear" x1="118.815" y1="48.1274" x2="118.815" y2="-124.984" gradientUnits="userSpaceOnUse">
<stop stop-color="#1A1A1A" stop-opacity="0.1"/>
<stop offset="0.123" stop-color="#212121" stop-opacity="0.151"/>
<stop offset="0.308" stop-color="#353535" stop-opacity="0.227"/>
<stop offset="0.532" stop-color="#575757" stop-opacity="0.318"/>
<stop offset="0.783" stop-color="#858585" stop-opacity="0.421"/>
<stop offset="1" stop-color="#B3B3B3" stop-opacity="0.51"/>
</linearGradient>
</defs>
</svg>
