<svg width="43" height="42" viewBox="0 0 43 42" fill="none" xmlns="http://www.w3.org/2000/svg">
<path opacity="0.54" d="M42.3558 19.5725L20.2841 0.230056C20.1146 0.0825839 19.8985 0 19.6706 0H14.5003C14.068 0 13.8693 0.542697 14.1965 0.825843L34.6558 18.7584H0.467375C0.210319 18.7584 0 18.9708 0 19.2303V22.7697C0 23.0292 0.210319 23.2416 0.467375 23.2416H34.65L14.1907 41.1742C13.8635 41.4632 14.0621 42 14.4945 42H19.8401C19.9511 42 20.0621 41.9587 20.1439 41.882L42.3558 22.4275C42.5581 22.25 42.7202 22.0306 42.8314 21.7844C42.9425 21.5381 43 21.2706 43 21C43 20.7294 42.9425 20.4619 42.8314 20.2156C42.7202 19.9694 42.5581 19.75 42.3558 19.5725Z" fill="#B9B9B9"/>
</svg>
