<svg width="565" height="262" viewBox="0 0 565 262" fill="none" xmlns="http://www.w3.org/2000/svg">
<g filter="url(#filter0_d)">
<rect width="334.502" height="211.018" rx="8" transform="matrix(1 0 0.646257 0.76312 47 46)" fill="url(#paint0_linear)"/>
</g>
<path fill-rule="evenodd" clip-rule="evenodd" d="M107.171 64.7569L104.951 62.1399L101.596 62.1432L97.703 60.314L96.8922 62.1197L93.5024 62.1224L95.7217 64.7379L94.8996 66.5696L98.8592 68.398L101.077 71.0134L104.432 71.0107L108.325 72.8387L109.112 71.0069L112.503 71.0049L110.307 68.4161L111.129 66.5844L107.171 64.7569ZM97.4339 67.1176L96.5361 66.6996C96.5029 66.6842 96.4713 66.6659 96.4433 66.6457C96.4152 66.6255 96.3912 66.6038 96.3727 66.5819C96.3541 66.56 96.3414 66.5383 96.3352 66.5181C96.3291 66.4979 96.3296 66.4796 96.3368 66.4642L96.5364 66.0191C96.5429 66.0075 96.5575 66.0003 96.5781 65.9985C96.5987 65.9968 96.6242 66.0006 96.6507 66.0095C96.6773 66.0183 96.7034 66.0317 96.7253 66.0476C96.7471 66.0635 96.7635 66.081 96.7719 66.0976L97.6038 67.0393C97.6927 67.1442 97.579 67.17 97.4342 67.1176H97.4339ZM103.593 62.901H104.374C104.476 62.901 104.654 62.9525 104.709 63.0576L105.24 63.6839C105.306 63.762 105.194 63.7893 105.114 63.7358L103.655 63.0567C103.627 63.0461 103.599 63.0308 103.576 63.0131C103.553 62.9954 103.537 62.9763 103.53 62.9586C103.523 62.9409 103.525 62.9256 103.536 62.9151C103.547 62.9045 103.566 62.8993 103.591 62.9001L103.593 62.901ZM98.4307 61.9361L98.6196 61.5174C98.6771 61.4652 98.7903 61.4393 98.9235 61.5174L99.8541 61.9354C99.8817 61.9496 99.9063 61.9669 99.9248 61.9854C99.9434 62.0038 99.9551 62.0225 99.9586 62.0392C99.962 62.0558 99.9571 62.0697 99.9443 62.0791C99.9315 62.0885 99.9114 62.093 99.8865 62.092L98.6672 62.0933C98.6445 62.0956 98.6165 62.0919 98.587 62.0829C98.5575 62.0739 98.5279 62.0599 98.5022 62.0428C98.4765 62.0258 98.456 62.0065 98.4433 61.9875C98.4306 61.9685 98.4264 61.9508 98.4312 61.9368L98.4307 61.9361ZM95.7598 63.6653L95.2728 63.0903C95.2171 62.9849 95.2201 62.9071 95.3556 62.9071L96.1338 62.9057C96.1565 62.9033 96.1845 62.9069 96.2141 62.9159C96.2437 62.9249 96.2734 62.939 96.2991 62.9561C96.3249 62.9732 96.3454 62.9926 96.358 63.0116C96.3705 63.0306 96.3744 63.0483 96.3692 63.0623L96.0627 63.7421C96.0521 63.7542 96.034 63.7618 96.0102 63.7643C95.9864 63.7667 95.9578 63.7639 95.9271 63.7561C95.8965 63.7483 95.8649 63.7357 95.8355 63.7197C95.8062 63.7036 95.7801 63.6847 95.7598 63.6647L95.7598 63.6653ZM102.456 70.28H101.675C101.648 70.2808 101.619 70.2773 101.587 70.2697C101.556 70.2622 101.523 70.2507 101.492 70.2359C101.46 70.2212 101.43 70.2037 101.404 70.1843C101.378 70.1649 101.356 70.1442 101.339 70.1234L100.795 69.5213C100.776 69.5023 100.765 69.4831 100.763 69.4664C100.76 69.4496 100.767 69.4361 100.782 69.4275C100.797 69.419 100.819 69.4159 100.846 69.4187C100.872 69.4214 100.902 69.4299 100.931 69.443L102.423 70.1227C102.535 70.1746 102.555 70.2793 102.454 70.2793L102.456 70.28ZM107.605 71.1908L107.418 71.6102C107.415 71.6285 107.404 71.6433 107.386 71.6535C107.368 71.6637 107.344 71.669 107.314 71.669C107.284 71.669 107.251 71.6637 107.215 71.6535C107.18 71.6433 107.144 71.6285 107.111 71.6102L106.18 71.1915C106.155 71.1789 106.133 71.1637 106.114 71.1472C106.096 71.1308 106.083 71.1138 106.076 71.0978C106.07 71.0819 106.07 71.0677 106.077 71.0567C106.084 71.0456 106.098 71.0381 106.116 71.0349H107.37C107.392 71.0325 107.42 71.036 107.45 71.045C107.48 71.054 107.509 71.068 107.535 71.0851C107.561 71.1022 107.582 71.1216 107.594 71.1406C107.607 71.1597 107.611 71.1774 107.606 71.1915L107.605 71.1908ZM107.328 70.1453L104.615 70.1473C104.454 70.1654 104.259 70.1486 104.051 70.0986C103.842 70.0485 103.626 69.9668 103.422 69.861L100.17 68.3456C99.9375 68.247 99.7159 68.1214 99.525 67.98C99.3342 67.8386 99.1801 67.6858 99.0764 67.5352L97.3233 65.4682C97.2057 65.3334 97.1234 65.1994 97.081 65.074C97.0386 64.9485 97.0371 64.8341 97.0765 64.7372L97.7924 63.1397C97.8353 63.0574 97.9149 62.994 98.0262 62.9534C98.1375 62.9127 98.2781 62.8957 98.4393 62.9035L101.22 62.9022C101.372 62.8825 101.556 62.896 101.754 62.9415C101.953 62.987 102.16 63.063 102.356 63.1625L105.667 64.7043C105.872 64.791 106.069 64.8994 106.242 65.0214C106.416 65.1435 106.562 65.2761 106.67 65.4096L108.578 67.6587C108.713 67.7901 108.801 67.924 108.831 68.0444C108.861 68.1649 108.833 68.267 108.749 68.3385L108.114 69.8306C108.076 69.9418 107.985 70.0278 107.849 70.0821C107.712 70.1364 107.534 70.1575 107.328 70.1438L107.328 70.1453ZM110.664 70.0369C110.696 70.1154 110.717 70.2198 110.582 70.2198L109.801 70.2212C109.778 70.2233 109.75 70.2196 109.721 70.2104C109.691 70.2013 109.661 70.1871 109.635 70.1699C109.61 70.1527 109.589 70.1332 109.576 70.1142C109.564 70.0951 109.56 70.0773 109.565 70.0632L109.871 69.3828C109.873 69.3664 109.885 69.3541 109.904 69.3476C109.924 69.341 109.951 69.3405 109.981 69.3461C110.012 69.3517 110.044 69.3632 110.074 69.379C110.105 69.3948 110.132 69.4142 110.152 69.4347L110.664 70.0369ZM109.401 67.1067C109.376 67.1585 109.199 67.108 109.186 67.0548L108.367 66.0873C108.244 65.9827 108.392 65.956 108.504 66.0079L109.402 66.4269C109.534 66.5045 109.657 66.6092 109.601 66.6611L109.401 67.1067ZM107.84 68.106L100.489 63.4788C100.198 63.2958 99.9935 63.2958 99.98 63.4788L100.561 68.0839C100.604 68.2152 100.805 68.3716 101.111 68.3716L107.789 68.3662C108.027 68.3662 108.097 68.2886 107.841 68.106H107.84ZM106.681 67.8177L101.797 67.8211C101.763 67.8249 101.721 67.8206 101.676 67.8085C101.631 67.7964 101.585 67.7771 101.543 67.7527C101.501 67.7283 101.465 67.6998 101.439 67.6705C101.412 67.6411 101.397 67.612 101.394 67.5864L100.997 64.2373C100.989 64.1067 101.179 64.1319 101.373 64.2373L106.705 67.6081C106.883 67.7388 106.848 67.8171 106.679 67.8171L106.681 67.8177ZM101.992 64.8121L105.897 67.295L105.895 67.2941C106.05 67.3978 106.004 67.4233 105.892 67.4506L102.297 67.4524C102.269 67.4498 102.237 67.4426 102.206 67.4313C102.174 67.4201 102.143 67.405 102.115 67.3873C102.087 67.3697 102.063 67.3499 102.044 67.3296C102.025 67.3092 102.012 67.2889 102.007 67.2701L101.721 64.8121C101.72 64.7942 101.728 64.7794 101.743 64.7692C101.758 64.7589 101.78 64.7535 101.807 64.7535C101.834 64.7535 101.866 64.7589 101.898 64.7692C101.93 64.7794 101.963 64.7942 101.992 64.8121ZM102.872 66.8512L104.737 66.8492L104.736 66.8487C104.803 66.8487 104.816 66.8228 104.737 66.7702L102.725 65.5176C102.646 65.4655 102.613 65.4655 102.589 65.5176L102.737 66.7724C102.749 66.8246 102.804 66.8512 102.872 66.8512Z" fill="url(#paint1_linear)"/>
<path d="M155.352 64.5631L156.639 66.0799C155.782 65.2699 154.505 64.5644 153.149 64.5651L150.707 64.5671L153.079 67.3642L150.639 67.3662L150.285 66.948H152.083L151.263 65.9801H149.465L149.133 65.5887L151.301 65.586L150.437 64.5673L146.571 64.57L147.436 65.5893C146.656 64.911 145.724 64.5717 144.639 64.5714L141.96 64.5738L144.133 67.1361C143.007 67.6076 141.892 67.4524 141.081 66.5368C140.284 65.5956 140.963 65.3589 142.619 65.6712L141.597 64.6259C139.68 64.3656 138.581 64.6286 138.688 65.6745C138.088 65.1268 137.236 64.6031 135.993 64.5785L133.281 64.5805L135.635 67.3542H133.191L132.859 66.9625L134.656 66.9612L133.836 65.9933L132.039 65.9951L131.684 65.5766L133.854 65.5752L133.008 64.5799L122.769 64.5877L124.543 66.6798L121.447 64.5884L119.513 64.5904L121.865 67.3624L119.322 67.3638L118.988 66.9723L120.786 66.9703L119.987 66.0286L118.19 66.03L117.836 65.6117L119.971 65.6092L119.131 64.6172L115.299 64.6199L117.451 67.1562C116.439 67.602 115.253 67.525 114.387 66.5044C113.656 65.6405 114.485 65.3804 116.028 65.7186L114.95 64.6465C112.368 64.2817 111.384 64.9635 112.726 66.5849C113.88 67.9451 116.487 68.7801 118.382 68.2547L118.471 68.3594L124.236 68.356L122.572 66.3944L125.524 68.3538H127.524L125.149 65.5533H126.744L129.117 68.3511L130.881 68.3497L128.529 65.5761H129.989L132.339 68.3473L138.103 68.3439L135.751 65.5721H136.295C136.6 65.5721 136.904 65.6502 137.127 65.9123C137.358 66.2255 137.085 66.304 136.443 66.2255L139.018 68.3435L140.847 68.3415L138.738 66.773C138.885 66.7407 138.993 66.6763 139.052 66.5851C139.111 66.494 139.119 66.3788 139.076 66.2494C140.894 68.3938 143.525 68.6546 145.047 68.2079L145.157 68.3381H146.82L144.469 65.5663H145.012C145.417 65.5663 145.675 65.7486 145.81 65.9058C146.066 66.1673 145.771 66.2986 145.125 66.219L147.735 68.337L149.464 68.3357L147.388 66.7674C147.6 66.7374 147.757 66.6585 147.84 66.5389C147.924 66.4193 147.931 66.2634 147.863 66.0877L149.769 68.3357L156.653 68.3303C157.602 68.3303 157.869 67.8062 157.375 66.9435L158.552 68.3303L160.316 68.329L157.966 65.5571L159.695 65.5558L162.045 68.3278L163.81 68.3265L161.459 65.5549L162.815 65.5535L161.972 64.5602L155.352 64.5631ZM155.27 67.3378H154.726L153.287 65.6379H153.898C154.236 65.6379 154.685 65.926 155.15 66.4755C155.693 67.0759 155.678 67.3376 155.272 67.3376" fill="url(#paint2_linear)"/>
<path d="M155.95 132.545L160.898 138.388H164.977L161.165 133.887C160.934 133.614 160.843 133.396 160.894 133.235C160.947 133.067 161.132 132.983 161.45 132.983C161.751 132.983 162.07 133.067 162.408 133.235C162.753 133.403 163.039 133.62 163.265 133.887L167.077 138.388C167.394 138.407 167.714 138.491 168.035 138.64C168.365 138.789 168.622 138.972 168.806 139.19C168.985 139.401 169.04 139.581 168.971 139.73C168.905 139.873 168.726 139.96 168.435 139.991L171.086 143.122C171.313 143.389 171.396 143.604 171.338 143.765C171.284 143.933 171.103 144.017 170.794 144.017C170.484 144.017 170.161 143.933 169.824 143.765C169.486 143.598 169.207 143.383 168.986 143.122L166.334 139.991H160.155L153.85 132.545C153.618 132.272 153.528 132.054 153.578 131.893C153.637 131.731 153.825 131.651 154.142 131.651C154.443 131.651 154.763 131.735 155.1 131.902C155.446 132.07 155.729 132.284 155.95 132.545Z" fill="url(#paint3_linear)"/>
<path d="M170.484 133.253L178.242 142.414H184.397L176.639 133.253H170.484ZM169.347 131.651H175.049C175.798 131.651 176.501 131.803 177.158 132.107C177.823 132.412 178.397 132.85 178.881 133.421L186.355 142.246C186.839 142.818 187.006 143.256 186.857 143.56C186.716 143.865 186.271 144.017 185.522 144.017H179.819C179.07 144.017 178.367 143.865 177.711 143.56C177.054 143.256 176.484 142.818 175.999 142.246L168.526 133.421C168.042 132.85 167.87 132.412 168.011 132.107C168.153 131.803 168.598 131.651 169.347 131.651Z" fill="url(#paint4_linear)"/>
<path d="M184.944 133.253L192.702 142.414H198.856L191.098 133.253H184.944ZM183.806 131.651H189.509C190.258 131.651 190.961 131.803 191.618 132.107C192.282 132.412 192.857 132.85 193.341 133.421L200.815 142.246C201.299 142.818 201.466 143.256 201.317 143.56C201.176 143.865 200.731 144.017 199.982 144.017H194.279C193.53 144.017 192.827 143.865 192.17 143.56C191.513 143.256 190.943 142.818 190.459 142.246L182.985 133.421C182.501 132.85 182.33 132.412 182.471 132.107C182.612 131.803 183.057 131.651 183.806 131.651Z" fill="url(#paint5_linear)"/>
<path d="M199.403 133.253L207.161 142.414H213.316L205.558 133.253H199.403ZM198.266 131.651H203.969C204.718 131.651 205.42 131.803 206.077 132.107C206.742 132.412 207.317 132.85 207.801 133.421L215.274 142.246C215.758 142.818 215.926 143.256 215.776 143.56C215.635 143.865 215.19 144.017 214.441 144.017H208.738C207.989 144.017 207.287 143.865 206.63 143.56C205.973 143.256 205.403 142.818 204.919 142.246L197.445 133.421C196.961 132.85 196.79 132.412 196.931 132.107C197.072 131.803 197.517 131.651 198.266 131.651Z" fill="url(#paint6_linear)"/>
<path d="M225.061 131.651H230.117L239.232 142.414H241.259L238.592 139.264C238.36 138.991 238.272 138.777 238.328 138.621C238.392 138.466 238.582 138.388 238.9 138.388C239.209 138.388 239.53 138.469 239.862 138.631C240.194 138.792 240.471 139.003 240.692 139.264L244.038 143.215C244.238 143.452 244.291 143.644 244.198 143.793C244.104 143.942 243.886 144.017 243.545 144.017H235.534C235.184 144.017 234.836 143.942 234.489 143.793C234.152 143.644 233.883 143.452 233.683 143.215C233.483 142.979 233.43 142.787 233.523 142.638C233.617 142.489 233.834 142.414 234.176 142.414H237.131L229.374 133.253H226.419C226.06 133.253 225.715 133.182 225.382 133.039C225.044 132.89 224.773 132.694 224.568 132.452C224.368 132.216 224.314 132.023 224.408 131.874C224.501 131.725 224.719 131.651 225.061 131.651Z" fill="url(#paint7_linear)"/>
<path d="M239.521 131.651H246.604C247.182 131.651 247.806 131.806 248.476 132.117C249.154 132.427 249.683 132.806 250.061 133.253L253.258 137.028C253.636 137.475 253.75 137.854 253.598 138.165C253.454 138.475 253.093 138.631 252.515 138.631H246.36L249.564 142.414H256.647C256.997 142.414 257.341 142.489 257.679 142.638C258.025 142.787 258.298 142.979 258.498 143.215C258.698 143.452 258.751 143.644 258.657 143.793C258.564 143.942 258.346 144.017 258.004 144.017H248.821L244.259 138.631C243.886 138.189 243.771 137.814 243.915 137.503C244.054 137.186 244.416 137.028 245.002 137.028H251.157L247.961 133.253H240.878C240.52 133.253 240.174 133.182 239.842 133.039C239.504 132.89 239.232 132.694 239.027 132.452C238.827 132.216 238.774 132.023 238.868 131.874C238.961 131.725 239.179 131.651 239.521 131.651Z" fill="url(#paint8_linear)"/>
<path d="M253.98 131.651H261.063C261.633 131.651 262.26 131.809 262.943 132.126C263.621 132.437 264.147 132.812 264.521 133.253L267.038 136.226C267.275 136.506 267.439 136.776 267.53 137.037C267.62 137.298 267.643 137.556 267.598 137.81C268.091 138.084 268.52 138.36 268.887 138.64C269.249 138.913 269.545 139.187 269.777 139.46L272.279 142.414C272.652 142.855 272.763 143.231 272.611 143.542C272.472 143.858 272.114 144.017 271.536 144.017H264.453C264.103 144.017 263.755 143.942 263.409 143.793C263.071 143.644 262.802 143.452 262.602 143.215C262.402 142.979 262.349 142.787 262.442 142.638C262.536 142.489 262.754 142.414 263.095 142.414H270.154L267.628 139.432C267.45 139.221 267.186 139.034 266.837 138.873C266.497 138.711 266.184 138.631 265.899 138.631H261.943C261.585 138.631 261.243 138.559 260.919 138.416C260.594 138.273 260.327 138.078 260.116 137.829C259.922 137.599 259.867 137.41 259.952 137.261C260.033 137.105 260.244 137.028 260.586 137.028H264.542C264.827 137.028 265.005 136.95 265.077 136.795C265.152 136.633 265.098 136.444 264.914 136.226L262.396 133.253H255.338C254.98 133.253 254.634 133.182 254.301 133.039C253.963 132.89 253.692 132.694 253.487 132.452C253.287 132.216 253.234 132.023 253.327 131.874C253.421 131.725 253.638 131.651 253.98 131.651Z" fill="url(#paint9_linear)"/>
<path d="M270.651 132.545L275.599 138.388H279.678L275.866 133.887C275.634 133.614 275.544 133.396 275.594 133.235C275.648 133.067 275.833 132.983 276.151 132.983C276.452 132.983 276.771 133.067 277.109 133.235C277.454 133.403 277.74 133.62 277.966 133.887L281.778 138.388C282.095 138.407 282.414 138.491 282.736 138.64C283.066 138.789 283.323 138.972 283.507 139.19C283.686 139.401 283.741 139.581 283.672 139.73C283.605 139.873 283.427 139.96 283.135 139.991L285.787 143.122C286.013 143.389 286.097 143.604 286.039 143.765C285.985 143.933 285.804 144.017 285.495 144.017C285.185 144.017 284.862 143.933 284.524 143.765C284.187 143.598 283.908 143.383 283.687 143.122L281.035 139.991H274.856L268.55 132.545C268.319 132.272 268.228 132.054 268.279 131.893C268.337 131.731 268.525 131.651 268.843 131.651C269.144 131.651 269.463 131.735 269.801 131.902C270.146 132.07 270.43 132.284 270.651 132.545Z" fill="url(#paint10_linear)"/>
<path d="M297.287 131.651H304.394C304.744 131.651 305.088 131.725 305.426 131.874C305.772 132.023 306.045 132.216 306.245 132.452C306.44 132.682 306.493 132.875 306.405 133.03C306.311 133.179 306.093 133.253 305.751 133.253H300.745L303.941 137.028H308.02C308.589 137.028 309.216 137.186 309.9 137.503C310.583 137.82 311.109 138.196 311.477 138.631L314.681 142.414C315.055 142.855 315.166 143.231 315.014 143.542C314.875 143.858 314.516 144.017 313.938 144.017H309.286C309.099 144.017 308.883 143.998 308.64 143.961C308.41 143.93 308.174 143.886 307.931 143.831L305.828 143.309C305.529 143.234 305.259 143.132 305.019 143.001C304.773 142.864 304.573 142.706 304.421 142.526C304.237 142.308 304.179 142.125 304.248 141.976C304.32 141.821 304.507 141.743 304.808 141.743C304.881 141.743 304.966 141.752 305.064 141.771C305.164 141.783 305.276 141.805 305.4 141.836L307.462 142.339C307.57 142.371 307.658 142.392 307.725 142.405C307.787 142.411 307.847 142.414 307.904 142.414H312.581L309.377 138.631H303.198L297.287 131.651Z" fill="url(#paint11_linear)"/>
<path d="M318.834 139.991L320.886 142.414H327.041L324.989 139.991H318.834ZM310.721 131.651H311.649C311.999 131.651 312.343 131.725 312.681 131.874C313.027 132.023 313.3 132.216 313.5 132.452C313.679 132.663 313.734 132.843 313.664 132.993C313.598 133.135 313.419 133.222 313.128 133.253L317.477 138.388H323.399C324.148 138.388 324.851 138.54 325.508 138.845C326.173 139.149 326.747 139.587 327.231 140.159L328.999 142.246C329.483 142.818 329.65 143.256 329.501 143.56C329.36 143.865 328.915 144.017 328.166 144.017H322.463C321.714 144.017 321.011 143.865 320.355 143.56C319.698 143.256 319.128 142.818 318.643 142.246L310.428 132.545C310.197 132.272 310.106 132.054 310.156 131.893C310.215 131.731 310.403 131.651 310.721 131.651Z" fill="url(#paint12_linear)"/>
<path d="M325.18 131.651H334.486L338.542 136.441C338.684 136.608 338.769 136.742 338.796 136.841C338.823 136.941 338.784 137.068 338.68 137.223L337.066 139.572L340.073 143.122C340.299 143.389 340.383 143.604 340.324 143.765C340.271 143.933 340.09 144.017 339.78 144.017C339.471 144.017 339.148 143.933 338.81 143.765C338.473 143.598 338.193 143.383 337.972 143.122L334.705 139.264C334.563 139.096 334.479 138.963 334.451 138.864C334.424 138.764 334.463 138.637 334.567 138.481L336.197 136.152L333.743 133.253H327.588C327.693 133.465 327.703 133.629 327.615 133.747C327.536 133.865 327.366 133.924 327.106 133.924C326.796 133.924 326.476 133.844 326.144 133.682C325.806 133.514 325.527 133.3 325.306 133.039L324.888 132.545C324.656 132.272 324.566 132.054 324.616 131.893C324.675 131.731 324.863 131.651 325.18 131.651Z" fill="url(#paint13_linear)"/>
<path d="M346.601 138.631L349.805 142.414H355.96L352.756 138.631H346.601ZM344.123 133.253L347.32 137.028H349.322L346.126 133.253H344.123ZM341.716 131.651H345.819C346.12 131.651 346.439 131.735 346.777 131.902C347.123 132.07 347.406 132.284 347.627 132.545L351.423 137.028C352.141 137.077 352.803 137.254 353.411 137.559C354.022 137.857 354.554 138.273 355.006 138.808L357.918 142.246C358.402 142.818 358.57 143.256 358.42 143.56C358.279 143.865 357.834 144.017 357.085 144.017H351.382C350.633 144.017 349.931 143.865 349.274 143.56C348.617 143.256 348.047 142.818 347.563 142.246L344.651 138.808C344.198 138.273 344.018 137.854 344.11 137.55C344.211 137.245 344.58 137.071 345.219 137.028L341.423 132.545C341.192 132.272 341.101 132.054 341.152 131.893C341.21 131.731 341.398 131.651 341.716 131.651Z" fill="url(#paint14_linear)"/>
<path d="M369.991 133.253L372.043 135.676H378.197L376.145 133.253H369.991ZM368.853 131.651H374.556C375.305 131.651 376.01 131.806 376.672 132.117C377.342 132.427 377.92 132.868 378.404 133.44L386.619 143.141C386.845 143.408 386.926 143.619 386.863 143.775C386.804 143.936 386.62 144.017 386.311 144.017H385.383C385.033 144.017 384.684 143.942 384.338 143.793C384 143.644 383.731 143.452 383.532 143.215C383.353 143.004 383.296 142.827 383.363 142.684C383.424 142.535 383.601 142.442 383.895 142.405L379.57 137.298H373.636C372.895 137.298 372.189 137.143 371.519 136.832C370.857 136.521 370.284 136.08 369.8 135.509L368.048 133.44C367.564 132.868 367.39 132.427 367.526 132.117C367.67 131.806 368.112 131.651 368.853 131.651Z" fill="url(#paint15_linear)"/>
<path d="M382.165 131.651H387.22L396.336 142.414H398.363L395.695 139.264C395.464 138.991 395.376 138.777 395.432 138.621C395.495 138.466 395.686 138.388 396.004 138.388C396.313 138.388 396.634 138.469 396.966 138.631C397.298 138.792 397.575 139.003 397.796 139.264L401.142 143.215C401.342 143.452 401.395 143.644 401.301 143.793C401.208 143.942 400.99 144.017 400.648 144.017H392.637C392.287 144.017 391.939 143.942 391.593 143.793C391.255 143.644 390.986 143.452 390.786 143.215C390.586 142.979 390.533 142.787 390.627 142.638C390.72 142.489 390.938 142.414 391.28 142.414H394.235L386.477 133.253H383.522C383.164 133.253 382.819 133.182 382.486 133.039C382.148 132.89 381.876 132.694 381.671 132.452C381.471 132.216 381.418 132.023 381.512 131.874C381.605 131.725 381.823 131.651 382.165 131.651Z" fill="url(#paint16_linear)"/>
<path d="M398.91 133.253L406.668 142.414H412.822L405.065 133.253H398.91ZM397.772 131.651H403.475C404.224 131.651 404.927 131.803 405.584 132.107C406.249 132.412 406.823 132.85 407.307 133.421L414.781 142.246C415.265 142.818 415.432 143.256 415.283 143.56C415.142 143.865 414.697 144.017 413.948 144.017H408.245C407.496 144.017 406.793 143.865 406.136 143.56C405.48 143.256 404.909 142.818 404.425 142.246L396.951 133.421C396.467 132.85 396.296 132.412 396.437 132.107C396.578 131.803 397.023 131.651 397.772 131.651Z" fill="url(#paint17_linear)"/>
<path d="M411.084 131.651H416.14L425.255 142.414H427.282L424.614 139.264C424.383 138.991 424.295 138.777 424.351 138.621C424.415 138.466 424.605 138.388 424.923 138.388C425.232 138.388 425.553 138.469 425.885 138.631C426.217 138.792 426.494 139.003 426.715 139.264L430.061 143.215C430.261 143.452 430.314 143.644 430.221 143.793C430.127 143.942 429.909 144.017 429.567 144.017H421.556C421.206 144.017 420.858 143.942 420.512 143.793C420.174 143.644 419.905 143.452 419.705 143.215C419.506 142.979 419.452 142.787 419.546 142.638C419.639 142.489 419.857 142.414 420.199 142.414H423.154L415.397 133.253H412.441C412.083 133.253 411.738 133.182 411.405 133.039C411.067 132.89 410.796 132.694 410.59 132.452C410.39 132.216 410.337 132.023 410.431 131.874C410.524 131.725 410.742 131.651 411.084 131.651Z" fill="url(#paint18_linear)"/>
<path fill-rule="evenodd" clip-rule="evenodd" d="M160.76 138.686L155.559 132.545C155.392 132.348 155.201 132.21 154.985 132.105L154.976 132.1C154.77 131.998 154.587 131.949 154.395 131.949C154.176 131.949 154.072 132.001 154.037 132.093C154.009 132.186 154.055 132.326 154.24 132.545L160.293 139.693H166.472L169.377 143.122C169.547 143.323 169.738 143.463 169.948 143.567C170.15 143.668 170.337 143.719 170.541 143.719C170.746 143.719 170.846 143.668 170.878 143.567L170.879 143.563C170.914 143.468 170.873 143.331 170.696 143.122L167.822 139.729L168.134 139.695C168.364 139.671 168.476 139.606 168.516 139.519C168.559 139.426 168.527 139.322 168.415 139.19C168.299 139.053 168.151 138.947 167.947 138.855L167.937 138.851C167.734 138.757 167.527 138.699 167.297 138.685L166.919 138.663L162.875 133.887C162.701 133.682 162.506 133.541 162.293 133.437L162.283 133.433C162.078 133.331 161.895 133.281 161.702 133.281C161.487 133.281 161.385 133.334 161.353 133.433C161.324 133.526 161.369 133.667 161.556 133.887L165.62 138.686H160.76ZM160.894 133.235C160.947 133.067 161.132 132.983 161.45 132.983C161.751 132.983 162.07 133.067 162.408 133.235C162.753 133.403 163.039 133.62 163.265 133.887L167.077 138.388C167.394 138.407 167.714 138.491 168.035 138.64C168.365 138.789 168.622 138.972 168.806 139.19C168.985 139.401 169.04 139.581 168.971 139.73C168.905 139.873 168.726 139.96 168.435 139.991L171.086 143.122C171.313 143.389 171.396 143.604 171.338 143.765C171.284 143.933 171.103 144.017 170.794 144.017C170.484 144.017 170.161 143.933 169.824 143.765C169.486 143.598 169.207 143.383 168.986 143.122L166.334 139.991H160.155L153.85 132.545C153.618 132.272 153.528 132.054 153.578 131.893C153.637 131.731 153.825 131.651 154.142 131.651C154.443 131.651 154.763 131.735 155.1 131.902C155.446 132.07 155.729 132.284 155.95 132.545L160.898 138.388H164.977L161.165 133.887C160.934 133.614 160.843 133.396 160.894 133.235ZM169.841 132.955H176.777L185.04 142.712H178.104L169.841 132.955ZM177.065 132.32L177.06 132.318C176.56 132.086 175.982 131.949 175.302 131.949H169.599C168.919 131.949 168.574 132.086 168.466 132.318C168.359 132.55 168.477 132.902 168.917 133.421L176.39 142.246C176.83 142.766 177.308 143.117 177.808 143.349C178.309 143.581 178.886 143.719 179.567 143.719H185.269C185.95 143.719 186.295 143.581 186.402 143.349L186.403 143.347C186.517 143.115 186.403 142.764 185.964 142.246L178.491 133.421C178.052 132.904 177.572 132.553 177.065 132.32ZM178.242 142.414L170.484 133.253H176.639L184.397 142.414H178.242ZM177.158 132.107C176.501 131.803 175.798 131.651 175.049 131.651H169.347C168.598 131.651 168.153 131.803 168.011 132.107C167.87 132.412 168.042 132.85 168.526 133.421L175.999 142.246C176.484 142.818 177.054 143.256 177.711 143.56C178.367 143.865 179.07 144.017 179.819 144.017H185.522C186.271 144.017 186.716 143.865 186.857 143.56C187.006 143.256 186.839 142.818 186.355 142.246L178.881 133.421C178.397 132.85 177.823 132.412 177.158 132.107ZM184.3 132.955H191.237L199.5 142.712H192.563L184.3 132.955ZM191.524 132.32L191.52 132.318C191.019 132.086 190.442 131.949 189.762 131.949H184.059C183.378 131.949 183.034 132.086 182.926 132.318C182.818 132.55 182.936 132.902 183.376 133.421L190.85 142.246C191.29 142.766 191.767 143.117 192.268 143.349C192.768 143.581 193.346 143.719 194.026 143.719H199.729C200.41 143.719 200.754 143.581 200.862 143.349L200.863 143.347C200.977 143.115 200.862 142.764 200.424 142.246L192.95 133.421C192.512 132.904 192.032 132.553 191.524 132.32ZM192.702 142.414L184.944 133.253H191.098L198.856 142.414H192.702ZM191.618 132.107C190.961 131.803 190.258 131.651 189.509 131.651H183.806C183.057 131.651 182.612 131.803 182.471 132.107C182.33 132.412 182.501 132.85 182.985 133.421L190.459 142.246C190.943 142.818 191.513 143.256 192.17 143.56C192.827 143.865 193.53 144.017 194.279 144.017H199.982C200.731 144.017 201.176 143.865 201.317 143.56C201.466 143.256 201.299 142.818 200.815 142.246L193.341 133.421C192.857 132.85 192.282 132.412 191.618 132.107ZM198.76 132.955H205.696L213.959 142.712H207.023L198.76 132.955ZM205.984 132.32L205.979 132.318C205.479 132.086 204.902 131.949 204.221 131.949H198.518C197.838 131.949 197.493 132.086 197.386 132.318C197.278 132.55 197.396 132.902 197.836 133.421L205.309 142.246C205.749 142.766 206.227 143.117 206.728 143.349C207.228 143.581 207.805 143.719 208.486 143.719H214.189C214.869 143.719 215.214 143.581 215.321 143.349L215.322 143.347C215.436 143.115 215.322 142.764 214.883 142.246L207.41 133.421C206.971 132.904 206.491 132.553 205.984 132.32ZM207.161 142.414L199.403 133.253H205.558L213.316 142.414H207.161ZM206.077 132.107C205.42 131.803 204.718 131.651 203.969 131.651H198.266C197.517 131.651 197.072 131.803 196.931 132.107C196.79 132.412 196.961 132.85 197.445 133.421L204.919 142.246C205.403 142.818 205.973 143.256 206.63 143.56C207.287 143.865 207.989 144.017 208.738 144.017H214.441C215.19 144.017 215.635 143.865 215.776 143.56C215.926 143.256 215.758 142.818 215.274 142.246L207.801 133.421C207.317 132.85 206.742 132.412 206.077 132.107ZM229.374 133.253L237.131 142.414H234.176C233.834 142.414 233.617 142.489 233.523 142.638C233.43 142.787 233.483 142.979 233.683 143.215C233.883 143.452 234.152 143.644 234.489 143.793C234.836 143.942 235.184 144.017 235.534 144.017H243.545C243.886 144.017 244.104 143.942 244.198 143.793C244.291 143.644 244.238 143.452 244.038 143.215L240.692 139.264C240.471 139.003 240.194 138.792 239.862 138.631C239.53 138.469 239.209 138.388 238.9 138.388C238.582 138.388 238.392 138.466 238.328 138.621C238.272 138.777 238.36 138.991 238.592 139.264L241.259 142.414H239.232L230.117 131.651H225.061C224.719 131.651 224.501 131.725 224.408 131.874C224.314 132.023 224.368 132.216 224.568 132.452C224.773 132.694 225.044 132.89 225.382 133.039C225.715 133.182 226.06 133.253 226.419 133.253H229.374ZM225.457 132.818C225.649 132.9 225.879 132.955 226.166 132.955H229.512L237.775 142.712H234.429C234.166 142.712 234.03 142.768 233.971 142.861C233.915 142.95 233.941 143.06 234.073 143.215C234.208 143.374 234.367 143.484 234.565 143.572C234.776 143.663 235.009 143.719 235.281 143.719H243.292C243.555 143.719 243.691 143.663 243.749 143.57C243.805 143.481 243.779 143.371 243.647 143.215L240.301 139.264C240.131 139.063 239.945 138.929 239.746 138.833C239.55 138.737 239.362 138.686 239.152 138.686C238.929 138.686 238.823 138.738 238.786 138.825C238.757 138.911 238.797 139.045 238.982 139.264L241.902 142.712H239.094L229.979 131.949H225.314C225.051 131.949 224.915 132.004 224.856 132.097C224.8 132.186 224.826 132.296 224.958 132.452C225.1 132.619 225.263 132.732 225.457 132.818ZM248.382 132.33L248.378 132.327C247.829 132.073 247.331 131.949 246.856 131.949H239.773C239.511 131.949 239.374 132.004 239.316 132.097C239.26 132.186 239.286 132.296 239.418 132.452C239.559 132.619 239.723 132.732 239.917 132.818C240.108 132.9 240.339 132.955 240.626 132.955H248.099L251.8 137.326H245.255C244.773 137.326 244.484 137.453 244.371 137.712L244.37 137.714C244.252 137.968 244.343 138.268 244.65 138.631L248.959 143.719H257.752C258.014 143.719 258.151 143.663 258.209 143.57C258.265 143.481 258.239 143.371 258.107 143.215C257.975 143.06 257.815 142.95 257.608 142.861L257.599 142.857C257.4 142.769 257.173 142.712 256.899 142.712H249.426L245.717 138.332H252.262C252.737 138.332 253.025 138.208 253.143 137.954L253.144 137.952C253.268 137.698 253.178 137.396 252.867 137.028L249.671 133.253C249.359 132.886 248.937 132.584 248.382 132.33ZM239.842 133.039C239.504 132.89 239.232 132.694 239.027 132.452C238.827 132.216 238.774 132.023 238.868 131.874C238.961 131.725 239.179 131.651 239.521 131.651H246.604C247.182 131.651 247.806 131.806 248.476 132.117C249.154 132.427 249.683 132.806 250.061 133.253L253.258 137.028C253.636 137.475 253.75 137.854 253.598 138.165C253.454 138.475 253.093 138.631 252.515 138.631H246.36L249.564 142.414H256.647C256.997 142.414 257.341 142.489 257.679 142.638C258.025 142.787 258.298 142.979 258.498 143.215C258.698 143.452 258.751 143.644 258.657 143.793C258.564 143.942 258.346 144.017 258.004 144.017H248.821L244.259 138.631C243.886 138.189 243.771 137.814 243.915 137.503C244.054 137.186 244.416 137.028 245.002 137.028H251.157L247.961 133.253H240.878C240.52 133.253 240.174 133.182 239.842 133.039ZM262.85 132.339L262.845 132.337C262.278 132.074 261.778 131.949 261.316 131.949H254.233C253.97 131.949 253.834 132.004 253.775 132.097C253.719 132.186 253.745 132.296 253.877 132.452C254.019 132.619 254.182 132.732 254.376 132.818C254.568 132.9 254.798 132.955 255.085 132.955H262.534L265.304 136.226C265.559 136.527 265.632 136.791 265.532 137.006C265.435 137.216 265.184 137.326 264.795 137.326H260.838C260.579 137.326 260.453 137.382 260.405 137.476L260.403 137.48C260.352 137.57 260.379 137.678 260.507 137.829C260.661 138.01 260.824 138.12 260.998 138.197C261.176 138.275 261.4 138.332 261.69 138.332H265.647C266.041 138.332 266.482 138.447 266.94 138.664C267.396 138.876 267.768 139.136 268.019 139.432L270.797 142.712H263.348C263.085 142.712 262.949 142.768 262.891 142.861C262.835 142.95 262.861 143.06 262.993 143.215C263.127 143.374 263.286 143.484 263.484 143.572C263.695 143.663 263.929 143.719 264.2 143.719H271.283C271.755 143.719 272.041 143.593 272.155 143.333L272.157 143.329C272.282 143.074 272.193 142.774 271.888 142.414L269.386 139.46C269.186 139.224 268.927 138.985 268.606 138.742L268.603 138.74C268.276 138.491 267.887 138.239 267.431 137.986L267.104 137.804L267.135 137.627C267.176 137.392 267.154 137.16 267.075 136.931C266.996 136.704 266.854 136.47 266.648 136.226L264.13 133.253C263.825 132.893 263.407 132.594 262.85 132.339ZM263.409 143.793C263.071 143.644 262.802 143.452 262.602 143.215C262.402 142.979 262.349 142.787 262.442 142.638C262.536 142.489 262.754 142.414 263.095 142.414H270.154L267.628 139.432C267.45 139.221 267.186 139.034 266.837 138.873C266.497 138.711 266.184 138.631 265.899 138.631H261.943C261.585 138.631 261.243 138.559 260.919 138.416C260.594 138.273 260.327 138.078 260.116 137.829C259.922 137.599 259.867 137.41 259.952 137.261C260.033 137.105 260.244 137.028 260.586 137.028H264.542C264.827 137.028 265.005 136.95 265.077 136.795C265.152 136.633 265.098 136.444 264.914 136.226L262.396 133.253H255.338C254.98 133.253 254.634 133.182 254.301 133.039C253.963 132.89 253.692 132.694 253.487 132.452C253.287 132.216 253.234 132.023 253.327 131.874C253.421 131.725 253.638 131.651 253.98 131.651H261.063C261.633 131.651 262.26 131.809 262.943 132.126C263.621 132.437 264.147 132.812 264.521 133.253L267.038 136.226C267.275 136.506 267.439 136.776 267.53 137.037C267.62 137.298 267.643 137.556 267.598 137.81C268.09 138.084 268.52 138.36 268.887 138.64C269.249 138.913 269.545 139.187 269.777 139.46L272.279 142.414C272.652 142.855 272.763 143.231 272.611 143.542C272.472 143.858 272.114 144.017 271.536 144.017H264.453C264.103 144.017 263.755 143.942 263.409 143.793ZM275.461 138.686L270.26 132.545C270.093 132.348 269.902 132.21 269.686 132.105L269.677 132.1C269.471 131.998 269.288 131.949 269.095 131.949C268.876 131.949 268.773 132.001 268.738 132.093C268.71 132.187 268.756 132.326 268.941 132.545L274.994 139.693H281.173L284.077 143.122C284.247 143.323 284.439 143.463 284.649 143.567C284.851 143.668 285.038 143.719 285.242 143.719C285.446 143.719 285.547 143.668 285.579 143.567L285.58 143.563C285.615 143.468 285.573 143.331 285.396 143.122L282.522 139.729L282.835 139.695C283.065 139.671 283.176 139.606 283.217 139.519C283.26 139.426 283.228 139.322 283.116 139.19C283 139.053 282.852 138.947 282.648 138.855L282.638 138.851C282.435 138.756 282.228 138.699 281.998 138.685L281.62 138.663L277.575 133.887C277.401 133.682 277.207 133.541 276.993 133.437L276.984 133.433C276.778 133.331 276.596 133.281 276.403 133.281C276.187 133.281 276.086 133.334 276.054 133.433C276.025 133.526 276.07 133.667 276.257 133.887L280.321 138.686H275.461ZM275.594 133.235C275.648 133.067 275.833 132.983 276.151 132.983C276.452 132.983 276.771 133.067 277.109 133.235C277.454 133.403 277.74 133.62 277.966 133.887L281.778 138.388C282.095 138.407 282.414 138.491 282.736 138.64C283.066 138.789 283.323 138.972 283.507 139.19C283.686 139.401 283.741 139.581 283.672 139.73C283.605 139.873 283.427 139.96 283.135 139.991L285.787 143.122C286.013 143.389 286.097 143.604 286.039 143.765C285.985 143.933 285.804 144.017 285.495 144.017C285.185 144.017 284.862 143.933 284.524 143.765C284.187 143.598 283.908 143.383 283.687 143.122L281.035 139.991H274.856L268.55 132.545C268.319 132.272 268.228 132.054 268.279 131.893C268.337 131.731 268.525 131.651 268.843 131.651C269.144 131.651 269.463 131.735 269.801 131.902C270.146 132.07 270.43 132.284 270.651 132.545L275.599 138.388H279.678L275.866 133.887C275.634 133.614 275.544 133.396 275.594 133.235ZM305.426 131.874C305.088 131.725 304.744 131.651 304.394 131.651H297.287L303.198 138.631H309.377L312.581 142.414H307.904C307.847 142.414 307.787 142.411 307.725 142.405C307.658 142.392 307.57 142.371 307.462 142.339L305.4 141.836C305.276 141.805 305.164 141.783 305.064 141.771C304.966 141.752 304.881 141.743 304.808 141.743C304.507 141.743 304.32 141.821 304.248 141.976C304.179 142.125 304.237 142.308 304.421 142.526C304.573 142.706 304.773 142.864 305.019 143.001C305.259 143.132 305.529 143.234 305.828 143.309L307.931 143.831C308.174 143.886 308.41 143.93 308.64 143.961C308.883 143.998 309.099 144.017 309.286 144.017H313.938C314.516 144.017 314.875 143.858 315.014 143.542C315.166 143.231 315.055 142.855 314.681 142.414L311.477 138.631C311.109 138.196 310.583 137.82 309.9 137.503C309.216 137.186 308.589 137.028 308.02 137.028H303.941L300.745 133.253H305.751C306.093 133.253 306.311 133.179 306.405 133.03C306.493 132.875 306.44 132.682 306.245 132.452C306.045 132.216 305.772 132.023 305.426 131.874ZM305.955 132.809C306.009 132.711 305.978 132.598 305.854 132.452C305.722 132.296 305.562 132.186 305.355 132.097L305.347 132.093C305.148 132.006 304.921 131.949 304.647 131.949H297.93L303.336 138.332H309.515L313.224 142.712H308.157C308.081 142.712 308.002 142.708 307.92 142.7L307.891 142.697L307.861 142.691C307.761 142.673 307.649 142.645 307.533 142.612L305.483 142.112C305.386 142.087 305.307 142.072 305.242 142.064L305.218 142.061L305.193 142.057C305.133 142.045 305.09 142.041 305.06 142.041C304.858 142.041 304.748 142.09 304.703 142.187C304.661 142.278 304.692 142.385 304.811 142.526C304.913 142.646 305.035 142.741 305.181 142.823C305.33 142.903 305.513 142.976 305.745 143.033L307.839 143.553C308.055 143.602 308.265 143.641 308.469 143.669L308.475 143.669L308.482 143.67C308.697 143.703 308.88 143.719 309.033 143.719H313.686C314.158 143.719 314.444 143.593 314.558 143.333L314.56 143.329C314.685 143.074 314.596 142.774 314.291 142.414L311.087 138.631C310.788 138.277 310.369 137.977 309.802 137.714C309.235 137.451 308.735 137.326 308.272 137.326H303.803L300.101 132.955H305.499C305.76 132.955 305.896 132.901 305.955 132.809ZM318.191 139.693H325.127L327.684 142.712H320.748L318.191 139.693ZM312.61 132.097L312.601 132.093C312.402 132.006 312.175 131.949 311.901 131.949H310.973C310.754 131.949 310.651 132.001 310.616 132.093C310.588 132.187 310.634 132.326 310.819 132.545L319.034 142.246C319.474 142.766 319.952 143.117 320.452 143.349C320.953 143.581 321.53 143.719 322.211 143.719H327.913C328.594 143.719 328.939 143.581 329.046 143.349L329.047 143.347C329.161 143.115 329.047 142.764 328.608 142.246L326.84 140.159C326.402 139.641 325.922 139.29 325.415 139.058L325.41 139.056C324.91 138.824 324.332 138.686 323.652 138.686H317.338L312.515 132.991L312.828 132.958C313.058 132.933 313.169 132.869 313.21 132.782C313.253 132.689 313.221 132.584 313.109 132.452C312.977 132.296 312.817 132.186 312.61 132.097ZM310.156 131.893C310.215 131.731 310.403 131.651 310.721 131.651H311.649C311.999 131.651 312.343 131.725 312.681 131.874C313.027 132.023 313.3 132.216 313.5 132.452C313.679 132.663 313.734 132.843 313.664 132.993C313.598 133.135 313.419 133.222 313.128 133.253L317.477 138.388H323.399C324.148 138.388 324.851 138.54 325.508 138.845C326.173 139.149 326.747 139.587 327.231 140.159L328.999 142.246C329.483 142.818 329.65 143.256 329.501 143.56C329.36 143.865 328.915 144.017 328.166 144.017H322.463C321.714 144.017 321.011 143.865 320.355 143.56C319.698 143.256 319.128 142.818 318.643 142.246L310.428 132.545C310.197 132.272 310.106 132.054 310.156 131.893ZM320.886 142.414L318.834 139.991H324.989L327.041 142.414H320.886ZM337.066 139.572L338.68 137.223C338.784 137.068 338.823 136.941 338.796 136.841C338.769 136.742 338.684 136.608 338.542 136.441L334.486 131.651H325.18C324.863 131.651 324.675 131.731 324.616 131.893C324.566 132.054 324.656 132.272 324.888 132.545L325.306 133.039C325.527 133.3 325.806 133.514 326.144 133.682C326.476 133.844 326.796 133.924 327.106 133.924C327.366 133.924 327.536 133.865 327.615 133.747C327.703 133.629 327.693 133.465 327.588 133.253H333.743L336.197 136.152L334.567 138.481C334.463 138.637 334.424 138.764 334.451 138.864C334.479 138.963 334.563 139.096 334.705 139.264L337.972 143.122C338.193 143.383 338.473 143.598 338.81 143.765C339.148 143.933 339.471 144.017 339.78 144.017C340.09 144.017 340.271 143.933 340.324 143.765C340.383 143.604 340.299 143.389 340.073 143.122L337.066 139.572ZM335.014 138.707C335.014 138.707 335.014 138.708 335.013 138.708C334.911 138.86 334.902 138.95 334.911 138.983C334.923 139.03 334.972 139.117 335.096 139.264L338.363 143.122C338.533 143.323 338.724 143.463 338.934 143.567C339.136 143.668 339.323 143.719 339.528 143.719C339.732 143.719 339.833 143.668 339.864 143.567L339.866 143.563C339.9 143.468 339.859 143.331 339.682 143.122L336.559 139.434L338.233 136.998C338.336 136.845 338.346 136.755 338.337 136.722C338.324 136.675 338.275 136.587 338.151 136.441L334.347 131.949H325.433C325.214 131.949 325.11 132.001 325.075 132.093C325.048 132.187 325.093 132.326 325.278 132.545L325.697 133.039C325.865 133.238 326.055 133.378 326.264 133.482C326.458 133.576 326.645 133.626 326.853 133.626C327.03 133.626 327.124 133.588 327.169 133.522L327.172 133.517C327.225 133.446 327.226 133.339 327.145 133.177L327.034 132.955H333.881L336.705 136.29L335.014 138.707ZM345.958 138.332H352.894L356.603 142.712H349.667L345.958 138.332ZM343.48 132.955H346.264L349.966 137.326H347.181L343.48 132.955ZM346.662 132.105L346.653 132.1C346.447 131.998 346.264 131.949 346.071 131.949H341.968C341.749 131.949 341.646 132.001 341.611 132.093C341.583 132.187 341.629 132.326 341.814 132.545L345.842 137.302L345.504 137.325C344.934 137.364 344.648 137.514 344.57 137.748C344.5 137.982 344.631 138.323 345.041 138.808L347.953 142.246C348.393 142.766 348.871 143.117 349.372 143.349C349.872 143.581 350.449 143.719 351.13 143.719H356.833C357.513 143.719 357.858 143.581 357.965 143.349L357.966 143.347C358.08 143.115 357.966 142.764 357.527 142.246L354.615 138.808C354.205 138.323 353.76 137.988 353.294 137.76L353.284 137.756C352.819 137.523 352.28 137.369 351.637 137.325L351.261 137.299L347.236 132.545C347.069 132.348 346.878 132.21 346.662 132.105ZM344.11 137.55C344.211 137.245 344.58 137.071 345.219 137.028L341.423 132.545C341.192 132.272 341.101 132.054 341.152 131.893C341.21 131.731 341.398 131.651 341.716 131.651H345.819C346.12 131.651 346.439 131.735 346.777 131.902C347.123 132.07 347.406 132.284 347.627 132.545L351.423 137.028C352.141 137.077 352.803 137.254 353.411 137.559C354.022 137.857 354.554 138.273 355.006 138.808L357.918 142.246C358.402 142.818 358.57 143.256 358.42 143.56C358.279 143.865 357.834 144.017 357.085 144.017H351.382C350.633 144.017 349.931 143.865 349.274 143.56C348.617 143.256 348.047 142.818 347.563 142.246L344.651 138.808C344.198 138.273 344.018 137.854 344.11 137.55ZM349.805 142.414L346.601 138.631H352.756L355.96 142.414H349.805ZM347.32 137.028L344.123 133.253H346.126L349.322 137.028H347.32ZM369.347 132.955H376.284L378.841 135.975H371.904L369.347 132.955ZM376.575 132.327L376.57 132.325C376.065 132.088 375.487 131.949 374.808 131.949H369.106C368.439 131.949 368.093 132.087 367.981 132.326C367.877 132.565 368 132.921 368.439 133.44L370.191 135.509C370.63 136.027 371.111 136.384 371.62 136.623C372.137 136.862 372.716 137 373.383 137H379.709L384.503 142.662L384.203 142.7C383.969 142.729 383.857 142.799 383.819 142.891L383.818 142.895C383.778 142.979 383.807 143.079 383.922 143.215C384.057 143.374 384.216 143.484 384.414 143.572C384.625 143.663 384.858 143.719 385.13 143.719H386.058C386.267 143.719 386.37 143.668 386.404 143.572L386.406 143.568C386.442 143.481 386.406 143.351 386.228 143.141L378.013 133.44C377.575 132.923 377.091 132.567 376.575 132.327ZM384.338 143.793C384 143.644 383.731 143.452 383.532 143.215C383.353 143.004 383.296 142.827 383.363 142.684C383.424 142.535 383.601 142.442 383.895 142.405L379.57 137.298H373.636C372.895 137.298 372.189 137.143 371.519 136.832C370.857 136.521 370.284 136.08 369.8 135.509L368.048 133.44C367.564 132.868 367.39 132.427 367.526 132.117C367.67 131.806 368.112 131.651 368.853 131.651H374.556C375.305 131.651 376.01 131.806 376.672 132.117C377.342 132.427 377.92 132.868 378.404 133.44L386.619 143.141C386.845 143.408 386.926 143.619 386.863 143.775C386.804 143.936 386.62 144.017 386.311 144.017H385.383C385.033 144.017 384.684 143.942 384.338 143.793ZM372.043 135.676L369.991 133.253H376.145L378.197 135.676H372.043ZM386.477 133.253L394.235 142.414H391.28C390.938 142.414 390.72 142.489 390.627 142.638C390.533 142.787 390.586 142.979 390.786 143.215C390.986 143.452 391.255 143.644 391.593 143.793C391.939 143.942 392.287 144.017 392.637 144.017H400.648C400.99 144.017 401.208 143.942 401.301 143.793C401.395 143.644 401.342 143.452 401.142 143.215L397.796 139.264C397.575 139.003 397.298 138.792 396.966 138.631C396.634 138.469 396.313 138.388 396.004 138.388C395.686 138.388 395.495 138.466 395.432 138.621C395.376 138.777 395.464 138.991 395.695 139.264L398.363 142.414H396.336L387.22 131.651H382.165C381.823 131.651 381.605 131.725 381.512 131.874C381.418 132.023 381.471 132.216 381.671 132.452C381.876 132.694 382.148 132.89 382.486 133.039C382.819 133.182 383.164 133.253 383.522 133.253H386.477ZM382.56 132.818C382.752 132.9 382.983 132.955 383.27 132.955H386.616L394.878 142.712H391.532C391.27 142.712 391.133 142.768 391.075 142.861C391.019 142.95 391.045 143.06 391.177 143.215C391.311 143.374 391.471 143.484 391.668 143.572C391.88 143.663 392.113 143.719 392.385 143.719H400.396C400.658 143.719 400.795 143.663 400.853 143.57C400.909 143.481 400.883 143.371 400.751 143.215L397.405 139.264C397.235 139.063 397.048 138.929 396.85 138.833C396.654 138.737 396.465 138.686 396.256 138.686C396.032 138.686 395.927 138.738 395.889 138.826C395.86 138.911 395.9 139.045 396.086 139.264L399.006 142.712H396.197L387.082 131.949H382.417C382.155 131.949 382.018 132.004 381.96 132.097C381.904 132.186 381.93 132.296 382.062 132.452C382.203 132.619 382.366 132.732 382.56 132.818ZM398.267 132.955H405.203L413.466 142.712H406.529L398.267 132.955ZM405.49 132.32L405.486 132.318C404.985 132.086 404.408 131.949 403.728 131.949H398.025C397.344 131.949 397 132.086 396.892 132.318C396.784 132.55 396.902 132.902 397.342 133.421L404.816 142.246C405.256 142.766 405.733 143.117 406.234 143.349C406.735 143.581 407.312 143.719 407.992 143.719H413.695C414.376 143.719 414.72 143.581 414.828 143.349L414.829 143.347C414.943 143.115 414.828 142.764 414.39 142.246L406.916 133.421C406.478 132.904 405.998 132.553 405.49 132.32ZM406.668 142.414L398.91 133.253H405.065L412.822 142.414H406.668ZM405.584 132.107C404.927 131.803 404.224 131.651 403.475 131.651H397.772C397.023 131.651 396.578 131.803 396.437 132.107C396.296 132.412 396.467 132.85 396.951 133.421L404.425 142.246C404.909 142.818 405.48 143.256 406.136 143.56C406.793 143.865 407.496 144.017 408.245 144.017H413.948C414.697 144.017 415.142 143.865 415.283 143.56C415.432 143.256 415.265 142.818 414.781 142.246L407.307 133.421C406.823 132.85 406.249 132.412 405.584 132.107ZM415.397 133.253L423.154 142.414H420.199C419.857 142.414 419.639 142.489 419.546 142.638C419.452 142.787 419.506 142.979 419.705 143.215C419.905 143.452 420.174 143.644 420.512 143.793C420.858 143.942 421.206 144.017 421.556 144.017H429.567C429.909 144.017 430.127 143.942 430.221 143.793C430.314 143.644 430.261 143.452 430.061 143.215L426.715 139.264C426.494 139.003 426.217 138.792 425.885 138.631C425.553 138.469 425.232 138.388 424.923 138.388C424.605 138.388 424.415 138.466 424.351 138.621C424.295 138.777 424.383 138.991 424.614 139.264L427.282 142.414H425.255L416.14 131.651H411.084C410.742 131.651 410.524 131.725 410.431 131.874C410.337 132.023 410.39 132.216 410.59 132.452C410.796 132.694 411.067 132.89 411.405 133.039C411.738 133.182 412.083 133.253 412.441 133.253H415.397ZM411.479 132.818C411.671 132.9 411.902 132.955 412.189 132.955H415.535L423.798 142.712H420.452C420.189 142.712 420.052 142.768 419.994 142.861C419.938 142.95 419.964 143.06 420.096 143.215C420.231 143.374 420.39 143.484 420.587 143.572C420.799 143.663 421.032 143.719 421.304 143.719H429.315C429.578 143.719 429.714 143.663 429.772 143.57C429.828 143.481 429.802 143.371 429.67 143.215L426.324 139.264C426.154 139.063 425.967 138.929 425.769 138.833C425.573 138.737 425.385 138.686 425.175 138.686C424.951 138.686 424.846 138.738 424.808 138.826C424.779 138.911 424.819 139.045 425.005 139.264L427.925 142.712H425.116L416.001 131.949H411.336C411.074 131.949 410.937 132.004 410.879 132.097C410.823 132.186 410.849 132.296 410.981 132.452C411.123 132.619 411.286 132.732 411.479 132.818Z" fill="url(#paint19_linear)"/>
<path d="M301.809 164.995L307.143 171.292H311.374L306.041 164.995H301.809ZM301.027 163.893H304.948C305.463 163.893 305.946 163.997 306.397 164.207C306.855 164.416 307.25 164.717 307.582 165.11L312.72 171.177C313.053 171.57 313.168 171.871 313.066 172.08C312.969 172.29 312.663 172.394 312.148 172.394H308.227C307.712 172.394 307.229 172.29 306.777 172.08C306.326 171.871 305.934 171.57 305.601 171.177L300.463 165.11C300.13 164.717 300.012 164.416 300.109 164.207C300.206 163.997 300.512 163.893 301.027 163.893Z" fill="url(#paint20_linear)"/>
<path d="M311.75 164.995L317.084 171.292H321.315L315.982 164.995H311.75ZM310.968 163.893H314.889C315.404 163.893 315.887 163.997 316.338 164.207C316.796 164.416 317.19 164.717 317.523 165.11L322.661 171.177C322.994 171.57 323.109 171.871 323.007 172.08C322.91 172.29 322.604 172.394 322.089 172.394H318.168C317.653 172.394 317.17 172.29 316.718 172.08C316.267 171.871 315.875 171.57 315.542 171.177L310.404 165.11C310.071 164.717 309.953 164.416 310.05 164.207C310.147 163.997 310.453 163.893 310.968 163.893Z" fill="url(#paint21_linear)"/>
<path d="M327.023 164.757L327.631 172.068C327.632 172.174 327.598 172.253 327.529 172.305C327.466 172.356 327.365 172.382 327.225 172.382C327.018 172.382 326.801 172.33 326.574 172.228C326.357 172.13 326.181 172.001 326.047 171.843C326.004 171.792 325.97 171.739 325.945 171.683C325.917 171.623 325.903 171.568 325.905 171.517L325.306 164.207C325.299 164.1 325.33 164.021 325.399 163.969C325.467 163.918 325.571 163.893 325.711 163.893C325.907 163.893 326.12 163.946 326.351 164.053C326.583 164.155 326.766 164.286 326.9 164.444C326.94 164.491 326.969 164.542 326.988 164.597C327.013 164.653 327.024 164.706 327.023 164.757Z" fill="url(#paint22_linear)"/>
<path d="M331.632 164.995L336.966 171.292H341.197L335.864 164.995H331.632ZM330.85 163.893H334.771C335.286 163.893 335.769 163.997 336.22 164.207C336.677 164.416 337.072 164.717 337.405 165.11L342.543 171.177C342.876 171.57 342.991 171.871 342.889 172.08C342.792 172.29 342.486 172.394 341.971 172.394H338.05C337.535 172.394 337.052 172.29 336.6 172.08C336.149 171.871 335.757 171.57 335.424 171.177L330.286 165.11C329.953 164.717 329.835 164.416 329.932 164.207C330.029 163.997 330.335 163.893 330.85 163.893Z" fill="url(#paint23_linear)"/>
<path d="M341.573 164.995L346.907 171.292H351.138L345.804 164.995H341.573ZM340.791 163.893H344.712C345.227 163.893 345.71 163.997 346.161 164.207C346.618 164.416 347.013 164.717 347.346 165.11L352.484 171.177C352.817 171.57 352.932 171.871 352.83 172.08C352.733 172.29 352.427 172.394 351.912 172.394H347.991C347.476 172.394 346.993 172.29 346.541 172.08C346.09 171.871 345.698 171.57 345.365 171.177L340.227 165.11C339.894 164.717 339.776 164.416 339.873 164.207C339.97 163.997 340.276 163.893 340.791 163.893Z" fill="url(#paint24_linear)"/>
<path fill-rule="evenodd" clip-rule="evenodd" d="M301.552 164.875H306.096L311.631 171.412H307.087L301.552 164.875ZM306.36 164.292L306.358 164.291C305.969 164.111 305.536 164.012 305.049 164.012H301.128C300.641 164.012 300.375 164.111 300.291 164.291C300.208 164.471 300.304 164.738 300.619 165.11L305.757 171.177C306.072 171.549 306.427 171.816 306.816 171.996C307.206 172.176 307.638 172.275 308.126 172.275H312.047C312.534 172.275 312.8 172.176 312.884 171.996L312.884 171.995C312.973 171.815 312.879 171.548 312.564 171.177L307.426 165.11C307.111 164.738 306.754 164.472 306.36 164.292ZM307.143 171.292L301.809 164.995H306.041L311.374 171.292H307.143ZM306.397 164.207C305.946 163.997 305.463 163.893 304.948 163.893H301.027C300.512 163.893 300.206 163.997 300.109 164.207C300.012 164.416 300.13 164.717 300.463 165.11L305.601 171.177C305.934 171.57 306.326 171.871 306.777 172.08C307.229 172.29 307.712 172.394 308.227 172.394H312.148C312.663 172.394 312.969 172.29 313.066 172.08C313.168 171.871 313.053 171.57 312.72 171.177L307.582 165.11C307.25 164.717 306.855 164.416 306.397 164.207ZM311.493 164.875H316.037L321.572 171.412H317.028L311.493 164.875ZM316.301 164.292L316.299 164.291C315.91 164.111 315.477 164.012 314.99 164.012H311.069C310.582 164.012 310.316 164.111 310.232 164.291C310.149 164.471 310.245 164.738 310.56 165.11L315.698 171.177C316.013 171.549 316.368 171.816 316.757 171.996C317.146 172.176 317.579 172.275 318.067 172.275H321.988C322.475 172.275 322.741 172.176 322.825 171.996L322.825 171.995C322.914 171.815 322.82 171.548 322.505 171.177L317.367 165.11C317.052 164.738 316.695 164.472 316.301 164.292ZM317.084 171.292L311.75 164.995H315.982L321.315 171.292H317.084ZM316.338 164.207C315.887 163.997 315.404 163.893 314.889 163.893H310.968C310.453 163.893 310.147 163.997 310.05 164.207C309.953 164.416 310.071 164.717 310.404 165.11L315.542 171.177C315.875 171.57 316.267 171.871 316.718 172.08C317.17 172.29 317.653 172.394 318.168 172.394H322.089C322.604 172.394 322.91 172.29 323.007 172.08C323.109 171.871 322.994 171.57 322.661 171.177L317.523 165.11C317.19 164.717 316.796 164.416 316.338 164.207ZM326.837 164.691C326.838 164.649 326.829 164.606 326.809 164.562L326.806 164.554C326.79 164.509 326.768 164.473 326.744 164.444C326.637 164.317 326.497 164.219 326.319 164.14L326.312 164.137C326.129 164.052 325.966 164.012 325.812 164.012C325.699 164.012 325.618 164.032 325.566 164.072C325.514 164.111 325.486 164.174 325.492 164.267C325.492 164.268 325.492 164.268 325.492 164.268L326.091 171.583C326.09 171.624 326.1 171.668 326.123 171.716L326.124 171.718C326.145 171.764 326.171 171.806 326.204 171.843C326.313 171.973 326.448 172.069 326.609 172.142C326.786 172.221 326.954 172.262 327.124 172.262C327.238 172.262 327.314 172.242 327.36 172.204L327.362 172.202C327.415 172.163 327.445 172.1 327.445 172.005L326.837 164.691ZM327.631 172.068C327.632 172.174 327.598 172.253 327.529 172.305C327.466 172.356 327.365 172.382 327.225 172.382C327.018 172.382 326.801 172.33 326.574 172.228C326.357 172.13 326.181 172.001 326.047 171.843C326.004 171.792 325.97 171.739 325.945 171.683C325.917 171.623 325.903 171.568 325.905 171.517L325.306 164.207C325.299 164.1 325.33 164.021 325.399 163.969C325.467 163.918 325.571 163.893 325.711 163.893C325.907 163.893 326.12 163.946 326.351 164.053C326.583 164.155 326.766 164.286 326.9 164.444C326.94 164.491 326.969 164.542 326.988 164.597C327.013 164.653 327.024 164.706 327.023 164.757L327.631 172.068ZM331.375 164.875H335.919L341.454 171.412H336.91L331.375 164.875ZM336.183 164.292L336.181 164.291C335.792 164.111 335.359 164.012 334.872 164.012H330.951C330.464 164.012 330.198 164.111 330.114 164.291C330.031 164.471 330.127 164.738 330.442 165.11L335.58 171.177C335.895 171.549 336.25 171.816 336.639 171.996C337.028 172.176 337.461 172.275 337.949 172.275H341.87C342.357 172.275 342.623 172.176 342.707 171.996L342.707 171.995C342.795 171.815 342.702 171.548 342.387 171.177L337.249 165.11C336.934 164.738 336.577 164.472 336.183 164.292ZM336.966 171.292L331.632 164.995H335.864L341.197 171.292H336.966ZM336.22 164.207C335.769 163.997 335.286 163.893 334.771 163.893H330.85C330.335 163.893 330.029 163.997 329.932 164.207C329.835 164.416 329.953 164.717 330.286 165.11L335.424 171.177C335.757 171.57 336.149 171.871 336.6 172.08C337.052 172.29 337.535 172.394 338.05 172.394H341.971C342.486 172.394 342.792 172.29 342.889 172.08C342.991 171.871 342.876 171.57 342.543 171.177L337.405 165.11C337.072 164.717 336.677 164.416 336.22 164.207ZM341.316 164.875H345.86L351.395 171.412H346.851L341.316 164.875ZM346.124 164.292L346.122 164.291C345.733 164.111 345.3 164.012 344.813 164.012H340.892C340.405 164.012 340.139 164.111 340.055 164.291C339.971 164.471 340.068 164.738 340.383 165.11L345.521 171.177C345.836 171.549 346.191 171.816 346.58 171.996C346.969 172.176 347.402 172.275 347.89 172.275H351.811C352.298 172.275 352.564 172.176 352.648 171.996L352.648 171.995C352.736 171.815 352.642 171.548 352.328 171.177L347.19 165.11C346.875 164.738 346.518 164.472 346.124 164.292ZM346.907 171.292L341.573 164.995H345.804L351.138 171.292H346.907ZM346.161 164.207C345.71 163.997 345.227 163.893 344.712 163.893H340.791C340.276 163.893 339.97 163.997 339.873 164.207C339.776 164.416 339.894 164.717 340.227 165.11L345.365 171.177C345.698 171.57 346.09 171.871 346.541 172.08C346.993 172.29 347.476 172.394 347.991 172.394H351.912C352.427 172.394 352.733 172.29 352.83 172.08C352.932 171.871 352.817 171.57 352.484 171.177L347.346 165.11C347.013 164.717 346.618 164.416 346.161 164.207Z" fill="url(#paint25_linear)"/>
<path fill-rule="evenodd" clip-rule="evenodd" d="M459.719 180.79C461.544 180.79 463.265 181.091 464.671 181.404L466.325 184.34C463.58 183.602 461.753 183.654 461.131 183.721C459.877 183.856 459.699 184.384 460.105 184.881C461.441 186.514 468.315 186.716 471.389 190.371C473.727 193.149 472.248 194.977 467.677 195.103H466.743C464.73 195.051 462.606 194.735 461.268 194.375L459.555 191.34C460.985 191.728 462.803 192.243 465.16 192.215C466.51 192.199 467.621 191.789 466.847 190.859C466.34 190.252 465.352 189.816 462.933 189.138C460.576 188.475 457.252 187.363 455.594 185.368C453.337 182.673 455.038 180.79 459.719 180.79ZM429.789 181.043C430.815 181.043 432.178 181.559 433.169 182.455L441.952 190.47L438.897 181.043H443.872L447.929 194.895H442.922L429.783 183.839C428.979 183.16 428.568 182.909 427.628 182.624C426.094 182.155 423.842 181.717 421.958 181.445L421.73 181.043H429.789ZM450.64 181.043L458.455 194.895H453.717L445.905 181.043H450.64ZM476.409 181.043L491.964 194.895H487.583L485.258 192.825H479.181L479.947 194.895H474.974L471.211 182.059C471.03 181.443 471.458 181.043 472.367 181.043H476.409ZM476.23 184.786L478.141 189.986H482.07L476.23 184.786Z" fill="url(#paint26_linear)"/>
<path fill-rule="evenodd" clip-rule="evenodd" d="M128.817 103.852C127.702 102.535 128.197 101.467 129.923 101.467H145.024C140.998 101.467 139.924 104.053 142.627 107.244H131.69L128.817 103.852ZM165.729 104.393L165.272 103.852C164.156 102.535 161.852 101.467 160.125 101.467H145.024C147.064 101.467 149.47 102.13 151.699 103.2H150.617C148.884 102.48 147.088 102.047 145.53 102.044L145.513 102.044C141.89 102.044 140.923 104.372 143.355 107.244C144.483 108.576 146.144 109.791 147.962 110.711C147.921 110.856 147.896 111.009 147.888 111.168L147.888 111.168C147.853 111.869 148.141 112.7 148.778 113.6H148.778C148.912 113.79 149.062 113.982 149.227 114.178L149.227 114.178C151.659 117.049 156.568 119.378 160.192 119.378H160.192C160.475 119.378 160.742 119.363 160.993 119.336C163.947 119.011 164.593 116.825 162.35 114.178C161.223 112.846 159.562 111.631 157.744 110.711C157.785 110.566 157.81 110.413 157.818 110.254L157.818 110.254C157.853 109.552 157.565 108.722 156.928 107.822H156.928C156.794 107.632 156.644 107.44 156.479 107.244L156.479 107.244H157.208H168.144L165.729 104.393ZM132.179 107.822H143.152C144.199 108.9 145.547 109.89 147.02 110.711C146.937 111.532 147.267 112.522 148.044 113.6H137.072L132.179 107.822ZM137.562 114.178L148.498 114.178C151.198 117.366 156.646 119.951 160.671 119.955H145.581C143.854 119.955 141.55 118.887 140.434 117.57L137.562 114.178ZM175.783 119.955H160.692C164.71 119.951 165.779 117.366 163.079 114.178L174.016 114.178L176.888 117.57C178.004 118.887 177.509 119.955 175.783 119.955ZM158.686 110.711C160.159 111.532 161.507 112.522 162.554 113.6H173.526L168.633 107.822H157.662C158.439 108.9 158.769 109.89 158.686 110.711Z" fill="#D7DCE2"/>
<defs>
<filter id="filter0_d" x="0.643677" y="0" width="563.586" height="261.032" filterUnits="userSpaceOnUse" color-interpolation-filters="sRGB">
<feFlood flood-opacity="0" result="BackgroundImageFix"/>
<feColorMatrix in="SourceAlpha" type="matrix" values="0 0 0 0 0 0 0 0 0 0 0 0 0 0 0 0 0 0 127 0"/>
<feOffset dy="4"/>
<feGaussianBlur stdDeviation="25"/>
<feColorMatrix type="matrix" values="0 0 0 0 0 0 0 0 0 0 0 0 0 0 0 0 0 0 0.24 0"/>
<feBlend mode="normal" in2="BackgroundImageFix" result="effect1_dropShadow"/>
<feBlend mode="normal" in="SourceGraphic" in2="effect1_dropShadow" result="shape"/>
</filter>
<linearGradient id="paint0_linear" x1="172.5" y1="2.04819e-06" x2="201.54" y2="211.814" gradientUnits="userSpaceOnUse">
<stop offset="0.543698" stop-color="#111111"/>
<stop offset="1" stop-color="#303030"/>
</linearGradient>
<linearGradient id="paint1_linear" x1="97.7103" y1="60.314" x2="97.7103" y2="72.8387" gradientUnits="userSpaceOnUse">
<stop stop-color="white"/>
<stop offset="0.223958" stop-color="white"/>
<stop offset="0.536458" stop-color="#D7DCE2"/>
<stop offset="1" stop-color="white"/>
</linearGradient>
<linearGradient id="paint2_linear" x1="136.469" y1="64.5325" x2="136.469" y2="68.4135" gradientUnits="userSpaceOnUse">
<stop stop-color="white"/>
<stop offset="0.223958" stop-color="white"/>
<stop offset="0.536458" stop-color="#D7DCE2"/>
<stop offset="1" stop-color="white"/>
</linearGradient>
<linearGradient id="paint3_linear" x1="286.68" y1="131.651" x2="286.68" y2="144.017" gradientUnits="userSpaceOnUse">
<stop stop-color="white"/>
<stop offset="0.3125" stop-color="#DEE2E7"/>
<stop offset="0.614583" stop-color="white"/>
<stop offset="0.770833" stop-color="#D7DCE2"/>
<stop offset="1" stop-color="white"/>
</linearGradient>
<linearGradient id="paint4_linear" x1="286.68" y1="131.651" x2="286.68" y2="144.017" gradientUnits="userSpaceOnUse">
<stop stop-color="white"/>
<stop offset="0.3125" stop-color="#DEE2E7"/>
<stop offset="0.614583" stop-color="white"/>
<stop offset="0.770833" stop-color="#D7DCE2"/>
<stop offset="1" stop-color="white"/>
</linearGradient>
<linearGradient id="paint5_linear" x1="286.68" y1="131.651" x2="286.68" y2="144.017" gradientUnits="userSpaceOnUse">
<stop stop-color="white"/>
<stop offset="0.3125" stop-color="#DEE2E7"/>
<stop offset="0.614583" stop-color="white"/>
<stop offset="0.770833" stop-color="#D7DCE2"/>
<stop offset="1" stop-color="white"/>
</linearGradient>
<linearGradient id="paint6_linear" x1="286.68" y1="131.651" x2="286.68" y2="144.017" gradientUnits="userSpaceOnUse">
<stop stop-color="white"/>
<stop offset="0.3125" stop-color="#DEE2E7"/>
<stop offset="0.614583" stop-color="white"/>
<stop offset="0.770833" stop-color="#D7DCE2"/>
<stop offset="1" stop-color="white"/>
</linearGradient>
<linearGradient id="paint7_linear" x1="286.68" y1="131.651" x2="286.68" y2="144.017" gradientUnits="userSpaceOnUse">
<stop stop-color="white"/>
<stop offset="0.3125" stop-color="#DEE2E7"/>
<stop offset="0.614583" stop-color="white"/>
<stop offset="0.770833" stop-color="#D7DCE2"/>
<stop offset="1" stop-color="white"/>
</linearGradient>
<linearGradient id="paint8_linear" x1="286.68" y1="131.651" x2="286.68" y2="144.017" gradientUnits="userSpaceOnUse">
<stop stop-color="white"/>
<stop offset="0.3125" stop-color="#DEE2E7"/>
<stop offset="0.614583" stop-color="white"/>
<stop offset="0.770833" stop-color="#D7DCE2"/>
<stop offset="1" stop-color="white"/>
</linearGradient>
<linearGradient id="paint9_linear" x1="286.68" y1="131.651" x2="286.68" y2="144.017" gradientUnits="userSpaceOnUse">
<stop stop-color="white"/>
<stop offset="0.3125" stop-color="#DEE2E7"/>
<stop offset="0.614583" stop-color="white"/>
<stop offset="0.770833" stop-color="#D7DCE2"/>
<stop offset="1" stop-color="white"/>
</linearGradient>
<linearGradient id="paint10_linear" x1="286.68" y1="131.651" x2="286.68" y2="144.017" gradientUnits="userSpaceOnUse">
<stop stop-color="white"/>
<stop offset="0.3125" stop-color="#DEE2E7"/>
<stop offset="0.614583" stop-color="white"/>
<stop offset="0.770833" stop-color="#D7DCE2"/>
<stop offset="1" stop-color="white"/>
</linearGradient>
<linearGradient id="paint11_linear" x1="286.68" y1="131.651" x2="286.68" y2="144.017" gradientUnits="userSpaceOnUse">
<stop stop-color="white"/>
<stop offset="0.3125" stop-color="#DEE2E7"/>
<stop offset="0.614583" stop-color="white"/>
<stop offset="0.770833" stop-color="#D7DCE2"/>
<stop offset="1" stop-color="white"/>
</linearGradient>
<linearGradient id="paint12_linear" x1="286.68" y1="131.651" x2="286.68" y2="144.017" gradientUnits="userSpaceOnUse">
<stop stop-color="white"/>
<stop offset="0.3125" stop-color="#DEE2E7"/>
<stop offset="0.614583" stop-color="white"/>
<stop offset="0.770833" stop-color="#D7DCE2"/>
<stop offset="1" stop-color="white"/>
</linearGradient>
<linearGradient id="paint13_linear" x1="286.68" y1="131.651" x2="286.68" y2="144.017" gradientUnits="userSpaceOnUse">
<stop stop-color="white"/>
<stop offset="0.3125" stop-color="#DEE2E7"/>
<stop offset="0.614583" stop-color="white"/>
<stop offset="0.770833" stop-color="#D7DCE2"/>
<stop offset="1" stop-color="white"/>
</linearGradient>
<linearGradient id="paint14_linear" x1="286.68" y1="131.651" x2="286.68" y2="144.017" gradientUnits="userSpaceOnUse">
<stop stop-color="white"/>
<stop offset="0.3125" stop-color="#DEE2E7"/>
<stop offset="0.614583" stop-color="white"/>
<stop offset="0.770833" stop-color="#D7DCE2"/>
<stop offset="1" stop-color="white"/>
</linearGradient>
<linearGradient id="paint15_linear" x1="286.68" y1="131.651" x2="286.68" y2="144.017" gradientUnits="userSpaceOnUse">
<stop stop-color="white"/>
<stop offset="0.3125" stop-color="#DEE2E7"/>
<stop offset="0.614583" stop-color="white"/>
<stop offset="0.770833" stop-color="#D7DCE2"/>
<stop offset="1" stop-color="white"/>
</linearGradient>
<linearGradient id="paint16_linear" x1="286.68" y1="131.651" x2="286.68" y2="144.017" gradientUnits="userSpaceOnUse">
<stop stop-color="white"/>
<stop offset="0.3125" stop-color="#DEE2E7"/>
<stop offset="0.614583" stop-color="white"/>
<stop offset="0.770833" stop-color="#D7DCE2"/>
<stop offset="1" stop-color="white"/>
</linearGradient>
<linearGradient id="paint17_linear" x1="286.68" y1="131.651" x2="286.68" y2="144.017" gradientUnits="userSpaceOnUse">
<stop stop-color="white"/>
<stop offset="0.3125" stop-color="#DEE2E7"/>
<stop offset="0.614583" stop-color="white"/>
<stop offset="0.770833" stop-color="#D7DCE2"/>
<stop offset="1" stop-color="white"/>
</linearGradient>
<linearGradient id="paint18_linear" x1="286.68" y1="131.651" x2="286.68" y2="144.017" gradientUnits="userSpaceOnUse">
<stop stop-color="white"/>
<stop offset="0.3125" stop-color="#DEE2E7"/>
<stop offset="0.614583" stop-color="white"/>
<stop offset="0.770833" stop-color="#D7DCE2"/>
<stop offset="1" stop-color="white"/>
</linearGradient>
<linearGradient id="paint19_linear" x1="286.68" y1="131.651" x2="286.68" y2="144.017" gradientUnits="userSpaceOnUse">
<stop stop-color="white"/>
<stop offset="0.484375" stop-color="#B8B8B8"/>
<stop offset="1" stop-color="white"/>
</linearGradient>
<linearGradient id="paint20_linear" x1="322.874" y1="163.893" x2="322.874" y2="172.394" gradientUnits="userSpaceOnUse">
<stop stop-color="white"/>
<stop offset="0.3125" stop-color="#DEE2E7"/>
<stop offset="0.614583" stop-color="white"/>
<stop offset="0.770833" stop-color="#D7DCE2"/>
<stop offset="1" stop-color="white"/>
</linearGradient>
<linearGradient id="paint21_linear" x1="322.874" y1="163.893" x2="322.874" y2="172.394" gradientUnits="userSpaceOnUse">
<stop stop-color="white"/>
<stop offset="0.3125" stop-color="#DEE2E7"/>
<stop offset="0.614583" stop-color="white"/>
<stop offset="0.770833" stop-color="#D7DCE2"/>
<stop offset="1" stop-color="white"/>
</linearGradient>
<linearGradient id="paint22_linear" x1="322.874" y1="163.893" x2="322.874" y2="172.394" gradientUnits="userSpaceOnUse">
<stop stop-color="white"/>
<stop offset="0.3125" stop-color="#DEE2E7"/>
<stop offset="0.614583" stop-color="white"/>
<stop offset="0.770833" stop-color="#D7DCE2"/>
<stop offset="1" stop-color="white"/>
</linearGradient>
<linearGradient id="paint23_linear" x1="322.874" y1="163.893" x2="322.874" y2="172.394" gradientUnits="userSpaceOnUse">
<stop stop-color="white"/>
<stop offset="0.3125" stop-color="#DEE2E7"/>
<stop offset="0.614583" stop-color="white"/>
<stop offset="0.770833" stop-color="#D7DCE2"/>
<stop offset="1" stop-color="white"/>
</linearGradient>
<linearGradient id="paint24_linear" x1="322.874" y1="163.893" x2="322.874" y2="172.394" gradientUnits="userSpaceOnUse">
<stop stop-color="white"/>
<stop offset="0.3125" stop-color="#DEE2E7"/>
<stop offset="0.614583" stop-color="white"/>
<stop offset="0.770833" stop-color="#D7DCE2"/>
<stop offset="1" stop-color="white"/>
</linearGradient>
<linearGradient id="paint25_linear" x1="322.874" y1="163.893" x2="322.874" y2="172.394" gradientUnits="userSpaceOnUse">
<stop stop-color="white"/>
<stop offset="0.484375" stop-color="#B8B8B8"/>
<stop offset="1" stop-color="white"/>
</linearGradient>
<linearGradient id="paint26_linear" x1="450.711" y1="180.79" x2="450.711" y2="195.103" gradientUnits="userSpaceOnUse">
<stop stop-color="white"/>
<stop offset="0.135417" stop-color="white"/>
<stop offset="0.692708" stop-color="#D7DCE2"/>
<stop offset="1" stop-color="white"/>
</linearGradient>
</defs>
</svg>
