<svg width="428" height="270" viewBox="0 0 428 270" fill="none" xmlns="http://www.w3.org/2000/svg">
<rect width="428" height="270" rx="8" fill="#111111"/>
<path fill-rule="evenodd" clip-rule="evenodd" d="M56.6652 31.4494L56.6608 27.0615L52.365 27.0671L49.3654 24L46.3713 27.0277L42.0311 27.0322L42.0367 31.4175L39 34.4887L42.0852 37.5543L42.0892 41.9397L46.385 41.9352L49.3846 45L52.3772 41.9288L56.7174 41.9254L56.713 37.5847L59.7497 34.5135L56.6652 31.4494ZM41.6489 35.4076L40.9531 34.7066C40.9273 34.6809 40.9067 34.6502 40.8927 34.6163C40.8787 34.5824 40.8715 34.5461 40.8715 34.5094C40.8715 34.4727 40.8787 34.4363 40.8927 34.4024C40.9067 34.3686 40.9273 34.3379 40.9531 34.3121L41.6908 33.5658C41.7117 33.5463 41.7383 33.5341 41.7665 33.5312C41.7948 33.5283 41.8232 33.5347 41.8476 33.5496C41.872 33.5644 41.8909 33.5868 41.9016 33.6135C41.9124 33.6401 41.9142 33.6696 41.907 33.6974L41.9511 35.2763C41.9511 35.4522 41.7778 35.4954 41.6493 35.4076H41.6489ZM54.0981 28.3377H55.098C55.228 28.3377 55.3998 28.424 55.3572 28.6002V29.6504C55.3572 29.7812 55.1847 29.827 55.1395 29.7374L54.0096 28.5987C53.9842 28.581 53.9651 28.5554 53.9553 28.5257C53.9455 28.496 53.9456 28.4639 53.9554 28.4342C53.9652 28.4046 53.9843 28.379 54.0098 28.3613C54.0353 28.3436 54.0658 28.3348 54.0967 28.3362L54.0981 28.3377ZM48.5388 26.7198L49.2343 26.0177C49.3643 25.9303 49.5372 25.8868 49.6231 26.0177L50.3608 26.7187C50.3808 26.7424 50.3934 26.7715 50.3972 26.8024C50.401 26.8334 50.3957 26.8647 50.3821 26.8926C50.3685 26.9206 50.3471 26.9439 50.3205 26.9596C50.2939 26.9753 50.2634 26.9828 50.2327 26.9812L48.671 26.9834C48.6396 26.9872 48.6077 26.9811 48.5798 26.9659C48.5518 26.9508 48.5291 26.9274 48.5147 26.8988C48.5003 26.8702 48.4949 26.8378 48.4992 26.806C48.5035 26.7742 48.5174 26.7445 48.5388 26.7209V26.7198ZM43.2476 29.6192V28.655C43.2906 28.4784 43.3787 28.3478 43.552 28.3478L44.5493 28.3456C44.5809 28.3416 44.6129 28.3476 44.6409 28.3627C44.669 28.3778 44.6918 28.4013 44.7062 28.43C44.7206 28.4588 44.7259 28.4913 44.7213 28.5231C44.7168 28.555 44.7026 28.5847 44.6808 28.6081L43.552 29.7479C43.5254 29.7681 43.4939 29.781 43.4608 29.7851C43.4277 29.7892 43.3941 29.7845 43.3634 29.7714C43.3326 29.7582 43.3059 29.7372 43.2857 29.7103C43.2655 29.6834 43.2526 29.6516 43.2484 29.6181L43.2476 29.6192ZM44.6482 40.7099H43.6483C43.6139 40.7113 43.5796 40.7054 43.5475 40.6927C43.5155 40.68 43.4863 40.6607 43.462 40.6361C43.4377 40.6114 43.4186 40.5819 43.4061 40.5495C43.3935 40.517 43.3877 40.4822 43.3891 40.4474L43.345 39.4378C43.3415 39.406 43.3477 39.3739 43.3628 39.3458C43.3779 39.3176 43.4012 39.2949 43.4294 39.2806C43.4577 39.2663 43.4896 39.2611 43.5209 39.2657C43.5521 39.2704 43.5812 39.2846 43.6042 39.3065L44.776 40.4463C44.8634 40.5333 44.776 40.7088 44.6467 40.7088L44.6482 40.7099ZM50.2497 42.2371L49.555 42.9403C49.532 42.9709 49.5024 42.9957 49.4684 43.0128C49.4343 43.0299 49.3969 43.0388 49.3589 43.0388C49.3209 43.0388 49.2835 43.0299 49.2495 43.0128C49.2154 42.9957 49.1858 42.9709 49.1628 42.9403L48.4259 42.2382C48.4074 42.2172 48.3947 42.1916 48.3891 42.164C48.3836 42.1364 48.3853 42.1079 48.3942 42.0812C48.4031 42.0545 48.4188 42.0307 48.4397 42.0122C48.4606 41.9937 48.486 41.9811 48.5133 41.9757H50.1171C50.1487 41.9716 50.1808 41.9775 50.2089 41.9926C50.237 42.0076 50.2599 42.0311 50.2744 42.0598C50.2889 42.0885 50.2943 42.121 50.2899 42.153C50.2855 42.1849 50.2714 42.2146 50.2497 42.2382V42.2371ZM51.0274 40.4841L47.5545 40.4875C47.3282 40.5178 47.0979 40.4897 46.8852 40.4057C46.6724 40.3218 46.4841 40.1848 46.3376 40.0075L43.8194 37.4666C43.6285 37.3012 43.481 37.0906 43.3901 36.8536C43.2991 36.6165 43.2674 36.3603 43.298 36.1078L43.2947 32.642C43.2902 32.416 43.3301 32.1914 43.4118 31.981C43.4935 31.7707 43.6156 31.5788 43.7709 31.4164L46.418 28.7379C46.562 28.6 46.7325 28.4936 46.919 28.4255C47.1054 28.3573 47.3037 28.3288 47.5015 28.3418L51.0607 28.3396C51.2765 28.3066 51.4971 28.3293 51.7019 28.4056C51.9067 28.4819 52.0892 28.6094 52.2324 28.7761L54.7988 31.3613C54.967 31.5066 55.1009 31.6883 55.1906 31.8929C55.2803 32.0976 55.3236 32.32 55.3172 32.5438L55.3217 36.3148C55.352 36.5351 55.3192 36.7596 55.2273 36.9616C55.1354 37.1636 54.9883 37.3347 54.8032 37.4546L52.3746 39.9565C52.2053 40.1428 51.9959 40.2871 51.7625 40.3782C51.5292 40.4692 51.2783 40.5046 51.0293 40.4815L51.0274 40.4841ZM55.4132 40.3022C55.3691 40.4339 55.2832 40.609 55.1102 40.609L54.1104 40.6113C54.0787 40.6149 54.0466 40.6087 54.0185 40.5933C53.9905 40.5779 53.9678 40.5542 53.9534 40.5253C53.9391 40.4965 53.9339 40.4638 53.9384 40.4319C53.943 40.3999 53.9571 40.3701 53.9789 40.3465L55.1076 39.2056C55.1282 39.1781 55.1564 39.1575 55.1887 39.1465C55.221 39.1355 55.2558 39.1347 55.2885 39.1441C55.3213 39.1535 55.3505 39.1727 55.3722 39.1992C55.394 39.2257 55.4074 39.2583 55.4106 39.2926L55.4132 40.3022ZM56.9722 35.3892C56.8852 35.4762 56.713 35.3915 56.7537 35.3022V33.6802C56.7108 33.5046 56.9282 33.46 57.0152 33.547L57.711 34.2495C57.7958 34.3796 57.8399 34.5551 57.711 34.6421L56.9722 35.3892ZM53.8927 37.0649L49.501 29.3064C49.3266 28.9997 49.0651 28.9997 48.8496 29.3064L44.6031 37.0278C44.5161 37.2479 44.6031 37.5101 44.9949 37.5101L53.5457 37.5011C53.8497 37.5011 54.0242 37.3709 53.8938 37.0649H53.8927ZM52.7221 36.5815L46.4695 36.5871C46.4213 36.5935 46.3722 36.5862 46.3279 36.566C46.2835 36.5457 46.2456 36.5133 46.2184 36.4724C46.1913 36.4315 46.1759 36.3838 46.1741 36.3345C46.1723 36.2853 46.184 36.2365 46.2081 36.1937L49.3288 30.5782C49.4599 30.3592 49.6754 30.4016 49.8102 30.5782L52.9799 36.2301C53.0658 36.4491 52.9369 36.5803 52.7206 36.5803L52.7221 36.5815ZM49.9795 31.542L52.2855 35.7049L52.2836 35.7034C52.3692 35.8775 52.2836 35.9202 52.11 35.966L47.5083 35.969C47.4749 35.9646 47.4428 35.9526 47.4148 35.9336C47.3867 35.9147 47.3633 35.8894 47.3465 35.8598C47.3297 35.8302 47.3199 35.7971 47.3178 35.763C47.3157 35.7289 47.3215 35.6948 47.3346 35.6633L49.6325 31.542C49.6507 31.512 49.6762 31.4872 49.7066 31.47C49.737 31.4528 49.7712 31.4438 49.806 31.4438C49.8408 31.4438 49.875 31.4528 49.9054 31.47C49.9357 31.4872 49.9613 31.512 49.9795 31.542ZM48.8963 34.9609L51.2838 34.9575L51.2834 34.9567C51.3693 34.9567 51.4138 34.9132 51.3693 34.8251L50.1524 32.7249C50.1084 32.6375 50.0654 32.6375 49.978 32.7249L48.8081 34.8288C48.767 34.9162 48.8081 34.9609 48.8963 34.9609Z" fill="url(#paint0_linear)"/>
<path d="M118.523 31.1243L118.526 33.6675C118.308 32.3095 117.438 31.1266 115.703 31.1277L112.575 31.1311L112.58 35.821L109.456 35.8243V35.123H111.756V33.5002H109.455V32.8439L112.232 32.8394L112.23 31.1315L107.28 31.136L107.282 32.845C107.02 31.7077 106.195 31.1387 104.807 31.1382L101.377 31.1423L101.38 35.4384C99.4288 36.229 98.1701 35.9687 98.1249 34.4337C98.1249 32.8555 99.2503 32.4587 101.03 32.9823L100.856 31.2297C98.6848 30.7932 96.9939 31.2342 95.997 32.9879C95.8222 32.0694 95.3004 31.1915 93.7358 31.1502L90.2637 31.1536L90.2703 35.8041H87.1429V35.1474L89.4434 35.1451V33.5223L87.1418 33.5253V32.8236L89.9193 32.8214L89.9152 31.1525L76.8057 31.1656L76.809 34.6733L75.1137 31.1667L72.6377 31.1701L72.6421 35.818L69.387 35.8202L69.3848 35.1639L71.6874 35.1605L71.6852 33.5816L69.3848 33.5838V32.8825L72.1192 32.8784V31.2151L67.2135 31.2196L67.218 35.4722C65.4404 36.2196 64.0065 36.0906 64.0047 34.3793C64.0047 32.9309 65.3478 32.4947 66.9554 33.0618L66.738 31.2642C63.8291 30.6525 61.8316 31.7957 61.792 34.5143C61.7942 36.7949 64.2258 38.195 67.2198 37.314V37.4895L74.6 37.4839L74.5967 34.1948L76.2502 37.4801H78.8099L78.8054 32.7846H80.8459L80.8504 37.4756L83.1094 37.4734L83.1049 32.8229H84.9725L84.9769 37.4693L92.356 37.4636L92.3504 32.8161H93.0463C93.4362 32.8161 93.7406 32.947 93.7418 33.3866C93.6988 33.9116 93.2644 34.0433 92.5271 33.9116L93.527 37.4629L95.87 37.4595L94.8701 34.8297C95.0942 34.7756 95.3021 34.6675 95.4762 34.5147C95.6502 34.3618 95.7853 34.1687 95.87 33.9518C95.8733 37.5473 98.9563 37.9846 101.388 37.2356V37.4539H103.516L103.511 32.8064H104.206C104.724 32.8064 104.856 33.112 104.859 33.3757C104.904 33.8141 104.383 34.0343 103.644 33.9008L104.688 37.452L106.902 37.4498L105.944 34.8204C106.249 34.77 106.534 34.6376 106.771 34.4371C107.007 34.2365 107.186 33.9752 107.288 33.6806L107.292 37.4498L116.105 37.4408C117.32 37.4408 118.23 36.562 118.533 35.1155L118.535 37.4408L120.794 37.4385L120.791 32.791L123.004 32.7888L123.008 37.4366L125.267 37.4344L125.262 32.7873L127 32.785L126.997 31.1195L118.523 31.1243ZM115.412 35.7767H114.716V32.9264H115.498C115.93 32.9264 116.193 33.4094 116.193 34.3309C116.237 35.3375 115.933 35.7763 115.415 35.7763" fill="url(#paint1_linear)"/>
<path d="M45.625 145.109V154.906H50.8438V147.359C50.8438 146.901 50.9635 146.536 51.2031 146.266C51.4531 145.984 51.7812 145.844 52.1875 145.844C52.5729 145.844 52.8906 145.984 53.1406 146.266C53.401 146.547 53.5312 146.911 53.5312 147.359V154.906C53.9167 154.938 54.2344 155.078 54.4844 155.328C54.7448 155.578 54.875 155.885 54.875 156.25C54.875 156.604 54.75 156.906 54.5 157.156C54.2604 157.396 53.9375 157.542 53.5312 157.594V162.844C53.5312 163.292 53.4062 163.651 53.1562 163.922C52.9062 164.203 52.5833 164.344 52.1875 164.344C51.7917 164.344 51.4688 164.203 51.2188 163.922C50.9688 163.641 50.8438 163.281 50.8438 162.844V157.594H42.9375V145.109C42.9375 144.651 43.0573 144.286 43.2969 144.016C43.5469 143.745 43.875 143.609 44.2812 143.609C44.6667 143.609 44.9844 143.75 45.2344 144.031C45.4948 144.312 45.625 144.672 45.625 145.109Z" fill="url(#paint2_linear)"/>
<path d="M63.4544 146.297V161.656H71.3294V146.297H63.4544ZM63.7356 143.609H71.0325C71.9908 143.609 72.7252 143.865 73.2356 144.375C73.7565 144.885 74.0169 145.62 74.0169 146.578V161.375C74.0169 162.333 73.7565 163.068 73.2356 163.578C72.7252 164.089 71.9908 164.344 71.0325 164.344H63.7356C62.7773 164.344 62.0429 164.089 61.5325 163.578C61.0221 163.068 60.7669 162.333 60.7669 161.375V146.578C60.7669 145.62 61.0221 144.885 61.5325 144.375C62.0429 143.865 62.7773 143.609 63.7356 143.609Z" fill="url(#paint3_linear)"/>
<path d="M81.9556 146.297V161.656H89.8306V146.297H81.9556ZM82.2369 143.609H89.5337C90.4921 143.609 91.2265 143.865 91.7369 144.375C92.2577 144.885 92.5181 145.62 92.5181 146.578V161.375C92.5181 162.333 92.2577 163.068 91.7369 163.578C91.2265 164.089 90.4921 164.344 89.5337 164.344H82.2369C81.2785 164.344 80.5442 164.089 80.0337 163.578C79.5233 163.068 79.2681 162.333 79.2681 161.375V146.578C79.2681 145.62 79.5233 144.885 80.0337 144.375C80.5442 143.865 81.2785 143.609 82.2369 143.609Z" fill="url(#paint4_linear)"/>
<path d="M100.457 146.297V161.656H108.332V146.297H100.457ZM100.738 143.609H108.035C108.993 143.609 109.728 143.865 110.238 144.375C110.759 144.885 111.019 145.62 111.019 146.578V161.375C111.019 162.333 110.759 163.068 110.238 163.578C109.728 164.089 108.993 164.344 108.035 164.344H100.738C99.7798 164.344 99.0454 164.089 98.535 163.578C98.0246 163.068 97.7694 162.333 97.7694 161.375V146.578C97.7694 145.62 98.0246 144.885 98.535 144.375C99.0454 143.865 99.7798 143.609 100.738 143.609Z" fill="url(#paint5_linear)"/>
<path d="M135.023 143.609H141.492V161.656H144.086V156.375C144.086 155.917 144.205 155.557 144.445 155.297C144.695 155.036 145.023 154.906 145.429 154.906C145.825 154.906 146.148 155.042 146.398 155.312C146.648 155.583 146.773 155.938 146.773 156.375V163C146.773 163.396 146.632 163.719 146.351 163.969C146.07 164.219 145.711 164.344 145.273 164.344H135.023C134.575 164.344 134.211 164.219 133.929 163.969C133.659 163.719 133.523 163.396 133.523 163C133.523 162.604 133.664 162.281 133.945 162.031C134.226 161.781 134.586 161.656 135.023 161.656H138.804V146.297H135.023C134.565 146.297 134.2 146.177 133.929 145.938C133.659 145.688 133.523 145.359 133.523 144.953C133.523 144.557 133.664 144.234 133.945 143.984C134.226 143.734 134.586 143.609 135.023 143.609Z" fill="url(#paint6_linear)"/>
<path d="M153.524 143.609H162.587C163.326 143.609 163.957 143.87 164.478 144.391C165.009 144.911 165.274 145.547 165.274 146.297V152.625C165.274 153.375 165.009 154.01 164.478 154.531C163.957 155.052 163.326 155.312 162.587 155.312H154.712V161.656H163.774C164.222 161.656 164.582 161.781 164.853 162.031C165.134 162.281 165.274 162.604 165.274 163C165.274 163.396 165.134 163.719 164.853 163.969C164.571 164.219 164.212 164.344 163.774 164.344H152.024V155.312C152.024 154.573 152.285 153.943 152.806 153.422C153.326 152.891 153.962 152.625 154.712 152.625H162.587V146.297H153.524C153.066 146.297 152.701 146.177 152.431 145.938C152.16 145.688 152.024 145.359 152.024 144.953C152.024 144.557 152.165 144.234 152.446 143.984C152.728 143.734 153.087 143.609 153.524 143.609Z" fill="url(#paint7_linear)"/>
<path d="M172.026 143.609H181.088C181.817 143.609 182.447 143.875 182.979 144.406C183.51 144.927 183.776 145.557 183.776 146.297V151.281C183.776 151.75 183.692 152.203 183.526 152.641C183.359 153.078 183.109 153.51 182.776 153.938C183.109 154.396 183.359 154.859 183.526 155.328C183.692 155.786 183.776 156.245 183.776 156.703V161.656C183.776 162.396 183.51 163.026 182.979 163.547C182.458 164.078 181.828 164.344 181.088 164.344H172.026C171.578 164.344 171.213 164.219 170.932 163.969C170.661 163.719 170.526 163.396 170.526 163C170.526 162.604 170.666 162.281 170.947 162.031C171.229 161.781 171.588 161.656 172.026 161.656H181.057V156.656C181.057 156.302 180.921 155.99 180.651 155.719C180.39 155.448 180.078 155.312 179.713 155.312H174.651C174.192 155.312 173.833 155.193 173.572 154.953C173.312 154.714 173.182 154.385 173.182 153.969C173.182 153.583 173.317 153.266 173.588 153.016C173.859 152.755 174.213 152.625 174.651 152.625H179.713C180.078 152.625 180.39 152.495 180.651 152.234C180.921 151.964 181.057 151.646 181.057 151.281V146.297H172.026C171.567 146.297 171.203 146.177 170.932 145.938C170.661 145.688 170.526 145.359 170.526 144.953C170.526 144.557 170.666 144.234 170.947 143.984C171.229 143.734 171.588 143.609 172.026 143.609Z" fill="url(#paint8_linear)"/>
<path d="M192.386 145.109V154.906H197.605V147.359C197.605 146.901 197.725 146.536 197.964 146.266C198.214 145.984 198.542 145.844 198.949 145.844C199.334 145.844 199.652 145.984 199.902 146.266C200.162 146.547 200.292 146.911 200.292 147.359V154.906C200.678 154.938 200.996 155.078 201.246 155.328C201.506 155.578 201.636 155.885 201.636 156.25C201.636 156.604 201.511 156.906 201.261 157.156C201.022 157.396 200.699 157.542 200.292 157.594V162.844C200.292 163.292 200.167 163.651 199.917 163.922C199.667 164.203 199.345 164.344 198.949 164.344C198.553 164.344 198.23 164.203 197.98 163.922C197.73 163.641 197.605 163.281 197.605 162.844V157.594H189.699V145.109C189.699 144.651 189.819 144.286 190.058 144.016C190.308 143.745 190.636 143.609 191.042 143.609C191.428 143.609 191.746 143.75 191.996 144.031C192.256 144.312 192.386 144.672 192.386 145.109Z" fill="url(#paint9_linear)"/>
<path d="M227.437 143.609H236.531C236.979 143.609 237.338 143.734 237.609 143.984C237.89 144.234 238.031 144.557 238.031 144.953C238.031 145.339 237.89 145.661 237.609 145.922C237.327 146.172 236.968 146.297 236.531 146.297H230.124V152.625H235.343C236.072 152.625 236.702 152.891 237.234 153.422C237.765 153.953 238.031 154.583 238.031 155.312V161.656C238.031 162.396 237.765 163.026 237.234 163.547C236.713 164.078 236.083 164.344 235.343 164.344H229.39C229.15 164.344 228.895 164.312 228.624 164.25C228.364 164.198 228.109 164.125 227.859 164.031L225.734 163.156C225.432 163.031 225.197 162.859 225.031 162.641C224.864 162.411 224.781 162.146 224.781 161.844C224.781 161.479 224.906 161.172 225.156 160.922C225.416 160.661 225.739 160.531 226.124 160.531C226.218 160.531 226.317 160.547 226.421 160.578C226.536 160.599 226.656 160.635 226.781 160.688L228.874 161.531C228.979 161.583 229.067 161.62 229.14 161.641C229.213 161.651 229.286 161.656 229.359 161.656H235.343V155.312H227.437V143.609Z" fill="url(#paint10_linear)"/>
<path d="M245.969 157.594V161.656H253.844V157.594H245.969ZM244.626 143.609H245.813C246.261 143.609 246.62 143.734 246.891 143.984C247.173 144.234 247.313 144.557 247.313 144.953C247.313 145.307 247.188 145.609 246.938 145.859C246.699 146.099 246.376 146.245 245.969 146.297V154.906H253.548C254.506 154.906 255.24 155.161 255.751 155.672C256.271 156.182 256.532 156.917 256.532 157.875V161.375C256.532 162.333 256.271 163.068 255.751 163.578C255.24 164.089 254.506 164.344 253.548 164.344H246.251C245.292 164.344 244.558 164.089 244.048 163.578C243.537 163.068 243.282 162.333 243.282 161.375V145.109C243.282 144.651 243.402 144.286 243.641 144.016C243.891 143.745 244.219 143.609 244.626 143.609Z" fill="url(#paint11_linear)"/>
<path d="M263.127 143.609H275.033V151.641C275.033 151.922 274.997 152.146 274.924 152.312C274.851 152.479 274.663 152.693 274.361 152.953L269.752 156.891V162.844C269.752 163.292 269.627 163.651 269.377 163.922C269.127 164.203 268.804 164.344 268.408 164.344C268.012 164.344 267.689 164.203 267.439 163.922C267.189 163.641 267.064 163.281 267.064 162.844V156.375C267.064 156.094 267.101 155.87 267.174 155.703C267.247 155.536 267.434 155.323 267.736 155.062L272.346 151.156V146.297H264.471C264.377 146.651 264.21 146.927 263.971 147.125C263.741 147.323 263.46 147.422 263.127 147.422C262.731 147.422 262.408 147.286 262.158 147.016C261.908 146.734 261.783 146.375 261.783 145.938V145.109C261.783 144.651 261.903 144.286 262.143 144.016C262.393 143.745 262.721 143.609 263.127 143.609Z" fill="url(#paint12_linear)"/>
<path d="M282.972 155.312V161.656H290.847V155.312H282.972ZM285.628 146.297V152.625H288.191V146.297H285.628ZM284.284 143.609H289.534C289.92 143.609 290.238 143.75 290.488 144.031C290.748 144.312 290.878 144.672 290.878 145.109V152.625C291.743 152.708 292.399 153.005 292.847 153.516C293.305 154.016 293.534 154.714 293.534 155.609V161.375C293.534 162.333 293.274 163.068 292.753 163.578C292.243 164.089 291.508 164.344 290.55 164.344H283.253C282.295 164.344 281.56 164.089 281.05 163.578C280.54 163.068 280.284 162.333 280.284 161.375V155.609C280.284 154.714 280.508 154.01 280.956 153.5C281.415 152.99 282.076 152.698 282.941 152.625V145.109C282.941 144.651 283.06 144.286 283.3 144.016C283.55 143.745 283.878 143.609 284.284 143.609Z" fill="url(#paint13_linear)"/>
<path d="M318.726 146.297V150.359H326.601V146.297H318.726ZM319.007 143.609H326.304C327.262 143.609 327.996 143.87 328.507 144.391C329.028 144.911 329.288 145.651 329.288 146.609V162.875C329.288 163.323 329.163 163.677 328.913 163.938C328.663 164.208 328.34 164.344 327.944 164.344H326.757C326.309 164.344 325.944 164.219 325.663 163.969C325.392 163.719 325.257 163.396 325.257 163C325.257 162.646 325.377 162.349 325.616 162.109C325.856 161.859 326.184 161.703 326.601 161.641V153.078H319.007C318.059 153.078 317.325 152.818 316.804 152.297C316.293 151.776 316.038 151.036 316.038 150.078V146.609C316.038 145.651 316.293 144.911 316.804 144.391C317.325 143.87 318.059 143.609 319.007 143.609Z" fill="url(#paint14_linear)"/>
<path d="M336.039 143.609H342.508V161.656H345.102V156.375C345.102 155.917 345.222 155.557 345.461 155.297C345.711 155.036 346.039 154.906 346.446 154.906C346.841 154.906 347.164 155.042 347.414 155.312C347.664 155.583 347.789 155.938 347.789 156.375V163C347.789 163.396 347.649 163.719 347.367 163.969C347.086 164.219 346.727 164.344 346.289 164.344H336.039C335.591 164.344 335.227 164.219 334.946 163.969C334.675 163.719 334.539 163.396 334.539 163C334.539 162.604 334.68 162.281 334.961 162.031C335.242 161.781 335.602 161.656 336.039 161.656H339.821V146.297H336.039C335.581 146.297 335.216 146.177 334.946 145.938C334.675 145.688 334.539 145.359 334.539 144.953C334.539 144.557 334.68 144.234 334.961 143.984C335.242 143.734 335.602 143.609 336.039 143.609Z" fill="url(#paint15_linear)"/>
<path d="M355.728 146.297V161.656H363.603V146.297H355.728ZM356.009 143.609H363.306C364.265 143.609 364.999 143.865 365.509 144.375C366.03 144.885 366.291 145.62 366.291 146.578V161.375C366.291 162.333 366.03 163.068 365.509 163.578C364.999 164.089 364.265 164.344 363.306 164.344H356.009C355.051 164.344 354.317 164.089 353.806 163.578C353.296 163.068 353.041 162.333 353.041 161.375V146.578C353.041 145.62 353.296 144.885 353.806 144.375C354.317 143.865 355.051 143.609 356.009 143.609Z" fill="url(#paint16_linear)"/>
<path d="M373.042 143.609H379.511V161.656H382.104V156.375C382.104 155.917 382.224 155.557 382.464 155.297C382.714 155.036 383.042 154.906 383.448 154.906C383.844 154.906 384.167 155.042 384.417 155.312C384.667 155.583 384.792 155.938 384.792 156.375V163C384.792 163.396 384.651 163.719 384.37 163.969C384.089 164.219 383.729 164.344 383.292 164.344H373.042C372.594 164.344 372.229 164.219 371.948 163.969C371.677 163.719 371.542 163.396 371.542 163C371.542 162.604 371.682 162.281 371.964 162.031C372.245 161.781 372.604 161.656 373.042 161.656H376.823V146.297H373.042C372.584 146.297 372.219 146.177 371.948 145.938C371.677 145.688 371.542 145.359 371.542 144.953C371.542 144.557 371.682 144.234 371.964 143.984C372.245 143.734 372.604 143.609 373.042 143.609Z" fill="url(#paint17_linear)"/>
<path fill-rule="evenodd" clip-rule="evenodd" d="M45.125 155.406V145.109C45.125 144.779 45.0302 144.547 44.8675 144.371L44.8606 144.364C44.7081 144.192 44.5278 144.109 44.2812 144.109C44.001 144.109 43.8125 144.196 43.6679 144.351C43.5309 144.508 43.4375 144.742 43.4375 145.109V157.094H51.3438V162.844C51.3438 163.18 51.4368 163.415 51.5925 163.59C51.7421 163.758 51.9261 163.844 52.1875 163.844C52.4489 163.844 52.6329 163.758 52.7825 163.59L52.7888 163.583C52.936 163.423 53.0312 163.194 53.0312 162.844V157.154L53.4677 157.098C53.7878 157.057 54.0004 156.949 54.1464 156.803C54.3025 156.647 54.375 156.472 54.375 156.25C54.375 156.02 54.2992 155.843 54.1381 155.689L54.1307 155.682C53.9727 155.524 53.7699 155.427 53.4908 155.405L53.0312 155.367V147.359C53.0312 147.015 52.9343 146.779 52.7737 146.605L52.7668 146.598C52.6143 146.426 52.434 146.344 52.1875 146.344C51.9115 146.344 51.7241 146.432 51.5773 146.597C51.4386 146.754 51.3438 146.99 51.3438 147.359V155.406H45.125ZM51.2031 146.266C51.4531 145.984 51.7812 145.844 52.1875 145.844C52.5729 145.844 52.8906 145.984 53.1406 146.266C53.401 146.547 53.5312 146.911 53.5312 147.359V154.906C53.9167 154.938 54.2344 155.078 54.4844 155.328C54.7448 155.578 54.875 155.885 54.875 156.25C54.875 156.604 54.75 156.906 54.5 157.156C54.2604 157.396 53.9375 157.542 53.5312 157.594V162.844C53.5312 163.292 53.4062 163.651 53.1562 163.922C52.9062 164.203 52.5833 164.344 52.1875 164.344C51.7917 164.344 51.4688 164.203 51.2188 163.922C50.9688 163.641 50.8438 163.281 50.8438 162.844V157.594H42.9375V145.109C42.9375 144.651 43.0573 144.286 43.2969 144.016C43.5469 143.745 43.875 143.609 44.2812 143.609C44.6667 143.609 44.9844 143.75 45.2344 144.031C45.4948 144.312 45.625 144.672 45.625 145.109V154.906H50.8438V147.359C50.8438 146.901 50.9635 146.536 51.2031 146.266ZM62.9544 145.797H71.8294V162.156H62.9544V145.797ZM72.8857 144.732L72.8821 144.729C72.493 144.34 71.9032 144.109 71.0325 144.109H63.7356C62.8649 144.109 62.2751 144.34 61.8861 144.729C61.497 145.118 61.2669 145.707 61.2669 146.578V161.375C61.2669 162.246 61.497 162.836 61.8861 163.225C62.2751 163.614 62.8649 163.844 63.7356 163.844H71.0325C71.9032 163.844 72.493 163.614 72.8821 163.225L72.8856 163.221C73.2831 162.832 73.5169 162.243 73.5169 161.375V146.578C73.5169 145.71 73.2831 145.122 72.8857 144.732ZM63.4544 161.656V146.297H71.3294V161.656H63.4544ZM73.2356 144.375C72.7252 143.865 71.9908 143.609 71.0325 143.609H63.7356C62.7773 143.609 62.0429 143.865 61.5325 144.375C61.0221 144.885 60.7669 145.62 60.7669 146.578V161.375C60.7669 162.333 61.0221 163.068 61.5325 163.578C62.0429 164.089 62.7773 164.344 63.7356 164.344H71.0325C71.9908 164.344 72.7252 164.089 73.2356 163.578C73.7565 163.068 74.0169 162.333 74.0169 161.375V146.578C74.0169 145.62 73.7565 144.885 73.2356 144.375ZM81.4556 145.797H90.3306V162.156H81.4556V145.797ZM91.3869 144.732L91.3833 144.729C90.9943 144.34 90.4044 144.109 89.5337 144.109H82.2369C81.3662 144.109 80.7763 144.34 80.3873 144.729C79.9983 145.118 79.7681 145.707 79.7681 146.578V161.375C79.7681 162.246 79.9983 162.836 80.3873 163.225C80.7763 163.614 81.3662 163.844 82.2369 163.844H89.5337C90.4044 163.844 90.9943 163.614 91.3833 163.225L91.3869 163.221C91.7844 162.832 92.0181 162.243 92.0181 161.375V146.578C92.0181 145.71 91.7844 145.122 91.3869 144.732ZM81.9556 161.656V146.297H89.8306V161.656H81.9556ZM91.7369 144.375C91.2265 143.865 90.4921 143.609 89.5337 143.609H82.2369C81.2785 143.609 80.5442 143.865 80.0337 144.375C79.5233 144.885 79.2681 145.62 79.2681 146.578V161.375C79.2681 162.333 79.5233 163.068 80.0337 163.578C80.5442 164.089 81.2785 164.344 82.2369 164.344H89.5337C90.4921 164.344 91.2265 164.089 91.7369 163.578C92.2577 163.068 92.5181 162.333 92.5181 161.375V146.578C92.5181 145.62 92.2577 144.885 91.7369 144.375ZM99.9569 145.797H108.832V162.156H99.9569V145.797ZM109.888 144.732L109.885 144.729C109.496 144.34 108.906 144.109 108.035 144.109H100.738C99.8674 144.109 99.2776 144.34 98.8886 144.729C98.4995 145.118 98.2694 145.707 98.2694 146.578V161.375C98.2694 162.246 98.4995 162.836 98.8886 163.225C99.2776 163.614 99.8674 163.844 100.738 163.844H108.035C108.906 163.844 109.496 163.614 109.885 163.225L109.888 163.221C110.286 162.832 110.519 162.243 110.519 161.375V146.578C110.519 145.71 110.286 145.122 109.888 144.732ZM100.457 161.656V146.297H108.332V161.656H100.457ZM110.238 144.375C109.728 143.865 108.993 143.609 108.035 143.609H100.738C99.7798 143.609 99.0454 143.865 98.535 144.375C98.0246 144.885 97.7694 145.62 97.7694 146.578V161.375C97.7694 162.333 98.0246 163.068 98.535 163.578C99.0454 164.089 99.7798 164.344 100.738 164.344H108.035C108.993 164.344 109.728 164.089 110.238 163.578C110.759 163.068 111.019 162.333 111.019 161.375V146.578C111.019 145.62 110.759 144.885 110.238 144.375ZM138.804 146.297V161.656H135.023C134.586 161.656 134.226 161.781 133.945 162.031C133.664 162.281 133.523 162.604 133.523 163C133.523 163.396 133.659 163.719 133.929 163.969C134.211 164.219 134.575 164.344 135.023 164.344H145.273C145.711 164.344 146.07 164.219 146.351 163.969C146.632 163.719 146.773 163.396 146.773 163V156.375C146.773 155.938 146.648 155.583 146.398 155.312C146.148 155.042 145.825 154.906 145.429 154.906C145.023 154.906 144.695 155.036 144.445 155.297C144.205 155.557 144.086 155.917 144.086 156.375V161.656H141.492V143.609H135.023C134.586 143.609 134.226 143.734 133.945 143.984C133.664 144.234 133.523 144.557 133.523 144.953C133.523 145.359 133.659 145.688 133.929 145.938C134.2 146.177 134.565 146.297 135.023 146.297H138.804ZM134.265 145.567C134.422 145.703 134.656 145.797 135.023 145.797H139.304V162.156H135.023C134.687 162.156 134.452 162.249 134.277 162.405C134.109 162.555 134.023 162.739 134.023 163C134.023 163.266 134.107 163.451 134.265 163.598C134.438 163.75 134.675 163.844 135.023 163.844H145.273C145.609 163.844 145.844 163.751 146.019 163.595C146.187 163.445 146.273 163.261 146.273 163V156.375C146.273 156.038 146.18 155.813 146.031 155.652C145.883 155.492 145.697 155.406 145.429 155.406C145.143 155.406 144.952 155.492 144.809 155.639C144.679 155.783 144.586 156.007 144.586 156.375V162.156H140.992V144.109H135.023C134.687 144.109 134.452 144.202 134.277 144.358C134.109 144.508 134.023 144.692 134.023 144.953C134.023 145.233 134.11 145.422 134.265 145.567ZM164.127 144.748L164.124 144.744C163.697 144.318 163.194 144.109 162.587 144.109H153.524C153.188 144.109 152.953 144.202 152.778 144.358C152.61 144.508 152.524 144.692 152.524 144.953C152.524 145.233 152.611 145.422 152.766 145.567C152.923 145.703 153.158 145.797 153.524 145.797H163.087V153.125H154.712C154.095 153.125 153.589 153.337 153.163 153.772L153.159 153.775C152.733 154.202 152.524 154.705 152.524 155.312V163.844H163.774C164.111 163.844 164.345 163.751 164.52 163.595C164.689 163.445 164.774 163.261 164.774 163C164.774 162.739 164.689 162.555 164.52 162.405L164.513 162.399C164.354 162.252 164.125 162.156 163.774 162.156H154.212V154.812H162.587C163.194 154.812 163.697 154.604 164.124 154.178L164.127 154.174C164.562 153.748 164.774 153.242 164.774 152.625V146.297C164.774 145.68 164.562 145.174 164.127 144.748ZM152.431 145.938C152.16 145.688 152.024 145.359 152.024 144.953C152.024 144.557 152.165 144.234 152.446 143.984C152.728 143.734 153.087 143.609 153.524 143.609H162.587C163.326 143.609 163.957 143.87 164.478 144.391C165.009 144.911 165.274 145.547 165.274 146.297V152.625C165.274 153.375 165.009 154.01 164.478 154.531C163.957 155.052 163.326 155.312 162.587 155.312H154.712V161.656H163.774C164.222 161.656 164.582 161.781 164.853 162.031C165.134 162.281 165.274 162.604 165.274 163C165.274 163.396 165.134 163.719 164.853 163.969C164.571 164.219 164.212 164.344 163.774 164.344H152.024V155.312C152.024 154.573 152.285 153.943 152.806 153.422C153.326 152.891 153.962 152.625 154.712 152.625H162.587V146.297H153.524C153.066 146.297 152.701 146.177 152.431 145.938ZM182.629 144.763L182.625 144.76C182.185 144.319 181.68 144.109 181.088 144.109H172.026C171.689 144.109 171.455 144.202 171.28 144.358C171.111 144.508 171.026 144.692 171.026 144.953C171.026 145.233 171.112 145.422 171.267 145.567C171.424 145.703 171.659 145.797 172.026 145.797H181.557V151.281C181.557 151.786 181.363 152.229 181.004 152.588C180.651 152.941 180.212 153.125 179.713 153.125H174.651C174.32 153.125 174.097 153.22 173.935 153.376L173.927 153.383C173.764 153.534 173.682 153.716 173.682 153.969C173.682 154.273 173.772 154.457 173.911 154.585C174.054 154.717 174.28 154.812 174.651 154.812H179.713C180.217 154.812 180.657 155.005 181.008 155.369C181.362 155.724 181.557 156.16 181.557 156.656V162.156H172.026C171.689 162.156 171.455 162.249 171.28 162.405C171.111 162.555 171.026 162.739 171.026 163C171.026 163.266 171.11 163.451 171.268 163.598C171.44 163.75 171.678 163.844 172.026 163.844H181.088C181.692 163.844 182.194 163.633 182.622 163.197L182.629 163.19C183.065 162.762 183.276 162.261 183.276 161.656V156.703C183.276 156.307 183.204 155.906 183.056 155.499L183.055 155.496C182.906 155.078 182.68 154.656 182.371 154.232L182.15 153.927L182.381 153.63C182.689 153.236 182.912 152.847 183.058 152.463C183.203 152.082 183.276 151.689 183.276 151.281V146.297C183.276 145.693 183.065 145.191 182.629 144.763ZM170.932 163.969C170.661 163.719 170.526 163.396 170.526 163C170.526 162.604 170.666 162.281 170.947 162.031C171.229 161.781 171.588 161.656 172.026 161.656H181.057V156.656C181.057 156.302 180.921 155.99 180.651 155.719C180.39 155.448 180.078 155.312 179.713 155.312H174.651C174.192 155.312 173.833 155.193 173.572 154.953C173.312 154.714 173.182 154.385 173.182 153.969C173.182 153.583 173.317 153.266 173.588 153.016C173.859 152.755 174.213 152.625 174.651 152.625H179.713C180.078 152.625 180.39 152.495 180.651 152.234C180.921 151.964 181.057 151.646 181.057 151.281V146.297H172.026C171.567 146.297 171.203 146.177 170.932 145.938C170.661 145.688 170.526 145.359 170.526 144.953C170.526 144.557 170.666 144.234 170.947 143.984C171.229 143.734 171.588 143.609 172.026 143.609H181.088C181.817 143.609 182.447 143.875 182.979 144.406C183.51 144.927 183.776 145.557 183.776 146.297V151.281C183.776 151.75 183.692 152.203 183.526 152.641C183.359 153.078 183.109 153.51 182.776 153.938C183.109 154.396 183.359 154.859 183.526 155.328C183.692 155.786 183.776 156.245 183.776 156.703V161.656C183.776 162.396 183.51 163.026 182.979 163.547C182.458 164.078 181.828 164.344 181.088 164.344H172.026C171.578 164.344 171.213 164.219 170.932 163.969ZM191.886 155.406V145.109C191.886 144.779 191.791 144.547 191.629 144.371L191.622 144.364C191.469 144.192 191.289 144.109 191.042 144.109C190.762 144.109 190.574 144.196 190.429 144.351C190.292 144.508 190.199 144.742 190.199 145.109V157.094H198.105V162.844C198.105 163.18 198.198 163.415 198.354 163.59C198.503 163.758 198.687 163.844 198.949 163.844C199.21 163.844 199.394 163.758 199.544 163.59L199.55 163.583C199.697 163.423 199.792 163.194 199.792 162.844V157.154L200.229 157.098C200.549 157.057 200.762 156.949 200.908 156.803C201.064 156.647 201.136 156.472 201.136 156.25C201.136 156.02 201.06 155.843 200.899 155.689L200.892 155.682C200.734 155.524 200.531 155.427 200.252 155.405L199.792 155.367V147.359C199.792 147.015 199.696 146.779 199.535 146.605L199.528 146.598C199.376 146.426 199.195 146.344 198.949 146.344C198.673 146.344 198.485 146.432 198.339 146.597C198.2 146.754 198.105 146.99 198.105 147.359V155.406H191.886ZM197.964 146.266C198.214 145.984 198.542 145.844 198.949 145.844C199.334 145.844 199.652 145.984 199.902 146.266C200.162 146.547 200.292 146.911 200.292 147.359V154.906C200.678 154.938 200.996 155.078 201.246 155.328C201.506 155.578 201.636 155.885 201.636 156.25C201.636 156.604 201.511 156.906 201.261 157.156C201.022 157.396 200.699 157.542 200.292 157.594V162.844C200.292 163.292 200.167 163.651 199.917 163.922C199.667 164.203 199.345 164.344 198.949 164.344C198.553 164.344 198.23 164.203 197.98 163.922C197.73 163.641 197.605 163.281 197.605 162.844V157.594H189.699V145.109C189.699 144.651 189.819 144.286 190.058 144.016C190.308 143.745 190.636 143.609 191.042 143.609C191.428 143.609 191.746 143.75 191.996 144.031C192.256 144.312 192.386 144.672 192.386 145.109V154.906H197.605V147.359C197.605 146.901 197.725 146.536 197.964 146.266ZM237.609 143.984C237.338 143.734 236.979 143.609 236.531 143.609H227.437V155.312H235.343V161.656H229.359C229.286 161.656 229.213 161.651 229.14 161.641C229.067 161.62 228.979 161.583 228.874 161.531L226.781 160.688C226.656 160.635 226.536 160.599 226.421 160.578C226.317 160.547 226.218 160.531 226.124 160.531C225.739 160.531 225.416 160.661 225.156 160.922C224.906 161.172 224.781 161.479 224.781 161.844C224.781 162.146 224.864 162.411 225.031 162.641C225.197 162.859 225.432 163.031 225.734 163.156L227.859 164.031C228.109 164.125 228.364 164.198 228.624 164.25C228.895 164.312 229.15 164.344 229.39 164.344H235.343C236.083 164.344 236.713 164.078 237.234 163.547C237.765 163.026 238.031 162.396 238.031 161.656V155.312C238.031 154.583 237.765 153.953 237.234 153.422C236.702 152.891 236.072 152.625 235.343 152.625H230.124V146.297H236.531C236.968 146.297 237.327 146.172 237.609 145.922C237.89 145.661 238.031 145.339 238.031 144.953C238.031 144.557 237.89 144.234 237.609 143.984ZM237.273 145.551C237.449 145.387 237.531 145.198 237.531 144.953C237.531 144.692 237.445 144.508 237.277 144.358L237.27 144.352C237.11 144.205 236.881 144.109 236.531 144.109H227.937V154.812H235.843V162.156H229.359C229.262 162.156 229.165 162.149 229.069 162.136L229.035 162.131L229.003 162.121C228.895 162.091 228.782 162.043 228.67 161.988L226.588 161.149C226.491 161.109 226.406 161.084 226.332 161.07L226.304 161.065L226.278 161.057C226.213 161.038 226.162 161.031 226.124 161.031C225.865 161.031 225.671 161.114 225.509 161.275C225.356 161.428 225.281 161.607 225.281 161.844C225.281 162.045 225.334 162.205 225.432 162.342C225.536 162.476 225.692 162.598 225.925 162.694L228.041 163.566C228.264 163.649 228.491 163.713 228.722 163.76L228.73 163.761L228.737 163.763C228.976 163.818 229.194 163.844 229.39 163.844H235.343C235.947 163.844 236.449 163.633 236.877 163.197L236.884 163.19C237.32 162.762 237.531 162.261 237.531 161.656V155.312C237.531 154.72 237.321 154.216 236.88 153.775C236.44 153.335 235.935 153.125 235.343 153.125H229.624V145.797H236.531C236.864 145.797 237.098 145.705 237.273 145.551ZM245.469 157.094H254.344V162.156H245.469V157.094ZM246.559 144.358L246.552 144.352C246.393 144.205 246.164 144.109 245.813 144.109H244.626C244.345 144.109 244.157 144.196 244.012 144.351C243.875 144.508 243.782 144.742 243.782 145.109V161.375C243.782 162.246 244.012 162.836 244.401 163.225C244.79 163.614 245.38 163.844 246.251 163.844H253.548C254.418 163.844 255.008 163.614 255.397 163.225L255.401 163.221C255.798 162.832 256.032 162.243 256.032 161.375V157.875C256.032 157.007 255.798 156.418 255.401 156.029L255.397 156.025C255.008 155.636 254.418 155.406 253.548 155.406H245.469V145.857L245.906 145.801C246.226 145.76 246.439 145.652 246.585 145.506C246.741 145.35 246.813 145.175 246.813 144.953C246.813 144.692 246.727 144.508 246.559 144.358ZM243.641 144.016C243.891 143.745 244.219 143.609 244.626 143.609H245.813C246.261 143.609 246.62 143.734 246.891 143.984C247.173 144.234 247.313 144.557 247.313 144.953C247.313 145.307 247.188 145.609 246.938 145.859C246.699 146.099 246.376 146.245 245.969 146.297V154.906H253.548C254.506 154.906 255.24 155.161 255.751 155.672C256.271 156.182 256.532 156.917 256.532 157.875V161.375C256.532 162.333 256.271 163.068 255.751 163.578C255.24 164.089 254.506 164.344 253.548 164.344H246.251C245.292 164.344 244.558 164.089 244.048 163.578C243.537 163.068 243.282 162.333 243.282 161.375V145.109C243.282 144.651 243.402 144.286 243.641 144.016ZM245.969 161.656V157.594H253.844V161.656H245.969ZM269.752 156.891L274.361 152.953C274.663 152.693 274.851 152.479 274.924 152.312C274.997 152.146 275.033 151.922 275.033 151.641V143.609H263.127C262.721 143.609 262.393 143.745 262.143 144.016C261.903 144.286 261.783 144.651 261.783 145.109V145.938C261.783 146.375 261.908 146.734 262.158 147.016C262.408 147.286 262.731 147.422 263.127 147.422C263.46 147.422 263.741 147.323 263.971 147.125C264.21 146.927 264.377 146.651 264.471 146.297H272.346V151.156L267.736 155.062C267.434 155.323 267.247 155.536 267.174 155.703C267.101 155.87 267.064 156.094 267.064 156.375V162.844C267.064 163.281 267.189 163.641 267.439 163.922C267.689 164.203 268.012 164.344 268.408 164.344C268.804 164.344 269.127 164.203 269.377 163.922C269.627 163.651 269.752 163.292 269.752 162.844V156.891ZM268.063 155.441C268.062 155.442 268.062 155.442 268.062 155.442C267.765 155.698 267.656 155.849 267.632 155.904C267.597 155.982 267.564 156.129 267.564 156.375V162.844C267.564 163.18 267.657 163.415 267.813 163.59C267.963 163.758 268.147 163.844 268.408 163.844C268.67 163.844 268.854 163.758 269.003 163.59L269.009 163.583C269.157 163.423 269.252 163.194 269.252 162.844V156.66L274.035 152.574C274.332 152.318 274.442 152.167 274.466 152.112C274.5 152.034 274.533 151.887 274.533 151.641V144.109H263.127C262.847 144.109 262.658 144.196 262.514 144.351C262.377 144.508 262.283 144.742 262.283 145.109V145.938C262.283 146.271 262.375 146.505 262.529 146.68C262.676 146.838 262.861 146.922 263.127 146.922C263.353 146.922 263.515 146.858 263.644 146.747L263.652 146.739C263.798 146.619 263.915 146.441 263.987 146.169L264.086 145.797H272.846V151.388L268.063 155.441ZM282.472 154.812H291.347V162.156H282.472V154.812ZM285.128 145.797H288.691V153.125H285.128V145.797ZM290.121 144.371L290.114 144.364C289.961 144.192 289.781 144.109 289.534 144.109H284.284C284.004 144.109 283.816 144.196 283.671 144.351C283.534 144.508 283.441 144.742 283.441 145.109V153.085L282.983 153.123C282.211 153.188 281.682 153.441 281.33 153.832C280.986 154.225 280.784 154.797 280.784 155.609V161.375C280.784 162.246 281.015 162.836 281.404 163.225C281.793 163.614 282.382 163.844 283.253 163.844H290.55C291.421 163.844 292.011 163.614 292.4 163.225L292.403 163.221C292.801 162.832 293.034 162.243 293.034 161.375V155.609C293.034 154.798 292.828 154.235 292.478 153.853L292.471 153.845C292.129 153.455 291.605 153.197 290.83 153.123L290.378 153.079V145.109C290.378 144.779 290.283 144.547 290.121 144.371ZM280.956 153.5C281.415 152.99 282.076 152.698 282.941 152.625V145.109C282.941 144.651 283.06 144.286 283.3 144.016C283.55 143.745 283.878 143.609 284.284 143.609H289.534C289.92 143.609 290.238 143.75 290.488 144.031C290.748 144.312 290.878 144.672 290.878 145.109V152.625C291.743 152.708 292.399 153.005 292.847 153.516C293.305 154.016 293.534 154.714 293.534 155.609V161.375C293.534 162.333 293.274 163.068 292.753 163.578C292.243 164.089 291.508 164.344 290.55 164.344H283.253C282.295 164.344 281.56 164.089 281.05 163.578C280.54 163.068 280.284 162.333 280.284 161.375V155.609C280.284 154.714 280.508 154.01 280.956 153.5ZM282.972 161.656V155.312H290.847V161.656H282.972ZM285.628 152.625V146.297H288.191V152.625H285.628ZM318.226 145.797H327.101V150.859H318.226V145.797ZM328.153 144.744L328.15 144.741C327.76 144.343 327.172 144.109 326.304 144.109H319.007C318.154 144.109 317.562 144.341 317.16 144.742C316.768 145.143 316.538 145.74 316.538 146.609V150.078C316.538 150.947 316.768 151.545 317.16 151.946C317.562 152.347 318.154 152.578 319.007 152.578H327.101V162.071L326.675 162.135C326.343 162.185 326.125 162.301 325.977 162.455L325.97 162.463C325.829 162.604 325.757 162.772 325.757 163C325.757 163.266 325.841 163.451 325.999 163.598C326.171 163.75 326.409 163.844 326.757 163.844H327.944C328.212 163.844 328.398 163.758 328.546 163.598L328.552 163.591C328.693 163.445 328.788 163.227 328.788 162.875V146.609C328.788 145.742 328.555 145.145 328.153 144.744ZM325.663 163.969C325.392 163.719 325.257 163.396 325.257 163C325.257 162.646 325.377 162.349 325.616 162.109C325.856 161.859 326.184 161.703 326.601 161.641V153.078H319.007C318.059 153.078 317.325 152.818 316.804 152.297C316.293 151.776 316.038 151.036 316.038 150.078V146.609C316.038 145.651 316.293 144.911 316.804 144.391C317.325 143.87 318.059 143.609 319.007 143.609H326.304C327.262 143.609 327.996 143.87 328.507 144.391C329.028 144.911 329.288 145.651 329.288 146.609V162.875C329.288 163.323 329.163 163.677 328.913 163.938C328.663 164.208 328.34 164.344 327.944 164.344H326.757C326.309 164.344 325.944 164.219 325.663 163.969ZM318.726 150.359V146.297H326.601V150.359H318.726ZM339.821 146.297V161.656H336.039C335.602 161.656 335.242 161.781 334.961 162.031C334.68 162.281 334.539 162.604 334.539 163C334.539 163.396 334.675 163.719 334.946 163.969C335.227 164.219 335.591 164.344 336.039 164.344H346.289C346.727 164.344 347.086 164.219 347.367 163.969C347.649 163.719 347.789 163.396 347.789 163V156.375C347.789 155.938 347.664 155.583 347.414 155.312C347.164 155.042 346.841 154.906 346.446 154.906C346.039 154.906 345.711 155.036 345.461 155.297C345.222 155.557 345.102 155.917 345.102 156.375V161.656H342.508V143.609H336.039C335.602 143.609 335.242 143.734 334.961 143.984C334.68 144.234 334.539 144.557 334.539 144.953C334.539 145.359 334.675 145.688 334.946 145.938C335.216 146.177 335.581 146.297 336.039 146.297H339.821ZM335.281 145.566C335.438 145.703 335.672 145.797 336.039 145.797H340.321V162.156H336.039C335.703 162.156 335.468 162.249 335.293 162.405C335.125 162.555 335.039 162.739 335.039 163C335.039 163.266 335.124 163.451 335.281 163.598C335.454 163.75 335.692 163.844 336.039 163.844H346.289C346.626 163.844 346.86 163.751 347.035 163.595C347.204 163.445 347.289 163.261 347.289 163V156.375C347.289 156.038 347.196 155.813 347.047 155.652C346.899 155.492 346.713 155.406 346.446 155.406C346.159 155.406 345.969 155.492 345.826 155.639C345.695 155.783 345.602 156.007 345.602 156.375V162.156H342.008V144.109H336.039C335.703 144.109 335.468 144.202 335.293 144.358C335.125 144.508 335.039 144.692 335.039 144.953C335.039 145.233 335.126 145.422 335.281 145.566ZM355.228 145.797H364.103V162.156H355.228V145.797ZM365.159 144.732L365.156 144.729C364.767 144.34 364.177 144.109 363.306 144.109H356.009C355.139 144.109 354.549 144.34 354.16 144.729C353.771 145.118 353.541 145.707 353.541 146.578V161.375C353.541 162.246 353.771 162.836 354.16 163.225C354.549 163.614 355.139 163.844 356.009 163.844H363.306C364.177 163.844 364.767 163.614 365.156 163.225L365.159 163.221C365.557 162.832 365.791 162.243 365.791 161.375V146.578C365.791 145.71 365.557 145.122 365.159 144.732ZM355.728 161.656V146.297H363.603V161.656H355.728ZM365.509 144.375C364.999 143.865 364.265 143.609 363.306 143.609H356.009C355.051 143.609 354.317 143.865 353.806 144.375C353.296 144.885 353.041 145.62 353.041 146.578V161.375C353.041 162.333 353.296 163.068 353.806 163.578C354.317 164.089 355.051 164.344 356.009 164.344H363.306C364.265 164.344 364.999 164.089 365.509 163.578C366.03 163.068 366.291 162.333 366.291 161.375V146.578C366.291 145.62 366.03 144.885 365.509 144.375ZM376.823 146.297V161.656H373.042C372.604 161.656 372.245 161.781 371.964 162.031C371.682 162.281 371.542 162.604 371.542 163C371.542 163.396 371.677 163.719 371.948 163.969C372.229 164.219 372.594 164.344 373.042 164.344H383.292C383.729 164.344 384.089 164.219 384.37 163.969C384.651 163.719 384.792 163.396 384.792 163V156.375C384.792 155.938 384.667 155.583 384.417 155.312C384.167 155.042 383.844 154.906 383.448 154.906C383.042 154.906 382.714 155.036 382.464 155.297C382.224 155.557 382.104 155.917 382.104 156.375V161.656H379.511V143.609H373.042C372.604 143.609 372.245 143.734 371.964 143.984C371.682 144.234 371.542 144.557 371.542 144.953C371.542 145.359 371.677 145.688 371.948 145.938C372.219 146.177 372.584 146.297 373.042 146.297H376.823ZM372.283 145.566C372.44 145.703 372.675 145.797 373.042 145.797H377.323V162.156H373.042C372.706 162.156 372.471 162.249 372.296 162.405C372.128 162.555 372.042 162.739 372.042 163C372.042 163.266 372.126 163.451 372.284 163.598C372.456 163.75 372.694 163.844 373.042 163.844H383.292C383.628 163.844 383.863 163.751 384.038 163.595C384.206 163.445 384.292 163.261 384.292 163V156.375C384.292 156.038 384.199 155.813 384.049 155.652C383.902 155.492 383.716 155.406 383.448 155.406C383.162 155.406 382.971 155.492 382.828 155.639C382.698 155.783 382.604 156.007 382.604 156.375V162.156H379.011V144.109H373.042C372.706 144.109 372.471 144.202 372.296 144.358C372.128 144.508 372.042 144.692 372.042 144.953C372.042 145.233 372.129 145.422 372.283 145.566Z" fill="url(#paint18_linear)"/>
<path d="M197.093 199.517V210.076H202.507V199.517H197.093ZM197.286 197.669H202.303C202.962 197.669 203.466 197.844 203.817 198.195C204.175 198.546 204.354 199.051 204.354 199.71V209.883C204.354 210.542 204.175 211.047 203.817 211.397C203.466 211.748 202.962 211.924 202.303 211.924H197.286C196.627 211.924 196.122 211.748 195.771 211.397C195.421 211.047 195.245 210.542 195.245 209.883V199.71C195.245 199.051 195.421 198.546 195.771 198.195C196.122 197.844 196.627 197.669 197.286 197.669Z" fill="url(#paint19_linear)"/>
<path d="M209.812 199.517V210.076H215.226V199.517H209.812ZM210.006 197.669H215.022C215.681 197.669 216.186 197.844 216.537 198.195C216.895 198.546 217.074 199.051 217.074 199.71V209.883C217.074 210.542 216.895 211.047 216.537 211.397C216.186 211.748 215.681 211.924 215.022 211.924H210.006C209.347 211.924 208.842 211.748 208.491 211.397C208.14 211.047 207.965 210.542 207.965 209.883V199.71C207.965 199.051 208.14 198.546 208.491 198.195C208.842 197.844 209.347 197.669 210.006 197.669Z" fill="url(#paint20_linear)"/>
<path d="M229.611 199.119L222.468 211.376C222.353 211.555 222.224 211.688 222.081 211.773C221.945 211.859 221.787 211.902 221.608 211.902C221.343 211.902 221.121 211.816 220.942 211.645C220.77 211.48 220.684 211.265 220.684 211C220.684 210.914 220.699 210.825 220.727 210.731C220.756 210.631 220.799 210.538 220.856 210.452L228.011 198.195C228.118 198.016 228.243 197.884 228.386 197.798C228.53 197.712 228.691 197.669 228.87 197.669C229.121 197.669 229.335 197.758 229.514 197.938C229.701 198.109 229.794 198.328 229.794 198.593C229.794 198.672 229.776 198.757 229.74 198.851C229.711 198.944 229.668 199.033 229.611 199.119Z" fill="url(#paint21_linear)"/>
<path d="M235.252 199.517V210.076H240.666V199.517H235.252ZM235.445 197.669H240.462C241.12 197.669 241.625 197.844 241.976 198.195C242.334 198.546 242.513 199.051 242.513 199.71V209.883C242.513 210.542 242.334 211.047 241.976 211.397C241.625 211.748 241.12 211.924 240.462 211.924H235.445C234.786 211.924 234.281 211.748 233.93 211.397C233.579 211.047 233.404 210.542 233.404 209.883V199.71C233.404 199.051 233.579 198.546 233.93 198.195C234.281 197.844 234.786 197.669 235.445 197.669Z" fill="url(#paint22_linear)"/>
<path d="M247.971 199.517V210.076H253.385V199.517H247.971ZM248.165 197.669H253.181C253.84 197.669 254.345 197.844 254.696 198.195C255.054 198.546 255.233 199.051 255.233 199.71V209.883C255.233 210.542 255.054 211.047 254.696 211.397C254.345 211.748 253.84 211.924 253.181 211.924H248.165C247.506 211.924 247.001 211.748 246.65 211.397C246.299 211.047 246.124 210.542 246.124 209.883V199.71C246.124 199.051 246.299 198.546 246.65 198.195C247.001 197.844 247.506 197.669 248.165 197.669Z" fill="url(#paint23_linear)"/>
<path fill-rule="evenodd" clip-rule="evenodd" d="M196.893 199.317H202.707V210.276H196.893V199.317ZM203.677 198.338L203.676 198.337C203.374 198.034 202.927 197.869 202.303 197.869H197.286C196.662 197.869 196.215 198.034 195.913 198.337C195.611 198.639 195.445 199.086 195.445 199.71V209.883C195.445 210.507 195.611 210.954 195.913 211.256C196.215 211.558 196.662 211.724 197.286 211.724H202.303C202.927 211.724 203.374 211.558 203.676 211.256L203.677 211.255C203.986 210.952 204.154 210.506 204.154 209.883V199.71C204.154 199.087 203.986 198.641 203.677 198.338ZM197.093 210.076V199.517H202.507V210.076H197.093ZM203.817 198.195C203.466 197.844 202.962 197.669 202.303 197.669H197.286C196.627 197.669 196.122 197.844 195.771 198.195C195.421 198.546 195.245 199.051 195.245 199.71V209.883C195.245 210.542 195.421 211.047 195.771 211.397C196.122 211.748 196.627 211.924 197.286 211.924H202.303C202.962 211.924 203.466 211.748 203.817 211.397C204.175 211.047 204.354 210.542 204.354 209.883V199.71C204.354 199.051 204.175 198.546 203.817 198.195ZM209.612 199.317H215.426V210.276H209.612V199.317ZM216.397 198.338L216.396 198.337C216.093 198.034 215.646 197.869 215.022 197.869H210.006C209.382 197.869 208.935 198.034 208.633 198.337C208.33 198.639 208.165 199.086 208.165 199.71V209.883C208.165 210.507 208.33 210.954 208.633 211.256C208.935 211.558 209.382 211.724 210.006 211.724H215.022C215.646 211.724 216.093 211.558 216.396 211.256L216.397 211.255C216.706 210.952 216.874 210.506 216.874 209.883V199.71C216.874 199.087 216.706 198.641 216.397 198.338ZM209.812 210.076V199.517H215.226V210.076H209.812ZM216.537 198.195C216.186 197.844 215.681 197.669 215.022 197.669H210.006C209.347 197.669 208.842 197.844 208.491 198.195C208.14 198.546 207.965 199.051 207.965 199.71V209.883C207.965 210.542 208.14 211.047 208.491 211.397C208.842 211.748 209.347 211.924 210.006 211.924H215.022C215.681 211.924 216.186 211.748 216.537 211.397C216.895 211.047 217.074 210.542 217.074 209.883V199.71C217.074 199.051 216.895 198.546 216.537 198.195ZM229.445 199.008C229.492 198.937 229.526 198.865 229.549 198.792L229.553 198.779C229.582 198.703 229.594 198.641 229.594 198.593C229.594 198.381 229.522 198.217 229.379 198.084L229.373 198.079C229.231 197.937 229.067 197.869 228.87 197.869C228.724 197.869 228.599 197.903 228.489 197.969C228.381 198.035 228.277 198.14 228.183 198.297C228.182 198.298 228.182 198.298 228.182 198.298L221.023 210.563C220.977 210.632 220.943 210.706 220.92 210.786L220.918 210.79C220.895 210.867 220.884 210.936 220.884 211C220.884 211.217 220.953 211.378 221.081 211.5C221.22 211.634 221.391 211.702 221.608 211.702C221.754 211.702 221.873 211.668 221.974 211.604L221.978 211.602C222.088 211.536 222.195 211.43 222.297 211.272L229.445 199.008ZM222.468 211.376C222.353 211.555 222.224 211.688 222.081 211.773C221.945 211.859 221.787 211.902 221.608 211.902C221.343 211.902 221.121 211.816 220.942 211.645C220.77 211.48 220.684 211.265 220.684 211C220.684 210.914 220.699 210.825 220.727 210.731C220.756 210.631 220.799 210.538 220.856 210.452L228.011 198.195C228.118 198.016 228.243 197.884 228.386 197.798C228.53 197.712 228.691 197.669 228.87 197.669C229.121 197.669 229.335 197.758 229.514 197.938C229.701 198.109 229.794 198.328 229.794 198.593C229.794 198.672 229.776 198.757 229.74 198.851C229.711 198.944 229.668 199.033 229.611 199.119L222.468 211.376ZM235.052 199.317H240.866V210.276H235.052V199.317ZM241.836 198.338L241.835 198.337C241.532 198.034 241.085 197.869 240.462 197.869H235.445C234.821 197.869 234.374 198.034 234.072 198.337C233.769 198.639 233.604 199.086 233.604 199.71V209.883C233.604 210.507 233.769 210.954 234.072 211.256C234.374 211.558 234.821 211.724 235.445 211.724H240.462C241.085 211.724 241.532 211.558 241.835 211.256L241.836 211.255C242.145 210.952 242.313 210.506 242.313 209.883V199.71C242.313 199.087 242.145 198.641 241.836 198.338ZM235.252 210.076V199.517H240.666V210.076H235.252ZM241.976 198.195C241.625 197.844 241.12 197.669 240.462 197.669H235.445C234.786 197.669 234.281 197.844 233.93 198.195C233.579 198.546 233.404 199.051 233.404 199.71V209.883C233.404 210.542 233.579 211.047 233.93 211.397C234.281 211.748 234.786 211.924 235.445 211.924H240.462C241.12 211.924 241.625 211.748 241.976 211.397C242.334 211.047 242.513 210.542 242.513 209.883V199.71C242.513 199.051 242.334 198.546 241.976 198.195ZM247.771 199.317H253.585V210.276H247.771V199.317ZM254.556 198.338L254.554 198.337C254.252 198.034 253.805 197.869 253.181 197.869H248.165C247.541 197.869 247.094 198.034 246.791 198.337C246.489 198.639 246.324 199.086 246.324 199.71V209.883C246.324 210.507 246.489 210.954 246.791 211.256C247.094 211.558 247.541 211.724 248.165 211.724H253.181C253.805 211.724 254.252 211.558 254.554 211.256L254.556 211.255C254.865 210.952 255.033 210.506 255.033 209.883V199.71C255.033 199.087 254.865 198.641 254.556 198.338ZM247.971 210.076V199.517H253.385V210.076H247.971ZM254.696 198.195C254.345 197.844 253.84 197.669 253.181 197.669H248.165C247.506 197.669 247.001 197.844 246.65 198.195C246.299 198.546 246.124 199.051 246.124 199.71V209.883C246.124 210.542 246.299 211.047 246.65 211.397C247.001 211.748 247.506 211.924 248.165 211.924H253.181C253.84 211.924 254.345 211.748 254.696 211.397C255.054 211.047 255.233 210.542 255.233 209.883V199.71C255.233 199.051 255.054 198.546 254.696 198.195Z" fill="url(#paint24_linear)"/>
<path fill-rule="evenodd" clip-rule="evenodd" d="M382.026 226C384.361 226 386.236 226.505 387.696 227.03L386.631 231.954C383.918 230.716 381.524 230.803 380.656 230.915C378.905 231.142 378.105 232.027 378.086 232.86C378.027 235.598 386.603 235.936 386.576 242.066C386.557 246.724 382.684 249.787 376.698 250H375.503C372.984 249.912 370.61 249.381 369.287 248.778L370.384 243.689C371.793 244.34 373.562 245.204 376.607 245.157C378.352 245.13 380.218 244.443 380.235 242.884C380.244 241.865 379.452 241.135 377.092 239.998C374.795 238.885 371.746 237.021 371.786 233.677C371.82 229.157 376.037 226 382.026 226ZM343.456 226.425C344.769 226.425 345.952 227.291 346.251 228.792L348.803 242.231L355.11 226.425H361.475L351.656 249.65H345.25L340.418 231.113C340.125 229.974 339.87 229.554 338.978 229.075C337.522 228.29 335.116 227.555 333 227.099L333.143 226.425H343.456ZM370.135 226.425L365.124 249.65H359.062L364.076 226.425H370.135ZM403.107 226.425L408 249.65H402.394L401.663 246.179H393.887L392.624 249.65H386.261L395.355 228.128C395.79 227.095 396.771 226.425 397.935 226.425H403.107ZM398.822 232.7L395.632 241.42H400.659L398.822 232.7Z" fill="url(#paint25_linear)"/>
<path fill-rule="evenodd" clip-rule="evenodd" d="M42 97C42 94.7909 43.7909 93 46 93H65.3221C60.17 93 55.9934 97.3372 55.9934 102.688H42V97ZM88.6435 97.9062V97C88.6435 94.7909 86.8527 93 84.6435 93H65.3221C67.9317 93 70.291 94.1127 71.9841 95.9062H70.5996C69.1625 94.6986 67.3339 93.9736 65.3423 93.9688L65.3218 93.9687C60.6849 93.9687 56.9259 97.8723 56.9259 102.688C56.9259 104.921 57.7343 106.957 59.0638 108.5C58.8539 108.743 58.657 108.999 58.4743 109.266L58.4742 109.266C57.6689 110.442 57.1377 111.835 56.9771 113.344H56.9772C56.9433 113.662 56.9259 113.985 56.9259 114.313L56.9258 114.313C56.9258 119.128 60.6848 123.031 65.3216 123.031H65.3218C65.684 123.031 66.0408 123.007 66.391 122.961C70.523 122.416 73.7176 118.752 73.7176 114.313C73.7176 112.079 72.9092 110.043 71.5797 108.5C71.7896 108.256 71.9865 108.001 72.1693 107.734L72.1695 107.734C72.9748 106.558 73.5061 105.165 73.6667 103.656H73.6663C73.7002 103.338 73.7176 103.015 73.7176 102.688L73.7179 102.688H74.6508H88.6435V97.9062ZM42 103.656H56.0394C56.2122 105.463 56.8628 107.123 57.8582 108.5C56.8626 109.876 56.2118 111.537 56.039 113.344H42V103.656ZM42 114.312L55.9929 114.313C55.9929 119.658 60.1624 123.993 65.3084 124H46C43.7909 124 42 122.209 42 120V114.312ZM84.6435 124H65.3349C70.4809 123.993 74.6503 119.658 74.6503 114.313L88.6435 114.312V120C88.6435 122.209 86.8527 124 84.6435 124ZM72.7855 108.5C73.7809 109.877 74.4316 111.537 74.6043 113.344H88.6435V103.656H74.6047C74.432 105.463 73.7812 107.124 72.7855 108.5Z" fill="#D7DCE2"/>
<defs>
<linearGradient id="paint0_linear" x1="49.3748" y1="24" x2="49.3748" y2="45" gradientUnits="userSpaceOnUse">
<stop stop-color="white"/>
<stop offset="0.223958" stop-color="white"/>
<stop offset="0.536458" stop-color="#D7DCE2"/>
<stop offset="1" stop-color="white"/>
</linearGradient>
<linearGradient id="paint1_linear" x1="94.3958" y1="31.073" x2="94.3958" y2="37.5803" gradientUnits="userSpaceOnUse">
<stop stop-color="white"/>
<stop offset="0.223958" stop-color="white"/>
<stop offset="0.536458" stop-color="#D7DCE2"/>
<stop offset="1" stop-color="white"/>
</linearGradient>
<linearGradient id="paint2_linear" x1="213.865" y1="143.609" x2="213.865" y2="164.344" gradientUnits="userSpaceOnUse">
<stop stop-color="white"/>
<stop offset="0.3125" stop-color="#DEE2E7"/>
<stop offset="0.614583" stop-color="white"/>
<stop offset="0.770833" stop-color="#D7DCE2"/>
<stop offset="1" stop-color="white"/>
</linearGradient>
<linearGradient id="paint3_linear" x1="213.865" y1="143.609" x2="213.865" y2="164.344" gradientUnits="userSpaceOnUse">
<stop stop-color="white"/>
<stop offset="0.3125" stop-color="#DEE2E7"/>
<stop offset="0.614583" stop-color="white"/>
<stop offset="0.770833" stop-color="#D7DCE2"/>
<stop offset="1" stop-color="white"/>
</linearGradient>
<linearGradient id="paint4_linear" x1="213.865" y1="143.609" x2="213.865" y2="164.344" gradientUnits="userSpaceOnUse">
<stop stop-color="white"/>
<stop offset="0.3125" stop-color="#DEE2E7"/>
<stop offset="0.614583" stop-color="white"/>
<stop offset="0.770833" stop-color="#D7DCE2"/>
<stop offset="1" stop-color="white"/>
</linearGradient>
<linearGradient id="paint5_linear" x1="213.865" y1="143.609" x2="213.865" y2="164.344" gradientUnits="userSpaceOnUse">
<stop stop-color="white"/>
<stop offset="0.3125" stop-color="#DEE2E7"/>
<stop offset="0.614583" stop-color="white"/>
<stop offset="0.770833" stop-color="#D7DCE2"/>
<stop offset="1" stop-color="white"/>
</linearGradient>
<linearGradient id="paint6_linear" x1="213.865" y1="143.609" x2="213.865" y2="164.344" gradientUnits="userSpaceOnUse">
<stop stop-color="white"/>
<stop offset="0.3125" stop-color="#DEE2E7"/>
<stop offset="0.614583" stop-color="white"/>
<stop offset="0.770833" stop-color="#D7DCE2"/>
<stop offset="1" stop-color="white"/>
</linearGradient>
<linearGradient id="paint7_linear" x1="213.865" y1="143.609" x2="213.865" y2="164.344" gradientUnits="userSpaceOnUse">
<stop stop-color="white"/>
<stop offset="0.3125" stop-color="#DEE2E7"/>
<stop offset="0.614583" stop-color="white"/>
<stop offset="0.770833" stop-color="#D7DCE2"/>
<stop offset="1" stop-color="white"/>
</linearGradient>
<linearGradient id="paint8_linear" x1="213.865" y1="143.609" x2="213.865" y2="164.344" gradientUnits="userSpaceOnUse">
<stop stop-color="white"/>
<stop offset="0.3125" stop-color="#DEE2E7"/>
<stop offset="0.614583" stop-color="white"/>
<stop offset="0.770833" stop-color="#D7DCE2"/>
<stop offset="1" stop-color="white"/>
</linearGradient>
<linearGradient id="paint9_linear" x1="213.865" y1="143.609" x2="213.865" y2="164.344" gradientUnits="userSpaceOnUse">
<stop stop-color="white"/>
<stop offset="0.3125" stop-color="#DEE2E7"/>
<stop offset="0.614583" stop-color="white"/>
<stop offset="0.770833" stop-color="#D7DCE2"/>
<stop offset="1" stop-color="white"/>
</linearGradient>
<linearGradient id="paint10_linear" x1="213.865" y1="143.609" x2="213.865" y2="164.344" gradientUnits="userSpaceOnUse">
<stop stop-color="white"/>
<stop offset="0.3125" stop-color="#DEE2E7"/>
<stop offset="0.614583" stop-color="white"/>
<stop offset="0.770833" stop-color="#D7DCE2"/>
<stop offset="1" stop-color="white"/>
</linearGradient>
<linearGradient id="paint11_linear" x1="213.865" y1="143.609" x2="213.865" y2="164.344" gradientUnits="userSpaceOnUse">
<stop stop-color="white"/>
<stop offset="0.3125" stop-color="#DEE2E7"/>
<stop offset="0.614583" stop-color="white"/>
<stop offset="0.770833" stop-color="#D7DCE2"/>
<stop offset="1" stop-color="white"/>
</linearGradient>
<linearGradient id="paint12_linear" x1="213.865" y1="143.609" x2="213.865" y2="164.344" gradientUnits="userSpaceOnUse">
<stop stop-color="white"/>
<stop offset="0.3125" stop-color="#DEE2E7"/>
<stop offset="0.614583" stop-color="white"/>
<stop offset="0.770833" stop-color="#D7DCE2"/>
<stop offset="1" stop-color="white"/>
</linearGradient>
<linearGradient id="paint13_linear" x1="213.865" y1="143.609" x2="213.865" y2="164.344" gradientUnits="userSpaceOnUse">
<stop stop-color="white"/>
<stop offset="0.3125" stop-color="#DEE2E7"/>
<stop offset="0.614583" stop-color="white"/>
<stop offset="0.770833" stop-color="#D7DCE2"/>
<stop offset="1" stop-color="white"/>
</linearGradient>
<linearGradient id="paint14_linear" x1="213.865" y1="143.609" x2="213.865" y2="164.344" gradientUnits="userSpaceOnUse">
<stop stop-color="white"/>
<stop offset="0.3125" stop-color="#DEE2E7"/>
<stop offset="0.614583" stop-color="white"/>
<stop offset="0.770833" stop-color="#D7DCE2"/>
<stop offset="1" stop-color="white"/>
</linearGradient>
<linearGradient id="paint15_linear" x1="213.865" y1="143.609" x2="213.865" y2="164.344" gradientUnits="userSpaceOnUse">
<stop stop-color="white"/>
<stop offset="0.3125" stop-color="#DEE2E7"/>
<stop offset="0.614583" stop-color="white"/>
<stop offset="0.770833" stop-color="#D7DCE2"/>
<stop offset="1" stop-color="white"/>
</linearGradient>
<linearGradient id="paint16_linear" x1="213.865" y1="143.609" x2="213.865" y2="164.344" gradientUnits="userSpaceOnUse">
<stop stop-color="white"/>
<stop offset="0.3125" stop-color="#DEE2E7"/>
<stop offset="0.614583" stop-color="white"/>
<stop offset="0.770833" stop-color="#D7DCE2"/>
<stop offset="1" stop-color="white"/>
</linearGradient>
<linearGradient id="paint17_linear" x1="213.865" y1="143.609" x2="213.865" y2="164.344" gradientUnits="userSpaceOnUse">
<stop stop-color="white"/>
<stop offset="0.3125" stop-color="#DEE2E7"/>
<stop offset="0.614583" stop-color="white"/>
<stop offset="0.770833" stop-color="#D7DCE2"/>
<stop offset="1" stop-color="white"/>
</linearGradient>
<linearGradient id="paint18_linear" x1="213.865" y1="143.609" x2="213.865" y2="164.344" gradientUnits="userSpaceOnUse">
<stop stop-color="white"/>
<stop offset="0.484375" stop-color="#B8B8B8"/>
<stop offset="1" stop-color="white"/>
</linearGradient>
<linearGradient id="paint19_linear" x1="225.239" y1="197.669" x2="225.239" y2="211.924" gradientUnits="userSpaceOnUse">
<stop stop-color="white"/>
<stop offset="0.3125" stop-color="#DEE2E7"/>
<stop offset="0.614583" stop-color="white"/>
<stop offset="0.770833" stop-color="#D7DCE2"/>
<stop offset="1" stop-color="white"/>
</linearGradient>
<linearGradient id="paint20_linear" x1="225.239" y1="197.669" x2="225.239" y2="211.924" gradientUnits="userSpaceOnUse">
<stop stop-color="white"/>
<stop offset="0.3125" stop-color="#DEE2E7"/>
<stop offset="0.614583" stop-color="white"/>
<stop offset="0.770833" stop-color="#D7DCE2"/>
<stop offset="1" stop-color="white"/>
</linearGradient>
<linearGradient id="paint21_linear" x1="225.239" y1="197.669" x2="225.239" y2="211.924" gradientUnits="userSpaceOnUse">
<stop stop-color="white"/>
<stop offset="0.3125" stop-color="#DEE2E7"/>
<stop offset="0.614583" stop-color="white"/>
<stop offset="0.770833" stop-color="#D7DCE2"/>
<stop offset="1" stop-color="white"/>
</linearGradient>
<linearGradient id="paint22_linear" x1="225.239" y1="197.669" x2="225.239" y2="211.924" gradientUnits="userSpaceOnUse">
<stop stop-color="white"/>
<stop offset="0.3125" stop-color="#DEE2E7"/>
<stop offset="0.614583" stop-color="white"/>
<stop offset="0.770833" stop-color="#D7DCE2"/>
<stop offset="1" stop-color="white"/>
</linearGradient>
<linearGradient id="paint23_linear" x1="225.239" y1="197.669" x2="225.239" y2="211.924" gradientUnits="userSpaceOnUse">
<stop stop-color="white"/>
<stop offset="0.3125" stop-color="#DEE2E7"/>
<stop offset="0.614583" stop-color="white"/>
<stop offset="0.770833" stop-color="#D7DCE2"/>
<stop offset="1" stop-color="white"/>
</linearGradient>
<linearGradient id="paint24_linear" x1="225.239" y1="197.669" x2="225.239" y2="211.924" gradientUnits="userSpaceOnUse">
<stop stop-color="white"/>
<stop offset="0.484375" stop-color="#B8B8B8"/>
<stop offset="1" stop-color="white"/>
</linearGradient>
<linearGradient id="paint25_linear" x1="370.5" y1="226" x2="370.5" y2="250" gradientUnits="userSpaceOnUse">
<stop stop-color="white"/>
<stop offset="0.135417" stop-color="white"/>
<stop offset="0.692708" stop-color="#D7DCE2"/>
<stop offset="1" stop-color="white"/>
</linearGradient>
</defs>
</svg>
