<svg width="48" height="48" viewBox="0 0 48 48" fill="none" xmlns="http://www.w3.org/2000/svg">
<circle cx="24" cy="24" r="24" fill="white"/>
<path d="M18.375 27.375H21.75C22.0484 27.375 22.3345 27.2565 22.5455 27.0455C22.7565 26.8345 22.875 26.5484 22.875 26.25C22.875 25.9516 22.7565 25.6655 22.5455 25.4545C22.3345 25.2435 22.0484 25.125 21.75 25.125H18.375C18.0766 25.125 17.7905 25.2435 17.5795 25.4545C17.3685 25.6655 17.25 25.9516 17.25 26.25C17.25 26.5484 17.3685 26.8345 17.5795 27.0455C17.7905 27.2565 18.0766 27.375 18.375 27.375ZM31.875 16.125H16.125C15.2299 16.125 14.3714 16.4806 13.7385 17.1135C13.1056 17.7464 12.75 18.6049 12.75 19.5V29.625C12.75 30.5201 13.1056 31.3786 13.7385 32.0115C14.3714 32.6444 15.2299 33 16.125 33H31.875C32.7701 33 33.6286 32.6444 34.2615 32.0115C34.8944 31.3786 35.25 30.5201 35.25 29.625V19.5C35.25 18.6049 34.8944 17.7464 34.2615 17.1135C33.6286 16.4806 32.7701 16.125 31.875 16.125ZM33 29.625C33 29.9234 32.8815 30.2095 32.6705 30.4205C32.4595 30.6315 32.1734 30.75 31.875 30.75H16.125C15.8266 30.75 15.5405 30.6315 15.3295 30.4205C15.1185 30.2095 15 29.9234 15 29.625V22.875H33V29.625ZM33 20.625H15V19.5C15 19.2016 15.1185 18.9155 15.3295 18.7045C15.5405 18.4935 15.8266 18.375 16.125 18.375H31.875C32.1734 18.375 32.4595 18.4935 32.6705 18.7045C32.8815 18.9155 33 19.2016 33 19.5V20.625Z" fill="#141414"/>
</svg>
