<svg width="56" height="56" viewBox="0 0 56 56" fill="none" xmlns="http://www.w3.org/2000/svg">
<rect width="56" height="56" rx="28" fill="#FFF8EB"/>
<path d="M23.9999 32.0001C23.7362 32.0001 23.4784 32.0783 23.2592 32.2248C23.0399 32.3713 22.869 32.5795 22.7681 32.8232C22.6672 33.0668 22.6408 33.3349 22.6922 33.5935C22.7437 33.8522 22.8706 34.0898 23.0571 34.2762C23.2436 34.4627 23.4812 34.5897 23.7398 34.6411C23.9984 34.6926 24.2665 34.6662 24.5102 34.5653C24.7538 34.4643 24.962 34.2934 25.1085 34.0742C25.2551 33.8549 25.3333 33.5971 25.3333 33.3334C25.3333 32.9798 25.1928 32.6407 24.9427 32.3906C24.6927 32.1406 24.3535 32.0001 23.9999 32.0001ZM14.6666 30.6667C14.313 30.6667 13.9738 30.8072 13.7238 31.0573C13.4737 31.3073 13.3333 31.6465 13.3333 32.0001V34.6667C13.3333 35.0204 13.4737 35.3595 13.7238 35.6096C13.9738 35.8596 14.313 36.0001 14.6666 36.0001C15.0202 36.0001 15.3593 35.8596 15.6094 35.6096C15.8594 35.3595 15.9999 35.0204 15.9999 34.6667V32.0001C15.9999 31.6465 15.8594 31.3073 15.6094 31.0573C15.3593 30.8072 15.0202 30.6667 14.6666 30.6667ZM41.3333 30.6667C40.9796 30.6667 40.6405 30.8072 40.3904 31.0573C40.1404 31.3073 39.9999 31.6465 39.9999 32.0001V34.6667C39.9999 35.0204 40.1404 35.3595 40.3904 35.6096C40.6405 35.8596 40.9796 36.0001 41.3333 36.0001C41.6869 36.0001 42.026 35.8596 42.2761 35.6096C42.5261 35.3595 42.6666 35.0204 42.6666 34.6667V32.0001C42.6666 31.6465 42.5261 31.3073 42.2761 31.0573C42.026 30.8072 41.6869 30.6667 41.3333 30.6667ZM34.6666 21.3334H29.3333V19.6267C29.7363 19.3941 30.0714 19.06 30.3053 18.6576C30.5392 18.2553 30.6638 17.7988 30.6666 17.3334C30.6666 16.6262 30.3856 15.9479 29.8855 15.4478C29.3854 14.9477 28.7072 14.6667 27.9999 14.6667C27.2927 14.6667 26.6144 14.9477 26.1143 15.4478C25.6142 15.9479 25.3333 16.6262 25.3333 17.3334C25.3361 17.7988 25.4606 18.2553 25.6945 18.6576C25.9284 19.06 26.2635 19.3941 26.6666 19.6267V21.3334H21.3333C20.2724 21.3334 19.255 21.7548 18.5048 22.505C17.7547 23.2551 17.3333 24.2725 17.3333 25.3334V37.3334C17.3333 38.3943 17.7547 39.4117 18.5048 40.1618C19.255 40.912 20.2724 41.3334 21.3333 41.3334H34.6666C35.7274 41.3334 36.7449 40.912 37.495 40.1618C38.2452 39.4117 38.6666 38.3943 38.6666 37.3334V25.3334C38.6666 24.2725 38.2452 23.2551 37.495 22.505C36.7449 21.7548 35.7274 21.3334 34.6666 21.3334ZM30.2933 24.0001L29.6266 26.6667H26.3733L25.7066 24.0001H30.2933ZM35.9999 37.3334C35.9999 37.687 35.8594 38.0262 35.6094 38.2762C35.3593 38.5263 35.0202 38.6667 34.6666 38.6667H21.3333C20.9796 38.6667 20.6405 38.5263 20.3904 38.2762C20.1404 38.0262 19.9999 37.687 19.9999 37.3334V25.3334C19.9999 24.9798 20.1404 24.6407 20.3904 24.3906C20.6405 24.1406 20.9796 24.0001 21.3333 24.0001H22.9599L23.9999 28.3201C24.0729 28.6159 24.245 28.8778 24.4876 29.0622C24.7302 29.2466 25.0287 29.3423 25.3333 29.3334H30.6666C30.9712 29.3423 31.2696 29.2466 31.5122 29.0622C31.7548 28.8778 31.9269 28.6159 31.9999 28.3201L33.0399 24.0001H34.6666C35.0202 24.0001 35.3593 24.1406 35.6094 24.3906C35.8594 24.6407 35.9999 24.9798 35.9999 25.3334V37.3334ZM31.9999 32.0001C31.7362 32.0001 31.4784 32.0783 31.2592 32.2248C31.0399 32.3713 30.869 32.5795 30.7681 32.8232C30.6672 33.0668 30.6408 33.3349 30.6922 33.5935C30.7437 33.8522 30.8706 34.0898 31.0571 34.2762C31.2436 34.4627 31.4812 34.5897 31.7398 34.6411C31.9984 34.6926 32.2665 34.6662 32.5102 34.5653C32.7538 34.4643 32.962 34.2934 33.1085 34.0742C33.2551 33.8549 33.3333 33.5971 33.3333 33.3334C33.3333 32.9798 33.1928 32.6407 32.9427 32.3906C32.6927 32.1406 32.3535 32.0001 31.9999 32.0001Z" fill="#FFC758"/>
</svg>
