<svg width="48" height="48" viewBox="0 0 48 48" fill="none" xmlns="http://www.w3.org/2000/svg">
<circle cx="24" cy="24" r="24" fill="white"/>
<path d="M31.5485 18.6113C31.4439 18.5059 31.3195 18.4222 31.1824 18.3651C31.0453 18.308 30.8983 18.2786 30.7498 18.2786C30.6012 18.2786 30.4542 18.308 30.3171 18.3651C30.18 18.4222 30.0556 18.5059 29.951 18.6113L21.5698 27.0038L18.0485 23.4713C17.9399 23.3664 17.8117 23.284 17.6713 23.2286C17.5308 23.1733 17.3808 23.1461 17.2299 23.1487C17.0789 23.1513 16.93 23.1837 16.7915 23.2438C16.653 23.304 16.5278 23.3909 16.4229 23.4995C16.318 23.608 16.2355 23.7362 16.1802 23.8767C16.1248 24.0172 16.0977 24.1671 16.1003 24.3181C16.1029 24.4691 16.1352 24.618 16.1954 24.7565C16.2556 24.8949 16.3424 25.0202 16.451 25.1251L20.771 29.4451C20.8756 29.5505 21 29.6342 21.1371 29.6913C21.2742 29.7485 21.4212 29.7779 21.5698 29.7779C21.7183 29.7779 21.8653 29.7485 22.0024 29.6913C22.1395 29.6342 22.2639 29.5505 22.3685 29.4451L31.5485 20.2651C31.6627 20.1597 31.7538 20.0319 31.8162 19.8896C31.8785 19.7473 31.9107 19.5936 31.9107 19.4382C31.9107 19.2828 31.8785 19.1292 31.8162 18.9869C31.7538 18.8445 31.6627 18.7167 31.5485 18.6113Z" fill="#141414"/>
</svg>
