<svg width="56" height="56" viewBox="0 0 56 56" fill="none" xmlns="http://www.w3.org/2000/svg">
<rect width="56" height="56" rx="28" fill="#FFF5F5"/>
<path d="M22.3444 26.344C23.1356 26.344 23.9089 26.1094 24.5667 25.6699C25.2245 25.2304 25.7372 24.6056 26.04 23.8747C26.3427 23.1438 26.4219 22.3396 26.2676 21.5636C26.1132 20.7877 25.7323 20.075 25.1729 19.5156C24.6135 18.9562 23.9007 18.5752 23.1248 18.4209C22.3489 18.2665 21.5446 18.3457 20.8137 18.6485C20.0828 18.9512 19.4581 19.4639 19.0186 20.1217C18.579 20.7795 18.3444 21.5529 18.3444 22.344C18.3455 23.4045 18.7673 24.4213 19.5172 25.1713C20.2671 25.9212 21.2839 26.3429 22.3444 26.344ZM22.3444 21.0107C22.6081 21.0107 22.8659 21.0889 23.0852 21.2354C23.3045 21.3819 23.4754 21.5901 23.5763 21.8338C23.6772 22.0774 23.7036 22.3455 23.6521 22.6041C23.6007 22.8628 23.4737 23.1003 23.2872 23.2868C23.1008 23.4733 22.8632 23.6003 22.6046 23.6517C22.3459 23.7032 22.0778 23.6768 21.8342 23.5758C21.5906 23.4749 21.3823 23.304 21.2358 23.0848C21.0893 22.8655 21.0111 22.6077 21.0111 22.344C21.0111 21.9904 21.1516 21.6512 21.4016 21.4012C21.6517 21.1511 21.9908 21.0107 22.3444 21.0107ZM33.6564 29.656C32.8653 29.656 32.092 29.8906 31.4342 30.3301C30.7764 30.7696 30.2637 31.3944 29.9609 32.1253C29.6582 32.8562 29.579 33.6604 29.7333 34.4364C29.8876 35.2123 30.2686 35.925 30.828 36.4844C31.3874 37.0438 32.1002 37.4248 32.8761 37.5791C33.652 37.7335 34.4563 37.6543 35.1872 37.3515C35.9181 37.0488 36.5428 36.5361 36.9823 35.8783C37.4218 35.2205 37.6564 34.4471 37.6564 33.656C37.6554 32.5955 37.2336 31.5787 36.4837 30.8287C35.7338 30.0788 34.717 29.6571 33.6564 29.656ZM33.6564 34.9893C33.3927 34.9893 33.1349 34.9111 32.9157 34.7646C32.6964 34.6181 32.5255 34.4099 32.4246 34.1662C32.3237 33.9226 32.2973 33.6545 32.3487 33.3959C32.4002 33.1372 32.5272 32.8997 32.7136 32.7132C32.9001 32.5267 33.1377 32.3997 33.3963 32.3483C33.655 32.2968 33.923 32.3232 34.1667 32.4242C34.4103 32.5251 34.6186 32.696 34.7651 32.9152C34.9116 33.1345 34.9898 33.3923 34.9898 33.656C34.9898 34.0096 34.8493 34.3488 34.5992 34.5988C34.3492 34.8489 34.0101 34.9893 33.6564 34.9893ZM38.2764 17.724C38.0264 17.474 37.6873 17.3336 37.3338 17.3336C36.9802 17.3336 36.6411 17.474 36.3911 17.724L17.7244 36.3907C17.5971 36.5137 17.4955 36.6608 17.4256 36.8235C17.3558 36.9861 17.319 37.1611 17.3174 37.3381C17.3159 37.5152 17.3496 37.6907 17.4167 37.8546C17.4837 38.0185 17.5827 38.1673 17.7079 38.2925C17.8331 38.4177 17.982 38.5167 18.1458 38.5838C18.3097 38.6508 18.4853 38.6845 18.6623 38.683C18.8393 38.6815 19.0143 38.6447 19.177 38.5748C19.3396 38.5049 19.4868 38.4034 19.6098 38.276L38.2764 19.6093C38.5264 19.3593 38.6668 19.0202 38.6668 18.6667C38.6668 18.3131 38.5264 17.974 38.2764 17.724Z" fill="#FF6056"/>
</svg>
