<svg width="56" height="56" viewBox="0 0 56 56" fill="none" xmlns="http://www.w3.org/2000/svg">
<rect width="56" height="56" rx="28" fill="#EFEFFD"/>
<path d="M21.3337 32H25.3337C25.6873 32 26.0264 31.8595 26.2765 31.6094C26.5265 31.3594 26.667 31.0202 26.667 30.6666C26.667 30.313 26.5265 29.9739 26.2765 29.7238C26.0264 29.4738 25.6873 29.3333 25.3337 29.3333H21.3337C20.98 29.3333 20.6409 29.4738 20.3909 29.7238C20.1408 29.9739 20.0003 30.313 20.0003 30.6666C20.0003 31.0202 20.1408 31.3594 20.3909 31.6094C20.6409 31.8595 20.98 32 21.3337 32ZM37.3337 18.6666H18.667C17.6061 18.6666 16.5887 19.0881 15.8386 19.8382C15.0884 20.5883 14.667 21.6058 14.667 22.6666V34.6666C14.667 35.7275 15.0884 36.7449 15.8386 37.4951C16.5887 38.2452 17.6061 38.6666 18.667 38.6666H37.3337C38.3945 38.6666 39.4119 38.2452 40.1621 37.4951C40.9122 36.7449 41.3337 35.7275 41.3337 34.6666V22.6666C41.3337 21.6058 40.9122 20.5883 40.1621 19.8382C39.4119 19.0881 38.3945 18.6666 37.3337 18.6666ZM38.667 34.6666C38.667 35.0203 38.5265 35.3594 38.2765 35.6094C38.0264 35.8595 37.6873 36 37.3337 36H18.667C18.3134 36 17.9742 35.8595 17.7242 35.6094C17.4741 35.3594 17.3337 35.0203 17.3337 34.6666V26.6666H38.667V34.6666ZM38.667 24H17.3337V22.6666C17.3337 22.313 17.4741 21.9739 17.7242 21.7238C17.9742 21.4738 18.3134 21.3333 18.667 21.3333H37.3337C37.6873 21.3333 38.0264 21.4738 38.2765 21.7238C38.5265 21.9739 38.667 22.313 38.667 22.6666V24Z" fill="#5E65F4"/>
</svg>
