<svg width="510" height="320" viewBox="0 0 510 320" fill="none" xmlns="http://www.w3.org/2000/svg">
<g clip-path="url(#clip0)">
<path d="M151.888 -59.6301C207.438 -96.7176 214.124 -155.3 277.847 -175.323C390.365 -210.678 430.619 -71.4211 536.395 -19.2582C585.153 4.78633 658.058 -16.6941 663.56 37.383C668.46 85.5555 586.991 78.1604 576.172 125.358C561.743 188.305 697.398 210.748 663.56 265.756C626.038 326.752 562.33 161.345 496.619 189.832C450.606 209.779 467.312 272.186 422.49 294.679C344.759 333.686 312.309 178.974 226.017 189.832C182.533 195.304 152.438 268.592 123.562 235.627C98.0013 206.446 154.721 179.108 151.888 140.422C146.235 63.2146 -19.0536 85.4172 1.82193 10.8701C19.2798 -51.4724 98.039 -23.6777 151.888 -59.6301Z" fill="#8B75F3"/>
</g>
<defs>
<clipPath id="clip0">
<rect width="510" height="320" fill="white"/>
</clipPath>
</defs>
</svg>
