<svg width="1177" height="320" viewBox="0 0 1177 320" fill="none" xmlns="http://www.w3.org/2000/svg">
<line x1="479" y1="291.5" x2="778" y2="291.5" stroke="#27AE60" stroke-width="2"/>
<path d="M288.506 18H287.375V10.3945H283.168V18H282.043V9.46875H288.506V18ZM290.1 14.7715C290.1 14.1504 290.221 13.5918 290.463 13.0957C290.709 12.5996 291.049 12.2168 291.482 11.9473C291.92 11.6777 292.418 11.543 292.977 11.543C293.84 11.543 294.537 11.8418 295.068 12.4395C295.604 13.0371 295.871 13.832 295.871 14.8242V14.9004C295.871 15.5176 295.752 16.0723 295.514 16.5645C295.279 17.0527 294.941 17.4336 294.5 17.707C294.062 17.9805 293.559 18.1172 292.988 18.1172C292.129 18.1172 291.432 17.8184 290.896 17.2207C290.365 16.623 290.1 15.832 290.1 14.8477V14.7715ZM291.189 14.9004C291.189 15.6035 291.352 16.168 291.676 16.5938C292.004 17.0195 292.441 17.2324 292.988 17.2324C293.539 17.2324 293.977 17.0176 294.301 16.5879C294.625 16.1543 294.787 15.5488 294.787 14.7715C294.787 14.0762 294.621 13.5137 294.289 13.084C293.961 12.6504 293.523 12.4336 292.977 12.4336C292.441 12.4336 292.01 12.6465 291.682 13.0723C291.354 13.498 291.189 14.1074 291.189 14.9004ZM299.205 15.2988H298.414V18H297.324V11.6602H298.414V14.3438H299.123L301.256 11.6602H302.568L300.061 14.707L302.779 18H301.402L299.205 15.2988ZM305.785 16.4121L307.262 11.6602H308.422L305.873 18.9785C305.479 20.0332 304.852 20.5605 303.992 20.5605L303.787 20.543L303.383 20.4668V19.5879L303.676 19.6113C304.043 19.6113 304.328 19.5371 304.531 19.3887C304.738 19.2402 304.908 18.9688 305.041 18.5742L305.281 17.9297L303.02 11.6602H304.203L305.785 16.4121ZM314.58 18H313.496V12.5566H310.578V18H309.488V11.6602H314.58V18ZM318.295 15.2988H317.504V18H316.414V11.6602H317.504V14.3438H318.213L320.346 11.6602H321.658L319.15 14.707L321.869 18H320.492L318.295 15.2988ZM326.715 18C326.652 17.875 326.602 17.6523 326.562 17.332C326.059 17.8555 325.457 18.1172 324.758 18.1172C324.133 18.1172 323.619 17.9414 323.217 17.5898C322.818 17.2344 322.619 16.7852 322.619 16.2422C322.619 15.582 322.869 15.0703 323.369 14.707C323.873 14.3398 324.58 14.1562 325.49 14.1562H326.545V13.6582C326.545 13.2793 326.432 12.9785 326.205 12.7559C325.979 12.5293 325.645 12.416 325.203 12.416C324.816 12.416 324.492 12.5137 324.23 12.709C323.969 12.9043 323.838 13.1406 323.838 13.418H322.748C322.748 13.1016 322.859 12.7969 323.082 12.5039C323.309 12.207 323.613 11.9727 323.996 11.8008C324.383 11.6289 324.807 11.543 325.268 11.543C325.998 11.543 326.57 11.7266 326.984 12.0938C327.398 12.457 327.613 12.959 327.629 13.5996V16.5176C327.629 17.0996 327.703 17.5625 327.852 17.9062V18H326.715ZM324.916 17.1738C325.256 17.1738 325.578 17.0859 325.883 16.9102C326.188 16.7344 326.408 16.5059 326.545 16.2246V14.9238H325.695C324.367 14.9238 323.703 15.3125 323.703 16.0898C323.703 16.4297 323.816 16.6953 324.043 16.8867C324.27 17.0781 324.561 17.1738 324.916 17.1738ZM335.088 12.0234C335.885 12.0234 336.521 12.291 336.998 12.8262C337.479 13.3574 337.719 14.0586 337.719 14.9297V15.0293C337.719 15.627 337.604 16.1621 337.373 16.6348C337.143 17.1035 336.811 17.4688 336.377 17.7305C335.947 17.9883 335.451 18.1172 334.889 18.1172C334.037 18.1172 333.352 17.834 332.832 17.2676C332.312 16.6973 332.053 15.9336 332.053 14.9766V14.4492C332.053 13.1172 332.299 12.0586 332.791 11.2734C333.287 10.4883 334.018 10.0098 334.982 9.83789C335.529 9.74023 335.898 9.62109 336.09 9.48047C336.281 9.33984 336.377 9.14648 336.377 8.90039H337.268C337.268 9.38867 337.156 9.76953 336.934 10.043C336.715 10.3164 336.363 10.5098 335.879 10.623L335.07 10.8047C334.426 10.957 333.941 11.2148 333.617 11.5781C333.297 11.9375 333.088 12.418 332.99 13.0195C333.564 12.3555 334.264 12.0234 335.088 12.0234ZM334.877 12.9141C334.346 12.9141 333.924 13.0938 333.611 13.4531C333.299 13.8086 333.143 14.3027 333.143 14.9355V15.0293C333.143 15.709 333.299 16.248 333.611 16.6465C333.928 17.041 334.354 17.2383 334.889 17.2383C335.428 17.2383 335.854 17.0391 336.166 16.6406C336.479 16.2422 336.635 15.6602 336.635 14.8945C336.635 14.2969 336.477 13.8184 336.16 13.459C335.848 13.0957 335.42 12.9141 334.877 12.9141ZM341.568 18.1172C340.709 18.1172 340.01 17.8359 339.471 17.2734C338.932 16.707 338.662 15.9512 338.662 15.0059V14.8066C338.662 14.1777 338.781 13.6172 339.02 13.125C339.262 12.6289 339.598 12.2422 340.027 11.9648C340.461 11.6836 340.93 11.543 341.434 11.543C342.258 11.543 342.898 11.8145 343.355 12.3574C343.812 12.9004 344.041 13.6777 344.041 14.6895V15.1406H339.746C339.762 15.7656 339.943 16.2715 340.291 16.6582C340.643 17.041 341.088 17.2324 341.627 17.2324C342.01 17.2324 342.334 17.1543 342.6 16.998C342.865 16.8418 343.098 16.6348 343.297 16.377L343.959 16.8926C343.428 17.709 342.631 18.1172 341.568 18.1172ZM341.434 12.4336C340.996 12.4336 340.629 12.5938 340.332 12.9141C340.035 13.2305 339.852 13.6758 339.781 14.25H342.957V14.168C342.926 13.6172 342.777 13.1914 342.512 12.8906C342.246 12.5859 341.887 12.4336 341.434 12.4336ZM348.787 13.3945C348.787 13.0977 348.674 12.8633 348.447 12.6914C348.221 12.5156 347.91 12.4277 347.516 12.4277C347.133 12.4277 346.812 12.5273 346.555 12.7266C346.301 12.9258 346.174 13.1602 346.174 13.4297H345.096C345.096 12.8789 345.326 12.4277 345.787 12.0762C346.248 11.7246 346.824 11.5488 347.516 11.5488C348.258 11.5488 348.836 11.709 349.25 12.0293C349.664 12.3457 349.871 12.7988 349.871 13.3887C349.871 13.6738 349.785 13.9355 349.613 14.1738C349.441 14.4121 349.197 14.6016 348.881 14.7422C349.619 14.9922 349.988 15.4844 349.988 16.2188C349.988 16.8008 349.764 17.2617 349.314 17.6016C348.865 17.9414 348.266 18.1113 347.516 18.1113C346.785 18.1113 346.182 17.9336 345.705 17.5781C345.232 17.2188 344.996 16.7344 344.996 16.125H346.074C346.074 16.4336 346.211 16.6992 346.484 16.9219C346.762 17.1406 347.105 17.25 347.516 17.25C347.93 17.25 348.264 17.1543 348.518 16.9629C348.771 16.7715 348.898 16.5234 348.898 16.2188C348.898 15.8633 348.791 15.6094 348.576 15.457C348.365 15.3008 348.035 15.2227 347.586 15.2227H346.502V14.3086H347.68C348.418 14.2891 348.787 13.9844 348.787 13.3945ZM359.727 14.9004C359.727 15.8652 359.506 16.6426 359.064 17.2324C358.623 17.8223 358.025 18.1172 357.271 18.1172C356.502 18.1172 355.896 17.873 355.455 17.3848V20.4375H354.371V11.6602H355.361L355.414 12.3633C355.855 11.8164 356.469 11.543 357.254 11.543C358.016 11.543 358.617 11.8301 359.059 12.4043C359.504 12.9785 359.727 13.7773 359.727 14.8008V14.9004ZM358.643 14.7773C358.643 14.0625 358.49 13.498 358.186 13.084C357.881 12.6699 357.463 12.4629 356.932 12.4629C356.275 12.4629 355.783 12.7539 355.455 13.3359V16.3652C355.779 16.9434 356.275 17.2324 356.943 17.2324C357.463 17.2324 357.875 17.0273 358.18 16.6172C358.488 16.2031 358.643 15.5898 358.643 14.7773ZM365.023 18C364.961 17.875 364.91 17.6523 364.871 17.332C364.367 17.8555 363.766 18.1172 363.066 18.1172C362.441 18.1172 361.928 17.9414 361.525 17.5898C361.127 17.2344 360.928 16.7852 360.928 16.2422C360.928 15.582 361.178 15.0703 361.678 14.707C362.182 14.3398 362.889 14.1562 363.799 14.1562H364.854V13.6582C364.854 13.2793 364.74 12.9785 364.514 12.7559C364.287 12.5293 363.953 12.416 363.512 12.416C363.125 12.416 362.801 12.5137 362.539 12.709C362.277 12.9043 362.146 13.1406 362.146 13.418H361.057C361.057 13.1016 361.168 12.7969 361.391 12.5039C361.617 12.207 361.922 11.9727 362.305 11.8008C362.691 11.6289 363.115 11.543 363.576 11.543C364.307 11.543 364.879 11.7266 365.293 12.0938C365.707 12.457 365.922 12.959 365.938 13.5996V16.5176C365.938 17.0996 366.012 17.5625 366.16 17.9062V18H365.023ZM363.225 17.1738C363.564 17.1738 363.887 17.0859 364.191 16.9102C364.496 16.7344 364.717 16.5059 364.854 16.2246V14.9238H364.004C362.676 14.9238 362.012 15.3125 362.012 16.0898C362.012 16.4297 362.125 16.6953 362.352 16.8867C362.578 17.0781 362.869 17.1738 363.225 17.1738ZM370.18 17.2324C370.566 17.2324 370.904 17.1152 371.193 16.8809C371.482 16.6465 371.643 16.3535 371.674 16.002H372.699C372.68 16.3652 372.555 16.7109 372.324 17.0391C372.094 17.3672 371.785 17.6289 371.398 17.8242C371.016 18.0195 370.609 18.1172 370.18 18.1172C369.316 18.1172 368.629 17.8301 368.117 17.2559C367.609 16.6777 367.355 15.8887 367.355 14.8887V14.707C367.355 14.0898 367.469 13.541 367.695 13.0605C367.922 12.5801 368.246 12.207 368.668 11.9414C369.094 11.6758 369.596 11.543 370.174 11.543C370.885 11.543 371.475 11.7559 371.943 12.1816C372.416 12.6074 372.668 13.1602 372.699 13.8398H371.674C371.643 13.4297 371.486 13.0938 371.205 12.832C370.928 12.5664 370.584 12.4336 370.174 12.4336C369.623 12.4336 369.195 12.6328 368.891 13.0312C368.59 13.4258 368.439 13.998 368.439 14.748V14.9531C368.439 15.6836 368.59 16.2461 368.891 16.6406C369.191 17.0352 369.621 17.2324 370.18 17.2324ZM376.461 17.2324C376.848 17.2324 377.186 17.1152 377.475 16.8809C377.764 16.6465 377.924 16.3535 377.955 16.002H378.98C378.961 16.3652 378.836 16.7109 378.605 17.0391C378.375 17.3672 378.066 17.6289 377.68 17.8242C377.297 18.0195 376.891 18.1172 376.461 18.1172C375.598 18.1172 374.91 17.8301 374.398 17.2559C373.891 16.6777 373.637 15.8887 373.637 14.8887V14.707C373.637 14.0898 373.75 13.541 373.977 13.0605C374.203 12.5801 374.527 12.207 374.949 11.9414C375.375 11.6758 375.877 11.543 376.455 11.543C377.166 11.543 377.756 11.7559 378.225 12.1816C378.697 12.6074 378.949 13.1602 378.98 13.8398H377.955C377.924 13.4297 377.768 13.0938 377.486 12.832C377.209 12.5664 376.865 12.4336 376.455 12.4336C375.904 12.4336 375.477 12.6328 375.172 13.0312C374.871 13.4258 374.721 13.998 374.721 14.748V14.9531C374.721 15.6836 374.871 16.2461 375.172 16.6406C375.473 17.0352 375.902 17.2324 376.461 17.2324ZM385.555 14.9004C385.555 15.8652 385.334 16.6426 384.893 17.2324C384.451 17.8223 383.854 18.1172 383.1 18.1172C382.33 18.1172 381.725 17.873 381.283 17.3848V20.4375H380.199V11.6602H381.189L381.242 12.3633C381.684 11.8164 382.297 11.543 383.082 11.543C383.844 11.543 384.445 11.8301 384.887 12.4043C385.332 12.9785 385.555 13.7773 385.555 14.8008V14.9004ZM384.471 14.7773C384.471 14.0625 384.318 13.498 384.014 13.084C383.709 12.6699 383.291 12.4629 382.76 12.4629C382.104 12.4629 381.611 12.7539 381.283 13.3359V16.3652C381.607 16.9434 382.104 17.2324 382.771 17.2324C383.291 17.2324 383.703 17.0273 384.008 16.6172C384.316 16.2031 384.471 15.5898 384.471 14.7773ZM386.65 14.7715C386.65 14.1504 386.771 13.5918 387.014 13.0957C387.26 12.5996 387.6 12.2168 388.033 11.9473C388.471 11.6777 388.969 11.543 389.527 11.543C390.391 11.543 391.088 11.8418 391.619 12.4395C392.154 13.0371 392.422 13.832 392.422 14.8242V14.9004C392.422 15.5176 392.303 16.0723 392.064 16.5645C391.83 17.0527 391.492 17.4336 391.051 17.707C390.613 17.9805 390.109 18.1172 389.539 18.1172C388.68 18.1172 387.982 17.8184 387.447 17.2207C386.916 16.623 386.65 15.832 386.65 14.8477V14.7715ZM387.74 14.9004C387.74 15.6035 387.902 16.168 388.227 16.5938C388.555 17.0195 388.992 17.2324 389.539 17.2324C390.09 17.2324 390.527 17.0176 390.852 16.5879C391.176 16.1543 391.338 15.5488 391.338 14.7715C391.338 14.0762 391.172 13.5137 390.84 13.084C390.512 12.6504 390.074 12.4336 389.527 12.4336C388.992 12.4336 388.561 12.6465 388.232 13.0723C387.904 13.498 387.74 14.1074 387.74 14.9004ZM398.568 18H397.479V15.7031C397.002 15.8281 396.514 15.8906 396.014 15.8906C395.221 15.8906 394.615 15.6875 394.197 15.2812C393.783 14.875 393.572 14.2969 393.564 13.5469V11.6543H394.648V13.582C394.668 14.5273 395.123 15 396.014 15C396.514 15 397.002 14.9375 397.479 14.8125V11.6602H398.568V18ZM402.283 15.2988H401.492V18H400.402V11.6602H401.492V14.3438H402.201L404.334 11.6602H405.646L403.139 14.707L405.857 18H404.48L402.283 15.2988ZM410.891 11.6602H411.975V18H410.891V13.377L407.967 18H406.883V11.6602H407.967V16.2891L410.891 11.6602Z" fill="black"/>
<path d="M499.506 18H498.375V10.3945H494.168V18H493.043V9.46875H499.506V18ZM501.1 14.7715C501.1 14.1504 501.221 13.5918 501.463 13.0957C501.709 12.5996 502.049 12.2168 502.482 11.9473C502.92 11.6777 503.418 11.543 503.977 11.543C504.84 11.543 505.537 11.8418 506.068 12.4395C506.604 13.0371 506.871 13.832 506.871 14.8242V14.9004C506.871 15.5176 506.752 16.0723 506.514 16.5645C506.279 17.0527 505.941 17.4336 505.5 17.707C505.062 17.9805 504.559 18.1172 503.988 18.1172C503.129 18.1172 502.432 17.8184 501.896 17.2207C501.365 16.623 501.1 15.832 501.1 14.8477V14.7715ZM502.189 14.9004C502.189 15.6035 502.352 16.168 502.676 16.5938C503.004 17.0195 503.441 17.2324 503.988 17.2324C504.539 17.2324 504.977 17.0176 505.301 16.5879C505.625 16.1543 505.787 15.5488 505.787 14.7715C505.787 14.0762 505.621 13.5137 505.289 13.084C504.961 12.6504 504.523 12.4336 503.977 12.4336C503.441 12.4336 503.01 12.6465 502.682 13.0723C502.354 13.498 502.189 14.1074 502.189 14.9004ZM510.205 15.2988H509.414V18H508.324V11.6602H509.414V14.3438H510.123L512.256 11.6602H513.568L511.061 14.707L513.779 18H512.402L510.205 15.2988ZM516.785 16.4121L518.262 11.6602H519.422L516.873 18.9785C516.479 20.0332 515.852 20.5605 514.992 20.5605L514.787 20.543L514.383 20.4668V19.5879L514.676 19.6113C515.043 19.6113 515.328 19.5371 515.531 19.3887C515.738 19.2402 515.908 18.9688 516.041 18.5742L516.281 17.9297L514.02 11.6602H515.203L516.785 16.4121ZM525.58 18H524.496V12.5566H521.578V18H520.488V11.6602H525.58V18ZM529.295 15.2988H528.504V18H527.414V11.6602H528.504V14.3438H529.213L531.346 11.6602H532.658L530.15 14.707L532.869 18H531.492L529.295 15.2988ZM537.715 18C537.652 17.875 537.602 17.6523 537.562 17.332C537.059 17.8555 536.457 18.1172 535.758 18.1172C535.133 18.1172 534.619 17.9414 534.217 17.5898C533.818 17.2344 533.619 16.7852 533.619 16.2422C533.619 15.582 533.869 15.0703 534.369 14.707C534.873 14.3398 535.58 14.1562 536.49 14.1562H537.545V13.6582C537.545 13.2793 537.432 12.9785 537.205 12.7559C536.979 12.5293 536.645 12.416 536.203 12.416C535.816 12.416 535.492 12.5137 535.23 12.709C534.969 12.9043 534.838 13.1406 534.838 13.418H533.748C533.748 13.1016 533.859 12.7969 534.082 12.5039C534.309 12.207 534.613 11.9727 534.996 11.8008C535.383 11.6289 535.807 11.543 536.268 11.543C536.998 11.543 537.57 11.7266 537.984 12.0938C538.398 12.457 538.613 12.959 538.629 13.5996V16.5176C538.629 17.0996 538.703 17.5625 538.852 17.9062V18H537.715ZM535.916 17.1738C536.256 17.1738 536.578 17.0859 536.883 16.9102C537.188 16.7344 537.408 16.5059 537.545 16.2246V14.9238H536.695C535.367 14.9238 534.703 15.3125 534.703 16.0898C534.703 16.4297 534.816 16.6953 535.043 16.8867C535.27 17.0781 535.561 17.1738 535.916 17.1738ZM543.404 18V11.6602H545.877C546.721 11.6602 547.367 11.8086 547.816 12.1055C548.27 12.3984 548.496 12.8301 548.496 13.4004C548.496 13.6934 548.408 13.959 548.232 14.1973C548.057 14.4316 547.797 14.6113 547.453 14.7363C547.836 14.8262 548.143 15.002 548.373 15.2637C548.607 15.5254 548.725 15.8379 548.725 16.2012C548.725 16.7832 548.51 17.2285 548.08 17.5371C547.654 17.8457 547.051 18 546.27 18H543.404ZM544.488 15.2168V17.127H546.281C546.734 17.127 547.072 17.043 547.295 16.875C547.521 16.707 547.635 16.4707 547.635 16.166C547.635 15.5332 547.17 15.2168 546.24 15.2168H544.488ZM544.488 14.3496H545.889C546.904 14.3496 547.412 14.0527 547.412 13.459C547.412 12.8652 546.932 12.5586 545.971 12.5391H544.488V14.3496ZM558.492 14.9004C558.492 15.8652 558.271 16.6426 557.83 17.2324C557.389 17.8223 556.791 18.1172 556.037 18.1172C555.268 18.1172 554.662 17.873 554.221 17.3848V20.4375H553.137V11.6602H554.127L554.18 12.3633C554.621 11.8164 555.234 11.543 556.02 11.543C556.781 11.543 557.383 11.8301 557.824 12.4043C558.27 12.9785 558.492 13.7773 558.492 14.8008V14.9004ZM557.408 14.7773C557.408 14.0625 557.256 13.498 556.951 13.084C556.646 12.6699 556.229 12.4629 555.697 12.4629C555.041 12.4629 554.549 12.7539 554.221 13.3359V16.3652C554.545 16.9434 555.041 17.2324 555.709 17.2324C556.229 17.2324 556.641 17.0273 556.945 16.6172C557.254 16.2031 557.408 15.5898 557.408 14.7773ZM563.789 18C563.727 17.875 563.676 17.6523 563.637 17.332C563.133 17.8555 562.531 18.1172 561.832 18.1172C561.207 18.1172 560.693 17.9414 560.291 17.5898C559.893 17.2344 559.693 16.7852 559.693 16.2422C559.693 15.582 559.943 15.0703 560.443 14.707C560.947 14.3398 561.654 14.1562 562.564 14.1562H563.619V13.6582C563.619 13.2793 563.506 12.9785 563.279 12.7559C563.053 12.5293 562.719 12.416 562.277 12.416C561.891 12.416 561.566 12.5137 561.305 12.709C561.043 12.9043 560.912 13.1406 560.912 13.418H559.822C559.822 13.1016 559.934 12.7969 560.156 12.5039C560.383 12.207 560.688 11.9727 561.07 11.8008C561.457 11.6289 561.881 11.543 562.342 11.543C563.072 11.543 563.645 11.7266 564.059 12.0938C564.473 12.457 564.688 12.959 564.703 13.5996V16.5176C564.703 17.0996 564.777 17.5625 564.926 17.9062V18H563.789ZM561.99 17.1738C562.33 17.1738 562.652 17.0859 562.957 16.9102C563.262 16.7344 563.482 16.5059 563.619 16.2246V14.9238H562.77C561.441 14.9238 560.777 15.3125 560.777 16.0898C560.777 16.4297 560.891 16.6953 561.117 16.8867C561.344 17.0781 561.635 17.1738 561.99 17.1738ZM568.945 17.2324C569.332 17.2324 569.67 17.1152 569.959 16.8809C570.248 16.6465 570.408 16.3535 570.439 16.002H571.465C571.445 16.3652 571.32 16.7109 571.09 17.0391C570.859 17.3672 570.551 17.6289 570.164 17.8242C569.781 18.0195 569.375 18.1172 568.945 18.1172C568.082 18.1172 567.395 17.8301 566.883 17.2559C566.375 16.6777 566.121 15.8887 566.121 14.8887V14.707C566.121 14.0898 566.234 13.541 566.461 13.0605C566.688 12.5801 567.012 12.207 567.434 11.9414C567.859 11.6758 568.361 11.543 568.939 11.543C569.65 11.543 570.24 11.7559 570.709 12.1816C571.182 12.6074 571.434 13.1602 571.465 13.8398H570.439C570.408 13.4297 570.252 13.0938 569.971 12.832C569.693 12.5664 569.35 12.4336 568.939 12.4336C568.389 12.4336 567.961 12.6328 567.656 13.0312C567.355 13.4258 567.205 13.998 567.205 14.748V14.9531C567.205 15.6836 567.355 16.2461 567.656 16.6406C567.957 17.0352 568.387 17.2324 568.945 17.2324ZM575.227 17.2324C575.613 17.2324 575.951 17.1152 576.24 16.8809C576.529 16.6465 576.689 16.3535 576.721 16.002H577.746C577.727 16.3652 577.602 16.7109 577.371 17.0391C577.141 17.3672 576.832 17.6289 576.445 17.8242C576.062 18.0195 575.656 18.1172 575.227 18.1172C574.363 18.1172 573.676 17.8301 573.164 17.2559C572.656 16.6777 572.402 15.8887 572.402 14.8887V14.707C572.402 14.0898 572.516 13.541 572.742 13.0605C572.969 12.5801 573.293 12.207 573.715 11.9414C574.141 11.6758 574.643 11.543 575.221 11.543C575.932 11.543 576.521 11.7559 576.99 12.1816C577.463 12.6074 577.715 13.1602 577.746 13.8398H576.721C576.689 13.4297 576.533 13.0938 576.252 12.832C575.975 12.5664 575.631 12.4336 575.221 12.4336C574.67 12.4336 574.242 12.6328 573.938 13.0312C573.637 13.4258 573.486 13.998 573.486 14.748V14.9531C573.486 15.6836 573.637 16.2461 573.938 16.6406C574.238 17.0352 574.668 17.2324 575.227 17.2324ZM584.32 14.9004C584.32 15.8652 584.1 16.6426 583.658 17.2324C583.217 17.8223 582.619 18.1172 581.865 18.1172C581.096 18.1172 580.49 17.873 580.049 17.3848V20.4375H578.965V11.6602H579.955L580.008 12.3633C580.449 11.8164 581.062 11.543 581.848 11.543C582.609 11.543 583.211 11.8301 583.652 12.4043C584.098 12.9785 584.32 13.7773 584.32 14.8008V14.9004ZM583.236 14.7773C583.236 14.0625 583.084 13.498 582.779 13.084C582.475 12.6699 582.057 12.4629 581.525 12.4629C580.869 12.4629 580.377 12.7539 580.049 13.3359V16.3652C580.373 16.9434 580.869 17.2324 581.537 17.2324C582.057 17.2324 582.469 17.0273 582.773 16.6172C583.082 16.2031 583.236 15.5898 583.236 14.7773ZM585.416 14.7715C585.416 14.1504 585.537 13.5918 585.779 13.0957C586.025 12.5996 586.365 12.2168 586.799 11.9473C587.236 11.6777 587.734 11.543 588.293 11.543C589.156 11.543 589.854 11.8418 590.385 12.4395C590.92 13.0371 591.188 13.832 591.188 14.8242V14.9004C591.188 15.5176 591.068 16.0723 590.83 16.5645C590.596 17.0527 590.258 17.4336 589.816 17.707C589.379 17.9805 588.875 18.1172 588.305 18.1172C587.445 18.1172 586.748 17.8184 586.213 17.2207C585.682 16.623 585.416 15.832 585.416 14.8477V14.7715ZM586.506 14.9004C586.506 15.6035 586.668 16.168 586.992 16.5938C587.32 17.0195 587.758 17.2324 588.305 17.2324C588.855 17.2324 589.293 17.0176 589.617 16.5879C589.941 16.1543 590.104 15.5488 590.104 14.7715C590.104 14.0762 589.938 13.5137 589.605 13.084C589.277 12.6504 588.84 12.4336 588.293 12.4336C587.758 12.4336 587.326 12.6465 586.998 13.0723C586.67 13.498 586.506 14.1074 586.506 14.9004ZM597.334 18H596.244V15.7031C595.768 15.8281 595.279 15.8906 594.779 15.8906C593.986 15.8906 593.381 15.6875 592.963 15.2812C592.549 14.875 592.338 14.2969 592.33 13.5469V11.6543H593.414V13.582C593.434 14.5273 593.889 15 594.779 15C595.279 15 595.768 14.9375 596.244 14.8125V11.6602H597.334V18ZM601.049 15.2988H600.258V18H599.168V11.6602H600.258V14.3438H600.967L603.1 11.6602H604.412L601.904 14.707L604.623 18H603.246L601.049 15.2988ZM607.629 16.4121L609.105 11.6602H610.266L607.717 18.9785C607.322 20.0332 606.695 20.5605 605.836 20.5605L605.631 20.543L605.227 20.4668V19.5879L605.52 19.6113C605.887 19.6113 606.172 19.5371 606.375 19.3887C606.582 19.2402 606.752 18.9688 606.885 18.5742L607.125 17.9297L604.863 11.6602H606.047L607.629 16.4121Z" fill="black"/>
<line x1="477.724" y1="293.333" x2="477.724" y2="32.0001" stroke="#CCCFD1" stroke-width="2"/>
<path d="M292.295 240.068C292.295 240.068 293.185 240.068 326.895 240.068C360.605 240.068 383.781 293.334 417.491 293.334C451.201 293.334 452.091 293.334 452.091 293.334" stroke="#C84F4F" stroke-width="2" stroke-linecap="round" stroke-linejoin="round"/>
<line x1="2.33203" y1="186.303" x2="1176.5" y2="186.303" stroke="#B3B6BA" stroke-linecap="round" stroke-dasharray="8 8"/>
<path d="M1 186.803C1 186.803 88.3886 186.803 115.021 186.803C141.654 186.803 159.964 240.068 186.597 240.068C213.229 240.068 265.662 240.068 265.662 240.068" stroke="#27AE60" stroke-width="2" stroke-linecap="round" stroke-linejoin="round"/>
<circle cx="266.494" cy="240.068" r="27.2972" fill="white" stroke="#C84F4F" stroke-width="2"/>
<path d="M258.172 245.062L266.495 251.72M266.495 251.72L274.817 245.062M266.495 251.72V228.417" stroke="#C84F4F" stroke-width="2" stroke-linecap="round" stroke-linejoin="round"/>
<circle cx="477.06" cy="291.669" r="27.2972" fill="white" stroke="#C84F4F" stroke-width="2"/>
<path d="M468.737 296.663L477.06 303.321M477.06 303.321L485.382 296.663M477.06 303.321V280.017" stroke="#C84F4F" stroke-width="2" stroke-linecap="round" stroke-linejoin="round"/>
<line x1="267.159" y1="230.081" x2="267.159" y2="32.0003" stroke="#CCCFD1" stroke-width="2"/>
<path d="M286.695 47H285.242V37.3672L282.328 38.4375V37.125L286.469 35.5703H286.695V47ZM299.914 45.0859L302.789 38.5469H304.594V47H303.148V40.8516L300.414 47H299.414L296.625 40.7188V47H295.18V38.5469H297.055L299.914 45.0859ZM312.141 47C312.057 46.8333 311.99 46.5365 311.938 46.1094C311.266 46.8073 310.464 47.1562 309.531 47.1562C308.698 47.1562 308.013 46.9219 307.477 46.4531C306.945 45.9792 306.68 45.3802 306.68 44.6562C306.68 43.776 307.013 43.0938 307.68 42.6094C308.352 42.1198 309.294 41.875 310.508 41.875H311.914V41.2109C311.914 40.7057 311.763 40.3047 311.461 40.0078C311.159 39.7057 310.714 39.5547 310.125 39.5547C309.609 39.5547 309.177 39.6849 308.828 39.9453C308.479 40.2057 308.305 40.5208 308.305 40.8906H306.852C306.852 40.4688 307 40.0625 307.297 39.6719C307.599 39.276 308.005 38.9635 308.516 38.7344C309.031 38.5052 309.596 38.3906 310.211 38.3906C311.185 38.3906 311.948 38.6354 312.5 39.125C313.052 39.6094 313.339 40.2786 313.359 41.1328V45.0234C313.359 45.7995 313.458 46.4167 313.656 46.875V47H312.141ZM309.742 45.8984C310.195 45.8984 310.625 45.7812 311.031 45.5469C311.438 45.3125 311.732 45.0078 311.914 44.6328V42.8984H310.781C309.01 42.8984 308.125 43.4167 308.125 44.4531C308.125 44.9062 308.276 45.2604 308.578 45.5156C308.88 45.7708 309.268 45.8984 309.742 45.8984ZM322.766 42.8672C322.766 44.1536 322.471 45.1901 321.883 45.9766C321.294 46.763 320.497 47.1562 319.492 47.1562C318.466 47.1562 317.659 46.8307 317.07 46.1797V50.25H315.625V38.5469H316.945L317.016 39.4844C317.604 38.7552 318.422 38.3906 319.469 38.3906C320.484 38.3906 321.286 38.7734 321.875 39.5391C322.469 40.3047 322.766 41.3698 322.766 42.7344V42.8672ZM321.32 42.7031C321.32 41.75 321.117 40.9974 320.711 40.4453C320.305 39.8932 319.747 39.6172 319.039 39.6172C318.164 39.6172 317.508 40.0052 317.07 40.7812V44.8203C317.503 45.5911 318.164 45.9766 319.055 45.9766C319.747 45.9766 320.297 45.7031 320.703 45.1562C321.115 44.6042 321.32 43.7865 321.32 42.7031ZM330.266 39.7188H327.43V47H325.984V39.7188H323.203V38.5469H330.266V39.7188ZM336.766 47C336.682 46.8333 336.615 46.5365 336.562 46.1094C335.891 46.8073 335.089 47.1562 334.156 47.1562C333.323 47.1562 332.638 46.9219 332.102 46.4531C331.57 45.9792 331.305 45.3802 331.305 44.6562C331.305 43.776 331.638 43.0938 332.305 42.6094C332.977 42.1198 333.919 41.875 335.133 41.875H336.539V41.2109C336.539 40.7057 336.388 40.3047 336.086 40.0078C335.784 39.7057 335.339 39.5547 334.75 39.5547C334.234 39.5547 333.802 39.6849 333.453 39.9453C333.104 40.2057 332.93 40.5208 332.93 40.8906H331.477C331.477 40.4688 331.625 40.0625 331.922 39.6719C332.224 39.276 332.63 38.9635 333.141 38.7344C333.656 38.5052 334.221 38.3906 334.836 38.3906C335.81 38.3906 336.573 38.6354 337.125 39.125C337.677 39.6094 337.964 40.2786 337.984 41.1328V45.0234C337.984 45.7995 338.083 46.4167 338.281 46.875V47H336.766ZM334.367 45.8984C334.82 45.8984 335.25 45.7812 335.656 45.5469C336.062 45.3125 336.357 45.0078 336.539 44.6328V42.8984H335.406C333.635 42.8984 332.75 43.4167 332.75 44.4531C332.75 44.9062 332.901 45.2604 333.203 45.5156C333.505 45.7708 333.893 45.8984 334.367 45.8984Z" fill="black"/>
<path d="M285.577 72.7197H281.765V71.54H285.577V72.7197ZM287.507 71.2588L288.085 65.5869H293.913V66.9229H289.312L288.968 70.0244C289.525 69.6963 290.158 69.5322 290.866 69.5322C291.903 69.5322 292.726 69.876 293.335 70.5635C293.944 71.2458 294.249 72.1702 294.249 73.3369C294.249 74.5088 293.931 75.4333 293.296 76.1104C292.666 76.7822 291.783 77.1182 290.647 77.1182C289.642 77.1182 288.822 76.8395 288.187 76.2822C287.551 75.7249 287.189 74.9541 287.101 73.9697H288.468C288.556 74.6208 288.788 75.113 289.163 75.4463C289.538 75.7744 290.033 75.9385 290.647 75.9385C291.319 75.9385 291.845 75.7093 292.226 75.251C292.611 74.7926 292.804 74.1598 292.804 73.3525C292.804 72.5921 292.595 71.9827 292.179 71.5244C291.767 71.0609 291.218 70.8291 290.53 70.8291C289.9 70.8291 289.405 70.9671 289.046 71.2432L288.663 71.5557L287.507 71.2588ZM306.929 72.1104C306.929 73.8031 306.64 75.0609 306.062 75.8838C305.483 76.7067 304.58 77.1182 303.351 77.1182C302.137 77.1182 301.239 76.7171 300.655 75.915C300.072 75.1077 299.77 73.9046 299.749 72.3057V70.376C299.749 68.7041 300.038 67.4619 300.616 66.6494C301.194 65.8369 302.101 65.4307 303.335 65.4307C304.559 65.4307 305.46 65.8239 306.038 66.6104C306.616 67.3916 306.913 68.5999 306.929 70.2354V72.1104ZM305.483 70.1338C305.483 68.9098 305.312 68.0192 304.968 67.4619C304.624 66.8994 304.08 66.6182 303.335 66.6182C302.595 66.6182 302.056 66.8968 301.718 67.4541C301.379 68.0114 301.205 68.8682 301.194 70.0244V72.3369C301.194 73.5661 301.371 74.4749 301.726 75.0635C302.085 75.6468 302.627 75.9385 303.351 75.9385C304.064 75.9385 304.593 75.6624 304.937 75.1104C305.285 74.5583 305.468 73.6885 305.483 72.501V70.1338ZM315.913 72.1104C315.913 73.8031 315.624 75.0609 315.046 75.8838C314.468 76.7067 313.564 77.1182 312.335 77.1182C311.121 77.1182 310.223 76.7171 309.64 75.915C309.056 75.1077 308.754 73.9046 308.733 72.3057V70.376C308.733 68.7041 309.022 67.4619 309.601 66.6494C310.179 65.8369 311.085 65.4307 312.319 65.4307C313.543 65.4307 314.444 65.8239 315.022 66.6104C315.601 67.3916 315.897 68.5999 315.913 70.2354V72.1104ZM314.468 70.1338C314.468 68.9098 314.296 68.0192 313.952 67.4619C313.608 66.8994 313.064 66.6182 312.319 66.6182C311.58 66.6182 311.041 66.8968 310.702 67.4541C310.364 68.0114 310.189 68.8682 310.179 70.0244V72.3369C310.179 73.5661 310.356 74.4749 310.71 75.0635C311.069 75.6468 311.611 75.9385 312.335 75.9385C313.049 75.9385 313.577 75.6624 313.921 75.1104C314.27 74.5583 314.452 73.6885 314.468 72.501V70.1338ZM324.897 72.1104C324.897 73.8031 324.608 75.0609 324.03 75.8838C323.452 76.7067 322.549 77.1182 321.319 77.1182C320.106 77.1182 319.207 76.7171 318.624 75.915C318.041 75.1077 317.739 73.9046 317.718 72.3057V70.376C317.718 68.7041 318.007 67.4619 318.585 66.6494C319.163 65.8369 320.069 65.4307 321.304 65.4307C322.528 65.4307 323.429 65.8239 324.007 66.6104C324.585 67.3916 324.882 68.5999 324.897 70.2354V72.1104ZM323.452 70.1338C323.452 68.9098 323.28 68.0192 322.937 67.4619C322.593 66.8994 322.049 66.6182 321.304 66.6182C320.564 66.6182 320.025 66.8968 319.687 67.4541C319.348 68.0114 319.174 68.8682 319.163 70.0244V72.3369C319.163 73.5661 319.34 74.4749 319.694 75.0635C320.054 75.6468 320.595 75.9385 321.319 75.9385C322.033 75.9385 322.562 75.6624 322.905 75.1104C323.254 74.5583 323.437 73.6885 323.452 72.501V70.1338ZM330.044 65.5379H338.236V66.7859H330.044V65.5379ZM334.86 76.9619H333.42V69.2819H330.044V68.0339H338.236V69.2819H334.86V76.9619Z" fill="#80868C"/>
<path d="M497.695 47H496.242V37.3672L493.328 38.4375V37.125L497.469 35.5703H497.695V47ZM502.594 41.2969L503.172 35.625H509V36.9609H504.398L504.055 40.0625C504.612 39.7344 505.245 39.5703 505.953 39.5703C506.99 39.5703 507.812 39.9141 508.422 40.6016C509.031 41.2839 509.336 42.2083 509.336 43.375C509.336 44.5469 509.018 45.4714 508.383 46.1484C507.753 46.8203 506.87 47.1562 505.734 47.1562C504.729 47.1562 503.909 46.8776 503.273 46.3203C502.638 45.763 502.276 44.9922 502.188 44.0078H503.555C503.643 44.6589 503.875 45.151 504.25 45.4844C504.625 45.8125 505.12 45.9766 505.734 45.9766C506.406 45.9766 506.932 45.7474 507.312 45.2891C507.698 44.8307 507.891 44.1979 507.891 43.3906C507.891 42.6302 507.682 42.0208 507.266 41.5625C506.854 41.099 506.305 40.8672 505.617 40.8672C504.987 40.8672 504.492 41.0052 504.133 41.2812L503.75 41.5938L502.594 41.2969ZM519.898 45.0859L522.773 38.5469H524.578V47H523.133V40.8516L520.398 47H519.398L516.609 40.7188V47H515.164V38.5469H517.039L519.898 45.0859ZM532.125 47C532.042 46.8333 531.974 46.5365 531.922 46.1094C531.25 46.8073 530.448 47.1562 529.516 47.1562C528.682 47.1562 527.997 46.9219 527.461 46.4531C526.93 45.9792 526.664 45.3802 526.664 44.6562C526.664 43.776 526.997 43.0938 527.664 42.6094C528.336 42.1198 529.279 41.875 530.492 41.875H531.898V41.2109C531.898 40.7057 531.747 40.3047 531.445 40.0078C531.143 39.7057 530.698 39.5547 530.109 39.5547C529.594 39.5547 529.161 39.6849 528.812 39.9453C528.464 40.2057 528.289 40.5208 528.289 40.8906H526.836C526.836 40.4688 526.984 40.0625 527.281 39.6719C527.583 39.276 527.99 38.9635 528.5 38.7344C529.016 38.5052 529.581 38.3906 530.195 38.3906C531.169 38.3906 531.932 38.6354 532.484 39.125C533.036 39.6094 533.323 40.2786 533.344 41.1328V45.0234C533.344 45.7995 533.443 46.4167 533.641 46.875V47H532.125ZM529.727 45.8984C530.18 45.8984 530.609 45.7812 531.016 45.5469C531.422 45.3125 531.716 45.0078 531.898 44.6328V42.8984H530.766C528.995 42.8984 528.109 43.4167 528.109 44.4531C528.109 44.9062 528.26 45.2604 528.562 45.5156C528.865 45.7708 529.253 45.8984 529.727 45.8984ZM542.75 42.8672C542.75 44.1536 542.456 45.1901 541.867 45.9766C541.279 46.763 540.482 47.1562 539.477 47.1562C538.451 47.1562 537.643 46.8307 537.055 46.1797V50.25H535.609V38.5469H536.93L537 39.4844C537.589 38.7552 538.406 38.3906 539.453 38.3906C540.469 38.3906 541.271 38.7734 541.859 39.5391C542.453 40.3047 542.75 41.3698 542.75 42.7344V42.8672ZM541.305 42.7031C541.305 41.75 541.102 40.9974 540.695 40.4453C540.289 39.8932 539.732 39.6172 539.023 39.6172C538.148 39.6172 537.492 40.0052 537.055 40.7812V44.8203C537.487 45.5911 538.148 45.9766 539.039 45.9766C539.732 45.9766 540.281 45.7031 540.688 45.1562C541.099 44.6042 541.305 43.7865 541.305 42.7031ZM550.25 39.7188H547.414V47H545.969V39.7188H543.188V38.5469H550.25V39.7188ZM556.75 47C556.667 46.8333 556.599 46.5365 556.547 46.1094C555.875 46.8073 555.073 47.1562 554.141 47.1562C553.307 47.1562 552.622 46.9219 552.086 46.4531C551.555 45.9792 551.289 45.3802 551.289 44.6562C551.289 43.776 551.622 43.0938 552.289 42.6094C552.961 42.1198 553.904 41.875 555.117 41.875H556.523V41.2109C556.523 40.7057 556.372 40.3047 556.07 40.0078C555.768 39.7057 555.323 39.5547 554.734 39.5547C554.219 39.5547 553.786 39.6849 553.438 39.9453C553.089 40.2057 552.914 40.5208 552.914 40.8906H551.461C551.461 40.4688 551.609 40.0625 551.906 39.6719C552.208 39.276 552.615 38.9635 553.125 38.7344C553.641 38.5052 554.206 38.3906 554.82 38.3906C555.794 38.3906 556.557 38.6354 557.109 39.125C557.661 39.6094 557.948 40.2786 557.969 41.1328V45.0234C557.969 45.7995 558.068 46.4167 558.266 46.875V47H556.75ZM554.352 45.8984C554.805 45.8984 555.234 45.7812 555.641 45.5469C556.047 45.3125 556.341 45.0078 556.523 44.6328V42.8984H555.391C553.62 42.8984 552.734 43.4167 552.734 44.4531C552.734 44.9062 552.885 45.2604 553.188 45.5156C553.49 45.7708 553.878 45.8984 554.352 45.8984Z" fill="black"/>
<path d="M496.102 72.7578H492.289V71.5781H496.102V72.7578ZM502.117 77H500.664V67.3672L497.75 68.4375V67.125L501.891 65.5703H502.117V77ZM507.016 71.2969L507.594 65.625H513.422V66.9609H508.82L508.477 70.0625C509.034 69.7344 509.667 69.5703 510.375 69.5703C511.411 69.5703 512.234 69.9141 512.844 70.6016C513.453 71.2839 513.758 72.2083 513.758 73.375C513.758 74.5469 513.44 75.4714 512.805 76.1484C512.174 76.8203 511.292 77.1562 510.156 77.1562C509.151 77.1562 508.331 76.8776 507.695 76.3203C507.06 75.763 506.698 74.9922 506.609 74.0078H507.977C508.065 74.6589 508.297 75.151 508.672 75.4844C509.047 75.8125 509.542 75.9766 510.156 75.9766C510.828 75.9766 511.354 75.7474 511.734 75.2891C512.12 74.8307 512.312 74.1979 512.312 73.3906C512.312 72.6302 512.104 72.0208 511.688 71.5625C511.276 71.099 510.727 70.8672 510.039 70.8672C509.409 70.8672 508.914 71.0052 508.555 71.2812L508.172 71.5938L507.016 71.2969ZM526.438 72.1484C526.438 73.8411 526.148 75.099 525.57 75.9219C524.992 76.7448 524.089 77.1562 522.859 77.1562C521.646 77.1562 520.747 76.7552 520.164 75.9531C519.581 75.1458 519.279 73.9427 519.258 72.3438V70.4141C519.258 68.7422 519.547 67.5 520.125 66.6875C520.703 65.875 521.609 65.4688 522.844 65.4688C524.068 65.4688 524.969 65.862 525.547 66.6484C526.125 67.4297 526.422 68.638 526.438 70.2734V72.1484ZM524.992 70.1719C524.992 68.9479 524.82 68.0573 524.477 67.5C524.133 66.9375 523.589 66.6562 522.844 66.6562C522.104 66.6562 521.565 66.9349 521.227 67.4922C520.888 68.0495 520.714 68.9062 520.703 70.0625V72.375C520.703 73.6042 520.88 74.513 521.234 75.1016C521.594 75.6849 522.135 75.9766 522.859 75.9766C523.573 75.9766 524.102 75.7005 524.445 75.1484C524.794 74.5964 524.977 73.7266 524.992 72.5391V70.1719ZM535.422 72.1484C535.422 73.8411 535.133 75.099 534.555 75.9219C533.977 76.7448 533.073 77.1562 531.844 77.1562C530.63 77.1562 529.732 76.7552 529.148 75.9531C528.565 75.1458 528.263 73.9427 528.242 72.3438V70.4141C528.242 68.7422 528.531 67.5 529.109 66.6875C529.688 65.875 530.594 65.4688 531.828 65.4688C533.052 65.4688 533.953 65.862 534.531 66.6484C535.109 67.4297 535.406 68.638 535.422 70.2734V72.1484ZM533.977 70.1719C533.977 68.9479 533.805 68.0573 533.461 67.5C533.117 66.9375 532.573 66.6562 531.828 66.6562C531.089 66.6562 530.549 66.9349 530.211 67.4922C529.872 68.0495 529.698 68.9062 529.688 70.0625V72.375C529.688 73.6042 529.865 74.513 530.219 75.1016C530.578 75.6849 531.12 75.9766 531.844 75.9766C532.557 75.9766 533.086 75.7005 533.43 75.1484C533.779 74.5964 533.961 73.7266 533.977 72.5391V70.1719ZM544.406 72.1484C544.406 73.8411 544.117 75.099 543.539 75.9219C542.961 76.7448 542.057 77.1562 540.828 77.1562C539.615 77.1562 538.716 76.7552 538.133 75.9531C537.549 75.1458 537.247 73.9427 537.227 72.3438V70.4141C537.227 68.7422 537.516 67.5 538.094 66.6875C538.672 65.875 539.578 65.4688 540.812 65.4688C542.036 65.4688 542.938 65.862 543.516 66.6484C544.094 67.4297 544.391 68.638 544.406 70.2734V72.1484ZM542.961 70.1719C542.961 68.9479 542.789 68.0573 542.445 67.5C542.102 66.9375 541.557 66.6562 540.812 66.6562C540.073 66.6562 539.534 66.9349 539.195 67.4922C538.857 68.0495 538.682 68.9062 538.672 70.0625V72.375C538.672 73.6042 538.849 74.513 539.203 75.1016C539.562 75.6849 540.104 75.9766 540.828 75.9766C541.542 75.9766 542.07 75.7005 542.414 75.1484C542.763 74.5964 542.945 73.7266 542.961 72.5391V70.1719ZM549.553 65.576H557.745V66.824H549.553V65.576ZM554.369 77H552.929V69.32H549.553V68.072H557.745V69.32H554.369V77Z" fill="#80868C"/>
<line x1="867" y1="185" x2="867" y2="32" stroke="#CCCFD1" stroke-width="2"/>
<path d="M1021.4 185.025C1021.4 185.025 920.362 185.025 882.789 185.025C845.216 185.025 819.385 291.556 781.812 291.556C744.24 291.556 731.189 291.556 731.189 291.556" stroke="#27AE60" stroke-width="2" stroke-linecap="round" stroke-linejoin="round"/>
<circle cx="868.1" cy="186.803" r="27.2972" transform="rotate(-180 868.1 186.803)" fill="white" stroke="#27AE60" stroke-width="2"/>
<path d="M876.424 181.809L868.101 175.151M868.101 175.151L859.778 181.809M868.101 175.151V198.455" stroke="#27AE60" stroke-width="2" stroke-linecap="round" stroke-linejoin="round"/>
<path d="M889.815 47H882.362V45.9609L886.299 41.5859C886.883 40.9245 887.284 40.388 887.502 39.9766C887.726 39.5599 887.838 39.1302 887.838 38.6875C887.838 38.0938 887.659 37.6068 887.299 37.2266C886.94 36.8464 886.461 36.6562 885.862 36.6562C885.143 36.6562 884.583 36.862 884.182 37.2734C883.786 37.6797 883.588 38.2474 883.588 38.9766H882.143C882.143 37.9297 882.479 37.0833 883.151 36.4375C883.828 35.7917 884.732 35.4688 885.862 35.4688C886.919 35.4688 887.755 35.7474 888.37 36.3047C888.984 36.8568 889.292 37.5938 889.292 38.5156C889.292 39.6354 888.578 40.9688 887.151 42.5156L884.104 45.8203H889.815V47ZM892.01 41.2969L892.588 35.625H898.417V36.9609H893.815L893.471 40.0625C894.028 39.7344 894.661 39.5703 895.37 39.5703C896.406 39.5703 897.229 39.9141 897.838 40.6016C898.448 41.2839 898.752 42.2083 898.752 43.375C898.752 44.5469 898.435 45.4714 897.799 46.1484C897.169 46.8203 896.286 47.1562 895.151 47.1562C894.146 47.1562 893.325 46.8776 892.69 46.3203C892.055 45.763 891.693 44.9922 891.604 44.0078H892.971C893.06 44.6589 893.292 45.151 893.667 45.4844C894.042 45.8125 894.536 45.9766 895.151 45.9766C895.823 45.9766 896.349 45.7474 896.729 45.2891C897.114 44.8307 897.307 44.1979 897.307 43.3906C897.307 42.6302 897.099 42.0208 896.682 41.5625C896.271 41.099 895.721 40.8672 895.034 40.8672C894.403 40.8672 893.909 41.0052 893.549 41.2812L893.167 41.5938L892.01 41.2969ZM909.667 47C909.583 46.8333 909.515 46.5365 909.463 46.1094C908.792 46.8073 907.989 47.1562 907.057 47.1562C906.224 47.1562 905.539 46.9219 905.002 46.4531C904.471 45.9792 904.206 45.3802 904.206 44.6562C904.206 43.776 904.539 43.0938 905.206 42.6094C905.877 42.1198 906.82 41.875 908.034 41.875H909.44V41.2109C909.44 40.7057 909.289 40.3047 908.987 40.0078C908.685 39.7057 908.239 39.5547 907.651 39.5547C907.135 39.5547 906.703 39.6849 906.354 39.9453C906.005 40.2057 905.831 40.5208 905.831 40.8906H904.377C904.377 40.4688 904.526 40.0625 904.823 39.6719C905.125 39.276 905.531 38.9635 906.042 38.7344C906.557 38.5052 907.122 38.3906 907.737 38.3906C908.711 38.3906 909.474 38.6354 910.026 39.125C910.578 39.6094 910.864 40.2786 910.885 41.1328V45.0234C910.885 45.7995 910.984 46.4167 911.182 46.875V47H909.667ZM907.268 45.8984C907.721 45.8984 908.151 45.7812 908.557 45.5469C908.963 45.3125 909.258 45.0078 909.44 44.6328V42.8984H908.307C906.536 42.8984 905.651 43.4167 905.651 44.4531C905.651 44.9062 905.802 45.2604 906.104 45.5156C906.406 45.7708 906.794 45.8984 907.268 45.8984ZM920.065 47H918.62V39.7422H914.729V47H913.276V38.5469H920.065V47ZM929.526 42.8672C929.526 44.1536 929.232 45.1901 928.643 45.9766C928.055 46.763 927.258 47.1562 926.252 47.1562C925.226 47.1562 924.419 46.8307 923.831 46.1797V50.25H922.385V38.5469H923.706L923.776 39.4844C924.364 38.7552 925.182 38.3906 926.229 38.3906C927.245 38.3906 928.047 38.7734 928.635 39.5391C929.229 40.3047 929.526 41.3698 929.526 42.7344V42.8672ZM928.081 42.7031C928.081 41.75 927.877 40.9974 927.471 40.4453C927.065 39.8932 926.508 39.6172 925.799 39.6172C924.924 39.6172 924.268 40.0052 923.831 40.7812V44.8203C924.263 45.5911 924.924 45.9766 925.815 45.9766C926.508 45.9766 927.057 45.7031 927.463 45.1562C927.875 44.6042 928.081 43.7865 928.081 42.7031ZM934.877 47.1562C933.732 47.1562 932.799 46.7812 932.081 46.0312C931.362 45.276 931.002 44.2682 931.002 43.0078V42.7422C931.002 41.9036 931.161 41.1562 931.479 40.5C931.802 39.8385 932.25 39.3229 932.823 38.9531C933.401 38.5781 934.026 38.3906 934.698 38.3906C935.797 38.3906 936.651 38.7526 937.26 39.4766C937.87 40.2005 938.174 41.237 938.174 42.5859V43.1875H932.448C932.469 44.0208 932.711 44.6953 933.174 45.2109C933.643 45.7214 934.237 45.9766 934.956 45.9766C935.466 45.9766 935.898 45.8724 936.252 45.6641C936.607 45.4557 936.917 45.1797 937.182 44.8359L938.065 45.5234C937.357 46.612 936.294 47.1562 934.877 47.1562ZM934.698 39.5781C934.114 39.5781 933.625 39.7917 933.229 40.2188C932.833 40.6406 932.588 41.2344 932.495 42H936.729V41.8906C936.687 41.1562 936.489 40.5885 936.135 40.1875C935.781 39.7812 935.302 39.5781 934.698 39.5781ZM946.784 38.5469V47H945.331V39.7422H942.456L942.284 42.9062C942.19 44.3594 941.945 45.3984 941.549 46.0234C941.159 46.6484 940.536 46.974 939.682 47H939.104V45.7266L939.518 45.6953C939.987 45.6432 940.323 45.3724 940.526 44.8828C940.729 44.3932 940.859 43.487 940.917 42.1641L941.073 38.5469H946.784ZM955.565 38.5469V47H954.112V43.7109H951.932L949.94 47H948.377L950.502 43.4922C949.961 43.2943 949.544 42.9896 949.252 42.5781C948.966 42.1615 948.823 41.6771 948.823 41.125C948.823 40.3542 949.112 39.7344 949.69 39.2656C950.268 38.7917 951.042 38.5521 952.01 38.5469H955.565ZM950.276 41.1406C950.276 41.5521 950.417 41.8854 950.698 42.1406C950.979 42.3906 951.351 42.5182 951.815 42.5234H954.112V39.7188H952.034C951.497 39.7188 951.07 39.8516 950.752 40.1172C950.435 40.3776 950.276 40.7188 950.276 41.1406Z" fill="black"/>
<path d="M886.651 70.8604H889.823V72.2275H886.651V75.8213H885.198V72.2275H882.026V70.8604H885.198V67.54H886.651V70.8604ZM896.19 76.9619H894.737V67.3291L891.823 68.3994V67.0869L895.963 65.5322H896.19V76.9619ZM907.557 72.1104C907.557 73.8031 907.268 75.0609 906.69 75.8838C906.112 76.7067 905.208 77.1182 903.979 77.1182C902.765 77.1182 901.867 76.7171 901.284 75.915C900.7 75.1077 900.398 73.9046 900.377 72.3057V70.376C900.377 68.7041 900.667 67.4619 901.245 66.6494C901.823 65.8369 902.729 65.4307 903.963 65.4307C905.187 65.4307 906.088 65.8239 906.667 66.6104C907.245 67.3916 907.542 68.5999 907.557 70.2354V72.1104ZM906.112 70.1338C906.112 68.9098 905.94 68.0192 905.596 67.4619C905.252 66.8994 904.708 66.6182 903.963 66.6182C903.224 66.6182 902.685 66.8968 902.346 67.4541C902.008 68.0114 901.833 68.8682 901.823 70.0244V72.3369C901.823 73.5661 902 74.4749 902.354 75.0635C902.713 75.6468 903.255 75.9385 903.979 75.9385C904.693 75.9385 905.221 75.6624 905.565 75.1104C905.914 74.5583 906.096 73.6885 906.112 72.501V70.1338ZM920.51 72.1104C920.51 73.8031 920.221 75.0609 919.643 75.8838C919.065 76.7067 918.161 77.1182 916.932 77.1182C915.719 77.1182 914.82 76.7171 914.237 75.915C913.653 75.1077 913.351 73.9046 913.331 72.3057V70.376C913.331 68.7041 913.62 67.4619 914.198 66.6494C914.776 65.8369 915.682 65.4307 916.917 65.4307C918.14 65.4307 919.042 65.8239 919.62 66.6104C920.198 67.3916 920.495 68.5999 920.51 70.2354V72.1104ZM919.065 70.1338C919.065 68.9098 918.893 68.0192 918.549 67.4619C918.206 66.8994 917.661 66.6182 916.917 66.6182C916.177 66.6182 915.638 66.8968 915.299 67.4541C914.961 68.0114 914.786 68.8682 914.776 70.0244V72.3369C914.776 73.5661 914.953 74.4749 915.307 75.0635C915.667 75.6468 916.208 75.9385 916.932 75.9385C917.646 75.9385 918.174 75.6624 918.518 75.1104C918.867 74.5583 919.049 73.6885 919.065 72.501V70.1338ZM929.495 72.1104C929.495 73.8031 929.206 75.0609 928.627 75.8838C928.049 76.7067 927.146 77.1182 925.917 77.1182C924.703 77.1182 923.805 76.7171 923.221 75.915C922.638 75.1077 922.336 73.9046 922.315 72.3057V70.376C922.315 68.7041 922.604 67.4619 923.182 66.6494C923.76 65.8369 924.667 65.4307 925.901 65.4307C927.125 65.4307 928.026 65.8239 928.604 66.6104C929.182 67.3916 929.479 68.5999 929.495 70.2354V72.1104ZM928.049 70.1338C928.049 68.9098 927.877 68.0192 927.534 67.4619C927.19 66.8994 926.646 66.6182 925.901 66.6182C925.161 66.6182 924.622 66.8968 924.284 67.4541C923.945 68.0114 923.771 68.8682 923.76 70.0244V72.3369C923.76 73.5661 923.937 74.4749 924.292 75.0635C924.651 75.6468 925.193 75.9385 925.917 75.9385C926.63 75.9385 927.159 75.6624 927.502 75.1104C927.851 74.5583 928.034 73.6885 928.049 72.501V70.1338ZM938.479 72.1104C938.479 73.8031 938.19 75.0609 937.612 75.8838C937.034 76.7067 936.13 77.1182 934.901 77.1182C933.687 77.1182 932.789 76.7171 932.206 75.915C931.622 75.1077 931.32 73.9046 931.299 72.3057V70.376C931.299 68.7041 931.588 67.4619 932.167 66.6494C932.745 65.8369 933.651 65.4307 934.885 65.4307C936.109 65.4307 937.01 65.8239 937.588 66.6104C938.167 67.3916 938.463 68.5999 938.479 70.2354V72.1104ZM937.034 70.1338C937.034 68.9098 936.862 68.0192 936.518 67.4619C936.174 66.8994 935.63 66.6182 934.885 66.6182C934.146 66.6182 933.607 66.8968 933.268 67.4541C932.93 68.0114 932.755 68.8682 932.745 70.0244V72.3369C932.745 73.5661 932.922 74.4749 933.276 75.0635C933.635 75.6468 934.177 75.9385 934.901 75.9385C935.614 75.9385 936.143 75.6624 936.487 75.1104C936.836 74.5583 937.018 73.6885 937.034 72.501V70.1338ZM943.626 65.5379H951.818V66.7859H943.626V65.5379ZM948.442 76.9619H947.002V69.2819H943.626V68.0339H951.818V69.2819H948.442V76.9619Z" fill="#80868C"/>
<path d="M1035.23 64.8984H1038.41V66.2656H1035.23V69.8594H1033.78V66.2656H1030.61V64.8984H1033.78V61.5781H1035.23V64.8984ZM1044.77 71H1043.32V61.3672L1040.41 62.4375V61.125L1044.55 59.5703H1044.77V71ZM1056.14 66.1484C1056.14 67.8411 1055.85 69.099 1055.27 69.9219C1054.7 70.7448 1053.79 71.1562 1052.56 71.1562C1051.35 71.1562 1050.45 70.7552 1049.87 69.9531C1049.28 69.1458 1048.98 67.9427 1048.96 66.3438V64.4141C1048.96 62.7422 1049.25 61.5 1049.83 60.6875C1050.41 59.875 1051.31 59.4688 1052.55 59.4688C1053.77 59.4688 1054.67 59.862 1055.25 60.6484C1055.83 61.4297 1056.12 62.638 1056.14 64.2734V66.1484ZM1054.7 64.1719C1054.7 62.9479 1054.52 62.0573 1054.18 61.5C1053.84 60.9375 1053.29 60.6562 1052.55 60.6562C1051.81 60.6562 1051.27 60.9349 1050.93 61.4922C1050.59 62.0495 1050.42 62.9062 1050.41 64.0625V66.375C1050.41 67.6042 1050.58 68.513 1050.94 69.1016C1051.3 69.6849 1051.84 69.9766 1052.56 69.9766C1053.28 69.9766 1053.8 69.7005 1054.15 69.1484C1054.5 68.5964 1054.68 67.7266 1054.7 66.5391V64.1719ZM1069.09 66.1484C1069.09 67.8411 1068.8 69.099 1068.23 69.9219C1067.65 70.7448 1066.74 71.1562 1065.52 71.1562C1064.3 71.1562 1063.4 70.7552 1062.82 69.9531C1062.24 69.1458 1061.93 67.9427 1061.91 66.3438V64.4141C1061.91 62.7422 1062.2 61.5 1062.78 60.6875C1063.36 59.875 1064.27 59.4688 1065.5 59.4688C1066.72 59.4688 1067.62 59.862 1068.2 60.6484C1068.78 61.4297 1069.08 62.638 1069.09 64.2734V66.1484ZM1067.65 64.1719C1067.65 62.9479 1067.48 62.0573 1067.13 61.5C1066.79 60.9375 1066.24 60.6562 1065.5 60.6562C1064.76 60.6562 1064.22 60.9349 1063.88 61.4922C1063.54 62.0495 1063.37 62.9062 1063.36 64.0625V66.375C1063.36 67.6042 1063.54 68.513 1063.89 69.1016C1064.25 69.6849 1064.79 69.9766 1065.52 69.9766C1066.23 69.9766 1066.76 69.7005 1067.1 69.1484C1067.45 68.5964 1067.63 67.7266 1067.65 66.5391V64.1719ZM1078.08 66.1484C1078.08 67.8411 1077.79 69.099 1077.21 69.9219C1076.63 70.7448 1075.73 71.1562 1074.5 71.1562C1073.29 71.1562 1072.39 70.7552 1071.8 69.9531C1071.22 69.1458 1070.92 67.9427 1070.9 66.3438V64.4141C1070.9 62.7422 1071.19 61.5 1071.77 60.6875C1072.34 59.875 1073.25 59.4688 1074.48 59.4688C1075.71 59.4688 1076.61 59.862 1077.19 60.6484C1077.77 61.4297 1078.06 62.638 1078.08 64.2734V66.1484ZM1076.63 64.1719C1076.63 62.9479 1076.46 62.0573 1076.12 61.5C1075.77 60.9375 1075.23 60.6562 1074.48 60.6562C1073.74 60.6562 1073.21 60.9349 1072.87 61.4922C1072.53 62.0495 1072.35 62.9062 1072.34 64.0625V66.375C1072.34 67.6042 1072.52 68.513 1072.88 69.1016C1073.23 69.6849 1073.78 69.9766 1074.5 69.9766C1075.21 69.9766 1075.74 69.7005 1076.09 69.1484C1076.43 68.5964 1076.62 67.7266 1076.63 66.5391V64.1719ZM1087.06 66.1484C1087.06 67.8411 1086.77 69.099 1086.2 69.9219C1085.62 70.7448 1084.71 71.1562 1083.48 71.1562C1082.27 71.1562 1081.37 70.7552 1080.79 69.9531C1080.21 69.1458 1079.9 67.9427 1079.88 66.3438V64.4141C1079.88 62.7422 1080.17 61.5 1080.75 60.6875C1081.33 59.875 1082.23 59.4688 1083.47 59.4688C1084.69 59.4688 1085.59 59.862 1086.17 60.6484C1086.75 61.4297 1087.05 62.638 1087.06 64.2734V66.1484ZM1085.62 64.1719C1085.62 62.9479 1085.45 62.0573 1085.1 61.5C1084.76 60.9375 1084.21 60.6562 1083.47 60.6562C1082.73 60.6562 1082.19 60.9349 1081.85 61.4922C1081.51 62.0495 1081.34 62.9062 1081.33 64.0625V66.375C1081.33 67.6042 1081.51 68.513 1081.86 69.1016C1082.22 69.6849 1082.76 69.9766 1083.48 69.9766C1084.2 69.9766 1084.73 69.7005 1085.07 69.1484C1085.42 68.5964 1085.6 67.7266 1085.62 66.5391V64.1719ZM1092.21 59.576H1100.4V60.824H1092.21V59.576ZM1097.03 71H1095.59V63.32H1092.21V62.072H1100.4V63.32H1097.03V71Z" fill="#80868C"/>
<path d="M1040.07 41.6797C1040.07 42.7943 1039.88 43.7682 1039.51 44.6016C1039.13 45.4297 1038.6 46.0625 1037.91 46.5C1037.23 46.9375 1036.42 47.1562 1035.51 47.1562C1034.61 47.1562 1033.82 46.9375 1033.12 46.5C1032.43 46.0573 1031.89 45.4297 1031.51 44.6172C1031.13 43.7995 1030.93 42.8542 1030.92 41.7812V40.9609C1030.92 39.8672 1031.11 38.901 1031.49 38.0625C1031.87 37.224 1032.41 36.5833 1033.1 36.1406C1033.8 35.6927 1034.6 35.4688 1035.49 35.4688C1036.4 35.4688 1037.21 35.6901 1037.9 36.1328C1038.6 36.5703 1039.13 37.2083 1039.51 38.0469C1039.88 38.8802 1040.07 39.8516 1040.07 40.9609V41.6797ZM1038.58 40.9453C1038.58 39.5964 1038.31 38.5625 1037.77 37.8438C1037.22 37.1198 1036.47 36.7578 1035.49 36.7578C1034.54 36.7578 1033.8 37.1198 1033.25 37.8438C1032.71 38.5625 1032.43 39.5625 1032.41 40.8438V41.6797C1032.41 42.987 1032.69 44.0156 1033.23 44.7656C1033.79 45.5104 1034.54 45.8828 1035.51 45.8828C1036.48 45.8828 1037.23 45.5312 1037.76 44.8281C1038.29 44.1198 1038.56 43.1068 1038.58 41.7891V40.9453ZM1045.48 45.9766C1046 45.9766 1046.45 45.8203 1046.84 45.5078C1047.22 45.1953 1047.43 44.8047 1047.48 44.3359H1048.84C1048.82 44.8203 1048.65 45.2812 1048.34 45.7188C1048.04 46.1562 1047.62 46.5052 1047.11 46.7656C1046.6 47.026 1046.06 47.1562 1045.48 47.1562C1044.33 47.1562 1043.42 46.7734 1042.73 46.0078C1042.06 45.237 1041.72 44.1849 1041.72 42.8516V42.6094C1041.72 41.7865 1041.87 41.0547 1042.17 40.4141C1042.47 39.7734 1042.91 39.276 1043.47 38.9219C1044.04 38.5677 1044.71 38.3906 1045.48 38.3906C1046.42 38.3906 1047.21 38.6745 1047.84 39.2422C1048.47 39.8099 1048.8 40.5469 1048.84 41.4531H1047.48C1047.43 40.9062 1047.23 40.4583 1046.85 40.1094C1046.48 39.7552 1046.02 39.5781 1045.48 39.5781C1044.74 39.5781 1044.17 39.8438 1043.77 40.375C1043.36 40.901 1043.16 41.6641 1043.16 42.6641V42.9375C1043.16 43.9115 1043.36 44.6615 1043.77 45.1875C1044.17 45.7135 1044.74 45.9766 1045.48 45.9766ZM1056.75 39.7188H1053.91V47H1052.47V39.7188H1049.69V38.5469H1056.75V39.7188ZM1063.25 47C1063.17 46.8333 1063.1 46.5365 1063.05 46.1094C1062.38 46.8073 1061.57 47.1562 1060.64 47.1562C1059.81 47.1562 1059.12 46.9219 1058.59 46.4531C1058.05 45.9792 1057.79 45.3802 1057.79 44.6562C1057.79 43.776 1058.12 43.0938 1058.79 42.6094C1059.46 42.1198 1060.4 41.875 1061.62 41.875H1063.02V41.2109C1063.02 40.7057 1062.87 40.3047 1062.57 40.0078C1062.27 39.7057 1061.82 39.5547 1061.23 39.5547C1060.72 39.5547 1060.29 39.6849 1059.94 39.9453C1059.59 40.2057 1059.41 40.5208 1059.41 40.8906H1057.96C1057.96 40.4688 1058.11 40.0625 1058.41 39.6719C1058.71 39.276 1059.11 38.9635 1059.62 38.7344C1060.14 38.5052 1060.71 38.3906 1061.32 38.3906C1062.29 38.3906 1063.06 38.6354 1063.61 39.125C1064.16 39.6094 1064.45 40.2786 1064.47 41.1328V45.0234C1064.47 45.7995 1064.57 46.4167 1064.77 46.875V47H1063.25ZM1060.85 45.8984C1061.3 45.8984 1061.73 45.7812 1062.14 45.5469C1062.55 45.3125 1062.84 45.0078 1063.02 44.6328V42.8984H1061.89C1060.12 42.8984 1059.23 43.4167 1059.23 44.4531C1059.23 44.9062 1059.39 45.2604 1059.69 45.5156C1059.99 45.7708 1060.38 45.8984 1060.85 45.8984ZM1073.66 38.5469V47H1072.21V39.7422H1069.34L1069.16 42.9062C1069.07 44.3594 1068.83 45.3984 1068.43 46.0234C1068.04 46.6484 1067.42 46.974 1066.56 47H1065.98V45.7266L1066.4 45.6953C1066.87 45.6432 1067.2 45.3724 1067.41 44.8828C1067.61 44.3932 1067.74 43.487 1067.8 42.1641L1067.95 38.5469H1073.66ZM1075.6 42.6953C1075.6 41.8672 1075.76 41.1224 1076.09 40.4609C1076.41 39.7995 1076.87 39.2891 1077.45 38.9297C1078.03 38.5703 1078.69 38.3906 1079.44 38.3906C1080.59 38.3906 1081.52 38.7891 1082.23 39.5859C1082.94 40.3828 1083.3 41.4427 1083.3 42.7656V42.8672C1083.3 43.6901 1083.14 44.4297 1082.82 45.0859C1082.51 45.737 1082.06 46.2448 1081.47 46.6094C1080.89 46.974 1080.21 47.1562 1079.45 47.1562C1078.31 47.1562 1077.38 46.7578 1076.66 45.9609C1075.96 45.1641 1075.6 44.1094 1075.6 42.7969V42.6953ZM1077.05 42.8672C1077.05 43.8047 1077.27 44.5573 1077.7 45.125C1078.14 45.6927 1078.72 45.9766 1079.45 45.9766C1080.19 45.9766 1080.77 45.6901 1081.2 45.1172C1081.64 44.5391 1081.85 43.7318 1081.85 42.6953C1081.85 41.7682 1081.63 41.0182 1081.19 40.4453C1080.75 39.8672 1080.17 39.5781 1079.44 39.5781C1078.72 39.5781 1078.15 39.862 1077.71 40.4297C1077.27 40.9974 1077.05 41.8099 1077.05 42.8672ZM1088.5 45.9766C1089.02 45.9766 1089.47 45.8203 1089.85 45.5078C1090.24 45.1953 1090.45 44.8047 1090.49 44.3359H1091.86C1091.83 44.8203 1091.67 45.2812 1091.36 45.7188C1091.05 46.1562 1090.64 46.5052 1090.12 46.7656C1089.61 47.026 1089.07 47.1562 1088.5 47.1562C1087.35 47.1562 1086.43 46.7734 1085.75 46.0078C1085.07 45.237 1084.73 44.1849 1084.73 42.8516V42.6094C1084.73 41.7865 1084.89 41.0547 1085.19 40.4141C1085.49 39.7734 1085.92 39.276 1086.48 38.9219C1087.05 38.5677 1087.72 38.3906 1088.49 38.3906C1089.44 38.3906 1090.23 38.6745 1090.85 39.2422C1091.48 39.8099 1091.82 40.5469 1091.86 41.4531H1090.49C1090.45 40.9062 1090.24 40.4583 1089.87 40.1094C1089.5 39.7552 1089.04 39.5781 1088.49 39.5781C1087.76 39.5781 1087.19 39.8438 1086.78 40.375C1086.38 40.901 1086.18 41.6641 1086.18 42.6641V42.9375C1086.18 43.9115 1086.38 44.6615 1086.78 45.1875C1087.18 45.7135 1087.76 45.9766 1088.5 45.9766ZM1095.06 41.4609H1097.26C1098.22 41.4714 1098.97 41.7214 1099.53 42.2109C1100.09 42.7005 1100.37 43.3646 1100.37 44.2031C1100.37 45.0469 1100.08 45.724 1099.51 46.2344C1098.93 46.7448 1098.16 47 1097.2 47H1093.62V38.5469H1095.06V41.4609ZM1095.06 42.6406V45.8203H1097.21C1097.75 45.8203 1098.17 45.6823 1098.47 45.4062C1098.77 45.125 1098.91 44.7422 1098.91 44.2578C1098.91 43.7891 1098.77 43.4062 1098.48 43.1094C1098.19 42.8073 1097.79 42.651 1097.27 42.6406H1095.06ZM1105.76 42.6953C1105.76 41.8672 1105.92 41.1224 1106.24 40.4609C1106.57 39.7995 1107.02 39.2891 1107.6 38.9297C1108.18 38.5703 1108.85 38.3906 1109.59 38.3906C1110.74 38.3906 1111.67 38.7891 1112.38 39.5859C1113.1 40.3828 1113.45 41.4427 1113.45 42.7656V42.8672C1113.45 43.6901 1113.29 44.4297 1112.98 45.0859C1112.66 45.737 1112.21 46.2448 1111.62 46.6094C1111.04 46.974 1110.37 47.1562 1109.61 47.1562C1108.46 47.1562 1107.53 46.7578 1106.82 45.9609C1106.11 45.1641 1105.76 44.1094 1105.76 42.7969V42.6953ZM1107.21 42.8672C1107.21 43.8047 1107.43 44.5573 1107.86 45.125C1108.3 45.6927 1108.88 45.9766 1109.61 45.9766C1110.34 45.9766 1110.93 45.6901 1111.36 45.1172C1111.79 44.5391 1112.01 43.7318 1112.01 42.6953C1112.01 41.7682 1111.79 41.0182 1111.34 40.4453C1110.91 39.8672 1110.32 39.5781 1109.59 39.5781C1108.88 39.5781 1108.3 39.862 1107.87 40.4297C1107.43 40.9974 1107.21 41.8099 1107.21 42.8672ZM1122.18 47H1120.73V39.7422H1116.84V47H1115.39V38.5469H1122.18V47ZM1131.43 38.5469V47H1129.98V39.7422H1127.1L1126.93 42.9062C1126.84 44.3594 1126.59 45.3984 1126.2 46.0234C1125.8 46.6484 1125.18 46.974 1124.33 47H1123.75V45.7266L1124.16 45.6953C1124.63 45.6432 1124.97 45.3724 1125.17 44.8828C1125.38 44.3932 1125.51 43.487 1125.56 42.1641L1125.72 38.5469H1131.43ZM1138.97 47C1138.89 46.8333 1138.82 46.5365 1138.77 46.1094C1138.09 46.8073 1137.29 47.1562 1136.36 47.1562C1135.53 47.1562 1134.84 46.9219 1134.3 46.4531C1133.77 45.9792 1133.51 45.3802 1133.51 44.6562C1133.51 43.776 1133.84 43.0938 1134.51 42.6094C1135.18 42.1198 1136.12 41.875 1137.34 41.875H1138.74V41.2109C1138.74 40.7057 1138.59 40.3047 1138.29 40.0078C1137.99 39.7057 1137.54 39.5547 1136.95 39.5547C1136.44 39.5547 1136.01 39.6849 1135.66 39.9453C1135.31 40.2057 1135.13 40.5208 1135.13 40.8906H1133.68C1133.68 40.4688 1133.83 40.0625 1134.12 39.6719C1134.43 39.276 1134.83 38.9635 1135.34 38.7344C1135.86 38.5052 1136.42 38.3906 1137.04 38.3906C1138.01 38.3906 1138.78 38.6354 1139.33 39.125C1139.88 39.6094 1140.17 40.2786 1140.19 41.1328V45.0234C1140.19 45.7995 1140.29 46.4167 1140.48 46.875V47H1138.97ZM1136.57 45.8984C1137.02 45.8984 1137.45 45.7812 1137.86 45.5469C1138.27 45.3125 1138.56 45.0078 1138.74 44.6328V42.8984H1137.61C1135.84 42.8984 1134.95 43.4167 1134.95 44.4531C1134.95 44.9062 1135.1 45.2604 1135.41 45.5156C1135.71 45.7708 1136.1 45.8984 1136.57 45.8984ZM1148.61 39.7188H1145.77V47H1144.33V39.7188H1141.55V38.5469H1148.61V39.7188ZM1155.48 38.5469H1156.93V47H1155.48V40.8359L1151.59 47H1150.14V38.5469H1151.59V44.7188L1155.48 38.5469ZM1165.53 39.7188H1162.7V47H1161.25V39.7188H1158.47V38.5469H1165.53V39.7188ZM1168.52 41.4609H1170.71C1171.67 41.4714 1172.43 41.7214 1172.98 42.2109C1173.54 42.7005 1173.82 43.3646 1173.82 44.2031C1173.82 45.0469 1173.53 45.724 1172.96 46.2344C1172.39 46.7448 1171.62 47 1170.65 47H1167.07V38.5469H1168.52V41.4609ZM1168.52 42.6406V45.8203H1170.66C1171.21 45.8203 1171.62 45.6823 1171.92 45.4062C1172.22 45.125 1172.37 44.7422 1172.37 44.2578C1172.37 43.7891 1172.22 43.4062 1171.93 43.1094C1171.64 42.8073 1171.24 42.651 1170.72 42.6406H1168.52Z" fill="black"/>
</svg>
