<svg width="1178" height="237" viewBox="0 0 1178 237" fill="none" xmlns="http://www.w3.org/2000/svg">
<line x1="267.492" y1="215.68" x2="267.492" y2="-0.000152632" stroke="#D0D0D0" stroke-width="2"/>
<line x1="830.188" y1="154.229" x2="830.188" y2="-1.53025e-05" stroke="#D0D0D0" stroke-width="2"/>
<path d="M317.039 175.539L317.965 166.938H327.129V169.398H320.332L319.863 173.477C320.652 173.023 321.543 172.797 322.535 172.797C324.16 172.797 325.422 173.316 326.32 174.355C327.227 175.395 327.68 176.793 327.68 178.551C327.68 180.285 327.18 181.668 326.18 182.699C325.18 183.723 323.809 184.234 322.066 184.234C320.504 184.234 319.207 183.793 318.176 182.91C317.152 182.02 316.598 180.848 316.512 179.395H319.266C319.375 180.223 319.672 180.859 320.156 181.305C320.641 181.742 321.273 181.961 322.055 181.961C322.93 181.961 323.609 181.648 324.094 181.023C324.586 180.398 324.832 179.547 324.832 178.469C324.832 177.43 324.562 176.609 324.023 176.008C323.484 175.398 322.742 175.094 321.797 175.094C321.281 175.094 320.844 175.164 320.484 175.305C320.125 175.438 319.734 175.703 319.312 176.102L317.039 175.539ZM330.68 175.539L331.605 166.938H340.77V169.398H333.973L333.504 173.477C334.293 173.023 335.184 172.797 336.176 172.797C337.801 172.797 339.062 173.316 339.961 174.355C340.867 175.395 341.32 176.793 341.32 178.551C341.32 180.285 340.82 181.668 339.82 182.699C338.82 183.723 337.449 184.234 335.707 184.234C334.145 184.234 332.848 183.793 331.816 182.91C330.793 182.02 330.238 180.848 330.152 179.395H332.906C333.016 180.223 333.312 180.859 333.797 181.305C334.281 181.742 334.914 181.961 335.695 181.961C336.57 181.961 337.25 181.648 337.734 181.023C338.227 180.398 338.473 179.547 338.473 178.469C338.473 177.43 338.203 176.609 337.664 176.008C337.125 175.398 336.383 175.094 335.438 175.094C334.922 175.094 334.484 175.164 334.125 175.305C333.766 175.438 333.375 175.703 332.953 176.102L330.68 175.539ZM349.77 181.727C350.559 180.844 351.086 180.008 351.352 179.219C351.625 178.422 351.789 177.406 351.844 176.172L352.008 171.32H360.809V181.727H362.566V187.773H359.73V184H351.598V187.773H348.715L348.727 181.727H349.77ZM353.109 181.727H357.973V173.77H354.773L354.691 176.195C354.582 178.523 354.055 180.367 353.109 181.727ZM375.129 184H372.281V178.879H367.348V184H364.5V171.32H367.348V176.605H372.281V171.32H375.129V184ZM383.754 184.234C381.949 184.234 380.484 183.668 379.359 182.535C378.242 181.395 377.684 179.879 377.684 177.988V177.637C377.684 176.371 377.926 175.242 378.41 174.25C378.902 173.25 379.59 172.473 380.473 171.918C381.355 171.363 382.34 171.086 383.426 171.086C385.152 171.086 386.484 171.637 387.422 172.738C388.367 173.84 388.84 175.398 388.84 177.414V178.562H380.555C380.641 179.609 380.988 180.438 381.598 181.047C382.215 181.656 382.988 181.961 383.918 181.961C385.223 181.961 386.285 181.434 387.105 180.379L388.641 181.844C388.133 182.602 387.453 183.191 386.602 183.613C385.758 184.027 384.809 184.234 383.754 184.234ZM383.414 173.371C382.633 173.371 382 173.645 381.516 174.191C381.039 174.738 380.734 175.5 380.602 176.477H386.027V176.266C385.965 175.312 385.711 174.594 385.266 174.109C384.82 173.617 384.203 173.371 383.414 173.371ZM398.977 171.32H401.812V184H398.977V175.539L394.008 184H391.172V171.32H394.008V179.781L398.977 171.32ZM400.312 166.457C400.312 167.441 399.969 168.238 399.281 168.848C398.594 169.457 397.676 169.762 396.527 169.762C395.379 169.762 394.461 169.457 393.773 168.848C393.086 168.238 392.742 167.441 392.742 166.457H394.875C394.875 166.973 395.02 167.375 395.309 167.664C395.605 167.945 396.012 168.086 396.527 168.086C397.043 168.086 397.445 167.945 397.734 167.664C398.023 167.375 398.168 166.973 398.168 166.457H400.312Z" fill="#141414"/>
<line x1="1" y1="154.935" x2="1177" y2="154.935" stroke="#B9B9B9" stroke-dasharray="8 8"/>
<path d="M1 155.435C1 155.435 88.5271 155.435 115.202 155.435C141.877 155.435 160.216 208.451 186.891 208.451C213.566 208.451 266.082 208.451 266.082 208.451" stroke="#27AE60" stroke-width="2" stroke-linecap="round" stroke-linejoin="round"/>
<path d="M1177 155.435H1057.71H829.983" stroke="#27AE60" stroke-width="2" stroke-linecap="round" stroke-linejoin="round"/>
<path d="M266.082 208.451C266.082 208.451 598.426 208.451 625.147 208.451C651.869 208.451 670.239 155.435 696.961 155.435C723.682 155.435 804.68 155.435 804.68 155.435" stroke="#C84F4F" stroke-width="2" stroke-linecap="round" stroke-linejoin="round"/>
<circle cx="265.929" cy="208.326" r="27.3258" fill="white" stroke="#C84F4F" stroke-width="2"/>
<path d="M257.597 213.134L265.928 219.187M265.928 219.187L274.259 213.134M265.928 219.187V198" stroke="#C84F4F" stroke-width="2" stroke-linecap="round" stroke-linejoin="round"/>
<circle cx="829.114" cy="154.674" r="27.3258" transform="rotate(-180 829.114 154.674)" fill="white" stroke="#27AE60" stroke-width="2"/>
<path d="M837.445 149.867L829.114 143.813M829.114 143.813L820.783 149.867M829.114 143.813V165" stroke="#27AE60" stroke-width="2" stroke-linecap="round" stroke-linejoin="round"/>
<path d="M286.236 15H284.783V5.36719L281.869 6.4375V5.125L286.01 3.57031H286.236V15ZM297.979 13.9766C298.494 13.9766 298.945 13.8203 299.33 13.5078C299.715 13.1953 299.929 12.8047 299.971 12.3359H301.338C301.312 12.8203 301.145 13.2812 300.838 13.7188C300.531 14.1562 300.119 14.5052 299.604 14.7656C299.093 15.026 298.551 15.1562 297.979 15.1562C296.827 15.1562 295.911 14.7734 295.229 14.0078C294.551 13.237 294.213 12.1849 294.213 10.8516V10.6094C294.213 9.78646 294.364 9.05469 294.666 8.41406C294.968 7.77344 295.4 7.27604 295.963 6.92188C296.531 6.56771 297.2 6.39062 297.971 6.39062C298.919 6.39062 299.705 6.67448 300.33 7.24219C300.96 7.8099 301.296 8.54688 301.338 9.45312H299.971C299.929 8.90625 299.721 8.45833 299.346 8.10938C298.976 7.75521 298.518 7.57812 297.971 7.57812C297.236 7.57812 296.666 7.84375 296.26 8.375C295.859 8.90104 295.658 9.66406 295.658 10.6641V10.9375C295.658 11.9115 295.859 12.6615 296.26 13.1875C296.661 13.7135 297.234 13.9766 297.979 13.9766ZM306.471 15.1562C305.325 15.1562 304.393 14.7812 303.674 14.0312C302.955 13.276 302.596 12.2682 302.596 11.0078V10.7422C302.596 9.90365 302.755 9.15625 303.072 8.5C303.395 7.83854 303.843 7.32292 304.416 6.95312C304.994 6.57812 305.619 6.39062 306.291 6.39062C307.39 6.39062 308.244 6.7526 308.854 7.47656C309.463 8.20052 309.768 9.23698 309.768 10.5859V11.1875H304.041C304.062 12.0208 304.304 12.6953 304.768 13.2109C305.236 13.7214 305.83 13.9766 306.549 13.9766C307.059 13.9766 307.492 13.8724 307.846 13.6641C308.2 13.4557 308.51 13.1797 308.775 12.8359L309.658 13.5234C308.95 14.612 307.887 15.1562 306.471 15.1562ZM306.291 7.57812C305.708 7.57812 305.218 7.79167 304.822 8.21875C304.426 8.64062 304.182 9.23438 304.088 10H308.322V9.89062C308.281 9.15625 308.083 8.58854 307.729 8.1875C307.374 7.78125 306.895 7.57812 306.291 7.57812ZM318.354 15H316.908V11.3906H313.025V15H311.572V6.54688H313.025V10.2109H316.908V6.54688H318.354V15ZM326.963 7.71875H324.127V15H322.682V7.71875H319.9V6.54688H326.963V7.71875ZM334.83 6.54688V15H333.377V11.7109H331.197L329.205 15H327.643L329.768 11.4922C329.226 11.2943 328.809 10.9896 328.518 10.5781C328.231 10.1615 328.088 9.67708 328.088 9.125C328.088 8.35417 328.377 7.73438 328.955 7.26562C329.533 6.79167 330.307 6.55208 331.275 6.54688H334.83ZM329.541 9.14062C329.541 9.55208 329.682 9.88542 329.963 10.1406C330.244 10.3906 330.617 10.5182 331.08 10.5234H333.377V7.71875H331.299C330.762 7.71875 330.335 7.85156 330.018 8.11719C329.7 8.3776 329.541 8.71875 329.541 9.14062ZM340.861 7.03125C341.924 7.03125 342.773 7.38802 343.408 8.10156C344.049 8.8099 344.369 9.74479 344.369 10.9062V11.0391C344.369 11.8359 344.215 12.5495 343.908 13.1797C343.601 13.8047 343.158 14.2917 342.58 14.6406C342.007 14.9844 341.346 15.1562 340.596 15.1562C339.46 15.1562 338.546 14.7786 337.854 14.0234C337.161 13.263 336.814 12.2448 336.814 10.9688V10.2656C336.814 8.48958 337.143 7.07812 337.799 6.03125C338.46 4.98438 339.434 4.34635 340.721 4.11719C341.45 3.98698 341.942 3.82812 342.197 3.64062C342.452 3.45312 342.58 3.19531 342.58 2.86719H343.768C343.768 3.51823 343.619 4.02604 343.322 4.39062C343.031 4.75521 342.562 5.01302 341.916 5.16406L340.838 5.40625C339.979 5.60938 339.333 5.95312 338.9 6.4375C338.473 6.91667 338.195 7.55729 338.064 8.35938C338.83 7.47396 339.762 7.03125 340.861 7.03125ZM340.58 8.21875C339.872 8.21875 339.309 8.45833 338.893 8.9375C338.476 9.41146 338.268 10.0703 338.268 10.9141V11.0391C338.268 11.9453 338.476 12.6641 338.893 13.1953C339.314 13.7214 339.882 13.9844 340.596 13.9844C341.314 13.9844 341.882 13.7188 342.299 13.1875C342.715 12.6562 342.924 11.8802 342.924 10.8594C342.924 10.0625 342.713 9.42448 342.291 8.94531C341.874 8.46094 341.304 8.21875 340.58 8.21875ZM352.994 10.8672C352.994 12.1536 352.7 13.1901 352.111 13.9766C351.523 14.763 350.726 15.1562 349.721 15.1562C348.695 15.1562 347.887 14.8307 347.299 14.1797V18.25H345.854V6.54688H347.174L347.244 7.48438C347.833 6.75521 348.65 6.39062 349.697 6.39062C350.713 6.39062 351.515 6.77344 352.104 7.53906C352.697 8.30469 352.994 9.36979 352.994 10.7344V10.8672ZM351.549 10.7031C351.549 9.75 351.346 8.9974 350.939 8.44531C350.533 7.89323 349.976 7.61719 349.268 7.61719C348.393 7.61719 347.736 8.00521 347.299 8.78125V12.8203C347.731 13.5911 348.393 13.9766 349.283 13.9766C349.976 13.9766 350.525 13.7031 350.932 13.1562C351.343 12.6042 351.549 11.7865 351.549 10.7031ZM361.299 6.54688V15H359.846V11.7109H357.666L355.674 15H354.111L356.236 11.4922C355.695 11.2943 355.278 10.9896 354.986 10.5781C354.7 10.1615 354.557 9.67708 354.557 9.125C354.557 8.35417 354.846 7.73438 355.424 7.26562C356.002 6.79167 356.775 6.55208 357.744 6.54688H361.299ZM356.01 9.14062C356.01 9.55208 356.15 9.88542 356.432 10.1406C356.713 10.3906 357.085 10.5182 357.549 10.5234H359.846V7.71875H357.768C357.231 7.71875 356.804 7.85156 356.486 8.11719C356.169 8.3776 356.01 8.71875 356.01 9.14062Z" fill="black"/>
<path d="M852.841 15H845.388V13.9609L849.325 9.58594C849.909 8.92448 850.31 8.38802 850.528 7.97656C850.752 7.5599 850.864 7.13021 850.864 6.6875C850.864 6.09375 850.685 5.60677 850.325 5.22656C849.966 4.84635 849.487 4.65625 848.888 4.65625C848.169 4.65625 847.609 4.86198 847.208 5.27344C846.812 5.67969 846.614 6.2474 846.614 6.97656H845.169C845.169 5.92969 845.505 5.08333 846.177 4.4375C846.854 3.79167 847.757 3.46875 848.888 3.46875C849.945 3.46875 850.781 3.7474 851.396 4.30469C852.01 4.85677 852.317 5.59375 852.317 6.51562C852.317 7.63542 851.604 8.96875 850.177 10.5156L847.13 13.8203H852.841V15ZM855.036 9.29688L855.614 3.625H861.442V4.96094H856.841L856.497 8.0625C857.054 7.73438 857.687 7.57031 858.396 7.57031C859.432 7.57031 860.255 7.91406 860.864 8.60156C861.474 9.28385 861.778 10.2083 861.778 11.375C861.778 12.5469 861.461 13.4714 860.825 14.1484C860.195 14.8203 859.312 15.1562 858.177 15.1562C857.172 15.1562 856.351 14.8776 855.716 14.3203C855.08 13.763 854.718 12.9922 854.63 12.0078H855.997C856.086 12.6589 856.317 13.151 856.692 13.4844C857.067 13.8125 857.562 13.9766 858.177 13.9766C858.849 13.9766 859.375 13.7474 859.755 13.2891C860.14 12.8307 860.333 12.1979 860.333 11.3906C860.333 10.6302 860.125 10.0208 859.708 9.5625C859.297 9.09896 858.747 8.86719 858.06 8.86719C857.429 8.86719 856.935 9.00521 856.575 9.28125L856.192 9.59375L855.036 9.29688ZM867.091 10.6953C867.091 9.86719 867.252 9.1224 867.575 8.46094C867.903 7.79948 868.356 7.28906 868.935 6.92969C869.518 6.57031 870.182 6.39062 870.927 6.39062C872.078 6.39062 873.007 6.78906 873.716 7.58594C874.429 8.38281 874.786 9.44271 874.786 10.7656V10.8672C874.786 11.6901 874.627 12.4297 874.31 13.0859C873.997 13.737 873.547 14.2448 872.958 14.6094C872.375 14.974 871.703 15.1562 870.942 15.1562C869.797 15.1562 868.867 14.7578 868.153 13.9609C867.445 13.1641 867.091 12.1094 867.091 10.7969V10.6953ZM868.544 10.8672C868.544 11.8047 868.76 12.5573 869.192 13.125C869.63 13.6927 870.213 13.9766 870.942 13.9766C871.677 13.9766 872.26 13.6901 872.692 13.1172C873.125 12.5391 873.341 11.7318 873.341 10.6953C873.341 9.76823 873.119 9.01823 872.677 8.44531C872.239 7.86719 871.656 7.57812 870.927 7.57812C870.213 7.57812 869.638 7.86198 869.2 8.42969C868.763 8.9974 868.544 9.8099 868.544 10.8672ZM879.231 11.3984H878.177V15H876.724V6.54688H878.177V10.125H879.122L881.966 6.54688H883.716L880.372 10.6094L883.997 15H882.161L879.231 11.3984ZM891.521 7.71875H888.685V15H887.239V7.71875H884.458V6.54688H891.521V7.71875ZM899.388 6.54688V15H897.935V11.7109H895.755L893.763 15H892.2L894.325 11.4922C893.784 11.2943 893.367 10.9896 893.075 10.5781C892.789 10.1615 892.646 9.67708 892.646 9.125C892.646 8.35417 892.935 7.73438 893.513 7.26562C894.091 6.79167 894.864 6.55208 895.833 6.54688H899.388ZM894.099 9.14062C894.099 9.55208 894.239 9.88542 894.521 10.1406C894.802 10.3906 895.174 10.5182 895.638 10.5234H897.935V7.71875H895.856C895.32 7.71875 894.893 7.85156 894.575 8.11719C894.257 8.3776 894.099 8.71875 894.099 9.14062ZM905.419 7.03125C906.481 7.03125 907.33 7.38802 907.966 8.10156C908.606 8.8099 908.927 9.74479 908.927 10.9062V11.0391C908.927 11.8359 908.773 12.5495 908.466 13.1797C908.159 13.8047 907.716 14.2917 907.138 14.6406C906.565 14.9844 905.903 15.1562 905.153 15.1562C904.018 15.1562 903.104 14.7786 902.411 14.0234C901.718 13.263 901.372 12.2448 901.372 10.9688V10.2656C901.372 8.48958 901.7 7.07812 902.356 6.03125C903.018 4.98438 903.992 4.34635 905.278 4.11719C906.007 3.98698 906.5 3.82812 906.755 3.64062C907.01 3.45312 907.138 3.19531 907.138 2.86719H908.325C908.325 3.51823 908.177 4.02604 907.88 4.39062C907.588 4.75521 907.119 5.01302 906.474 5.16406L905.396 5.40625C904.536 5.60938 903.89 5.95312 903.458 6.4375C903.031 6.91667 902.752 7.55729 902.622 8.35938C903.388 7.47396 904.32 7.03125 905.419 7.03125ZM905.138 8.21875C904.429 8.21875 903.867 8.45833 903.45 8.9375C903.034 9.41146 902.825 10.0703 902.825 10.9141V11.0391C902.825 11.9453 903.034 12.6641 903.45 13.1953C903.872 13.7214 904.44 13.9844 905.153 13.9844C905.872 13.9844 906.44 13.7188 906.856 13.1875C907.273 12.6562 907.481 11.8802 907.481 10.8594C907.481 10.0625 907.271 9.42448 906.849 8.94531C906.432 8.46094 905.862 8.21875 905.138 8.21875ZM917.552 10.8672C917.552 12.1536 917.257 13.1901 916.669 13.9766C916.08 14.763 915.284 15.1562 914.278 15.1562C913.252 15.1562 912.445 14.8307 911.856 14.1797V18.25H910.411V6.54688H911.731L911.802 7.48438C912.39 6.75521 913.208 6.39062 914.255 6.39062C915.271 6.39062 916.073 6.77344 916.661 7.53906C917.255 8.30469 917.552 9.36979 917.552 10.7344V10.8672ZM916.106 10.7031C916.106 9.75 915.903 8.9974 915.497 8.44531C915.091 7.89323 914.534 7.61719 913.825 7.61719C912.95 7.61719 912.294 8.00521 911.856 8.78125V12.8203C912.289 13.5911 912.95 13.9766 913.841 13.9766C914.534 13.9766 915.083 13.7031 915.489 13.1562C915.901 12.6042 916.106 11.7865 916.106 10.7031ZM925.856 6.54688V15H924.403V11.7109H922.224L920.231 15H918.669L920.794 11.4922C920.252 11.2943 919.836 10.9896 919.544 10.5781C919.257 10.1615 919.114 9.67708 919.114 9.125C919.114 8.35417 919.403 7.73438 919.981 7.26562C920.56 6.79167 921.333 6.55208 922.302 6.54688H925.856ZM920.567 9.14062C920.567 9.55208 920.708 9.88542 920.989 10.1406C921.271 10.3906 921.643 10.5182 922.106 10.5234H924.403V7.71875H922.325C921.789 7.71875 921.362 7.85156 921.044 8.11719C920.726 8.3776 920.567 8.71875 920.567 9.14062Z" fill="black"/>
<path d="M284.643 39.6758H280.83V38.4961H284.643V39.6758ZM286.572 38.2148L287.15 32.543H292.979V33.8789H288.377L288.033 36.9805C288.59 36.6523 289.223 36.4883 289.932 36.4883C290.968 36.4883 291.791 36.832 292.4 37.5195C293.01 38.2018 293.314 39.1263 293.314 40.293C293.314 41.4648 292.997 42.3893 292.361 43.0664C291.731 43.7383 290.848 44.0742 289.713 44.0742C288.708 44.0742 287.887 43.7956 287.252 43.2383C286.617 42.681 286.255 41.9102 286.166 40.9258H287.533C287.622 41.5768 287.854 42.069 288.229 42.4023C288.604 42.7305 289.098 42.8945 289.713 42.8945C290.385 42.8945 290.911 42.6654 291.291 42.207C291.676 41.7487 291.869 41.1159 291.869 40.3086C291.869 39.5482 291.661 38.9388 291.244 38.4805C290.833 38.0169 290.283 37.7852 289.596 37.7852C288.965 37.7852 288.471 37.9232 288.111 38.1992L287.729 38.5117L286.572 38.2148ZM305.994 39.0664C305.994 40.7591 305.705 42.0169 305.127 42.8398C304.549 43.6628 303.645 44.0742 302.416 44.0742C301.202 44.0742 300.304 43.6732 299.721 42.8711C299.137 42.0638 298.835 40.8607 298.814 39.2617V37.332C298.814 35.6602 299.104 34.418 299.682 33.6055C300.26 32.793 301.166 32.3867 302.4 32.3867C303.624 32.3867 304.525 32.7799 305.104 33.5664C305.682 34.3477 305.979 35.556 305.994 37.1914V39.0664ZM304.549 37.0898C304.549 35.8659 304.377 34.9753 304.033 34.418C303.689 33.8555 303.145 33.5742 302.4 33.5742C301.661 33.5742 301.122 33.8529 300.783 34.4102C300.445 34.9674 300.27 35.8242 300.26 36.9805V39.293C300.26 40.5221 300.437 41.431 300.791 42.0195C301.15 42.6029 301.692 42.8945 302.416 42.8945C303.13 42.8945 303.658 42.6185 304.002 42.0664C304.351 41.5143 304.533 40.6445 304.549 39.457V37.0898ZM314.979 39.0664C314.979 40.7591 314.689 42.0169 314.111 42.8398C313.533 43.6628 312.63 44.0742 311.4 44.0742C310.187 44.0742 309.288 43.6732 308.705 42.8711C308.122 42.0638 307.82 40.8607 307.799 39.2617V37.332C307.799 35.6602 308.088 34.418 308.666 33.6055C309.244 32.793 310.15 32.3867 311.385 32.3867C312.609 32.3867 313.51 32.7799 314.088 33.5664C314.666 34.3477 314.963 35.556 314.979 37.1914V39.0664ZM313.533 37.0898C313.533 35.8659 313.361 34.9753 313.018 34.418C312.674 33.8555 312.13 33.5742 311.385 33.5742C310.645 33.5742 310.106 33.8529 309.768 34.4102C309.429 34.9674 309.255 35.8242 309.244 36.9805V39.293C309.244 40.5221 309.421 41.431 309.775 42.0195C310.135 42.6029 310.676 42.8945 311.4 42.8945C312.114 42.8945 312.643 42.6185 312.986 42.0664C313.335 41.5143 313.518 40.6445 313.533 39.457V37.0898ZM323.963 39.0664C323.963 40.7591 323.674 42.0169 323.096 42.8398C322.518 43.6628 321.614 44.0742 320.385 44.0742C319.171 44.0742 318.273 43.6732 317.689 42.8711C317.106 42.0638 316.804 40.8607 316.783 39.2617V37.332C316.783 35.6602 317.072 34.418 317.65 33.6055C318.229 32.793 319.135 32.3867 320.369 32.3867C321.593 32.3867 322.494 32.7799 323.072 33.5664C323.65 34.3477 323.947 35.556 323.963 37.1914V39.0664ZM322.518 37.0898C322.518 35.8659 322.346 34.9753 322.002 34.418C321.658 33.8555 321.114 33.5742 320.369 33.5742C319.63 33.5742 319.09 33.8529 318.752 34.4102C318.413 34.9674 318.239 35.8242 318.229 36.9805V39.293C318.229 40.5221 318.406 41.431 318.76 42.0195C319.119 42.6029 319.661 42.8945 320.385 42.8945C321.098 42.8945 321.627 42.6185 321.971 42.0664C322.32 41.5143 322.502 40.6445 322.518 39.457V37.0898ZM329.11 32.494H337.302V33.742H329.11V32.494ZM333.926 43.918H332.486V36.238H329.11V34.99H337.302V36.238H333.926V43.918Z" fill="#898989"/>
<path d="M849.677 37.8164H852.849V39.1836H849.677V42.7773H848.224V39.1836H845.052V37.8164H848.224V34.4961H849.677V37.8164ZM855.13 38.2148L855.708 32.543H861.536V33.8789H856.935L856.591 36.9805C857.148 36.6523 857.781 36.4883 858.489 36.4883C859.526 36.4883 860.349 36.832 860.958 37.5195C861.567 38.2018 861.872 39.1263 861.872 40.293C861.872 41.4648 861.554 42.3893 860.919 43.0664C860.289 43.7383 859.406 44.0742 858.271 44.0742C857.265 44.0742 856.445 43.7956 855.81 43.2383C855.174 42.681 854.812 41.9102 854.724 40.9258H856.091C856.179 41.5768 856.411 42.069 856.786 42.4023C857.161 42.7305 857.656 42.8945 858.271 42.8945C858.942 42.8945 859.468 42.6654 859.849 42.207C860.234 41.7487 860.427 41.1159 860.427 40.3086C860.427 39.5482 860.218 38.9388 859.802 38.4805C859.39 38.0169 858.841 37.7852 858.153 37.7852C857.523 37.7852 857.028 37.9232 856.669 38.1992L856.286 38.5117L855.13 38.2148ZM874.552 39.0664C874.552 40.7591 874.263 42.0169 873.685 42.8398C873.106 43.6628 872.203 44.0742 870.974 44.0742C869.76 44.0742 868.862 43.6732 868.278 42.8711C867.695 42.0638 867.393 40.8607 867.372 39.2617V37.332C867.372 35.6602 867.661 34.418 868.239 33.6055C868.817 32.793 869.724 32.3867 870.958 32.3867C872.182 32.3867 873.083 32.7799 873.661 33.5664C874.239 34.3477 874.536 35.556 874.552 37.1914V39.0664ZM873.106 37.0898C873.106 35.8659 872.935 34.9753 872.591 34.418C872.247 33.8555 871.703 33.5742 870.958 33.5742C870.218 33.5742 869.679 33.8529 869.341 34.4102C869.002 34.9674 868.828 35.8242 868.817 36.9805V39.293C868.817 40.5221 868.994 41.431 869.349 42.0195C869.708 42.6029 870.25 42.8945 870.974 42.8945C871.687 42.8945 872.216 42.6185 872.56 42.0664C872.909 41.5143 873.091 40.6445 873.106 39.457V37.0898ZM883.536 39.0664C883.536 40.7591 883.247 42.0169 882.669 42.8398C882.091 43.6628 881.187 44.0742 879.958 44.0742C878.744 44.0742 877.846 43.6732 877.263 42.8711C876.679 42.0638 876.377 40.8607 876.356 39.2617V37.332C876.356 35.6602 876.646 34.418 877.224 33.6055C877.802 32.793 878.708 32.3867 879.942 32.3867C881.166 32.3867 882.067 32.7799 882.646 33.5664C883.224 34.3477 883.521 35.556 883.536 37.1914V39.0664ZM882.091 37.0898C882.091 35.8659 881.919 34.9753 881.575 34.418C881.231 33.8555 880.687 33.5742 879.942 33.5742C879.203 33.5742 878.664 33.8529 878.325 34.4102C877.987 34.9674 877.812 35.8242 877.802 36.9805V39.293C877.802 40.5221 877.979 41.431 878.333 42.0195C878.692 42.6029 879.234 42.8945 879.958 42.8945C880.672 42.8945 881.2 42.6185 881.544 42.0664C881.893 41.5143 882.075 40.6445 882.091 39.457V37.0898ZM892.521 39.0664C892.521 40.7591 892.231 42.0169 891.653 42.8398C891.075 43.6628 890.172 44.0742 888.942 44.0742C887.729 44.0742 886.83 43.6732 886.247 42.8711C885.664 42.0638 885.362 40.8607 885.341 39.2617V37.332C885.341 35.6602 885.63 34.418 886.208 33.6055C886.786 32.793 887.692 32.3867 888.927 32.3867C890.151 32.3867 891.052 32.7799 891.63 33.5664C892.208 34.3477 892.505 35.556 892.521 37.1914V39.0664ZM891.075 37.0898C891.075 35.8659 890.903 34.9753 890.56 34.418C890.216 33.8555 889.672 33.5742 888.927 33.5742C888.187 33.5742 887.648 33.8529 887.31 34.4102C886.971 34.9674 886.797 35.8242 886.786 36.9805V39.293C886.786 40.5221 886.963 41.431 887.317 42.0195C887.677 42.6029 888.218 42.8945 888.942 42.8945C889.656 42.8945 890.185 42.6185 890.528 42.0664C890.877 41.5143 891.06 40.6445 891.075 39.457V37.0898ZM897.668 32.494H905.86V33.742H897.668V32.494ZM902.484 43.918H901.044V36.238H897.668V34.99H905.86V36.238H902.484V43.918Z" fill="#898989"/>
</svg>
