<svg width="1178" height="237" viewBox="0 0 1178 237" fill="none" xmlns="http://www.w3.org/2000/svg">
<line x1="267.492" y1="215.68" x2="267.492" y2="-0.000152632" stroke="#CCCFD1" stroke-width="2"/>
<line x1="830.188" y1="154.229" x2="830.188" y2="-1.53025e-05" stroke="#CCCFD1" stroke-width="2"/>
<path d="M317.039 175.539L317.965 166.938H327.129V169.398H320.332L319.863 173.477C320.652 173.023 321.543 172.797 322.535 172.797C324.16 172.797 325.422 173.316 326.32 174.355C327.227 175.395 327.68 176.793 327.68 178.551C327.68 180.285 327.18 181.668 326.18 182.699C325.18 183.723 323.809 184.234 322.066 184.234C320.504 184.234 319.207 183.793 318.176 182.91C317.152 182.02 316.598 180.848 316.512 179.395H319.266C319.375 180.223 319.672 180.859 320.156 181.305C320.641 181.742 321.273 181.961 322.055 181.961C322.93 181.961 323.609 181.648 324.094 181.023C324.586 180.398 324.832 179.547 324.832 178.469C324.832 177.43 324.562 176.609 324.023 176.008C323.484 175.398 322.742 175.094 321.797 175.094C321.281 175.094 320.844 175.164 320.484 175.305C320.125 175.438 319.734 175.703 319.312 176.102L317.039 175.539ZM330.68 175.539L331.605 166.938H340.77V169.398H333.973L333.504 173.477C334.293 173.023 335.184 172.797 336.176 172.797C337.801 172.797 339.062 173.316 339.961 174.355C340.867 175.395 341.32 176.793 341.32 178.551C341.32 180.285 340.82 181.668 339.82 182.699C338.82 183.723 337.449 184.234 335.707 184.234C334.145 184.234 332.848 183.793 331.816 182.91C330.793 182.02 330.238 180.848 330.152 179.395H332.906C333.016 180.223 333.312 180.859 333.797 181.305C334.281 181.742 334.914 181.961 335.695 181.961C336.57 181.961 337.25 181.648 337.734 181.023C338.227 180.398 338.473 179.547 338.473 178.469C338.473 177.43 338.203 176.609 337.664 176.008C337.125 175.398 336.383 175.094 335.438 175.094C334.922 175.094 334.484 175.164 334.125 175.305C333.766 175.438 333.375 175.703 332.953 176.102L330.68 175.539ZM349.77 181.727C350.559 180.844 351.086 180.008 351.352 179.219C351.625 178.422 351.789 177.406 351.844 176.172L352.008 171.32H360.809V181.727H362.566V187.773H359.73V184H351.598V187.773H348.715L348.727 181.727H349.77ZM353.109 181.727H357.973V173.77H354.773L354.691 176.195C354.582 178.523 354.055 180.367 353.109 181.727ZM375.129 184H372.281V178.879H367.348V184H364.5V171.32H367.348V176.605H372.281V171.32H375.129V184ZM383.754 184.234C381.949 184.234 380.484 183.668 379.359 182.535C378.242 181.395 377.684 179.879 377.684 177.988V177.637C377.684 176.371 377.926 175.242 378.41 174.25C378.902 173.25 379.59 172.473 380.473 171.918C381.355 171.363 382.34 171.086 383.426 171.086C385.152 171.086 386.484 171.637 387.422 172.738C388.367 173.84 388.84 175.398 388.84 177.414V178.562H380.555C380.641 179.609 380.988 180.438 381.598 181.047C382.215 181.656 382.988 181.961 383.918 181.961C385.223 181.961 386.285 181.434 387.105 180.379L388.641 181.844C388.133 182.602 387.453 183.191 386.602 183.613C385.758 184.027 384.809 184.234 383.754 184.234ZM383.414 173.371C382.633 173.371 382 173.645 381.516 174.191C381.039 174.738 380.734 175.5 380.602 176.477H386.027V176.266C385.965 175.312 385.711 174.594 385.266 174.109C384.82 173.617 384.203 173.371 383.414 173.371ZM398.977 171.32H401.812V184H398.977V175.539L394.008 184H391.172V171.32H394.008V179.781L398.977 171.32ZM400.312 166.457C400.312 167.441 399.969 168.238 399.281 168.848C398.594 169.457 397.676 169.762 396.527 169.762C395.379 169.762 394.461 169.457 393.773 168.848C393.086 168.238 392.742 167.441 392.742 166.457H394.875C394.875 166.973 395.02 167.375 395.309 167.664C395.605 167.945 396.012 168.086 396.527 168.086C397.043 168.086 397.445 167.945 397.734 167.664C398.023 167.375 398.168 166.973 398.168 166.457H400.312Z" fill="#000D1A"/>
<line x1="1" y1="154.935" x2="1177" y2="154.935" stroke="#B3B6BA" stroke-dasharray="8 8"/>
<path d="M1 155.435C1 155.435 88.5271 155.435 115.202 155.435C141.877 155.435 160.216 208.451 186.891 208.451C213.566 208.451 266.082 208.451 266.082 208.451" stroke="#27AE60" stroke-width="2" stroke-linecap="round" stroke-linejoin="round"/>
<path d="M1177 155.435H1057.71H829.983" stroke="#27AE60" stroke-width="2" stroke-linecap="round" stroke-linejoin="round"/>
<path d="M266.082 208.451C266.082 208.451 598.426 208.451 625.147 208.451C651.869 208.451 670.239 155.435 696.961 155.435C723.682 155.435 804.68 155.435 804.68 155.435" stroke="#C84F4F" stroke-width="2" stroke-linecap="round" stroke-linejoin="round"/>
<circle cx="265.929" cy="208.326" r="27.3258" fill="white" stroke="#C84F4F" stroke-width="2"/>
<path d="M257.597 213.134L265.928 219.187M265.928 219.187L274.259 213.134M265.928 219.187V198" stroke="#C84F4F" stroke-width="2" stroke-linecap="round" stroke-linejoin="round"/>
<circle cx="829.114" cy="154.674" r="27.3258" transform="rotate(-180 829.114 154.674)" fill="white" stroke="#27AE60" stroke-width="2"/>
<path d="M837.445 149.867L829.114 143.813M829.114 143.813L820.783 149.867M829.114 143.813V165" stroke="#27AE60" stroke-width="2" stroke-linecap="round" stroke-linejoin="round"/>
<path d="M286.236 15H284.783V5.36719L281.869 6.4375V5.125L286.01 3.57031H286.236V15ZM299.455 13.0859L302.33 6.54688H304.135V15H302.689V8.85156L299.955 15H298.955L296.166 8.71875V15H294.721V6.54688H296.596L299.455 13.0859ZM311.682 15C311.598 14.8333 311.531 14.5365 311.479 14.1094C310.807 14.8073 310.005 15.1562 309.072 15.1562C308.239 15.1562 307.554 14.9219 307.018 14.4531C306.486 13.9792 306.221 13.3802 306.221 12.6562C306.221 11.776 306.554 11.0938 307.221 10.6094C307.893 10.1198 308.835 9.875 310.049 9.875H311.455V9.21094C311.455 8.70573 311.304 8.30469 311.002 8.00781C310.7 7.70573 310.255 7.55469 309.666 7.55469C309.15 7.55469 308.718 7.6849 308.369 7.94531C308.02 8.20573 307.846 8.52083 307.846 8.89062H306.393C306.393 8.46875 306.541 8.0625 306.838 7.67188C307.14 7.27604 307.546 6.96354 308.057 6.73438C308.572 6.50521 309.137 6.39062 309.752 6.39062C310.726 6.39062 311.489 6.63542 312.041 7.125C312.593 7.60938 312.88 8.27865 312.9 9.13281V13.0234C312.9 13.7995 312.999 14.4167 313.197 14.875V15H311.682ZM309.283 13.8984C309.736 13.8984 310.166 13.7812 310.572 13.5469C310.979 13.3125 311.273 13.0078 311.455 12.6328V10.8984H310.322C308.551 10.8984 307.666 11.4167 307.666 12.4531C307.666 12.9062 307.817 13.2604 308.119 13.5156C308.421 13.7708 308.809 13.8984 309.283 13.8984ZM322.307 10.8672C322.307 12.1536 322.012 13.1901 321.424 13.9766C320.835 14.763 320.038 15.1562 319.033 15.1562C318.007 15.1562 317.2 14.8307 316.611 14.1797V18.25H315.166V6.54688H316.486L316.557 7.48438C317.145 6.75521 317.963 6.39062 319.01 6.39062C320.025 6.39062 320.827 6.77344 321.416 7.53906C322.01 8.30469 322.307 9.36979 322.307 10.7344V10.8672ZM320.861 10.7031C320.861 9.75 320.658 8.9974 320.252 8.44531C319.846 7.89323 319.288 7.61719 318.58 7.61719C317.705 7.61719 317.049 8.00521 316.611 8.78125V12.8203C317.044 13.5911 317.705 13.9766 318.596 13.9766C319.288 13.9766 319.838 13.7031 320.244 13.1562C320.656 12.6042 320.861 11.7865 320.861 10.7031ZM329.807 7.71875H326.971V15H325.525V7.71875H322.744V6.54688H329.807V7.71875ZM336.307 15C336.223 14.8333 336.156 14.5365 336.104 14.1094C335.432 14.8073 334.63 15.1562 333.697 15.1562C332.864 15.1562 332.179 14.9219 331.643 14.4531C331.111 13.9792 330.846 13.3802 330.846 12.6562C330.846 11.776 331.179 11.0938 331.846 10.6094C332.518 10.1198 333.46 9.875 334.674 9.875H336.08V9.21094C336.08 8.70573 335.929 8.30469 335.627 8.00781C335.325 7.70573 334.88 7.55469 334.291 7.55469C333.775 7.55469 333.343 7.6849 332.994 7.94531C332.645 8.20573 332.471 8.52083 332.471 8.89062H331.018C331.018 8.46875 331.166 8.0625 331.463 7.67188C331.765 7.27604 332.171 6.96354 332.682 6.73438C333.197 6.50521 333.762 6.39062 334.377 6.39062C335.351 6.39062 336.114 6.63542 336.666 7.125C337.218 7.60938 337.505 8.27865 337.525 9.13281V13.0234C337.525 13.7995 337.624 14.4167 337.822 14.875V15H336.307ZM333.908 13.8984C334.361 13.8984 334.791 13.7812 335.197 13.5469C335.604 13.3125 335.898 13.0078 336.08 12.6328V10.8984H334.947C333.176 10.8984 332.291 11.4167 332.291 12.4531C332.291 12.9062 332.442 13.2604 332.744 13.5156C333.046 13.7708 333.434 13.8984 333.908 13.8984Z" fill="black"/>
<path d="M852.841 15H845.388V13.9609L849.325 9.58594C849.909 8.92448 850.31 8.38802 850.528 7.97656C850.752 7.5599 850.864 7.13021 850.864 6.6875C850.864 6.09375 850.685 5.60677 850.325 5.22656C849.966 4.84635 849.487 4.65625 848.888 4.65625C848.169 4.65625 847.609 4.86198 847.208 5.27344C846.812 5.67969 846.614 6.2474 846.614 6.97656H845.169C845.169 5.92969 845.505 5.08333 846.177 4.4375C846.854 3.79167 847.757 3.46875 848.888 3.46875C849.945 3.46875 850.781 3.7474 851.396 4.30469C852.01 4.85677 852.317 5.59375 852.317 6.51562C852.317 7.63542 851.604 8.96875 850.177 10.5156L847.13 13.8203H852.841V15ZM855.036 9.29688L855.614 3.625H861.442V4.96094H856.841L856.497 8.0625C857.054 7.73438 857.687 7.57031 858.396 7.57031C859.432 7.57031 860.255 7.91406 860.864 8.60156C861.474 9.28385 861.778 10.2083 861.778 11.375C861.778 12.5469 861.461 13.4714 860.825 14.1484C860.195 14.8203 859.312 15.1562 858.177 15.1562C857.172 15.1562 856.351 14.8776 855.716 14.3203C855.08 13.763 854.718 12.9922 854.63 12.0078H855.997C856.086 12.6589 856.317 13.151 856.692 13.4844C857.067 13.8125 857.562 13.9766 858.177 13.9766C858.849 13.9766 859.375 13.7474 859.755 13.2891C860.14 12.8307 860.333 12.1979 860.333 11.3906C860.333 10.6302 860.125 10.0208 859.708 9.5625C859.297 9.09896 858.747 8.86719 858.06 8.86719C857.429 8.86719 856.935 9.00521 856.575 9.28125L856.192 9.59375L855.036 9.29688ZM872.692 15C872.609 14.8333 872.541 14.5365 872.489 14.1094C871.817 14.8073 871.015 15.1562 870.083 15.1562C869.25 15.1562 868.565 14.9219 868.028 14.4531C867.497 13.9792 867.231 13.3802 867.231 12.6562C867.231 11.776 867.565 11.0938 868.231 10.6094C868.903 10.1198 869.846 9.875 871.06 9.875H872.466V9.21094C872.466 8.70573 872.315 8.30469 872.013 8.00781C871.711 7.70573 871.265 7.55469 870.677 7.55469C870.161 7.55469 869.729 7.6849 869.38 7.94531C869.031 8.20573 868.856 8.52083 868.856 8.89062H867.403C867.403 8.46875 867.552 8.0625 867.849 7.67188C868.151 7.27604 868.557 6.96354 869.067 6.73438C869.583 6.50521 870.148 6.39062 870.763 6.39062C871.737 6.39062 872.5 6.63542 873.052 7.125C873.604 7.60938 873.89 8.27865 873.911 9.13281V13.0234C873.911 13.7995 874.01 14.4167 874.208 14.875V15H872.692ZM870.294 13.8984C870.747 13.8984 871.177 13.7812 871.583 13.5469C871.989 13.3125 872.284 13.0078 872.466 12.6328V10.8984H871.333C869.562 10.8984 868.677 11.4167 868.677 12.4531C868.677 12.9062 868.828 13.2604 869.13 13.5156C869.432 13.7708 869.82 13.8984 870.294 13.8984ZM883.091 15H881.646V7.74219H877.755V15H876.302V6.54688H883.091V15ZM892.552 10.8672C892.552 12.1536 892.257 13.1901 891.669 13.9766C891.08 14.763 890.284 15.1562 889.278 15.1562C888.252 15.1562 887.445 14.8307 886.856 14.1797V18.25H885.411V6.54688H886.731L886.802 7.48438C887.39 6.75521 888.208 6.39062 889.255 6.39062C890.271 6.39062 891.073 6.77344 891.661 7.53906C892.255 8.30469 892.552 9.36979 892.552 10.7344V10.8672ZM891.106 10.7031C891.106 9.75 890.903 8.9974 890.497 8.44531C890.091 7.89323 889.534 7.61719 888.825 7.61719C887.95 7.61719 887.294 8.00521 886.856 8.78125V12.8203C887.289 13.5911 887.95 13.9766 888.841 13.9766C889.534 13.9766 890.083 13.7031 890.489 13.1562C890.901 12.6042 891.106 11.7865 891.106 10.7031ZM897.903 15.1562C896.757 15.1562 895.825 14.7812 895.106 14.0312C894.388 13.276 894.028 12.2682 894.028 11.0078V10.7422C894.028 9.90365 894.187 9.15625 894.505 8.5C894.828 7.83854 895.276 7.32292 895.849 6.95312C896.427 6.57812 897.052 6.39062 897.724 6.39062C898.823 6.39062 899.677 6.7526 900.286 7.47656C900.896 8.20052 901.2 9.23698 901.2 10.5859V11.1875H895.474C895.494 12.0208 895.737 12.6953 896.2 13.2109C896.669 13.7214 897.263 13.9766 897.981 13.9766C898.492 13.9766 898.924 13.8724 899.278 13.6641C899.632 13.4557 899.942 13.1797 900.208 12.8359L901.091 13.5234C900.382 14.612 899.32 15.1562 897.903 15.1562ZM897.724 7.57812C897.14 7.57812 896.651 7.79167 896.255 8.21875C895.859 8.64062 895.614 9.23438 895.521 10H899.755V9.89062C899.713 9.15625 899.515 8.58854 899.161 8.1875C898.807 7.78125 898.328 7.57812 897.724 7.57812ZM909.81 6.54688V15H908.356V7.74219H905.481L905.31 10.9062C905.216 12.3594 904.971 13.3984 904.575 14.0234C904.185 14.6484 903.562 14.974 902.708 15H902.13V13.7266L902.544 13.6953C903.013 13.6432 903.349 13.3724 903.552 12.8828C903.755 12.3932 903.885 11.487 903.942 10.1641L904.099 6.54688H909.81ZM918.591 6.54688V15H917.138V11.7109H914.958L912.966 15H911.403L913.528 11.4922C912.987 11.2943 912.57 10.9896 912.278 10.5781C911.992 10.1615 911.849 9.67708 911.849 9.125C911.849 8.35417 912.138 7.73438 912.716 7.26562C913.294 6.79167 914.067 6.55208 915.036 6.54688H918.591ZM913.302 9.14062C913.302 9.55208 913.442 9.88542 913.724 10.1406C914.005 10.3906 914.377 10.5182 914.841 10.5234H917.138V7.71875H915.06C914.523 7.71875 914.096 7.85156 913.778 8.11719C913.461 8.3776 913.302 8.71875 913.302 9.14062Z" fill="black"/>
<path d="M284.643 39.6758H280.83V38.4961H284.643V39.6758ZM286.572 38.2148L287.15 32.543H292.979V33.8789H288.377L288.033 36.9805C288.59 36.6523 289.223 36.4883 289.932 36.4883C290.968 36.4883 291.791 36.832 292.4 37.5195C293.01 38.2018 293.314 39.1263 293.314 40.293C293.314 41.4648 292.997 42.3893 292.361 43.0664C291.731 43.7383 290.848 44.0742 289.713 44.0742C288.708 44.0742 287.887 43.7956 287.252 43.2383C286.617 42.681 286.255 41.9102 286.166 40.9258H287.533C287.622 41.5768 287.854 42.069 288.229 42.4023C288.604 42.7305 289.098 42.8945 289.713 42.8945C290.385 42.8945 290.911 42.6654 291.291 42.207C291.676 41.7487 291.869 41.1159 291.869 40.3086C291.869 39.5482 291.661 38.9388 291.244 38.4805C290.833 38.0169 290.283 37.7852 289.596 37.7852C288.965 37.7852 288.471 37.9232 288.111 38.1992L287.729 38.5117L286.572 38.2148ZM305.994 39.0664C305.994 40.7591 305.705 42.0169 305.127 42.8398C304.549 43.6628 303.645 44.0742 302.416 44.0742C301.202 44.0742 300.304 43.6732 299.721 42.8711C299.137 42.0638 298.835 40.8607 298.814 39.2617V37.332C298.814 35.6602 299.104 34.418 299.682 33.6055C300.26 32.793 301.166 32.3867 302.4 32.3867C303.624 32.3867 304.525 32.7799 305.104 33.5664C305.682 34.3477 305.979 35.556 305.994 37.1914V39.0664ZM304.549 37.0898C304.549 35.8659 304.377 34.9753 304.033 34.418C303.689 33.8555 303.145 33.5742 302.4 33.5742C301.661 33.5742 301.122 33.8529 300.783 34.4102C300.445 34.9674 300.27 35.8242 300.26 36.9805V39.293C300.26 40.5221 300.437 41.431 300.791 42.0195C301.15 42.6029 301.692 42.8945 302.416 42.8945C303.13 42.8945 303.658 42.6185 304.002 42.0664C304.351 41.5143 304.533 40.6445 304.549 39.457V37.0898ZM314.979 39.0664C314.979 40.7591 314.689 42.0169 314.111 42.8398C313.533 43.6628 312.63 44.0742 311.4 44.0742C310.187 44.0742 309.288 43.6732 308.705 42.8711C308.122 42.0638 307.82 40.8607 307.799 39.2617V37.332C307.799 35.6602 308.088 34.418 308.666 33.6055C309.244 32.793 310.15 32.3867 311.385 32.3867C312.609 32.3867 313.51 32.7799 314.088 33.5664C314.666 34.3477 314.963 35.556 314.979 37.1914V39.0664ZM313.533 37.0898C313.533 35.8659 313.361 34.9753 313.018 34.418C312.674 33.8555 312.13 33.5742 311.385 33.5742C310.645 33.5742 310.106 33.8529 309.768 34.4102C309.429 34.9674 309.255 35.8242 309.244 36.9805V39.293C309.244 40.5221 309.421 41.431 309.775 42.0195C310.135 42.6029 310.676 42.8945 311.4 42.8945C312.114 42.8945 312.643 42.6185 312.986 42.0664C313.335 41.5143 313.518 40.6445 313.533 39.457V37.0898ZM323.963 39.0664C323.963 40.7591 323.674 42.0169 323.096 42.8398C322.518 43.6628 321.614 44.0742 320.385 44.0742C319.171 44.0742 318.273 43.6732 317.689 42.8711C317.106 42.0638 316.804 40.8607 316.783 39.2617V37.332C316.783 35.6602 317.072 34.418 317.65 33.6055C318.229 32.793 319.135 32.3867 320.369 32.3867C321.593 32.3867 322.494 32.7799 323.072 33.5664C323.65 34.3477 323.947 35.556 323.963 37.1914V39.0664ZM322.518 37.0898C322.518 35.8659 322.346 34.9753 322.002 34.418C321.658 33.8555 321.114 33.5742 320.369 33.5742C319.63 33.5742 319.09 33.8529 318.752 34.4102C318.413 34.9674 318.239 35.8242 318.229 36.9805V39.293C318.229 40.5221 318.406 41.431 318.76 42.0195C319.119 42.6029 319.661 42.8945 320.385 42.8945C321.098 42.8945 321.627 42.6185 321.971 42.0664C322.32 41.5143 322.502 40.6445 322.518 39.457V37.0898ZM329.11 32.494H337.302V33.742H329.11V32.494ZM333.926 43.918H332.486V36.238H329.11V34.99H337.302V36.238H333.926V43.918Z" fill="#80868C"/>
<path d="M849.677 37.8164H852.849V39.1836H849.677V42.7773H848.224V39.1836H845.052V37.8164H848.224V34.4961H849.677V37.8164ZM855.13 38.2148L855.708 32.543H861.536V33.8789H856.935L856.591 36.9805C857.148 36.6523 857.781 36.4883 858.489 36.4883C859.526 36.4883 860.349 36.832 860.958 37.5195C861.567 38.2018 861.872 39.1263 861.872 40.293C861.872 41.4648 861.554 42.3893 860.919 43.0664C860.289 43.7383 859.406 44.0742 858.271 44.0742C857.265 44.0742 856.445 43.7956 855.81 43.2383C855.174 42.681 854.812 41.9102 854.724 40.9258H856.091C856.179 41.5768 856.411 42.069 856.786 42.4023C857.161 42.7305 857.656 42.8945 858.271 42.8945C858.942 42.8945 859.468 42.6654 859.849 42.207C860.234 41.7487 860.427 41.1159 860.427 40.3086C860.427 39.5482 860.218 38.9388 859.802 38.4805C859.39 38.0169 858.841 37.7852 858.153 37.7852C857.523 37.7852 857.028 37.9232 856.669 38.1992L856.286 38.5117L855.13 38.2148ZM874.552 39.0664C874.552 40.7591 874.263 42.0169 873.685 42.8398C873.106 43.6628 872.203 44.0742 870.974 44.0742C869.76 44.0742 868.862 43.6732 868.278 42.8711C867.695 42.0638 867.393 40.8607 867.372 39.2617V37.332C867.372 35.6602 867.661 34.418 868.239 33.6055C868.817 32.793 869.724 32.3867 870.958 32.3867C872.182 32.3867 873.083 32.7799 873.661 33.5664C874.239 34.3477 874.536 35.556 874.552 37.1914V39.0664ZM873.106 37.0898C873.106 35.8659 872.935 34.9753 872.591 34.418C872.247 33.8555 871.703 33.5742 870.958 33.5742C870.218 33.5742 869.679 33.8529 869.341 34.4102C869.002 34.9674 868.828 35.8242 868.817 36.9805V39.293C868.817 40.5221 868.994 41.431 869.349 42.0195C869.708 42.6029 870.25 42.8945 870.974 42.8945C871.687 42.8945 872.216 42.6185 872.56 42.0664C872.909 41.5143 873.091 40.6445 873.106 39.457V37.0898ZM883.536 39.0664C883.536 40.7591 883.247 42.0169 882.669 42.8398C882.091 43.6628 881.187 44.0742 879.958 44.0742C878.744 44.0742 877.846 43.6732 877.263 42.8711C876.679 42.0638 876.377 40.8607 876.356 39.2617V37.332C876.356 35.6602 876.646 34.418 877.224 33.6055C877.802 32.793 878.708 32.3867 879.942 32.3867C881.166 32.3867 882.067 32.7799 882.646 33.5664C883.224 34.3477 883.521 35.556 883.536 37.1914V39.0664ZM882.091 37.0898C882.091 35.8659 881.919 34.9753 881.575 34.418C881.231 33.8555 880.687 33.5742 879.942 33.5742C879.203 33.5742 878.664 33.8529 878.325 34.4102C877.987 34.9674 877.812 35.8242 877.802 36.9805V39.293C877.802 40.5221 877.979 41.431 878.333 42.0195C878.692 42.6029 879.234 42.8945 879.958 42.8945C880.672 42.8945 881.2 42.6185 881.544 42.0664C881.893 41.5143 882.075 40.6445 882.091 39.457V37.0898ZM892.521 39.0664C892.521 40.7591 892.231 42.0169 891.653 42.8398C891.075 43.6628 890.172 44.0742 888.942 44.0742C887.729 44.0742 886.83 43.6732 886.247 42.8711C885.664 42.0638 885.362 40.8607 885.341 39.2617V37.332C885.341 35.6602 885.63 34.418 886.208 33.6055C886.786 32.793 887.692 32.3867 888.927 32.3867C890.151 32.3867 891.052 32.7799 891.63 33.5664C892.208 34.3477 892.505 35.556 892.521 37.1914V39.0664ZM891.075 37.0898C891.075 35.8659 890.903 34.9753 890.56 34.418C890.216 33.8555 889.672 33.5742 888.927 33.5742C888.187 33.5742 887.648 33.8529 887.31 34.4102C886.971 34.9674 886.797 35.8242 886.786 36.9805V39.293C886.786 40.5221 886.963 41.431 887.317 42.0195C887.677 42.6029 888.218 42.8945 888.942 42.8945C889.656 42.8945 890.185 42.6185 890.528 42.0664C890.877 41.5143 891.06 40.6445 891.075 39.457V37.0898ZM897.668 32.494H905.86V33.742H897.668V32.494ZM902.484 43.918H901.044V36.238H897.668V34.99H905.86V36.238H902.484V43.918Z" fill="#80868C"/>
</svg>
