<svg width="48" height="48" viewBox="0 0 48 48" fill="none" xmlns="http://www.w3.org/2000/svg">
<circle cx="24" cy="24" r="24" fill="white"/>
<path d="M30.7498 21.75C30.7498 21.4516 30.6313 21.1654 30.4203 20.9545C30.2093 20.7435 29.9232 20.625 29.6248 20.625H16.586L19.1735 18.0487C19.3854 17.8369 19.5044 17.5496 19.5044 17.25C19.5044 16.9504 19.3854 16.6631 19.1735 16.4512C18.9617 16.2394 18.6744 16.1204 18.3748 16.1204C18.0752 16.1204 17.7879 16.2394 17.576 16.4512L13.076 20.9512C12.9199 21.1094 12.8142 21.3103 12.7721 21.5285C12.7301 21.7468 12.7536 21.9726 12.8398 22.1775C12.9242 22.3829 13.0675 22.5588 13.2517 22.6829C13.4359 22.807 13.6527 22.8739 13.8748 22.875H29.6248C29.9232 22.875 30.2093 22.7564 30.4203 22.5455C30.6313 22.3345 30.7498 22.0483 30.7498 21.75ZM35.1598 25.8225C35.0754 25.617 34.9321 25.4411 34.7479 25.317C34.5637 25.1929 34.3469 25.1261 34.1248 25.125H18.3748C18.0764 25.125 17.7903 25.2435 17.5793 25.4545C17.3683 25.6654 17.2498 25.9516 17.2498 26.25C17.2498 26.5483 17.3683 26.8345 17.5793 27.0455C17.7903 27.2564 18.0764 27.375 18.3748 27.375H31.4135L28.826 29.9512C28.7206 30.0558 28.6369 30.1802 28.5798 30.3173C28.5227 30.4544 28.4933 30.6014 28.4933 30.75C28.4933 30.8985 28.5227 31.0455 28.5798 31.1826C28.6369 31.3197 28.7206 31.4441 28.826 31.5487C28.9306 31.6542 29.055 31.7379 29.1921 31.795C29.3292 31.8521 29.4763 31.8815 29.6248 31.8815C29.7733 31.8815 29.9203 31.8521 30.0574 31.795C30.1945 31.7379 30.319 31.6542 30.4235 31.5487L34.9235 27.0487C35.0796 26.8905 35.1854 26.6896 35.2274 26.4714C35.2695 26.2531 35.2459 26.0273 35.1598 25.8225Z" fill="#141414"/>
</svg>
