<svg width="32" height="32" viewBox="0 0 32 32" fill="none" xmlns="http://www.w3.org/2000/svg">
<path d="M6.66699 16.3333H5.33366V27C5.33366 27.7072 5.61461 28.3855 6.11471 28.8856C6.6148 29.3857 7.29308 29.6667 8.00033 29.6667H14.667V16.3333H6.66699ZM24.0003 16.3333H17.3337V29.6667H24.0003C24.7076 29.6667 25.3858 29.3857 25.8859 28.8856C26.386 28.3855 26.667 27.7072 26.667 27V16.3333H24.0003ZM25.055 9.66667C25.2505 9.01838 25.3445 8.34372 25.3337 7.66667C25.3337 5.09333 23.2403 3 20.667 3C18.5043 3 17.0603 4.976 16.1283 7.11333C15.2097 5.09333 13.6923 3 11.3337 3C8.76033 3 6.66699 5.09333 6.66699 7.66667C6.66699 8.46133 6.77233 9.11867 6.94566 9.66667H2.66699V15H14.667V12.3333H17.3337V15H29.3337V9.66667H25.055ZM9.33366 7.66667C9.33366 6.564 10.231 5.66667 11.3337 5.66667C12.5177 5.66667 13.619 7.7 14.2643 9.66667H10.667C10.1683 9.66667 9.33366 9.66667 9.33366 7.66667ZM20.667 5.66667C21.7697 5.66667 22.667 6.564 22.667 7.66667C22.667 9.66667 21.8323 9.66667 21.3337 9.66667H18.031C18.711 7.56533 19.699 5.66667 20.667 5.66667Z" fill="#FF974D"/>
</svg>
