<svg width="162" height="48" viewBox="0 0 162 48" fill="none" xmlns="http://www.w3.org/2000/svg">
<path d="M156 48H6C2.64 48 0 45.36 0 42V6C0 2.64 2.64 0 6 0H156C159.36 0 162 2.64 162 6V42C162 45.36 159.36 48 156 48Z" fill="black"/>
<path d="M156 0.96C158.76 0.96 161.04 3.24 161.04 6V42C161.04 44.76 158.76 47.04 156 47.04H6C3.24 47.04 0.96 44.76 0.96 42V6C0.96 3.24 3.24 0.96 6 0.96H156ZM156 0H6C2.64 0 0 2.76 0 6V42C0 45.36 2.64 48 6 48H156C159.36 48 162 45.36 162 42V6C162 2.76 159.36 0 156 0Z" fill="black"/>
<path d="M56.8799 12.24C56.8799 13.2 56.6399 14.04 56.0399 14.64C55.3199 15.36 54.4799 15.72 53.3999 15.72C52.3199 15.72 51.4799 15.36 50.7599 14.64C50.0399 13.92 49.6799 13.08 49.6799 12C49.6799 10.92 50.0399 10.08 50.7599 9.36003C51.4799 8.64003 52.3199 8.28003 53.3999 8.28003C53.8799 8.28003 54.3599 8.40003 54.8399 8.64003C55.3199 8.88003 55.6799 9.12003 55.9199 9.48003L55.3199 10.08C54.8399 9.48003 54.2399 9.24003 53.3999 9.24003C52.6799 9.24003 51.9599 9.48003 51.4799 10.08C50.8799 10.56 50.6399 11.28 50.6399 12.12C50.6399 12.96 50.8799 13.68 51.4799 14.16C52.0799 14.64 52.6799 15 53.3999 15C54.2399 15 54.8399 14.76 55.4399 14.16C55.7999 13.8 56.0399 13.32 56.0399 12.72H53.3999V11.76H56.8799V12.24ZM62.3999 9.24003H59.1599V11.52H62.1599V12.36H59.1599V14.64H62.3999V15.6H58.1999V8.40003H62.3999V9.24003ZM66.3599 15.6H65.3999V9.24003H63.3599V8.40003H68.3999V9.24003H66.3599V15.6ZM71.8799 15.6V8.40003H72.8399V15.6H71.8799ZM76.9199 15.6H75.9599V9.24003H73.9199V8.40003H78.8399V9.24003H76.7999V15.6H76.9199ZM88.3199 14.64C87.5999 15.36 86.7599 15.72 85.6799 15.72C84.5999 15.72 83.7599 15.36 83.0399 14.64C82.3199 13.92 81.9599 13.08 81.9599 12C81.9599 10.92 82.3199 10.08 83.0399 9.36003C83.7599 8.64003 84.5999 8.28003 85.6799 8.28003C86.7599 8.28003 87.5999 8.64003 88.3199 9.36003C89.0399 10.08 89.3999 10.92 89.3999 12C89.3999 13.08 89.0399 13.92 88.3199 14.64ZM83.7599 14.04C84.2399 14.52 84.9599 14.88 85.6799 14.88C86.3999 14.88 87.1199 14.64 87.5999 14.04C88.0799 13.56 88.4399 12.84 88.4399 12C88.4399 11.16 88.1999 10.44 87.5999 9.96003C87.1199 9.48003 86.3999 9.12003 85.6799 9.12003C84.9599 9.12003 84.2399 9.36003 83.7599 9.96003C83.2799 10.44 82.9199 11.16 82.9199 12C82.9199 12.84 83.1599 13.56 83.7599 14.04ZM90.7199 15.6V8.40003H91.7999L95.2799 14.04V8.40003H96.2399V15.6H95.2799L91.5599 9.72003V15.6H90.7199Z" fill="white"/>
<path d="M81.7196 26.16C78.8396 26.16 76.5596 28.32 76.5596 31.32C76.5596 34.2 78.8396 36.48 81.7196 36.48C84.5996 36.48 86.8796 34.32 86.8796 31.32C86.8796 28.2 84.5996 26.16 81.7196 26.16ZM81.7196 34.32C80.1596 34.32 78.8396 33 78.8396 31.2C78.8396 29.4 80.1596 28.08 81.7196 28.08C83.2796 28.08 84.5996 29.28 84.5996 31.2C84.5996 33 83.2796 34.32 81.7196 34.32ZM70.5596 26.16C67.6796 26.16 65.3996 28.32 65.3996 31.32C65.3996 34.2 67.6796 36.48 70.5596 36.48C73.4396 36.48 75.7196 34.32 75.7196 31.32C75.7196 28.2 73.4396 26.16 70.5596 26.16ZM70.5596 34.32C68.9996 34.32 67.6796 33 67.6796 31.2C67.6796 29.4 68.9996 28.08 70.5596 28.08C72.1196 28.08 73.4396 29.28 73.4396 31.2C73.4396 33 72.1196 34.32 70.5596 34.32ZM57.2396 27.72V29.88H62.3996C62.2796 31.08 61.7996 32.04 61.1996 32.64C60.4796 33.36 59.2796 34.2 57.2396 34.2C53.9996 34.2 51.5996 31.68 51.5996 28.44C51.5996 25.2 54.1196 22.68 57.2396 22.68C58.9196 22.68 60.2396 23.4 61.1996 24.24L62.7596 22.68C61.4396 21.48 59.7596 20.52 57.3596 20.52C53.0396 20.52 49.3196 24.12 49.3196 28.44C49.3196 32.76 53.0396 36.36 57.3596 36.36C59.7596 36.36 61.4396 35.64 62.8796 34.08C64.3196 32.64 64.7996 30.6 64.7996 29.04C64.7996 28.56 64.7996 28.08 64.6796 27.72H57.2396ZM111.72 29.4C111.24 28.2 110.04 26.16 107.4 26.16C104.76 26.16 102.6 28.2 102.6 31.32C102.6 34.2 104.76 36.48 107.64 36.48C109.92 36.48 111.36 35.04 111.84 34.2L110.16 33C109.56 33.84 108.84 34.44 107.64 34.44C106.44 34.44 105.72 33.96 105.12 32.88L111.96 30L111.72 29.4ZM104.76 31.08C104.76 29.16 106.32 28.08 107.4 28.08C108.24 28.08 109.08 28.56 109.32 29.16L104.76 31.08ZM99.1196 36H101.4V21H99.1196V36ZM95.5196 27.24C94.9196 26.64 93.9596 26.04 92.7596 26.04C90.2396 26.04 87.8396 28.32 87.8396 31.2C87.8396 34.08 90.1196 36.24 92.7596 36.24C93.9596 36.24 94.9196 35.64 95.3996 35.04H95.5196V35.76C95.5196 37.68 94.4396 38.76 92.7596 38.76C91.4396 38.76 90.4796 37.8 90.2396 36.96L88.3196 37.8C88.9196 39.12 90.3596 40.8 92.8796 40.8C95.5196 40.8 97.6796 39.24 97.6796 35.52V26.4H95.5196V27.24ZM92.8796 34.32C91.3196 34.32 89.9996 33 89.9996 31.2C89.9996 29.4 91.3196 28.08 92.8796 28.08C94.4396 28.08 95.6396 29.4 95.6396 31.2C95.6396 33 94.4396 34.32 92.8796 34.32ZM122.16 21H116.76V36H119.04V30.36H122.16C124.68 30.36 127.08 28.56 127.08 25.68C127.08 22.8 124.68 21 122.16 21ZM122.28 28.2H119.04V23.04H122.28C123.96 23.04 124.92 24.48 124.92 25.56C124.8 26.88 123.84 28.2 122.28 28.2ZM136.08 26.04C134.4 26.04 132.72 26.76 132.12 28.32L134.16 29.16C134.64 28.32 135.36 28.08 136.2 28.08C137.4 28.08 138.48 28.8 138.6 30V30.12C138.24 29.88 137.28 29.52 136.32 29.52C134.16 29.52 132 30.72 132 32.88C132 34.92 133.8 36.24 135.72 36.24C137.28 36.24 138 35.52 138.6 34.8H138.72V36H140.88V30.24C140.64 27.6 138.6 26.04 136.08 26.04ZM135.84 34.32C135.12 34.32 134.04 33.96 134.04 33C134.04 31.8 135.36 31.44 136.44 31.44C137.4 31.44 137.88 31.68 138.48 31.92C138.24 33.36 137.04 34.32 135.84 34.32ZM148.44 26.4L145.92 32.88H145.8L143.16 26.4H140.76L144.72 35.52L142.44 40.56H144.72L150.84 26.4H148.44ZM128.28 36H130.56V21H128.28V36Z" fill="white"/>
<path d="M12.4805 9C12.1205 9.36 12.0005 9.96 12.0005 10.68V37.2C12.0005 37.92 12.2405 38.52 12.6005 38.88L12.7205 39L27.6005 24.12V23.88L12.4805 9Z" fill="url(#paint0_linear)"/>
<path d="M32.4002 29.16L27.4802 24.24V23.88L32.4002 18.96L32.5202 19.08L38.4002 22.44C40.0802 23.4 40.0802 24.96 38.4002 25.92L32.4002 29.16Z" fill="url(#paint1_linear)"/>
<path d="M32.5207 29.04L27.4807 24L12.4807 39C13.0807 39.6 13.9207 39.6 15.0007 39.12L32.5207 29.04Z" fill="url(#paint2_linear)"/>
<path d="M32.5207 18.9601L15.0007 9.00006C13.9207 8.40006 13.0807 8.52006 12.4807 9.12006L27.4807 24.0001L32.5207 18.9601Z" fill="url(#paint3_linear)"/>
<path opacity="0.2" d="M32.4007 28.92L15.0007 38.76C14.0407 39.36 13.2007 39.24 12.6007 38.76L12.4807 38.88L12.6007 39C13.2007 39.48 14.0407 39.6 15.0007 39L32.4007 28.92Z" fill="black"/>
<path opacity="0.2" d="M12.4805 38.76C12.1205 38.4 12.0005 37.8 12.0005 37.08V37.2C12.0005 37.92 12.2405 38.52 12.6005 38.88V38.76H12.4805ZM38.4005 25.56L32.4005 28.92L32.5205 29.04L38.4005 25.68C39.2405 25.2 39.6005 24.6 39.6005 24C39.6005 24.6 39.1205 25.08 38.4005 25.56Z" fill="black"/>
<path opacity="0.2" d="M15.0007 9.12003L38.4007 22.44C39.1207 22.92 39.6007 23.4 39.6007 24C39.6007 23.4 39.2407 22.8 38.4007 22.32L15.0007 9.00003C13.3207 8.04003 12.0007 8.76003 12.0007 10.68V10.8C12.0007 9.00003 13.3207 8.16003 15.0007 9.12003Z" fill="white"/>
<defs>
<linearGradient id="paint0_linear" x1="26.1605" y1="10.452" x2="6.02089" y2="30.5904" gradientUnits="userSpaceOnUse">
<stop stop-color="#00A0FF"/>
<stop offset="0.007" stop-color="#00A1FF"/>
<stop offset="0.26" stop-color="#00BEFF"/>
<stop offset="0.512" stop-color="#00D2FF"/>
<stop offset="0.76" stop-color="#00DFFF"/>
<stop offset="1" stop-color="#00E3FF"/>
</linearGradient>
<linearGradient id="paint1_linear" x1="40.601" y1="24.0012" x2="11.5646" y2="24.0012" gradientUnits="userSpaceOnUse">
<stop stop-color="#FFE000"/>
<stop offset="0.409" stop-color="#FFBD00"/>
<stop offset="0.775" stop-color="#FFA500"/>
<stop offset="1" stop-color="#FF9C00"/>
</linearGradient>
<linearGradient id="paint2_linear" x1="29.7931" y1="26.7552" x2="2.48351" y2="54.0648" gradientUnits="userSpaceOnUse">
<stop stop-color="#FF3A44"/>
<stop offset="1" stop-color="#C31162"/>
</linearGradient>
<linearGradient id="paint3_linear" x1="8.75711" y1="0.211262" x2="20.9527" y2="12.4069" gradientUnits="userSpaceOnUse">
<stop stop-color="#32A071"/>
<stop offset="0.069" stop-color="#2DA771"/>
<stop offset="0.476" stop-color="#15CF74"/>
<stop offset="0.801" stop-color="#06E775"/>
<stop offset="1" stop-color="#00F076"/>
</linearGradient>
</defs>
</svg>
