<svg width="48" height="48" viewBox="0 0 48 48" fill="none" xmlns="http://www.w3.org/2000/svg">
<rect x="0.5" y="0.5" width="47" height="47" rx="23.5" stroke="white"/>
<path d="M27.75 14H20.25C16.7988 14 14 16.7774 14 20.2023V27.6451C14 31.07 16.7988 33.8474 20.25 33.8474H27.75C31.2013 33.8474 34 31.07 34 27.6451V20.2023C34 16.7774 31.2013 14 27.75 14ZM32.125 27.6451C32.125 30.0392 30.1625 31.9867 27.75 31.9867H20.25C17.8375 31.9867 15.875 30.0392 15.875 27.6451V20.2023C15.875 17.8082 17.8375 15.8607 20.25 15.8607H27.75C30.1625 15.8607 32.125 17.8082 32.125 20.2023V27.6451Z" fill="white"/>
<path d="M24 18.9619C21.2387 18.9619 19 21.1836 19 23.9238C19 26.6639 21.2387 28.8856 24 28.8856C26.7613 28.8856 29 26.6639 29 23.9238C29 21.1836 26.7613 18.9619 24 18.9619ZM24 27.0249C22.2775 27.0249 20.875 25.6331 20.875 23.9238C20.875 22.2132 22.2775 20.8226 24 20.8226C25.7225 20.8226 27.125 22.2132 27.125 23.9238C27.125 25.6331 25.7225 27.0249 24 27.0249Z" fill="white"/>
<path d="M29.3733 19.2535C29.7413 19.2535 30.0396 18.9575 30.0396 18.5923C30.0396 18.2272 29.7413 17.9312 29.3733 17.9312C29.0053 17.9312 28.707 18.2272 28.707 18.5923C28.707 18.9575 29.0053 19.2535 29.3733 19.2535Z" fill="white"/>
</svg>
