<svg width="40" height="40" viewBox="0 0 40 40" fill="none" xmlns="http://www.w3.org/2000/svg">
<g clip-path="url(#clip0)">
<path fill-rule="evenodd" clip-rule="evenodd" d="M33.7244 14.1894L33.7159 5.83133L25.515 5.84205L19.7884 0L14.0725 5.76704L5.78664 5.77561L5.79725 14.1287L0 19.9786L5.88986 25.8178L5.89764 34.1708L14.0986 34.1622L19.8252 40L25.5383 34.1501L33.8241 34.1437L33.8156 25.8756L39.6129 20.0257L33.7244 14.1894ZM5.05704 21.7288L3.72862 20.3936C3.67929 20.3445 3.6401 20.2861 3.61336 20.2216C3.58661 20.157 3.57284 20.0878 3.57284 20.0178C3.57284 19.9479 3.58661 19.8787 3.61336 19.8142C3.6401 19.7497 3.67929 19.6912 3.72862 19.6421L5.13692 18.2205C5.17682 18.1834 5.22756 18.1603 5.28153 18.1547C5.3355 18.1491 5.3898 18.1614 5.4363 18.1896C5.4828 18.2179 5.519 18.2606 5.53946 18.3114C5.55992 18.3621 5.56355 18.4182 5.5498 18.4713L5.63393 21.4787C5.63393 21.8138 5.30306 21.8959 5.05774 21.7288H5.05704ZM28.8236 8.26231H30.7325C30.9806 8.26231 31.3087 8.42661 31.2274 8.76236V10.7626C31.2274 11.0119 30.8979 11.099 30.8117 10.9283L28.6547 8.7595C28.6061 8.72573 28.5697 8.67688 28.551 8.62035C28.5323 8.56382 28.5324 8.50269 28.5511 8.44619C28.5699 8.38969 28.6064 8.3409 28.655 8.30721C28.7037 8.27352 28.7619 8.25675 28.8208 8.25945L28.8236 8.26231ZM18.2104 5.18055L19.5381 3.84326C19.7863 3.67681 20.1164 3.59395 20.2805 3.84326L21.6888 5.17841C21.7269 5.22359 21.751 5.27906 21.7582 5.33797C21.7655 5.39687 21.7554 5.4566 21.7294 5.50981C21.7034 5.56301 21.6625 5.60735 21.6118 5.63732C21.5611 5.66729 21.5028 5.6816 21.4442 5.67846L18.4628 5.68275C18.4027 5.68987 18.3419 5.67822 18.2886 5.64939C18.2352 5.62055 18.1919 5.57591 18.1644 5.52145C18.1369 5.46699 18.1266 5.40535 18.1348 5.34479C18.1431 5.28423 18.1694 5.22765 18.2104 5.18269V5.18055ZM8.10908 10.7033V8.86667C8.19109 8.5302 8.35934 8.2816 8.69021 8.2816L10.5941 8.27731C10.6544 8.2697 10.7154 8.28107 10.769 8.30986C10.8227 8.33865 10.8662 8.38346 10.8936 8.43816C10.9211 8.49287 10.9312 8.55481 10.9225 8.61552C10.9138 8.67623 10.8868 8.73276 10.8451 8.77737L8.69021 10.9483C8.63929 10.9869 8.57924 11.0114 8.51604 11.0193C8.45285 11.0271 8.38872 11.0181 8.33005 10.9931C8.27139 10.9681 8.22024 10.9279 8.18171 10.8767C8.14318 10.8255 8.11863 10.765 8.11049 10.7011L8.10908 10.7033ZM10.7829 31.8284H8.87403C8.80835 31.831 8.74284 31.8199 8.68162 31.7957C8.62041 31.7715 8.56482 31.7347 8.51834 31.6878C8.47186 31.6408 8.4355 31.5846 8.41154 31.5228C8.38759 31.4609 8.37655 31.3947 8.37914 31.3284L8.29501 29.4053C8.28834 29.3447 8.30021 29.2835 8.32903 29.23C8.35785 29.1765 8.40223 29.1332 8.45617 29.1059C8.51012 29.0787 8.57103 29.0688 8.6307 29.0776C8.69038 29.0864 8.74595 29.1135 8.7899 29.1553L11.0268 31.3262C11.1936 31.4919 11.0268 31.8263 10.7801 31.8263L10.7829 31.8284ZM21.4767 34.7373L20.1504 36.0767C20.1065 36.135 20.0499 36.1823 19.985 36.2149C19.92 36.2474 19.8485 36.2644 19.776 36.2644C19.7035 36.2644 19.632 36.2474 19.5671 36.2149C19.5022 36.1823 19.4455 36.135 19.4017 36.0767L17.9948 34.7394C17.9595 34.6994 17.9353 34.6507 17.9247 34.5981C17.9141 34.5456 17.9174 34.4912 17.9343 34.4404C17.9513 34.3896 17.9813 34.3442 18.0212 34.3089C18.0611 34.2736 18.1096 34.2496 18.1616 34.2394H21.2236C21.2839 34.2317 21.345 34.2429 21.3988 34.2716C21.4525 34.3003 21.4961 34.345 21.5238 34.3996C21.5515 34.4543 21.5618 34.5163 21.5534 34.5771C21.5449 34.6379 21.5181 34.6946 21.4767 34.7394V34.7373ZM22.9613 31.3984L16.3313 31.4048C15.8992 31.4625 15.4596 31.4089 15.0535 31.249C14.6473 31.0892 14.2878 30.8282 14.0081 30.4904L9.20065 25.6506C8.83627 25.3357 8.55469 24.9345 8.381 24.483C8.20732 24.0314 8.14692 23.5434 8.20522 23.0625L8.19886 16.461C8.19045 16.0305 8.26645 15.6026 8.42249 15.2019C8.57854 14.8013 8.81153 14.4358 9.10804 14.1265L14.1615 9.02453C14.4365 8.76183 14.7621 8.55924 15.118 8.42944C15.474 8.29965 15.8526 8.24542 16.2302 8.27017L23.025 8.26588C23.437 8.20298 23.858 8.2462 24.249 8.39157C24.6401 8.53693 24.9884 8.77971 25.2619 9.0974L30.1612 14.0215C30.4823 14.2983 30.7379 14.6444 30.9092 15.0341C31.0805 15.4239 31.1631 15.8476 31.151 16.2739L31.1595 23.4568C31.2173 23.8764 31.1548 24.304 30.9794 24.6888C30.8039 25.0736 30.5229 25.3994 30.1697 25.6277L25.5333 30.3933C25.2101 30.7482 24.8102 31.0231 24.3647 31.1965C23.9193 31.37 23.4403 31.4373 22.9649 31.3934L22.9613 31.3984ZM31.3341 31.0519C31.25 31.3026 31.086 31.6362 30.7558 31.6362L28.847 31.6405C28.7864 31.6475 28.7253 31.6355 28.6717 31.6063C28.6181 31.577 28.5747 31.5318 28.5474 31.4768C28.52 31.4218 28.51 31.3597 28.5187 31.2988C28.5274 31.2379 28.5544 31.1811 28.596 31.1362L30.7509 28.9631C30.79 28.9107 30.8439 28.8714 30.9056 28.8505C30.9672 28.8296 31.0336 28.828 31.0962 28.8459C31.1587 28.8638 31.2144 28.9004 31.256 28.9509C31.2976 29.0014 31.3231 29.0634 31.3292 29.1288L31.3341 31.0519ZM34.3105 21.6937C34.1444 21.8595 33.8156 21.698 33.8934 21.528V18.4384C33.8114 18.1041 34.2264 18.0191 34.3925 18.1848L35.7209 19.5228C35.8828 19.7707 35.967 20.105 35.7209 20.2707L34.3105 21.6937ZM28.4319 24.8856L20.0478 10.1075C19.7148 9.52319 19.2157 9.52319 18.8042 10.1075L10.6973 24.8148C10.5312 25.2342 10.6973 25.7335 11.4453 25.7335L27.7695 25.7164C28.3499 25.7164 28.6829 25.4685 28.434 24.8856H28.4319ZM26.1972 23.9647L14.2605 23.9754C14.1684 23.9877 14.0747 23.9738 13.99 23.9352C13.9053 23.8966 13.833 23.8349 13.7811 23.757C13.7293 23.6792 13.6999 23.5882 13.6964 23.4944C13.6929 23.4006 13.7154 23.3077 13.7614 23.2261L19.7191 12.5299C19.9694 12.1127 20.3808 12.1935 20.6382 12.5299L26.6892 23.2954C26.8532 23.7126 26.6072 23.9626 26.1943 23.9626L26.1972 23.9647ZM20.9606 14.3658L25.363 22.2952L25.3594 22.2924C25.5227 22.6238 25.3594 22.7053 25.0279 22.7924L16.2429 22.7981C16.179 22.7899 16.1179 22.7669 16.0643 22.7308C16.0107 22.6948 15.9661 22.6467 15.934 22.5903C15.9019 22.5339 15.8831 22.4707 15.8792 22.4058C15.8753 22.3408 15.8863 22.2759 15.9113 22.2159L20.2982 14.3658C20.333 14.3086 20.3817 14.2614 20.4396 14.2287C20.4976 14.1959 20.563 14.1787 20.6294 14.1787C20.6958 14.1787 20.7611 14.1959 20.8191 14.2287C20.8771 14.2614 20.9258 14.3086 20.9606 14.3658ZM18.8927 20.8779L23.4506 20.8715L23.4499 20.8701C23.6139 20.8701 23.6987 20.7872 23.6139 20.6193L21.2908 16.6189C21.2066 16.4525 21.1246 16.4525 20.9578 16.6189L18.7244 20.6265C18.6459 20.7929 18.7244 20.8779 18.8927 20.8779Z" fill="#000D1A"/>
</g>
<defs>
<clipPath id="clip0">
<rect width="40" height="40" fill="white"/>
</clipPath>
</defs>
</svg>
