<svg width="168" height="40" viewBox="0 0 168 40" fill="none" xmlns="http://www.w3.org/2000/svg">
<path d="M33.7244 14.1894L33.7159 5.83134L25.515 5.84205L19.7884 3.8147e-06L14.0725 5.76705L5.78664 5.77562L5.79725 14.1287L0 19.9786L5.88986 25.8178L5.89764 34.1708L14.0986 34.1622L19.8252 40L25.5383 34.1501L33.8241 34.1437L33.8156 25.8756L39.6129 20.0257L33.7244 14.1894ZM5.05704 21.7288L3.72862 20.3936C3.67929 20.3445 3.6401 20.2861 3.61336 20.2216C3.58661 20.157 3.57284 20.0878 3.57284 20.0179C3.57284 19.9479 3.58661 19.8787 3.61336 19.8142C3.6401 19.7497 3.67929 19.6912 3.72862 19.6421L5.13692 18.2205C5.17681 18.1834 5.22756 18.1603 5.28153 18.1547C5.3355 18.1491 5.3898 18.1614 5.4363 18.1896C5.4828 18.2179 5.519 18.2606 5.53946 18.3114C5.55992 18.3621 5.56355 18.4182 5.5498 18.4713L5.63393 21.4787C5.63393 21.8138 5.30306 21.8959 5.05774 21.7288H5.05704ZM28.8236 8.26231H30.7325C30.9806 8.26231 31.3087 8.42661 31.2274 8.76236V10.7626C31.2274 11.0119 30.8979 11.099 30.8117 10.9283L28.6547 8.75951C28.6061 8.72574 28.5697 8.67689 28.551 8.62036C28.5323 8.56382 28.5324 8.50269 28.5511 8.44619C28.5699 8.38969 28.6064 8.3409 28.655 8.30721C28.7037 8.27352 28.7619 8.25676 28.8208 8.25946L28.8236 8.26231ZM18.2104 5.18056L19.5381 3.84327C19.7863 3.67682 20.1164 3.59395 20.2805 3.84327L21.6888 5.17841C21.7269 5.22359 21.751 5.27907 21.7582 5.33797C21.7655 5.39687 21.7554 5.45661 21.7294 5.50981C21.7034 5.56302 21.6625 5.60735 21.6118 5.63732C21.5611 5.6673 21.5028 5.6816 21.4442 5.67846L18.4628 5.68276C18.4027 5.68988 18.3419 5.67823 18.2886 5.64939C18.2352 5.62056 18.1919 5.57591 18.1644 5.52145C18.1369 5.467 18.1266 5.40535 18.1348 5.34479C18.1431 5.28423 18.1694 5.22766 18.2104 5.18269V5.18056ZM8.10908 10.7033V8.86667C8.19109 8.5302 8.35934 8.28161 8.69021 8.28161L10.5941 8.27731C10.6544 8.2697 10.7154 8.28107 10.7691 8.30986C10.8227 8.33865 10.8662 8.38346 10.8936 8.43817C10.9211 8.49288 10.9312 8.55482 10.9225 8.61553C10.9138 8.67624 10.8868 8.73276 10.8451 8.77737L8.69021 10.9483C8.63929 10.987 8.57924 11.0114 8.51604 11.0193C8.45285 11.0271 8.38872 11.0181 8.33005 10.9931C8.27139 10.9681 8.22024 10.928 8.18171 10.8767C8.14318 10.8255 8.11863 10.765 8.11049 10.7011L8.10908 10.7033ZM10.7829 31.8284H8.87403C8.80835 31.831 8.74284 31.8199 8.68162 31.7957C8.62041 31.7715 8.56482 31.7347 8.51834 31.6878C8.47186 31.6408 8.4355 31.5846 8.41154 31.5228C8.38759 31.4609 8.37655 31.3947 8.37914 31.3284L8.29501 29.4053C8.28834 29.3447 8.30021 29.2835 8.32903 29.23C8.35785 29.1765 8.40223 29.1332 8.45617 29.1059C8.51012 29.0787 8.57103 29.0688 8.63071 29.0776C8.69038 29.0864 8.74595 29.1135 8.7899 29.1553L11.0268 31.3262C11.1936 31.492 11.0268 31.8263 10.7801 31.8263L10.7829 31.8284ZM21.4767 34.7373L20.1504 36.0767C20.1065 36.135 20.0499 36.1823 19.985 36.2149C19.92 36.2474 19.8485 36.2644 19.776 36.2644C19.7035 36.2644 19.632 36.2474 19.5671 36.2149C19.5022 36.1823 19.4455 36.135 19.4017 36.0767L17.9948 34.7394C17.9595 34.6994 17.9353 34.6507 17.9247 34.5981C17.9141 34.5456 17.9174 34.4912 17.9343 34.4404C17.9513 34.3896 17.9813 34.3442 18.0212 34.3089C18.0611 34.2736 18.1096 34.2496 18.1616 34.2394H21.2236C21.2839 34.2317 21.345 34.2429 21.3988 34.2716C21.4525 34.3003 21.4961 34.345 21.5238 34.3996C21.5515 34.4543 21.5618 34.5163 21.5534 34.5771C21.5449 34.6379 21.5181 34.6946 21.4767 34.7394V34.7373ZM22.9613 31.3984L16.3313 31.4048C15.8992 31.4625 15.4596 31.4089 15.0535 31.249C14.6473 31.0892 14.2878 30.8282 14.0081 30.4904L9.20065 25.6506C8.83627 25.3357 8.55469 24.9346 8.381 24.483C8.20732 24.0314 8.14692 23.5434 8.20522 23.0625L8.19886 16.461C8.19045 16.0305 8.26645 15.6026 8.42249 15.2019C8.57853 14.8013 8.81153 14.4358 9.10804 14.1265L14.1615 9.02454C14.4365 8.76183 14.7621 8.55925 15.118 8.42945C15.474 8.29965 15.8526 8.24543 16.2302 8.27017L23.025 8.26589C23.4369 8.20298 23.858 8.24621 24.249 8.39157C24.6401 8.53693 24.9884 8.77972 25.2619 9.09741L30.1612 14.0215C30.4823 14.2983 30.7379 14.6444 30.9092 15.0341C31.0805 15.4239 31.1631 15.8476 31.151 16.2739L31.1595 23.4568C31.2173 23.8764 31.1548 24.304 30.9794 24.6888C30.8039 25.0736 30.5229 25.3995 30.1697 25.6277L25.5333 30.3933C25.2101 30.7482 24.8102 31.0231 24.3647 31.1965C23.9193 31.37 23.4403 31.4373 22.9649 31.3934L22.9613 31.3984ZM31.3341 31.0519C31.25 31.3026 31.086 31.6362 30.7558 31.6362L28.847 31.6405C28.7864 31.6475 28.7253 31.6355 28.6717 31.6063C28.6181 31.577 28.5747 31.5318 28.5474 31.4768C28.52 31.4218 28.51 31.3597 28.5187 31.2988C28.5274 31.2379 28.5544 31.1811 28.596 31.1362L30.7509 28.9631C30.79 28.9107 30.8439 28.8714 30.9056 28.8505C30.9672 28.8296 31.0336 28.828 31.0962 28.8459C31.1587 28.8638 31.2144 28.9004 31.256 28.9509C31.2976 29.0014 31.3231 29.0634 31.3292 29.1288L31.3341 31.0519ZM34.3105 21.6938C34.1444 21.8595 33.8156 21.698 33.8934 21.528V18.4384C33.8114 18.1041 34.2264 18.0191 34.3925 18.1848L35.7209 19.5228C35.8828 19.7707 35.967 20.105 35.7209 20.2707L34.3105 21.6938Z" fill="white"/>
<path d="M28.4319 24.8856L20.0478 10.1075C19.7148 9.52319 19.2157 9.52319 18.8042 10.1075L10.6973 24.8148C10.5312 25.2342 10.6973 25.7335 11.4453 25.7335L27.7695 25.7164C28.3499 25.7164 28.6829 25.4685 28.434 24.8856H28.4319ZM26.1972 23.9647L14.2605 23.9755C14.1684 23.9877 14.0747 23.9738 13.99 23.9352C13.9053 23.8966 13.833 23.8349 13.7811 23.7571C13.7293 23.6792 13.6999 23.5882 13.6964 23.4944C13.6929 23.4006 13.7154 23.3077 13.7614 23.2261L19.7191 12.5299C19.9694 12.1127 20.3808 12.1935 20.6382 12.5299L26.6892 23.2954C26.8532 23.7126 26.6072 23.9626 26.1943 23.9626" fill="white"/>
<path d="M25.363 22.2952L20.9606 14.3658C20.9258 14.3086 20.8771 14.2614 20.8191 14.2287C20.7611 14.1959 20.6958 14.1787 20.6294 14.1787C20.563 14.1787 20.4976 14.1959 20.4396 14.2287C20.3817 14.2614 20.333 14.3086 20.2982 14.3658L15.9113 22.2159C15.8863 22.2759 15.8753 22.3409 15.8792 22.4058C15.8831 22.4707 15.9019 22.5339 15.934 22.5903C15.9661 22.6467 16.0107 22.6948 16.0643 22.7308C16.1179 22.7669 16.179 22.7899 16.2429 22.7981L25.0279 22.7924C25.3594 22.7053 25.5227 22.6238 25.3594 22.2924L25.363 22.2952ZM23.4506 20.8715L18.8927 20.8779C18.7244 20.8779 18.6459 20.7929 18.7244 20.6265L20.9578 16.6189C21.1246 16.4525 21.2066 16.4525 21.2908 16.6189L23.6139 20.6193C23.6987 20.7872 23.6139 20.8701 23.4499 20.8701" fill="white"/>
<path d="M151.817 13.57L151.824 18.4141C151.406 15.8274 149.746 13.5743 146.434 13.5765L140.463 13.5829L140.472 22.516L134.507 22.5224V21.1866H138.899V18.0955H134.505V16.8454L139.808 16.8368L139.803 13.5836L130.354 13.5922L130.358 16.8475C129.857 14.6811 128.282 13.5974 125.632 13.5965L119.084 13.6043L119.09 21.7873C115.365 23.2932 112.962 22.7975 112.876 19.8736C112.876 16.8675 115.024 16.1117 118.423 17.109L118.089 13.7708C113.945 12.9393 110.717 13.7793 108.814 17.1197C108.48 15.3702 107.484 13.6979 104.497 13.6193L97.8682 13.6258L97.8809 22.4838H91.9104V21.233L96.3022 21.2287V18.1377L91.9083 18.1434V16.8068L97.2107 16.8025L97.2029 13.6236L72.1757 13.6486L72.1821 20.3301L68.9455 13.6508L64.2187 13.6572L64.2271 22.5103L58.0128 22.5146L58.0085 21.2644L62.4045 21.258L62.4003 18.2505L58.0085 18.2548V16.919L63.2289 16.9111V13.7429L53.8635 13.7515L53.872 21.8516C50.4785 23.2754 47.741 23.0296 47.7375 19.77C47.7375 17.0111 50.3017 16.1803 53.3707 17.2604L52.9557 13.8365C47.4024 12.6714 43.589 14.8487 43.5133 20.0272C43.5175 24.3712 48.1596 27.0379 53.8755 25.3599V25.6942L67.965 25.6835L67.9586 19.4185L71.1153 25.6763H76.0019L75.9934 16.7325H79.8889L79.8974 25.6678L84.21 25.6635L84.2015 16.8054H87.7668L87.7753 25.6556L101.863 25.6449L101.852 16.7925H103.18C103.925 16.7925 104.506 17.0418 104.508 17.8791C104.426 18.8792 103.597 19.1299 102.189 18.8792L104.098 25.6435L108.571 25.637L106.662 20.6279C107.09 20.5248 107.487 20.3189 107.819 20.0278C108.152 19.7367 108.409 19.3689 108.571 18.9556C108.577 25.8042 114.463 26.6372 119.105 25.2106V25.6263H123.167L123.159 16.7739H124.485C125.474 16.7739 125.727 17.3561 125.731 17.8583C125.817 18.6934 124.824 19.1128 123.411 18.8584L125.405 25.6228L129.631 25.6185L127.804 20.6101C128.385 20.5142 128.93 20.262 129.381 19.88C129.833 19.498 130.174 19.0003 130.37 18.4391L130.376 25.6185L147.202 25.6013C149.522 25.6013 151.258 23.9276 151.836 21.1723L151.841 25.6013L156.153 25.597L156.147 16.7447L160.373 16.7404L160.379 25.5935L164.692 25.5892L164.684 16.7375L168 16.7332L167.996 13.5607L151.817 13.57ZM145.878 22.4317H144.549V17.0025H146.043C146.868 17.0025 147.369 17.9226 147.369 19.6778C147.453 21.5952 146.874 22.431 145.884 22.431" fill="white"/>
</svg>
