<svg width="19" height="19" viewBox="0 0 19 19" fill="none" xmlns="http://www.w3.org/2000/svg">
<path d="M14.913 10.0835C14.748 10.0835 14.5755 10.031 14.4105 9.99352C14.0763 9.91989 13.748 9.82213 13.428 9.70102C13.08 9.57444 12.6976 9.58102 12.3542 9.71947C12.0108 9.85793 11.7308 10.1185 11.568 10.451L11.403 10.7885C10.6725 10.3822 10.0012 9.87744 9.40796 9.28852C8.81904 8.69528 8.31433 8.02402 7.90796 7.29352L8.22296 7.08352C8.55549 6.92071 8.81605 6.64067 8.95451 6.29729C9.09297 5.95391 9.09954 5.57145 8.97296 5.22352C8.85388 4.90284 8.75616 4.57462 8.68046 4.24102C8.64296 4.07602 8.61296 3.90352 8.59046 3.73102C8.49938 3.20273 8.22268 2.72433 7.81018 2.38195C7.39768 2.03957 6.87648 1.85573 6.34046 1.86352H4.09046C3.76724 1.86048 3.44715 1.92713 3.15199 2.05892C2.85684 2.1907 2.59354 2.38454 2.38003 2.62723C2.16652 2.86992 2.00781 3.15576 1.9147 3.4653C1.82159 3.77485 1.79627 4.10081 1.84046 4.42102C2.24002 7.56306 3.67498 10.4824 5.9187 12.718C8.16242 14.9536 11.087 16.3779 14.2305 16.766H14.5155C15.0685 16.7668 15.6025 16.5639 16.0155 16.196C16.2527 15.9838 16.4423 15.7237 16.5716 15.4328C16.7008 15.1419 16.7669 14.8268 16.7655 14.5085V12.2585C16.7563 11.7376 16.5666 11.2359 16.2287 10.8393C15.8909 10.4426 15.4258 10.1755 14.913 10.0835ZM15.288 14.5835C15.2878 14.69 15.265 14.7952 15.221 14.8922C15.1771 14.9892 15.113 15.0757 15.033 15.146C14.9494 15.2188 14.8514 15.2731 14.7455 15.3054C14.6395 15.3377 14.5279 15.3473 14.418 15.3335C11.6091 14.9734 9.00014 13.6884 7.0025 11.6812C5.00486 9.67409 3.73227 7.05902 3.38546 4.24852C3.37352 4.13866 3.38399 4.02752 3.41621 3.92181C3.44844 3.81611 3.50176 3.71803 3.57296 3.63352C3.64324 3.55352 3.72976 3.4894 3.82675 3.44543C3.92373 3.40146 4.02897 3.37865 4.13546 3.37852H6.38546C6.55987 3.37464 6.73018 3.43168 6.86707 3.53982C7.00396 3.64797 7.09887 3.80045 7.13546 3.97102C7.16546 4.17602 7.20296 4.37852 7.24796 4.57852C7.3346 4.97388 7.44991 5.3624 7.59296 5.74102L6.54296 6.22852C6.45318 6.26971 6.37243 6.32823 6.30533 6.40072C6.23823 6.4732 6.18611 6.55823 6.15196 6.65092C6.11782 6.7436 6.10231 6.84212 6.10635 6.94081C6.11038 7.0395 6.13387 7.13643 6.17546 7.22602C7.25486 9.53809 9.1134 11.3966 11.4255 12.476C11.6081 12.551 11.8129 12.551 11.9955 12.476C12.089 12.4426 12.175 12.3909 12.2483 12.3239C12.3217 12.257 12.3811 12.1761 12.423 12.086L12.888 11.036C13.2757 11.1747 13.6714 11.2899 14.073 11.381C14.273 11.426 14.4755 11.4635 14.6805 11.4935C14.851 11.5301 15.0035 11.625 15.1117 11.7619C15.2198 11.8988 15.2768 12.0691 15.273 12.2435L15.288 14.5835Z" fill="black"/>
</svg>
