<svg width="19" height="19" viewBox="0 0 19 19" fill="none" xmlns="http://www.w3.org/2000/svg">
<path d="M12.333 1.8335H6.33301C5.73627 1.8335 5.16397 2.07055 4.74202 2.49251C4.32006 2.91446 4.08301 3.48676 4.08301 4.0835V14.5835C4.08301 15.1802 4.32006 15.7525 4.74202 16.1745C5.16397 16.5964 5.73627 16.8335 6.33301 16.8335H12.333C12.9297 16.8335 13.502 16.5964 13.924 16.1745C14.346 15.7525 14.583 15.1802 14.583 14.5835V4.0835C14.583 3.48676 14.346 2.91446 13.924 2.49251C13.502 2.07055 12.9297 1.8335 12.333 1.8335ZM13.083 14.5835C13.083 14.7824 13.004 14.9732 12.8633 15.1138C12.7227 15.2545 12.5319 15.3335 12.333 15.3335H6.33301C6.1341 15.3335 5.94333 15.2545 5.80268 15.1138C5.66203 14.9732 5.58301 14.7824 5.58301 14.5835V13.8335H13.083V14.5835ZM13.083 12.3335H5.58301V4.0835C5.58301 3.88458 5.66203 3.69382 5.80268 3.55317C5.94333 3.41251 6.1341 3.3335 6.33301 3.3335H12.333C12.5319 3.3335 12.7227 3.41251 12.8633 3.55317C13.004 3.69382 13.083 3.88458 13.083 4.0835V12.3335Z" fill="black"/>
</svg>
