<svg width="400" height="80" viewBox="0 0 400 80" fill="none" xmlns="http://www.w3.org/2000/svg">
<path d="M66.3887 20.6279C71.555 20.6279 76.5091 22.6427 80.1623 26.2289C83.8148 29.8152 85.8673 34.6792 85.8673 39.7509C85.8673 43.533 84.7246 47.2303 82.5844 50.375C80.4441 53.5198 77.4016 55.9708 73.8424 57.4182C70.2839 58.8656 66.367 59.2443 62.5886 58.5064C58.8101 57.7686 55.3394 55.9472 52.6153 53.2729C49.8912 50.5985 48.036 47.1911 47.2845 43.4816C46.5328 39.7721 46.9186 35.9271 48.3929 32.4328C49.8671 28.9386 52.3638 25.952 55.567 23.8508C58.7702 21.7494 62.5362 20.6279 66.3887 20.6279Z" fill="url(#paint0_linear)"/>
<path fill-rule="evenodd" clip-rule="evenodd" d="M66.3885 31.6987C68.2023 31.6987 69.8778 32.2771 71.236 33.2556C71.142 33.6289 71.0923 34.0198 71.0923 34.422C71.0923 36.598 72.55 38.4391 74.559 39.0561C74.579 39.2849 74.59 39.5169 74.59 39.7505C74.59 44.1977 70.9182 47.8022 66.3885 47.8022C61.8586 47.8022 58.187 44.1977 58.187 39.7505C58.187 35.3034 61.8586 31.6987 66.3885 31.6987Z" fill="#151616"/>
<path fill-rule="evenodd" clip-rule="evenodd" d="M88.8538 65.6211C102.504 57.9678 116.463 49.8945 132.11 39.526C106.377 21.1262 87.2745 9.36081 64.2972 9.65784C39.8089 11.3623 27.3594 36.9037 41.1934 54.8766C43.7687 55.985 46.5071 56.7987 49.3615 57.2734C43.1512 51.6587 39.4315 44.1638 42.5571 31.5929C45.901 21.602 51.8236 17.6714 60.1131 15.171C78.7156 11.7469 98.9146 22.5633 121.135 39.5851C115.511 43.3723 107.669 47.4988 99.4762 51.3505C97.2434 56.9748 93.5508 61.8817 88.8538 65.6211Z" fill="#1A55A5"/>
<path fill-rule="evenodd" clip-rule="evenodd" d="M43.923 13.8799C30.2732 21.5331 16.3139 29.6064 0.666992 39.9749C26.3998 58.3747 45.5022 70.1398 68.4797 69.8433C92.9678 68.1386 105.418 42.5972 91.5833 24.6243C89.0079 23.5159 86.27 22.7023 83.4155 22.2275C89.6255 27.8422 93.3457 35.3371 90.2196 47.9079C86.8759 57.8989 80.9533 61.8295 72.6638 64.3299C54.0614 67.754 33.8622 56.9376 11.6418 39.9158C17.2657 36.1286 25.1078 32.0021 33.301 28.1505C35.5333 22.5261 39.2258 17.6193 43.923 13.8799Z" fill="#D9D9DA"/>
<path fill-rule="evenodd" clip-rule="evenodd" d="M149.28 1.90674H185.427V11.0505H158.991V20.1255H182.221V29.2693H158.991V51.6443H149.28V1.90674Z" fill="#1A55A5"/>
<path fill-rule="evenodd" clip-rule="evenodd" d="M218.513 0.431641C225.666 0.431641 231.822 2.98033 236.967 8.06643C242.124 13.1525 244.697 19.3568 244.697 26.6687C244.697 33.9227 242.16 40.0584 237.074 45.0753C231.999 50.0922 225.831 52.606 218.583 52.606C210.983 52.606 204.675 50.0229 199.659 44.8677C194.63 39.7124 192.117 33.5886 192.117 26.496C192.117 21.7559 193.291 17.3848 195.629 13.3944C197.967 9.41588 201.185 6.25572 205.273 3.92593C209.373 1.59662 213.791 0.431641 218.513 0.431641ZM218.372 9.70388C213.708 9.70388 209.784 11.3069 206.613 14.5013C203.429 17.6963 201.843 21.7559 201.843 26.6918C201.843 32.1817 203.84 36.5293 207.846 39.7237C210.96 42.2268 214.519 43.4721 218.548 43.4721C223.094 43.4721 226.971 41.8459 230.166 38.6054C233.373 35.3644 234.971 31.374 234.971 26.6226C234.971 21.8943 233.361 17.8922 230.131 14.6167C226.912 11.3418 222.989 9.70388 218.372 9.70388Z" fill="#1A55A5"/>
<path fill-rule="evenodd" clip-rule="evenodd" d="M299.758 10.3956L293.003 16.6927C288.41 11.9413 283.253 9.56537 277.509 9.56537C272.669 9.56537 268.581 11.1915 265.268 14.4321C261.944 17.6731 260.287 21.6634 260.287 26.4148C260.287 29.7245 261.028 32.6657 262.496 35.2256C263.965 37.7974 266.043 39.8156 268.722 41.2803C271.412 42.745 274.396 43.4718 277.685 43.4718C280.481 43.4718 283.042 42.9644 285.356 41.9378C287.682 40.9113 290.231 39.0433 293.003 36.3445L299.547 43.0567C295.81 46.6431 292.275 49.1344 288.95 50.5181C285.626 51.9136 281.819 52.6055 277.556 52.6055C269.685 52.6055 263.236 50.1609 258.22 45.2594C253.204 40.3696 250.702 34.0843 250.702 26.4378C250.702 21.4789 251.842 17.0847 254.132 13.2328C256.411 9.38088 259.676 6.28999 263.941 3.94888C268.193 1.60778 272.775 0.431641 277.696 0.431641C281.866 0.431641 285.884 1.29619 289.761 3.0264C293.626 4.75606 296.962 7.21302 299.758 10.3956Z" fill="#1A55A5"/>
<path fill-rule="evenodd" clip-rule="evenodd" d="M307.237 0.436035H319.876V31.8832C319.876 34.7153 320.202 36.7208 320.845 37.8904C321.493 39.0689 322.549 40.0077 324.042 40.7111C325.531 41.4117 327.333 41.7615 329.423 41.7615C331.653 41.7615 333.558 41.3671 335.174 40.5815C336.785 39.798 337.893 38.8093 338.51 37.5952C339.123 36.3904 339.432 34.0781 339.432 30.6675V0.436035H352.07V30.744C352.07 35.866 351.702 39.4067 350.948 41.3892C350.195 43.3722 348.765 45.2839 346.643 47.1253C344.537 48.9662 342.093 50.3355 339.324 51.2204C336.573 52.1057 333.36 52.5541 329.7 52.5541C324.903 52.5541 320.722 51.7044 317.17 50.0167C313.603 48.3174 311.066 46.2048 309.528 43.6554C308.007 41.1059 307.237 36.81 307.237 30.744V0.436035Z" fill="#1A55A5"/>
<path fill-rule="evenodd" clip-rule="evenodd" d="M366.343 37.236C369.337 43.4082 373.654 44.2153 378.564 44.2153C382.039 44.2153 384.664 43.5157 386.426 42.1172C388.188 40.7186 389.075 39.0823 389.075 37.2097C389.075 36.0002 388.7 34.981 387.963 34.1276C387.226 33.2859 385.926 32.5509 384.076 31.9346C382.814 31.5079 379.94 30.7731 375.441 29.7059C369.655 28.331 365.592 26.6479 363.255 24.6446C359.969 21.8348 358.332 18.4092 358.332 14.3668C358.332 11.7708 359.106 9.32924 360.643 7.06573C362.193 4.80113 364.418 3.08287 367.33 1.89652C370.241 0.711279 373.741 0.118652 377.865 0.118652C384.576 0.118652 389.637 1.52942 393.024 4.36238C394.448 5.54866 395.587 6.89924 396.442 8.41635L389.213 14.4542C387.137 10.2521 381.883 8.65345 377.728 8.65345C374.603 8.65345 372.153 9.26973 370.392 10.5029C369.255 11.2968 368.68 12.3519 368.68 13.6794C368.68 14.8889 369.217 15.9197 370.291 16.7741C371.654 17.8756 374.966 19.0145 380.227 20.1992C385.489 21.3728 389.375 22.6055 391.887 23.8618C394.412 25.1303 396.386 26.8492 397.811 29.0421C399.235 31.2351 399.948 33.9379 399.948 37.1501C399.948 40.0663 399.098 42.8046 397.386 45.353C395.674 47.9016 393.262 49.7985 390.137 51.0311C387.013 52.2759 383.114 52.8923 378.452 52.8923C371.666 52.8923 366.455 51.4104 362.819 48.4352C361.452 47.3221 360.294 46.0157 359.343 44.5186L366.343 37.236Z" fill="#1A55A5"/>
<path fill-rule="evenodd" clip-rule="evenodd" d="M148.659 58.3184V61.9622H399.635V58.3184H148.659Z" fill="#1A55A5"/>
<path fill-rule="evenodd" clip-rule="evenodd" d="M148.659 67.2043H152.913C153.873 67.2043 154.604 67.2794 155.108 67.4325C155.783 67.6383 156.364 68.0061 156.845 68.535C157.329 69.0614 157.695 69.7076 157.947 70.4724C158.197 71.2359 158.324 72.18 158.324 73.2986C158.324 74.2848 158.206 75.131 157.969 75.8434C157.681 76.7152 157.27 77.4193 156.735 77.9572C156.331 78.3655 155.785 78.6834 155.1 78.9117C154.586 79.0814 153.9 79.1648 153.04 79.1648H148.659V67.2043ZM150.999 69.2255V77.1434H152.733C153.382 77.1434 153.849 77.1048 154.137 77.0296C154.516 76.9324 154.828 76.7655 155.076 76.531C155.326 76.2972 155.527 75.9131 155.683 75.3786C155.842 74.8441 155.92 74.1117 155.92 73.1876C155.92 72.2628 155.842 71.5559 155.683 71.06C155.527 70.5648 155.307 70.1807 155.024 69.9021C154.742 69.6262 154.385 69.4372 153.949 69.3393C153.626 69.2648 152.988 69.2255 152.042 69.2255H150.999ZM160.311 79.1648V67.2043H165.225C166.459 67.2043 167.357 67.3128 167.917 67.527C168.479 67.7415 168.925 68.1227 169.261 68.6716C169.598 69.2227 169.767 69.849 169.767 70.5565C169.767 71.4559 169.514 72.1965 169.006 72.7807C168.498 73.3655 167.739 73.7331 166.728 73.8862C167.231 74.1896 167.645 74.5241 167.97 74.8883C168.298 75.2531 168.74 75.9021 169.294 76.8324L170.703 79.1648H167.914L166.242 76.5538C165.641 75.6262 165.23 75.0414 165.007 74.7993C164.786 74.56 164.553 74.3931 164.305 74.3041C164.055 74.2145 163.662 74.1703 163.125 74.1703H162.651V79.1648H160.311ZM162.651 72.2662H164.378C165.496 72.2662 166.193 72.2159 166.473 72.1179C166.749 72.0207 166.97 71.851 167.126 71.6117C167.285 71.3724 167.362 71.0717 167.362 70.7124C167.362 70.3083 167.258 69.9855 167.051 69.7352C166.844 69.4876 166.551 69.331 166.175 69.2676C165.983 69.2393 165.415 69.2255 164.472 69.2255H162.651V72.2662ZM171.931 79.1648V76.8765H174.143V79.1648H171.931ZM176.447 67.2043H181.067C181.985 67.2043 182.665 67.2431 183.114 67.3211C183.565 67.402 183.966 67.5662 184.322 67.8137C184.677 68.0646 184.973 68.396 185.209 68.8106C185.446 69.2255 185.563 69.6931 185.563 70.2083C185.563 70.7655 185.419 71.28 185.128 71.7455C184.838 72.2124 184.443 72.5607 183.945 72.7952C184.647 73.009 185.185 73.371 185.563 73.8834C185.94 74.3959 186.128 74.9972 186.128 75.6903C186.128 76.2365 186.007 76.7655 185.763 77.28C185.518 77.7952 185.185 78.2076 184.76 78.5165C184.338 78.8227 183.816 79.0117 183.194 79.0841C182.807 79.1262 181.869 79.1538 180.381 79.1648H176.447V67.2043ZM178.787 69.1917V71.9483H180.314C181.221 71.9483 181.785 71.9345 182.006 71.9062C182.404 71.8593 182.719 71.7172 182.947 71.4807C183.176 71.2441 183.289 70.9345 183.289 70.5503C183.289 70.1807 183.189 69.8828 182.993 69.6517C182.796 69.4207 182.504 69.2807 182.117 69.2338C181.885 69.2062 181.221 69.1917 180.126 69.1917H178.787ZM178.787 73.9365V77.1434H180.949C181.788 77.1434 182.324 77.1186 182.549 77.0717C182.896 77.0048 183.178 76.8455 183.396 76.5924C183.614 76.3365 183.724 75.9993 183.724 75.5738C183.724 75.2117 183.641 74.9083 183.472 74.6572C183.305 74.4069 183.06 74.2227 182.743 74.109C182.425 73.9952 181.735 73.9365 180.672 73.9365H178.787ZM188.099 79.1648V67.2043H196.651V69.2255H190.44V71.8821H196.216V73.9027H190.44V77.1434H196.878V79.1648H188.099ZM204.235 74.771V72.7503H209.254V77.5221C208.767 78.0152 208.059 78.4469 207.132 78.8227C206.207 79.1959 205.268 79.3821 204.316 79.3821C203.109 79.3821 202.057 79.1207 201.159 78.5945C200.264 78.0676 199.588 77.3138 199.136 76.3365C198.684 75.3593 198.459 74.2931 198.459 73.1427C198.459 71.8952 198.711 70.7876 199.214 69.8159C199.72 68.8469 200.457 68.1005 201.428 67.5827C202.17 67.185 203.089 66.9868 204.192 66.9868C205.625 66.9868 206.747 67.2987 207.554 67.9227C208.358 68.549 208.877 69.4096 209.108 70.5117L206.785 70.9628C206.624 70.3752 206.317 69.9103 205.868 69.5676C205.422 69.2283 204.862 69.0586 204.19 69.0586C203.173 69.0586 202.364 69.3924 201.764 70.0634C201.164 70.7345 200.863 71.7283 200.863 73.0455C200.863 74.4683 201.167 75.5345 201.775 76.2448C202.385 76.9545 203.181 77.3103 204.168 77.3103C204.655 77.3103 205.145 77.2103 205.634 77.0131C206.126 76.8152 206.545 76.5731 206.897 76.289V74.771H204.235ZM211.333 79.1648V67.2043H213.672V79.1648H211.333ZM215.864 79.1648V67.2043H219.368L221.439 75.3621L223.485 67.2043H226.997V79.1648H224.836L224.827 69.749L222.55 79.1648H220.301L218.034 69.749L218.025 79.1648H215.864ZM229.337 67.2043H233.958C234.874 67.2043 235.555 67.2431 236.003 67.3211C236.456 67.402 236.857 67.5662 237.212 67.8137C237.567 68.0646 237.862 68.396 238.099 68.8106C238.336 69.2255 238.454 69.6931 238.454 70.2083C238.454 70.7655 238.309 71.28 238.019 71.7455C237.728 72.2124 237.333 72.5607 236.835 72.7952C237.537 73.009 238.075 73.371 238.454 73.8834C238.83 74.3959 239.018 74.9972 239.018 75.6903C239.018 76.2365 238.898 76.7655 238.653 77.28C238.409 77.7952 238.075 78.2076 237.65 78.5165C237.227 78.8227 236.706 79.0117 236.085 79.0841C235.697 79.1262 234.758 79.1538 233.272 79.1648H229.337V67.2043ZM231.677 69.1917V71.9483H233.205C234.111 71.9483 234.676 71.9345 234.896 71.9062C235.294 71.8593 235.609 71.7172 235.838 71.4807C236.066 71.2441 236.179 70.9345 236.179 70.5503C236.179 70.1807 236.079 69.8828 235.883 69.6517C235.686 69.4207 235.394 69.2807 235.006 69.2338C234.775 69.2062 234.111 69.1917 233.016 69.1917H231.677ZM231.677 73.9365V77.1434H233.84C234.678 77.1434 235.214 77.1186 235.439 77.0717C235.786 77.0048 236.068 76.8455 236.287 76.5924C236.504 76.3365 236.615 75.9993 236.615 75.5738C236.615 75.2117 236.531 74.9083 236.362 74.6572C236.195 74.4069 235.95 74.2227 235.632 74.109C235.316 73.9952 234.624 73.9365 233.562 73.9365H231.677ZM251.397 79.1648H248.877L247.88 76.4421H243.247L242.287 79.1648H239.813L244.298 67.2043H246.769L251.397 79.1648ZM247.122 74.4207L245.516 69.9938L243.956 74.4207H247.122ZM254.195 79.1648V74.1317L249.958 67.2043H252.693L255.426 71.94L258.086 67.2043H260.769L256.534 74.1476V79.1648H254.195ZM261.923 79.1648V67.2043H270.474V69.2255H264.263V71.8821H270.039V73.9027H264.263V77.1434H270.7V79.1648H261.923ZM275.641 79.1648L271.507 67.2043H274.036L276.97 76.0579L279.785 67.2043H282.27L278.161 79.1648H275.641ZM292.658 79.1648H290.139L289.141 76.4421H284.508L283.548 79.1648H281.073L285.559 67.2043H288.031L292.658 79.1648ZM288.383 74.4207L286.777 69.9938L285.218 74.4207H288.383ZM297.787 79.1648V67.2043H306.338V69.2255H300.127V71.8821H305.903V73.9027H300.127V77.1434H306.564V79.1648H297.787ZM311.583 79.1648V74.1317L307.347 67.2043H310.082L312.815 71.94L315.474 67.2043H318.158L313.923 74.1476V79.1648H311.583ZM319.312 79.1648V67.2043H327.863V69.2255H321.652V71.8821H327.428V73.9027H321.652V77.1434H328.089V79.1648H319.312ZM341.947 74.7552L344.206 75.4731C343.859 76.7896 343.281 77.7676 342.474 78.4076C341.668 79.0455 340.646 79.3655 339.406 79.3655C337.87 79.3655 336.609 78.8228 335.619 77.7372C334.632 76.651 334.137 75.1669 334.137 73.2821C334.137 71.291 334.635 69.7434 335.628 68.6406C336.62 67.5381 337.927 66.9868 339.545 66.9868C340.96 66.9868 342.108 67.4214 342.991 68.2875C343.518 68.7995 343.91 69.5345 344.174 70.4952L341.867 71.0634C341.729 70.4448 341.444 69.9545 341.011 69.5959C340.575 69.2365 340.049 69.0586 339.43 69.0586C338.572 69.0586 337.876 69.3759 337.344 70.0131C336.808 70.6483 336.542 71.6786 336.542 73.1041C336.542 74.6131 336.805 75.6903 337.33 76.331C337.857 76.9738 338.539 77.2945 339.381 77.2945C340.003 77.2945 340.538 77.091 340.984 76.6814C341.431 76.2724 341.753 75.6317 341.947 74.7552ZM346.21 79.1648V67.2043H354.761V69.2255H348.55V71.8821H354.326V73.9027H348.55V77.1434H354.987V79.1648H346.21ZM356.972 79.1648V67.2043H359.236L363.991 75.22V67.2043H366.153V79.1648H363.817L359.134 71.3027V79.1648H356.972ZM371.222 79.1648V69.2255H367.802V67.2043H376.966V69.2255H373.562V79.1648H371.222ZM378.481 79.1648V67.2043H387.033V69.2255H380.821V71.8821H386.597V73.9027H380.821V77.1434H387.259V79.1648H378.481ZM389.243 79.1648V67.2043H394.157C395.391 67.2043 396.289 67.3128 396.849 67.527C397.411 67.7415 397.858 68.1227 398.193 68.6716C398.53 69.2227 398.699 69.849 398.699 70.5565C398.699 71.4559 398.446 72.1965 397.938 72.7807C397.429 73.3655 396.671 73.7331 395.66 73.8862C396.163 74.1896 396.577 74.5241 396.903 74.8883C397.23 75.2531 397.672 75.9021 398.225 76.8324L399.635 79.1648H396.846L395.174 76.5538C394.573 75.6262 394.162 75.0414 393.939 74.7993C393.719 74.56 393.484 74.3931 393.237 74.3041C392.986 74.2145 392.595 74.1703 392.056 74.1703H391.583V79.1648H389.243ZM391.583 72.2662H393.31C394.428 72.2662 395.125 72.2159 395.404 72.1179C395.682 72.0207 395.902 71.851 396.058 71.6117C396.217 71.3724 396.295 71.0717 396.295 70.7124C396.295 70.3083 396.189 69.9855 395.983 69.7352C395.775 69.4876 395.483 69.331 395.106 69.2676C394.915 69.2393 394.347 69.2255 393.404 69.2255H391.583V72.2662Z" fill="#D9D9DA"/>
<defs>
<linearGradient id="paint0_linear" x1="46.9102" y1="20.6279" x2="85.8673" y2="20.6279" gradientUnits="userSpaceOnUse">
<stop stop-color="#D6D6D6"/>
<stop offset="0.05"/>
<stop offset="0.12" stop-color="white"/>
<stop offset="1" stop-color="white"/>
</linearGradient>
</defs>
</svg>
