<svg width="48" height="48" viewBox="0 0 48 48" fill="none" xmlns="http://www.w3.org/2000/svg">
<rect x="0.5" y="0.5" width="47" height="47" rx="23.5" stroke="white"/>
<path fill-rule="evenodd" clip-rule="evenodd" d="M23.7851 29.9536H24.9807C24.9807 29.9536 25.3418 29.9156 25.5263 29.7237C25.6963 29.5481 25.6908 29.2175 25.6908 29.2175C25.6908 29.2175 25.6671 27.6711 26.4118 27.4435C27.1456 27.2189 28.0881 28.9379 29.0871 29.599C29.8421 30.0993 30.4162 29.9899 30.4162 29.9899L33.0872 29.9536C33.0872 29.9536 34.4843 29.8705 33.8216 28.8115C33.7676 28.7249 33.4356 28.0281 31.8358 26.5963C30.1607 25.0979 30.3853 25.3401 32.4026 22.7482C33.631 21.1696 34.1226 20.206 33.9691 19.7929C33.8228 19.3997 32.9191 19.5038 32.9191 19.5038L29.9119 19.5214C29.9119 19.5214 29.6885 19.4921 29.5235 19.5875C29.362 19.6811 29.2582 19.8988 29.2582 19.8988C29.2582 19.8988 28.7818 21.1205 28.1476 22.159C26.8081 24.3513 26.2728 24.4672 26.0537 24.3309C25.5445 24.0137 25.672 23.0565 25.672 22.3766C25.672 20.2522 26.0064 19.3663 25.0208 19.137C24.6943 19.0609 24.4533 19.0106 23.617 19.0024C22.544 18.9919 21.636 19.0059 21.122 19.2487C20.7797 19.4102 20.5157 19.7701 20.6765 19.7905C20.8756 19.8163 21.3253 19.9076 21.5644 20.2206C21.8721 20.6249 21.8618 21.5329 21.8618 21.5329C21.8618 21.5329 22.0384 24.0336 21.4479 24.3437C21.0425 24.5573 20.4866 24.122 19.2928 22.1332C18.681 21.1146 18.2191 19.9883 18.2191 19.9883C18.2191 19.9883 18.1305 19.7783 17.9715 19.6653C17.7785 19.529 17.5097 19.4857 17.5097 19.4857L14.6517 19.5038C14.6517 19.5038 14.2226 19.5155 14.0654 19.6952C13.9252 19.8549 14.0539 20.1861 14.0539 20.1861C14.0539 20.1861 16.291 25.2319 18.8248 27.7747C21.1475 30.1069 23.7851 29.9536 23.7851 29.9536Z" fill="white"/>
</svg>
